<?xml version="1.0" encoding="utf-8"?>
<!-- Generator: Adobe Illustrator 28.0.0, SVG Export Plug-In . SVG Version: 6.00 Build 0)  -->
<svg version="1.1" id="Layer_1" xmlns="http://www.w3.org/2000/svg" xmlns:xlink="http://www.w3.org/1999/xlink" x="0px" y="0px"
	 viewBox="0 0 4219.6 3000.8" style="enable-background:new 0 0 4219.6 3000.8;" xml:space="preserve">
<g id="Jersey_00000002373416215645804630000012514993365454131900_">
	<path id="Inside_00000155132521179187836170000000396826686732168329_" style="fill:#F0F0F0;" d="M1463.4,285.7
		c-135.3,15.8-272,29.8-408.7,28.5c-127-0.7-255-14.7-381.5-29.5c0.1,1.3,0.3,2.2,0.6,3.3l0,0c66.8,181.4,222,411,391.7,498.9
		c1.5,0.7,4.9,2.4,6.4,3c169.6-87.1,292.2-271.8,375.4-444.8c9.1-20.7,19-39.5,23.1-60C1466.6,285.3,1463.4,285.7,1463.4,285.7z"/>
	<g id="Color_3">
		<path style="fill:#EABCDC;" d="M2368.3,1259L2368.3,1259c136-92.6,159.7-292.5,149.4-442.6c-6.5-179-27.3-338.8-65.7-470.4
			c-7.6,2.6-14.9,5.1-22.6,7.3c-1.4,0.4-4.9,1.2-5.7,2.7c50.2,204.5,76.5,422.2,57.8,633.2c-16.4,115.6-67.8,214-172.1,272.1
			c-2.1,1.4-3.4,3.8-3.1,6.3c0.4,5.9,1.2,17.2,2.1,27.7C2336.7,1284.3,2344.1,1275.8,2368.3,1259z"/>
		<path style="fill:#EABCDC;" d="M3987.7,1261.5c-161.5-86.9-187.9-276.9-177.2-443.8c4.9-155,23.7-312.2,62.9-461.5
			c-0.8-1.5-4.3-2.3-5.7-2.7c-7.7-2.2-15-4.8-22.6-7.3c-38.3,131.3-59.2,291.6-65.7,470.4c-12,183,22.8,394.9,209.5,479.1
			C3988.7,1284,3994.5,1265.9,3987.7,1261.5z"/>
		<path style="fill:#EABCDC;" d="M2844.2,252.2c23.3,6.4,47,10.3,71.1,13.8c91,12.1,183.8,7.8,274.6,8.4c86.8,0,176.4,0.6,262.5-22
			c59.9-16.3,42.2-7.8,88.9-33.4c-12.6-3.1-29.4-11.7-42.3-9.2c0,0-18.9,6.9-53.6,15.1c-4.7,1.2-9.2,2.4-13.9,3.5
			c-79.1,18.1-160.9,17.6-241.6,17.6c-88.7-0.5-185,3.6-272.7-8.3c-26-1.8-110.5-23.3-119.6-27.9c-13.6-2.4-30.7,6.4-43.9,9.7
			C2810.9,247.6,2778.3,233.7,2844.2,252.2z"/>
		<path style="fill:#EABCDC;" d="M652.9,319.8c87.1,198.4,223.2,408.1,418.7,503.6c174.7-83.9,300.4-263,388.3-437
			c22.9-48.7,46.8-92.2,50.5-145.4c-9.1-5.3-20.7-11.3-30.1-12.5c-6.2,43.5-10.1,65.1-25.3,98.3
			c-83.1,179.7-208.5,372.5-383.7,463.1c-1.5-0.6-4.9-2.3-6.4-3c-165.8-88.8-287-270.8-369.3-441.9c-9-19.9-17.1-37-21.8-57l0,0
			c-4.7-20.6-9.9-40.5-13.1-59.2c-9.1,1.4-19.9,6.8-28.5,11.8C634.1,272.9,641.1,290.1,652.9,319.8z M1477.8,288.8L1477.8,288.8
			L1477.8,288.8L1477.8,288.8L1477.8,288.8L1477.8,288.8z M680.7,330L680.7,330L680.7,330L680.7,330z M665.9,289.3L665.9,289.3
			L665.9,289.3L665.9,289.3L665.9,289.3L665.9,289.3L665.9,289.3z M665.8,289L665.8,289L665.8,289L665.8,289L665.8,289L665.8,289z"
			/>
		<path style="fill:#EABCDC;" d="M676.8,255.4c3.5,0.8,247.8,30.7,394.8,29.1c147.8,1.6,389.8-28.3,394.8-29.1
			c1.7-0.2,2.2-0.3,10.5-2.3c1.2-7.1,2.2-15.2,3.4-24.6c-20.6-5.5-228.5,28.7-398,27.7c-142.9,3-402.5-28.5-402.5-28.9
			c-2.6,0-5.1-0.2-7.8,0c-0.4,0-1,0.1-1.4,0.1c-3.2,0.3-6.7,0.6-9.9,1.4c1.3,7.1,2.9,15.2,4.9,24.3C674.2,255,675,255.2,676.8,255.4
			z"/>
		<path style="fill:#EABCDC;" d="M1914.5,1265.3c-321.4-107.2-177.7-702.3-120.3-898.1c2.2-5.5-6.3-5.9-9.6-7.7
			c-0.5-0.2-1-0.4-1.6-0.6l-15-5.7c-66,231.7-199.9,810.6,125,933.8c5.8,2.2,14,5.3,19.8,7.5c0.9-8.8,2.1-19.5,2.3-28.7
			C1914.9,1265.9,1914.7,1265.5,1914.5,1265.3z"/>
		<path style="fill:#EABCDC;" d="M243.1,1290c1.8-0.6,5.6-2,7.4-2.8c325-123.3,190.8-702.1,125-933.8c-5.4,2.3-17.3,6.4-22.5,8.5
			c37.5,175,161.9,640.6-15.5,835.1c-28.1,31-65.1,52.4-104.1,66.6c-1.7,0.9-4.3,0.7-4.9,2.7c0.2,9.2,1.4,19.9,2.3,28.7
			C233.2,1294.2,240.6,1291.2,243.1,1290z"/>
	</g>
	<g id="Color_2">
		<path style="fill:#BB3D25;" d="M2727.2,234.2c27.6,21.5,59.7,36.6,92.8,47.3c19.7,6.3,39.8,11.3,60.2,14.3
			c10,1.4,19.7,2.6,29.8,3.2c0.1,0,1.6,0.1,1.7,0.1c62.8,2.6,126.2,3.7,189.2,4.1l5.7,0.1c0.1,0,0.3,0,0.4,0c-0.3,0-0.7,0-0.9-0.1
			l0,0c67.2,0.3,136.6-0.1,203.7-1.6c25.8-0.8,51.5-1.4,77.1-2.6c30.9-2.1,61.4-8,90.8-17.6c33.3-11.2,66.1-26.3,93.5-48.6
			c1.8-5.2-25.4-12-29.8-14.1c-46.6,25.7-29.1,17-88.9,33.4c-86.1,22.6-175.7,21.9-262.6,22c-90.9-0.6-183.4,3.7-274.5-8.4
			c-24.7-3.5-47.4-7.4-72-14c-65.1-18.1-32.4-4.7-89.6-32.7c-4.9,1.4-15.6,5.5-20.4,7.4C2730.4,227.6,2722.1,230.5,2727.2,234.2z"/>
		<path style="fill:#BB3D25;" d="M2313.3,1329.5c0.2-0.1,0.4-0.1,0.6-0.2c4.4-2.1,9-4.3,13.4-6.6l0,0
			c53.1-31.7,101.9-72.8,138.6-122.7c125.8-191.1,74.9-485.3,47.2-705.3l0,0l0,0c-0.7-3.5-1.2-6.9-1.9-10.4l0,0
			c-0.4-2-0.7-4.1-1.1-6.1l0,0c-8.7-46-19.2-95.1-32.9-139.8c-0.1,0-0.2-0.1-0.3-0.1c-4.2-0.3-18.9,6.1-25,7.7
			c38.3,131.3,59.2,291.6,65.7,470.4c12,183-22.8,394.9-209.5,479.1c1.3,6.5,1.2,33.5,4.9,34
			C2313.3,1329.5,2313.3,1329.5,2313.3,1329.5z"/>
		<path style="fill:#BB3D25;" d="M3928.7,1259L3928.7,1259c-136-92.6-159.7-292.5-149.4-442.6c6.5-179,27.3-338.8,65.7-470.4
			c-6.1-1.6-20.8-8-25-7.7c-0.1,0-0.2,0.1-0.3,0.1c0,0-0.1,0.1-0.2,0.1c-0.1,0.1-0.2,0.1-0.2,0.2c-12.9,45.1-24,93.5-32.5,139.5l0,0
			c-0.4,2-0.7,4.1-1.1,6.1l0,0c-0.7,3.5-1.2,6.9-1.9,10.4l0,0l0,0c-28,221.1-82.8,541.7,61.9,724.4c0,0,0,0.1,0.1,0.1
			c11.2,13.3,22.6,25,35.5,37.1c0.1,0.1,0.3,0.3,0.4,0.4c0,0,0,0.1,0.1,0.1c26.8,24.8,56,47.7,87.8,66c4.4,2.4,9,4.3,13.4,6.6
			c0.2,0.1,0.4,0.1,0.6,0.2c0,0,0,0,0.1,0c3.7-0.4,3.6-27.6,4.9-34C3960.3,1284.6,3952.8,1275.6,3928.7,1259z"/>
		<path style="fill:#BB3D25;" d="M1082.4,284.5c-143.4,2.9-401.8-28.1-405.6-29.1c-1.8-0.2-2.6-0.4-11.2-2.4
			c2.1,9.5,4.5,20.1,7.5,31.9c264.7,37.4,532.4,36.9,796.8-0.2c-0.1,0.5-0.2,1-0.2,1.6c0-0.3,3.2-11.4,7-33.4
			C1463.2,256.9,1243.1,283.6,1082.4,284.5z"/>
		<path style="fill:#BB3D25;" d="M1900.1,1290c-1.8-0.6-5.6-2-7.4-2.8c-325-123.3-190.8-702.1-125-933.8c-4-0.6-23.9-11.5-27.2-8
			l0,0c-2.6,5.2-3.8,11.4-5.6,16.9c-3.1,11.2-7,24.2-9.9,35.4c-9.4,34.6-18,69.8-25.6,104.8l0,0l0,0
			c-43.9,208.8-81.4,516.9,41.9,702.9c0,0,0,0,0,0.1l0,0c0,0,0,0,0,0.1c16.4,24.2,35.6,46.6,58.1,65.4l0,0c2.5,2.1,5.4,4.6,8,6.6
			l0,0c29.1,23.1,63,41.5,98.6,52c0.2,0,0.6,0.1,0.9,0.1l0,0l0,0l0,0c0.6,0.3,1.3,0.1,1.3-0.6c2-11.3,2.7-23.1,3.7-34.5
			C1909.5,1293.7,1902.9,1291.2,1900.1,1290z"/>
		<path style="fill:#BB3D25;" d="M235.9,1329.8c0.3,0,0.6-0.1,0.8-0.1c35.6-10.8,69.5-28.9,98.6-52.1l0,0c2.4-2.1,5.6-4.6,8-6.7l0,0
			c193.3-165.5,147.9-544,100.2-768.5l0,0c-7.3-35.1-16.2-70.2-25.5-104.8c-2.9-11.2-6.8-24.2-9.9-35.4c-1.8-5.5-2.9-11.7-5.6-16.9
			l0,0c-3.2-3.5-23.4,7.4-27.2,8c66,231.7,199.9,810.6-125,933.8c-5.8,2.2-14,5.3-19.8,7.5c1,11.4,1.8,23.2,3.7,34.5
			C234.1,1330.1,235.4,1329.6,235.9,1329.8z"/>
		<path style="fill:#BB3D25;" d="M606.1,260.8c0.1,0.9,0.1,1.5,0.2,1.6c7.6,48.2,30.4,92.9,51.4,136.4
			C754.1,587.2,879,763,1065.7,852c0.1-0.1,5.7,2.9,5.8,2.9l0,0c0.1,0,5.6-3,5.8-2.9c191.2-91.2,318.5-274.3,415.1-467.5
			c18.3-39.4,38.4-79.9,44.4-123.3c2.1-8.4-20.4-15.5-26.4-20.2c-3.6,53.2-27.6,96.7-50.5,145.4c-88,173.9-213.6,353.2-388.3,437
			c-175.2-84.1-301.1-264.1-389.1-438.6c-22.8-48.6-46.4-90.4-49.6-143.9c-6.3,4.6-26.3,11.2-26.6,18.9
			C606.1,260,606.1,260.4,606.1,260.8z"/>
	</g>
	<g id="Color_1_00000026865007635053321360000015726106073855848580_">
		<path style="fill:#F4F4F4;" d="M3884.9,1259.8c-1-1-2-1.9-3-2.8c0,0,0-0.1-0.1-0.1c-0.2-0.2-0.3-0.3-0.3-0.3
			c-0.1,0-0.1-0.1-0.1-0.1c-189.2-168.7-127-530.5-97.5-761.5l0,0l0,0c0.7-3.5,1.2-6.9,1.9-10.4l0,0c0.4-2,0.7-4.1,1.1-6.1l0,0
			c8.6-46,19.4-94.8,32.7-139.7l0,0c0.2-0.1,0.3-0.2,0.5-0.3c-48.2-20.6-196.3-83.5-249-105.9c-26.7,22.9-60.4,37.6-93.6,49
			c-29.4,9.6-59.9,15.6-90.8,17.6c-25.6,1.2-51.3,1.8-77.1,2.6c-67,1.5-136.4,1.8-203.5,1.5l0,0c0.2,0.1,0.6,0.1,0.9,0.1
			c-0.1,0-0.3,0-0.4,0l-5.7-0.1c-63-0.4-126.4-1.5-189.2-4.1c-0.1,0-1.6-0.1-1.7-0.1c-10.1-0.6-19.8-1.8-29.8-3.2
			c-20.4-3.1-40.6-7.9-60.1-14.3c0,0,0,0-0.1,0c-33.6-11.1-66.7-26.1-94.2-48.7c-52.4,22.2-199.9,84.8-248.8,105.6
			c0.1,0,0.2,0.1,0.3,0.1c13.7,44.7,24.1,93.8,32.9,139.8l0,0c0.4,2,0.7,4.1,1.1,6.1l0,0c0.7,3.5,1.2,6.9,1.9,10.4l0,0l0,0
			c27.7,219.7,78.6,514.5-47.2,705.3c-36.7,49.9-85.5,91-138.6,122.7l0,0c-4.4,2.4-9,4.3-13.4,6.6c-0.2,0.1-0.4,0.1-0.6,0.2
			c0,0,0,0-0.1,0l0,0c22.9,245.7,64.7,996.4,0.7,1377c-2,14,11.9,19.7,23.5,21.4c23.1,6,50,11.3,74.1,15v-0.3
			c12.2,1.9,24,3.5,35.5,4.8v0.1c9.2,1.1,18,1.9,26.7,2.6v0.2c687.1,44.5,1344.3,0,1344.3,0c1.9-0.1,3.8-0.3,5.6-0.4h-0.3
			c30.8-2.4,61.7-6.9,92.6-12.7c15.3-3,30-6.2,44-9.7c11.7-1.7,26-7.2,23.9-21.5c-64.5-381.9-23.1-1122.8,0.4-1376.4
			c-0.3,0-0.6,0.1-0.8-0.1C3946.8,1312.8,3914.8,1286.6,3884.9,1259.8z"/>
		<path id="Color_1_00000052089461139073069050000017386692907897164691_" style="fill:#F4F4F4;" d="M1742.3,2752.5L1742.3,2752.5
			c9.9-0.7,20.1-1.7,30.5-2.8c11.5-1.3,23.4-2.8,35.6-4.7c24.2-3.6,50.7-9.1,74-14.9c11.6-1.8,25.5-7.1,23.5-21.4
			c-65.1-368.6-19.7-1177.8,1.5-1378.9l0,0l0,0l0,0c-0.1,0-0.1,0,0,0c-0.4,0-0.7-0.1-0.9-0.1c-39-11.6-75.7-32.3-106.7-58.6l0,0
			c-22.4-18.9-41.9-41.1-58.1-65.5l0,0c0,0,0,0,0-0.1c-123.3-185.9-85.8-493.9-41.9-702.9l0,0l0,0c7.6-35,16.2-70.2,25.6-104.8
			c2.9-11.2,6.8-24.2,9.9-35.4c1.8-5.5,2.9-11.7,5.6-16.9l0,0c-35.6-15.2-136-57.2-203.7-86.5c-5.7,49.6-30.4,95.4-51.5,139.9
			c-96.4,188.4-221.3,364.2-408,453.2c-0.1-0.1-5.7,2.9-5.8,2.9l0,0c-0.1,0-5.6-3-5.8-2.9c-186.7-89.1-311.6-264.8-408-453.2
			c-21.1-44.5-45.8-90.5-51.5-140c-67.8,29.2-168.1,71.2-203.7,86.5c2.6,5.2,3.8,11.4,5.6,16.9c3.1,11.2,7,24.2,9.9,35.4
			c9.3,34.6,18.2,69.7,25.5,104.8l0,0c47.5,225.7,94,601.2-100,768.5l0,0c-2.5,2.2-5.5,4.6-8,6.7l0,0
			c-29.1,23.2-63.1,41.3-98.6,52.1c-0.2,0-0.6,0.1-0.9,0.1c0,0,0,0-0.1,0c21.3,203.9,67.3,1010.5,1.8,1381.2
			c-1.9,13.9,13.3,16.9,23.8,19.1c23.1,5.9,50,11.2,74,14.9v-0.3v0.2c12.2,1.9,24.1,3.5,35.6,4.7c10.5,1.2,20.6,2.1,30.5,2.8
			C402,2752.5,1040,2797,1742.3,2752.5z"/>
	</g>
</g>
</svg>
