<?xml version="1.0" encoding="utf-8"?>
<!-- Generator: Adobe Illustrator 28.0.0, SVG Export Plug-In . SVG Version: 6.00 Build 0)  -->
<svg version="1.1" id="Layer_1" xmlns="http://www.w3.org/2000/svg" xmlns:xlink="http://www.w3.org/1999/xlink" x="0px" y="0px"
	 viewBox="0 0 4432.5 2311.5" style="enable-background:new 0 0 4432.5 2311.5;" xml:space="preserve">
<g id="Shorts_00000120541126081286217430000013983874477917552256_">
	<g id="Color_3_00000178168965753630587730000012218454261845078926_">
		<path style="fill:#EABCDC;" d="M4223.1,1962c-173,36.3-695.7,118.8-952.4,112.5c0.8,17.8,1.4,28.9,1.4,28.9
			c386.2,1.7,952.3-112.4,952.3-112.4C4224,1981.3,4223.6,1971.6,4223.1,1962z"/>
		<path style="fill:#EABCDC;" d="M3205.5,2074.5c-254.4,6.4-780.2-76.6-950.7-112.5c-0.5,9.7-0.9,19.4-1.4,29.1
			c0,0,568.7,114.1,955,112.4c0,0,0.4-11.2,0.9-29C3207.3,2074.5,3206,2074.5,3205.5,2074.5z"/>
		<path style="fill:#EABCDC;" d="M1148.9,2074.5c-251.7,5.4-775.2-77.2-942.5-112.5c-0.5,9.6-0.9,19.3-1.3,29
			c0,0,566.1,114.1,952.3,112.4c0,0,0.6-11.2,1.4-28.9C1155.3,2074.5,1152.3,2074.5,1148.9,2074.5z"/>
		<path style="fill:#EABCDC;" d="M2174.7,1962c-173.9,36.5-697.3,119.1-954.6,112.5c0.5,17.8,0.9,29,0.9,29
			c386.3,1.7,955-112.4,955-112.4C2175.6,1981.3,2175.2,1971.6,2174.7,1962z"/>
	</g>
	<g id="Color_2_00000072254388535784224360000017501864272444701619_">
		<g>
			<path style="fill:#BB3D25;" d="M3280.6,2074.5c251.7,5.4,775.2-77.2,942.5-112.5c-0.5-9.7-0.9-19.4-1.4-29
				c-175.7,36.4-693.3,119-952.4,112.7c0.5,10.8,0.9,20.6,1.3,28.9C3274.2,2074.6,3277.3,2074.5,3280.6,2074.5z"/>
			<path style="fill:#BB3D25;" d="M3205.3,2045.6c-256.4,6.1-776.3-76.8-949.2-112.7c-0.5,9.6-1,19.3-1.4,29
				c173.9,36.5,697.3,119.1,954.6,112.5c0.2-8.3,0.5-18.1,0.8-28.9C3208.6,2045.5,3206.3,2045.5,3205.3,2045.6z"/>
			<path style="fill:#BB3D25;" d="M1156.9,2045.6c-256.4,6.1-776.3-76.8-949.2-112.7c-0.5,9.6-1,19.3-1.4,29
				c173,36.3,695.7,118.8,952.4,112.5c0.4-8.3,0.8-18.1,1.3-28.9C1158.9,2045.5,1157.4,2045.6,1156.9,2045.6z"/>
			<path style="fill:#BB3D25;" d="M1224,2074.5c254.4,6.4,780.2-76.6,950.7-112.5c-0.5-9.7-0.9-19.4-1.4-29
				c-176.3,36.5-694.4,119.2-954,112.7c0.3,10.8,0.5,20.6,0.8,28.9C1222.2,2074.5,1223.5,2074.5,1224,2074.5z"/>
		</g>
		<g id="Color_2_00000137831376067979490650000001291586616864401288_">
			<path style="fill:#BB3D25;" d="M2700.4,358.8c33,0.8,66,1.4,99,1.9v-0.1c390.2,3.3,778.6,6.2,1168.8-7.4
				c1.3-23.7,6.4-139.1-14.7-145.2c-385.2,11.8-768.9,10.2-1154.1,6.5v0.1c-91.2-1.5-181.3-3.6-273.1-6.5
				c-23.9,2.5-17.3,122.3-16.7,144.8C2575.5,356.4,2636.2,357.2,2700.4,358.8z"/>
			<path style="fill:#BB3D25;" d="M476.1,354.1c59.3,1.9,118.2,3.6,175.9,4.8c20.3,0.4,40.5,0.8,60.6,1.1
				c305.8,4,611.7,4.2,917.6,0.6v0.1c97.5-2,191.1-3,289.5-7.5c2.7-45.9,2.5-92.6-7.1-137.5c-1-4.5-5.1-7.6-9.6-7.4
				c-91.8,2.9-181.9,5-273.1,6.5v-0.1c-305.9,3.6-611.9,3.4-917.6-0.6c-20.1-0.3-40.3-0.7-60.6-1.1c-57.8-1.2-116.7-2.9-176.1-4.8
				c-3.6,0-6.7,2.6-7.3,6c-9.4,42.4-10.3,94.3-7.1,139.2C469.8,353.8,475.4,354.1,476.1,354.1z"/>
		</g>
	</g>
	<g id="Color_1_00000145043890888937509120000011999787632044632509_">
		<path style="fill:#F4F4F4;" d="M3272.7,2045.6c256.4,6.1,776.3-76.8,949.2-112.7c-57.7-1149-253.5-1579.7-253.5-1579.7
			c-390.2,13.6-778.6,10.7-1168.8,7.4v0.1c-97.5-2-191.1-3-289.5-7.5l0,0c0,0-195.8,430.6-253.6,1579.7
			c176.3,36.5,694.4,119.2,954,112.7c4.7-187-1.2-377.6,21.3-563.7c3.5-7.5,14.9-5,14.8,3.6c15.8,140.1,18.7,281.4,19.8,422.2
			l0.9-0.3l-1.1,0.4c0,19.8,0.4,41.8,1,63.8l0,0c0.7,26.1,1.7,52,2.6,74C3270.8,2045.6,3272.2,2045.6,3272.7,2045.6z"/>
		<path style="fill:#F4F4F4;" d="M461.6,353.2c0,0-195.8,430.6-253.5,1579.7c175.7,36.4,693.3,119,952.4,112.7
			c0.9-21.9,1.9-47.9,2.6-74l0,0c0.6-22,1-44,1-63.8l-1.1-0.4l0.9,0.3c1.1-140.8,4-282.1,19.8-422.2c0-8.1,10.8-11.6,14.8-3.6
			c22.5,186.1,16.7,376.7,21.3,563.7c257.9,6.6,779-76.4,953.7-112.7c-57.8-1149.1-253.6-1579.7-253.6-1579.7
			c-98.4,4.5-192,5.5-289.5,7.5v-0.1c-305.9,3.6-611.8,3.4-917.6-0.6c-20.1-0.3-40.3-0.7-60.6-1.1
			C588.7,357.3,527,356.4,461.6,353.2z"/>
	</g>
</g>
</svg>
