<?xml version="1.0" encoding="utf-8"?>
<!-- Generator: Adobe Illustrator 28.0.0, SVG Export Plug-In . SVG Version: 6.00 Build 0)  -->
<svg version="1.1" id="Layer_1" xmlns="http://www.w3.org/2000/svg" xmlns:xlink="http://www.w3.org/1999/xlink" x="0px" y="0px"
	 viewBox="0 0 4399.5 5113.9" style="enable-background:new 0 0 4399.5 5113.9;" xml:space="preserve">
<g id="Jersey_00000002373416215645804630000012514993365454131900_">
	<path id="Inside_00000155132521179187836170000000396826686732168329_" style="fill:#F0F0F0;" d="M1567.9,285.7
		c-135.3,15.8-272,29.8-408.7,28.5c-127-0.7-255-14.7-381.5-29.5c0.1,1.3,0.3,2.2,0.6,3.3l0,0c66.8,181.4,222,411,391.7,498.9
		c1.5,0.7,4.9,2.4,6.4,3c169.6-87.1,292.2-271.8,375.4-444.8c9.1-20.7,19-39.5,23.1-60C1571.1,285.3,1567.9,285.7,1567.9,285.7z"/>
	<g id="Color_3">
		<path style="fill:#EABCDC;" d="M2472.8,1259L2472.8,1259c136-92.6,159.7-292.5,149.4-442.6c-6.5-179-27.3-338.8-65.7-470.4
			c-7.6,2.6-14.9,5.1-22.6,7.3c-1.4,0.4-4.9,1.2-5.7,2.7c50.2,204.5,76.5,422.2,57.8,633.2c-16.4,115.6-67.8,214-172.1,272.1
			c-2.1,1.4-3.4,3.8-3.1,6.3c0.4,5.9,1.2,17.2,2.1,27.7C2441.2,1284.3,2448.6,1275.8,2472.8,1259z"/>
		<path style="fill:#EABCDC;" d="M4092.2,1261.5c-161.5-86.9-187.9-276.9-177.2-443.8c4.9-155,23.7-312.2,62.9-461.5
			c-0.8-1.5-4.3-2.3-5.7-2.7c-7.7-2.2-15-4.8-22.6-7.3c-38.3,131.3-59.2,291.6-65.7,470.4c-12,183,22.8,394.9,209.5,479.1
			C4093.2,1284,4099,1265.9,4092.2,1261.5z"/>
		<path style="fill:#EABCDC;" d="M2948.7,252.2c23.3,6.4,47,10.3,71.1,13.8c91,12.1,183.8,7.8,274.6,8.4c86.8,0,176.4,0.6,262.5-22
			c59.9-16.3,42.2-7.8,88.9-33.4c-12.6-3.1-29.4-11.7-42.3-9.2c0,0-18.9,6.9-53.6,15.1c-4.7,1.2-9.2,2.4-13.9,3.5
			c-79.1,18.1-160.9,17.6-241.6,17.6c-88.7-0.5-185,3.6-272.7-8.3c-26-1.8-110.5-23.3-119.6-27.9c-13.6-2.4-30.7,6.4-43.9,9.7
			C2915.4,247.6,2882.8,233.7,2948.7,252.2z"/>
		<path style="fill:#EABCDC;" d="M757.4,319.8c87.1,198.4,223.2,408.1,418.7,503.6c174.7-83.9,300.4-263,388.3-437
			c22.9-48.7,46.8-92.2,50.5-145.4c-9.1-5.3-20.7-11.3-30.1-12.5c-6.2,43.5-10.1,65.1-25.3,98.3
			c-83.1,179.7-208.5,372.5-383.7,463.1c-1.5-0.6-4.9-2.3-6.4-3c-165.8-88.8-287-270.8-369.3-441.9c-9-19.9-17.1-37-21.8-57l0,0
			c-4.7-20.6-9.9-40.5-13.1-59.2c-9.1,1.4-19.9,6.8-28.5,11.8C738.6,272.9,745.6,290.1,757.4,319.8z M1582.3,288.8L1582.3,288.8
			L1582.3,288.8L1582.3,288.8L1582.3,288.8L1582.3,288.8z M785.2,330L785.2,330L785.2,330L785.2,330z M770.4,289.3L770.4,289.3
			L770.4,289.3L770.4,289.3L770.4,289.3L770.4,289.3L770.4,289.3z M770.3,289L770.3,289L770.3,289L770.3,289L770.3,289L770.3,289z"
			/>
		<path style="fill:#EABCDC;" d="M781.3,255.4c3.5,0.8,247.8,30.7,394.8,29.1c147.8,1.6,389.8-28.3,394.8-29.1
			c1.7-0.2,2.2-0.3,10.5-2.3c1.2-7.1,2.2-15.2,3.4-24.6c-20.6-5.5-228.5,28.7-398,27.7c-142.9,3-402.5-28.5-402.5-28.9
			c-2.6,0-5.1-0.2-7.8,0c-0.4,0-1,0.1-1.4,0.1c-3.2,0.3-6.7,0.6-9.9,1.4c1.3,7.1,2.9,15.2,4.9,24.3
			C778.7,255,779.5,255.2,781.3,255.4z"/>
		<path style="fill:#EABCDC;" d="M2019,1265.3c-321.4-107.2-177.7-702.3-120.3-898.1c2.2-5.5-6.3-5.9-9.6-7.7
			c-0.5-0.2-1-0.4-1.6-0.6l-15-5.7c-66,231.7-199.9,810.6,125,933.8c5.8,2.2,14,5.3,19.8,7.5c0.9-8.8,2.1-19.5,2.3-28.7
			C2019.4,1265.9,2019.2,1265.5,2019,1265.3z"/>
		<path style="fill:#EABCDC;" d="M347.6,1290c1.8-0.6,5.6-2,7.4-2.8c325-123.3,190.8-702.1,125-933.8c-5.4,2.3-17.3,6.4-22.5,8.5
			c37.5,175,161.9,640.6-15.5,835.1c-28.1,31-65.1,52.4-104.1,66.6c-1.7,0.9-4.3,0.7-4.9,2.7c0.2,9.2,1.4,19.9,2.3,28.7
			C337.7,1294.2,345.1,1291.2,347.6,1290z"/>
	</g>
	<g id="Color_2">
		<path style="fill:#BB3D25;" d="M2831.7,234.2c27.6,21.5,59.7,36.6,92.8,47.3c19.7,6.3,39.8,11.3,60.2,14.3
			c10,1.4,19.7,2.6,29.8,3.2c0.1,0,1.6,0.1,1.7,0.1c62.8,2.6,126.2,3.7,189.2,4.1l5.7,0.1c0.1,0,0.3,0,0.4,0c-0.3,0-0.7,0-0.9-0.1
			l0,0c67.2,0.3,136.6-0.1,203.7-1.6c25.8-0.8,51.5-1.4,77.1-2.6c30.9-2.1,61.4-8,90.8-17.6c33.3-11.2,66.1-26.3,93.5-48.6
			c1.8-5.2-25.4-12-29.8-14.1c-46.6,25.7-29.1,17-88.9,33.4c-86.1,22.6-175.7,21.9-262.6,22c-90.9-0.6-183.4,3.7-274.5-8.4
			c-24.7-3.5-47.4-7.4-72-14c-65.1-18.1-32.4-4.7-89.6-32.7c-4.9,1.4-15.6,5.5-20.4,7.4C2834.9,227.6,2826.6,230.5,2831.7,234.2z"/>
		<path style="fill:#BB3D25;" d="M2417.8,1329.5c0.2-0.1,0.4-0.1,0.6-0.2c4.4-2.1,9-4.3,13.4-6.6l0,0
			c53.1-31.7,101.9-72.8,138.6-122.7c125.8-191.1,74.9-485.3,47.2-705.3l0,0l0,0c-0.7-3.5-1.2-6.9-1.9-10.4l0,0
			c-0.4-2-0.7-4.1-1.1-6.1l0,0c-8.7-46-19.2-95.1-32.9-139.8c-0.1,0-0.2-0.1-0.3-0.1c-4.2-0.3-18.9,6.1-25,7.7
			c38.3,131.3,59.2,291.6,65.7,470.4c12,183-22.8,394.9-209.5,479.1c1.3,6.5,1.2,33.5,4.9,34
			C2417.8,1329.5,2417.8,1329.5,2417.8,1329.5z"/>
		<path style="fill:#BB3D25;" d="M4033.2,1259L4033.2,1259c-136-92.6-159.7-292.5-149.4-442.6c6.5-179,27.3-338.8,65.7-470.4
			c-6.1-1.6-20.8-8-25-7.7c-0.1,0-0.2,0.1-0.3,0.1c0,0-0.1,0.1-0.2,0.1c-0.1,0.1-0.2,0.1-0.2,0.2c-12.9,45.1-24,93.5-32.5,139.5l0,0
			c-0.4,2-0.7,4.1-1.1,6.1l0,0c-0.7,3.5-1.2,6.9-1.9,10.4l0,0l0,0c-28,221.1-82.8,541.7,61.9,724.4c0,0,0,0.1,0.1,0.1
			c11.2,13.3,22.6,25,35.5,37.1c0.1,0.1,0.3,0.3,0.4,0.4c0,0,0,0.1,0.1,0.1c26.8,24.8,56,47.7,87.8,66c4.4,2.4,9,4.3,13.4,6.6
			c0.2,0.1,0.4,0.1,0.6,0.2c0,0,0,0,0.1,0c3.7-0.4,3.6-27.6,4.9-34C4064.8,1284.6,4057.3,1275.6,4033.2,1259z"/>
		<path style="fill:#BB3D25;" d="M1186.9,284.5c-143.4,2.9-401.8-28.1-405.6-29.1c-1.8-0.2-2.6-0.4-11.2-2.4
			c2.1,9.5,4.5,20.1,7.5,31.9c264.7,37.4,532.4,36.9,796.8-0.2c-0.1,0.5-0.2,1-0.2,1.6c0-0.3,3.2-11.4,7-33.4
			C1567.7,256.9,1347.6,283.6,1186.9,284.5z"/>
		<path style="fill:#BB3D25;" d="M2004.6,1290c-1.8-0.6-5.6-2-7.4-2.8c-325-123.3-190.8-702.1-125-933.8c-4-0.6-23.9-11.5-27.2-8
			l0,0c-2.6,5.2-3.8,11.4-5.6,16.9c-3.1,11.2-7,24.2-9.9,35.4c-9.4,34.6-18,69.8-25.6,104.8l0,0l0,0
			c-43.9,208.8-81.4,516.9,41.9,702.9c0,0,0,0,0,0.1l0,0c0,0,0,0,0,0.1c16.4,24.2,35.6,46.6,58.1,65.4l0,0c2.5,2.1,5.4,4.6,8,6.6
			l0,0c29.1,23.1,63,41.5,98.6,52c0.2,0,0.6,0.1,0.9,0.1l0,0l0,0l0,0c0.6,0.3,1.3,0.1,1.3-0.6c2-11.3,2.7-23.1,3.7-34.5
			C2014,1293.7,2007.4,1291.2,2004.6,1290z"/>
		<path style="fill:#BB3D25;" d="M340.4,1329.8c0.3,0,0.6-0.1,0.8-0.1c35.6-10.8,69.5-28.9,98.6-52.1l0,0c2.4-2.1,5.6-4.6,8-6.7l0,0
			c193.3-165.5,147.9-544,100.2-768.5l0,0c-7.3-35.1-16.2-70.2-25.5-104.8c-2.9-11.2-6.8-24.2-9.9-35.4c-1.8-5.5-2.9-11.7-5.6-16.9
			l0,0c-3.2-3.5-23.4,7.4-27.2,8c66,231.7,199.9,810.6-125,933.8c-5.8,2.2-14,5.3-19.8,7.5c1,11.4,1.8,23.2,3.7,34.5
			C338.6,1330.1,339.9,1329.6,340.4,1329.8z"/>
		<path style="fill:#BB3D25;" d="M710.6,260.8c0.1,0.9,0.1,1.5,0.2,1.6c7.6,48.2,30.4,92.9,51.4,136.4
			c96.4,188.4,221.3,364.2,408,453.2c0.1-0.1,5.7,2.9,5.8,2.9l0,0c0.1,0,5.6-3,5.8-2.9c191.2-91.2,318.5-274.3,415.1-467.5
			c18.3-39.4,38.4-79.9,44.4-123.3c2.1-8.4-20.4-15.5-26.4-20.2c-3.6,53.2-27.6,96.7-50.5,145.4c-88,173.9-213.6,353.2-388.3,437
			C1000.9,739.3,875,559.3,787,384.8c-22.8-48.6-46.4-90.4-49.6-143.9c-6.3,4.6-26.3,11.2-26.6,18.9
			C710.6,260,710.6,260.4,710.6,260.8z"/>
	</g>
	<g id="Color_1_00000026865007635053321360000015726106073855848580_">
		<path style="fill:#F4F4F4;" d="M3989.4,1259.8c-1-1-2-1.9-3-2.8c0,0,0-0.1-0.1-0.1c-0.2-0.2-0.3-0.3-0.3-0.3
			c-0.1,0-0.1-0.1-0.1-0.1c-189.2-168.7-127-530.5-97.5-761.5l0,0l0,0c0.7-3.5,1.2-6.9,1.9-10.4l0,0c0.4-2,0.7-4.1,1.1-6.1l0,0
			c8.6-46,19.4-94.8,32.7-139.7l0,0c0.2-0.1,0.3-0.2,0.5-0.3c-48.2-20.6-196.3-83.5-249-105.9c-26.7,22.9-60.4,37.6-93.6,49
			c-29.4,9.6-59.9,15.6-90.8,17.6c-25.6,1.2-51.3,1.8-77.1,2.6c-67,1.5-136.4,1.8-203.5,1.5l0,0c0.2,0.1,0.6,0.1,0.9,0.1
			c-0.1,0-0.3,0-0.4,0l-5.7-0.1c-63-0.4-126.4-1.5-189.2-4.1c-0.1,0-1.6-0.1-1.7-0.1c-10.1-0.6-19.8-1.8-29.8-3.2
			c-20.4-3.1-40.6-7.9-60.1-14.3c0,0,0,0-0.1,0c-33.6-11.1-66.7-26.1-94.2-48.7c-52.4,22.2-199.9,84.8-248.8,105.6
			c0.1,0,0.2,0.1,0.3,0.1c13.7,44.7,24.1,93.8,32.9,139.8l0,0c0.4,2,0.7,4.1,1.1,6.1l0,0c0.7,3.5,1.2,6.9,1.9,10.4l0,0l0,0
			c27.7,219.7,78.6,514.5-47.2,705.3c-36.7,49.9-85.5,91-138.6,122.7l0,0c-4.4,2.4-9,4.3-13.4,6.6c-0.2,0.1-0.4,0.1-0.6,0.2
			c0,0,0,0-0.1,0l0,0c22.9,245.7,64.7,996.4,0.7,1377c-2,14,11.9,19.7,23.5,21.4c23.1,6,50,11.3,74.1,15v-0.3
			c12.2,1.9,24,3.5,35.5,4.8v0.1c9.2,1.1,18,1.9,26.7,2.6v0.2c687.1,44.5,1344.3,0,1344.3,0c1.9-0.1,3.8-0.3,5.6-0.4h-0.3
			c30.8-2.4,61.7-6.9,92.6-12.7c15.3-3,30-6.2,44-9.7c11.7-1.7,26-7.2,23.9-21.5c-64.5-381.9-23.1-1122.8,0.4-1376.4
			c-0.3,0-0.6,0.1-0.8-0.1C4051.3,1312.8,4019.3,1286.6,3989.4,1259.8z"/>
		<path id="Color_1_00000052089461139073069050000017386692907897164691_" style="fill:#F4F4F4;" d="M1846.8,2752.5L1846.8,2752.5
			c9.9-0.7,20.1-1.7,30.5-2.8c11.5-1.3,23.4-2.8,35.6-4.7c24.2-3.6,50.7-9.1,74-14.9c11.6-1.8,25.5-7.1,23.5-21.4
			c-65.1-368.6-19.7-1177.8,1.5-1378.9l0,0l0,0l0,0c-0.1,0-0.1,0,0,0c-0.4,0-0.7-0.1-0.9-0.1c-39-11.6-75.7-32.3-106.7-58.6l0,0
			c-22.4-18.9-41.9-41.1-58.1-65.5l0,0c0,0,0,0,0-0.1c-123.3-185.9-85.8-493.9-41.9-702.9l0,0l0,0c7.6-35,16.2-70.2,25.6-104.8
			c2.9-11.2,6.8-24.2,9.9-35.4c1.8-5.5,2.9-11.7,5.6-16.9l0,0c-35.6-15.2-136-57.2-203.7-86.5c-5.7,49.6-30.4,95.4-51.5,139.9
			c-96.4,188.4-221.3,364.2-408,453.2c-0.1-0.1-5.7,2.9-5.8,2.9l0,0c-0.1,0-5.6-3-5.8-2.9C983.9,763,859,587.3,762.6,398.9
			c-21.1-44.5-45.8-90.5-51.5-140c-67.8,29.2-168.1,71.2-203.7,86.5c2.6,5.2,3.8,11.4,5.6,16.9c3.1,11.2,7,24.2,9.9,35.4
			c9.3,34.6,18.2,69.7,25.5,104.8l0,0c47.5,225.7,94,601.2-100,768.5l0,0c-2.5,2.2-5.5,4.6-8,6.7l0,0
			c-29.1,23.2-63.1,41.3-98.6,52.1c-0.2,0-0.6,0.1-0.9,0.1c0,0,0,0-0.1,0c21.3,203.9,67.3,1010.5,1.8,1381.2
			c-1.9,13.9,13.3,16.9,23.8,19.1c23.1,5.9,50,11.2,74,14.9v-0.3v0.2c12.2,1.9,24.1,3.5,35.6,4.7c10.5,1.2,20.6,2.1,30.5,2.8
			C506.5,2752.5,1144.5,2797,1846.8,2752.5z"/>
	</g>
</g>
<g id="Shorts_00000120541126081286217430000013983874477917552256_">
	<g id="Color_3_00000178168965753630587730000012218454261845078926_">
		<path style="fill:#EABCDC;" d="M4223.1,4675.4c-173,36.3-695.7,118.8-952.4,112.5c0.8,17.8,1.4,28.9,1.4,28.9
			c386.2,1.7,952.3-112.4,952.3-112.4C4224,4694.7,4223.6,4685,4223.1,4675.4z"/>
		<path style="fill:#EABCDC;" d="M3205.5,4787.9c-254.4,6.4-780.2-76.6-950.7-112.5c-0.5,9.7-0.9,19.4-1.4,29.1
			c0,0,568.7,114.1,955,112.4c0,0,0.4-11.2,0.9-29C3207.3,4787.9,3206,4787.9,3205.5,4787.9z"/>
		<path style="fill:#EABCDC;" d="M1148.9,4787.9c-251.7,5.4-775.2-77.2-942.5-112.5c-0.5,9.6-0.9,19.3-1.3,29
			c0,0,566.1,114.1,952.3,112.4c0,0,0.6-11.2,1.4-28.9C1155.3,4787.9,1152.3,4787.9,1148.9,4787.9z"/>
		<path style="fill:#EABCDC;" d="M2174.7,4675.4c-173.9,36.5-697.3,119.1-954.6,112.5c0.5,17.8,0.9,29,0.9,29
			c386.3,1.7,955-112.4,955-112.4C2175.6,4694.7,2175.2,4685,2174.7,4675.4z"/>
	</g>
	<g id="Color_2_00000072254388535784224360000017501864272444701619_">
		<g>
			<path style="fill:#BB3D25;" d="M3280.6,4787.9c251.7,5.4,775.2-77.2,942.5-112.5c-0.5-9.7-0.9-19.4-1.4-29
				c-175.7,36.4-693.3,119-952.4,112.7c0.5,10.8,0.9,20.6,1.3,28.9C3274.2,4788,3277.3,4787.9,3280.6,4787.9z"/>
			<path style="fill:#BB3D25;" d="M3205.3,4759c-256.4,6.1-776.3-76.8-949.2-112.7c-0.5,9.6-1,19.3-1.4,29
				c173.9,36.5,697.3,119.1,954.6,112.5c0.2-8.3,0.5-18.1,0.8-28.9C3208.6,4758.9,3206.3,4758.9,3205.3,4759z"/>
			<path style="fill:#BB3D25;" d="M1156.9,4759c-256.4,6.1-776.3-76.8-949.2-112.7c-0.5,9.6-1,19.3-1.4,29
				c173,36.3,695.7,118.8,952.4,112.5c0.4-8.3,0.8-18.1,1.3-28.9C1158.9,4758.9,1157.4,4759,1156.9,4759z"/>
			<path style="fill:#BB3D25;" d="M1224,4787.9c254.4,6.4,780.2-76.6,950.7-112.5c-0.5-9.7-0.9-19.4-1.4-29
				c-176.3,36.5-694.4,119.2-954,112.7c0.3,10.8,0.5,20.6,0.8,28.9C1222.2,4787.9,1223.5,4787.9,1224,4787.9z"/>
		</g>
		<g id="Color_2_00000137831376067979490650000001291586616864401288_">
			<path style="fill:#BB3D25;" d="M2700.4,3072.2c33,0.8,66,1.4,99,1.9v-0.1c390.2,3.3,778.6,6.2,1168.8-7.4
				c1.3-23.7,6.4-139.1-14.7-145.2c-385.2,11.8-768.9,10.2-1154.1,6.5v0.1c-91.2-1.5-181.3-3.6-273.1-6.5
				c-23.9,2.5-17.3,122.3-16.7,144.8C2575.5,3069.8,2636.2,3070.6,2700.4,3072.2z"/>
			<path style="fill:#BB3D25;" d="M476.1,3067.5c59.3,1.9,118.2,3.6,175.9,4.8c20.3,0.4,40.5,0.8,60.6,1.1
				c305.8,4,611.7,4.2,917.6,0.6v0.1c97.5-2,191.1-3,289.5-7.5c2.7-45.9,2.5-92.6-7.1-137.5c-1-4.5-5.1-7.6-9.6-7.4
				c-91.8,2.9-181.9,5-273.1,6.5v-0.1c-305.9,3.6-611.9,3.4-917.6-0.6c-20.1-0.3-40.3-0.7-60.6-1.1c-57.8-1.2-116.7-2.9-176.1-4.8
				c-3.6,0-6.7,2.6-7.3,6c-9.4,42.4-10.3,94.3-7.1,139.2C469.8,3067.2,475.4,3067.5,476.1,3067.5z"/>
		</g>
	</g>
	<g id="Color_1_00000145043890888937509120000011999787632044632509_">
		<path style="fill:#F4F4F4;" d="M3272.7,4759c256.4,6.1,776.3-76.8,949.2-112.7c-57.7-1149-253.5-1579.7-253.5-1579.7
			c-390.2,13.6-778.6,10.7-1168.8,7.4v0.1c-97.5-2-191.1-3-289.5-7.5l0,0c0,0-195.8,430.6-253.6,1579.7
			c176.3,36.5,694.4,119.2,954,112.7c4.7-187-1.2-377.6,21.3-563.7c3.5-7.5,14.9-5,14.8,3.6c15.8,140.1,18.7,281.4,19.8,422.2
			l0.9-0.3l-1.1,0.4c0,19.8,0.4,41.8,1,63.8l0,0c0.7,26.1,1.7,52,2.6,74C3270.8,4759,3272.2,4759,3272.7,4759z"/>
		<path style="fill:#F4F4F4;" d="M461.6,3066.6c0,0-195.8,430.6-253.5,1579.7c175.7,36.4,693.3,119,952.4,112.7
			c0.9-21.9,1.9-47.9,2.6-74l0,0c0.6-22,1-44,1-63.8l-1.1-0.4l0.9,0.3c1.1-140.8,4-282.1,19.8-422.2c0-8.1,10.8-11.6,14.8-3.6
			c22.5,186.1,16.7,376.7,21.3,563.7c257.9,6.6,779-76.4,953.7-112.7c-57.8-1149.1-253.6-1579.7-253.6-1579.7
			c-98.4,4.5-192,5.5-289.5,7.5v-0.1c-305.9,3.6-611.8,3.4-917.6-0.6c-20.1-0.3-40.3-0.7-60.6-1.1
			C588.7,3070.7,527,3069.8,461.6,3066.6z"/>
	</g>
</g>
</svg>
