<?xml version="1.0" encoding="utf-8"?>
<!-- Generator: Adobe Illustrator 28.0.0, SVG Export Plug-In . SVG Version: 6.00 Build 0)  -->
<svg version="1.1" id="Layer_1" xmlns="http://www.w3.org/2000/svg" xmlns:xlink="http://www.w3.org/1999/xlink" x="0px" y="0px"
	 viewBox="0 0 4414.7 4982.7" style="enable-background:new 0 0 4414.7 4982.7;" xml:space="preserve">
<g id="Jersey">
	<g id="Color_3">
		<path style="fill:#F4F4F4;" d="M1548.6,303.4c5.5-13,10.6-25.9,15.2-38.4c0.1-0.3,0.2-0.7,0.3-1c-5.3,14.3-11.1,28.9-17.5,43.9
			C1547.2,306.3,1547.9,304.9,1548.6,303.4z"/>
		<path style="fill:#F4F4F4;" d="M796.8,323.7c0.2,0.4,0.4,0.8,0.6,1.2c-10.4-23.2-19.5-45.8-27.1-67.5v0.1c7.3,21,16,42.8,26,65.1
			L796.8,323.7z"/>
		<path style="fill:#F4F4F4;" d="M770.1,256.8L770.1,256.8c0,0.1,0,0.1,0,0.2C770.1,256.9,770.1,256.8,770.1,256.8L770.1,256.8z"/>
		<path style="fill:#F4F4F4;" d="M1565.9,257c-0.1,0.3-0.1,0.4-0.2,0.4l-0.1,0.5l-0.1,0.4c-0.3,1.2-0.6,2.5-0.9,3.7
			c-0.2,0.7-0.4,1.3-0.5,2c0.2-0.6,0.4-1.2,0.6-1.8c-0.1,0.3-0.2,0.6-0.3,0.9c0.7-1.9,1.3-3.7,2-5.6l-0.6-0.1
			C1565.8,257.3,1565.8,257.2,1565.9,257z"/>
		<path style="fill:#F4F4F4;" d="M1546.5,307.8c-0.3,0.7-0.7,1.5-1,2.2c-0.9,1.9-1.7,3.8-2.6,5.6l-0.4,0.8l-2.1,4.5l-1.2,2.6
			l-2.7,5.6l-2.2,4.6l-1.5,3.2l-1.6,3.3l-1.7,3.4c-0.3,0.6-0.6,1.2-0.9,1.8s-0.5,1.1-0.8,1.7c-2.8,5.7-5.5,10.9-8.1,15.7l-0.2,0.4
			c-19.8,38.5-41.1,75.5-65.4,113c-38.1,59.1-78.7,111.6-120.7,156c-47.1,49.8-96.4,89.7-146.5,118.6l-16.6,8.3l-2.3,1l-2.3-1
			l-3.9-1.9l-12.8-6.4c-50.1-28.9-99.4-68.8-146.6-118.6c-2.5-2.7-5-5.3-7.5-8.1c52.8,57.2,109.9,104.7,167,133.7
			c1.5,0.8,4.8,2.4,6.3,3c154.3-74.3,305-281.8,378.7-453.6c-0.5,1-1,2-1.4,3C1545.8,309.4,1546.2,308.6,1546.5,307.8z"/>
		<path style="fill:#F4F4F4;" d="M816.4,363.3l-0.1-0.4c-2.7-5.2-5.4-10.6-8.1-15.9c-1.9-3.8-3.7-7.3-5.4-10.8l-2.5-5.1
			c-0.3-0.6-0.5-1.1-0.8-1.7c-0.3-0.5-0.5-1.1-0.8-1.7c-0.5-1.1-1-2.1-1.5-3.1c-0.1-0.2-0.2-0.4-0.3-0.6
			c45.2,100.7,116.2,211.4,197.3,299.4c-38.9-42.2-76.7-91.7-112.5-147.2C857.5,438.7,836.1,401.8,816.4,363.3z"/>
		<path style="fill:#F4F4F4;" d="M1564.1,264c-0.1,0.3-0.2,0.7-0.3,1c0.2-0.6,0.5-1.2,0.7-1.9c0.1-0.3,0.2-0.6,0.3-0.9
			C1564.5,262.8,1564.3,263.4,1564.1,264z"/>
		<path style="fill:#F4F4F4;" d="M1546.5,307.8c-0.3,0.8-0.7,1.6-1,2.4c0.5-1,1-2,1.4-3c0.5-1.3,1.1-2.5,1.6-3.8
			C1547.9,304.9,1547.2,306.3,1546.5,307.8z"/>
		<path style="fill:#F4F4F4;" d="M770.1,256.8L770.1,256.8c0-0.1,0-0.2-0.1-0.3c0,0,0,0-0.1,0C770,256.6,770,256.7,770.1,256.8
			L770.1,256.8L770.1,256.8z"/>
		<path style="fill:#F4F4F4;" d="M1565.9,257.4c0-0.3,0-0.6,0.1-0.9c-0.1,0.2-0.1,0.4-0.1,0.5c0,0.2-0.1,0.3-0.1,0.5l0.6,0.1v-0.1
			L1565.9,257.4z"/>
		<path style="fill:#F4F4F4;" d="M858,546.2l-291.6,76.3l0.1,0.8c0.2,1.8,0.5,3.6,0.7,5.4l0.8,5.6c0.2,1.9,0.5,3.8,0.7,5.7l0.7,5.7
			c0.2,2,0.5,3.9,0.7,5.8l0.7,5.7c0.3,1.9,0.5,3.9,0.7,5.8c0,0.6,0.1,1.1,0.2,1.6l312.7-81.8C875.5,570.9,866.7,558.7,858,546.2z"/>
		<path style="fill:#F4F4F4;" d="M884.4,582.8l0.3-0.1c-8.9-11.9-17.7-24.1-26.4-36.6l-0.3,0.1C866.7,558.7,875.5,570.9,884.4,582.8
			z"/>
		<path style="fill:#F4F4F4;" d="M766.4,394.2L536,454.4c2.9,13.5,6,27.5,8.7,41.1l242.2-63.3C779.8,419.7,773,407,766.4,394.2z"/>
		<path style="fill:#F4F4F4;" d="M786.8,432.2l0.4-0.1c-6.8-11.9-13.6-24.6-20.5-38l-0.3,0.1C773,407,779.8,419.7,786.8,432.2z"/>
		<polygon style="fill:#F4F4F4;" points="536,454.4 766.4,394.2 766.4,394.2 		"/>
		<polygon style="fill:#F4F4F4;" points="766.7,394.1 766.4,394.2 766.4,394.2 		"/>
		<path style="fill:#F4F4F4;" d="M1453.2,581.7l313,81.9c1.5-13.9,3.4-28,5.2-41.9l-292-76.4C1470.8,557.7,1462,569.9,1453.2,581.7z
			"/>
		<path style="fill:#F4F4F4;" d="M1453.2,581.7c8.8-11.8,17.6-23.9,26.3-36.4l-0.3-0.1c-8.6,12.4-17.4,24.5-26.2,36.4L1453.2,581.7z
			"/>
		<path style="fill:#F4F4F4;" d="M1766.2,663.6l-313-81.9c-0.1,0.1-0.1,0.2-0.2,0.2l313.1,82
			C1766.1,663.8,1766.1,663.7,1766.2,663.6z"/>
		<path style="fill:#F4F4F4;" d="M1452.9,581.6c8.8-11.8,17.6-23.9,26.2-36.4h-0.1c-8.7,12.5-17.5,24.7-26.4,36.6l0.4,0.1
			c0.1-0.1,0.1-0.2,0.2-0.2L1452.9,581.6z"/>
		<path style="fill:#F4F4F4;" d="M1550.6,431.1l242.6,63.5c2.8-13.5,5.8-27.4,8.7-40.9l-231.1-60.4
			C1564.3,406.1,1557.5,418.6,1550.6,431.1z"/>
		<path style="fill:#F4F4F4;" d="M1550.6,431.1c6.9-12.5,13.7-25,20.3-37.8l-0.4-0.1c-1.1,2-2.1,4-3.2,6
			c-5.6,10.7-11.3,21.2-17.1,31.8L1550.6,431.1z"/>
		<path style="fill:#F4F4F4;" d="M1793.2,494.6l-242.6-63.5c0,0.1-0.1,0.1-0.1,0.2l242.7,63.5V494.6z"/>
		<path style="fill:#F4F4F4;" d="M1550.2,431c5.8-10.5,11.5-21.1,17.1-31.8c-5.7,10.7-11.4,21.3-17.3,32l0.5,0.1
			c0-0.1,0.1-0.1,0.1-0.2L1550.2,431z"/>
	</g>
	<g id="Color_2">
		<path style="fill:#1E223C;" d="M756.9,200.1l0.1,0.1c3.6,19.6,7.3,35.6,12.4,56.3h0.5c-0.1-0.2-0.2-0.5-0.2-0.7
			c264.8,37,532.5,37,797,0c0,0.5-0.1,1.1-0.2,1.6c0,0,0,0,0,0.1h0.4c1.4-4.7,3.5-13.6,6.9-32.6c2.1-8.6,2.8-17.6,4.1-25.8
			c-16.8-5.3-262.7,31.9-420.5,27.8c-174.7,1-373.3-33.6-400.6-27.3C756.9,199.7,756.9,200,756.9,200.1z M757.5,199.6l-0.3,0.1
			C757.3,199.6,757.4,199.6,757.5,199.6z"/>
		<path style="fill:#1E223C;" d="M1214.9,802.6c-2.6,1.3-33.8,16.9-39.5,19.7C1181.9,819.1,1214.9,802.6,1214.9,802.6L1214.9,802.6z
			"/>
		<polygon style="fill:#1E223C;" points="1174.6,822.7 1174.5,822.7 1174.3,822.8 1174.4,822.8 		"/>
		<path style="fill:#1E223C;" d="M1479.6,545.1l-0.3-0.1c-0.1,0.1-0.1,0.2-0.2,0.2l0.3,0.1C1479.5,545.2,1479.5,545.1,1479.6,545.1z
			"/>
		<path style="fill:#1E223C;" d="M1310.9,734.9L1310.9,734.9l0.2,0.2l0.1-0.1L1310.9,734.9z"/>
		<path style="fill:#1E223C;" d="M1633.1,226.8c0.2,0.3,0.5,0.6,0.6,1c0.2,0.6,0.4,1.1,0.5,1.7h0.1c-0.1-0.6-0.3-1.1-0.5-1.6
			C1633.7,227.5,1633.4,227.2,1633.1,226.8c-0.2-0.3-0.6-0.7-1.1-1.1C1632.4,226.1,1632.8,226.4,1633.1,226.8z"/>
		<path style="fill:#1E223C;" d="M1570.9,393.3c0-0.1,0.1-0.2,0.1-0.3l-0.4-0.1c-1.1,2.1-2.2,4.2-3.3,6.3c1.1-2,2.1-4,3.2-6
			L1570.9,393.3z"/>
		<path style="fill:#1E223C;" d="M703,233.2c12.8,70.8,51.3,136.1,84.2,198.9l-0.4,0.1v0.1l0.3-0.1c2.9,5.2,5.8,10.3,8.6,15.3
			l-0.3,0.1l0,0l0.3-0.1c29,50.1,55.5,90.5,88.8,135.2l-0.3,0.1l0,0l0.4-0.1c43.3,57.2,89.3,108.5,142.4,153.1h-0.1
			c44.4,37.5,83.7,62.8,135.3,87c0.2-0.1,5.7,2.9,5.8,2.9l0.4-0.2l0.1,0.1l0.2-0.1l-0.1-0.1c0.1,0,5.3-2.8,5.4-2.7
			c191.3-91.2,318.5-274.3,415.1-467.5c18.3-40,39.7-81.3,44.4-125.6c-1.2-7-20-13.5-26-17.8v-0.1c-3.1-1.9-6.4-3.5-9.6-5.4
			c-6.1-3.5-12.9-5.9-20.1-7.3c-1.2,8.3-2.2,16.7-3.9,25.7h-0.1v0.1l-0.1,0.1c-3.4,19.1-5.6,27.7-6.9,32.6h-0.1v0.1h-0.5
			C1497,448.2,1337.4,677,1168,760.9C987.3,667.1,837.9,443.5,769.9,257l0,0c0,0,0-0.1-0.1-0.2c-0.1,0-0.4,0-0.5,0l-0.1-0.3l0,0
			c-5.3-20.7-8.6-37.2-12.7-56.8l0.1-0.1v-0.2l0.2-0.1c-13.8,2.7-24.3,10.5-36.6,16.9c-5.3,3.9-16.5,6.6-17.7,13.6l0,0h0.1
			C702.7,230.9,702.9,232.1,703,233.2z"/>
		<path style="fill:#1E223C;" d="M1542,446.4l-0.4-0.1c-0.1,0.1-0.1,0.2-0.2,0.3l0.4,0.1C1541.8,446.6,1541.9,446.5,1542,446.4z"/>
		<path style="fill:#1E223C;" d="M1555,288.3l-0.2,0.6c-0.1,0.3-0.8,1.9-1.8,4.3c-0.5,1.2-1.1,2.6-1.8,4.2c-0.9,2-1.7,4-2.6,6
			c-0.5,1.3-1.1,2.5-1.6,3.8c1.5-3.2,3-6.4,4.4-9.6c0.7-1.6,1.3-3.1,1.8-4.2c1-2.3,1.8-4,1.8-4.3l0.2-0.6c3.5-8.1,6.9-16.6,9.3-25.4
			c-0.2,0.6-0.4,1.2-0.7,1.9C1561.4,273,1558.2,280.8,1555,288.3z"/>
		<path style="fill:#1E223C;" d="M756.9,200.1c0-0.1,0-0.1,0-0.2l-0.1-0.3l-0.1,0.1L756.9,200.1z"/>
		<path style="fill:#1E223C;" d="M769.8,256.5h-0.4l0.1,0.3h0.4c0.1,0,0.1,0,0.1,0C770,256.7,769.9,256.6,769.8,256.5
			C769.9,256.5,769.9,256.5,769.8,256.5z"/>
		<path style="fill:#1E223C;" d="M1573.9,224.9l0.1-0.1v-0.1L1573.9,224.9C1573.9,224.8,1573.9,224.8,1573.9,224.9z"/>
		<path style="fill:#1E223C;" d="M1566.4,257.6h0.5v-0.1h-0.4C1566.5,257.5,1566.5,257.5,1566.4,257.6z"/>
		<path style="fill:#1E223C;" d="M3916.5,304.8c-0.3,0-0.6,0.1-0.8,0.3c-49.8-21.3-174.6-74.2-247.6-105.3
			c0.4-5.3-25.9-12.2-30.9-14.3l-0.3,0.2c-13.8-3.1-28.7-11.7-42.3-8.9c-11,5.3-92.4,25.7-119.3,27.9
			c-81.3,11.3-148.7,7.1-231.1,8.7c-81.9-1.6-150.6,2.5-231.1-8.7c-26.9-1.9-109.3-23.1-119.5-27.9c-14-2.5-29.4,6-43.4,9.4
			l-0.5-0.3c-3.6,1.9-31.5,9-29.2,14.5c-51.6,21.9-196.9,83.5-247.6,105.1c0,0,0,0-0.1,0c-0.2-0.2-0.5-0.3-0.8-0.3l-0.7,0.5
			c0.1,0.1,0.2,0.1,0.3,0.2c0.1,0,0.2,0.1,0.3,0.1c40.4,145.4,55.7,297.5,66.8,448.5h1211.2c10.8-150.9,23.4-301.7,66.3-448
			c0.1,0,0.1-0.1,0.2-0.1c0.2-0.2,0.5-0.3,0.7-0.4L3916.5,304.8z"/>
		<path style="fill:#1E223C;" d="M847.7,531.3L564,605.6c0.7,5.1,1.7,11.8,2.4,16.9L858,546.2C854.5,541.3,851.1,536.3,847.7,531.3z
			"/>
		<path style="fill:#1E223C;" d="M858,546.2l0.3-0.1c-3.4-4.9-6.8-9.9-10.2-14.9l-0.4,0.1C851.1,536.3,854.5,541.3,858,546.2z"/>
		<path style="fill:#1E223C;" d="M572.1,668.8c6.8,61,10.3,122.3,9.2,183.7l445.4-116.6c-53-44.8-98.7-95.4-142.3-153.1l-312.7,81.8
			C571.9,665.8,571.9,667.6,572.1,668.8z"/>
		<path style="fill:#1E223C;" d="M1026.7,735.9l0.4-0.1l0,0h0.1c-22.8-19.1-45.1-40.2-66.9-63.3c-25.8-27.3-51-57.3-75.5-89.8
			l-0.4,0.1c24.6,32.8,49.9,62.9,75.7,90C981.8,695.8,1004,716.8,1026.7,735.9z"/>
		<path style="fill:#1E223C;" d="M499.1,315.8c2,4.1,3.1,9,4.4,13.2c3,10.4,6.6,22.7,9.4,33.1c8.2,30.5,16.1,61.5,23.1,92.3
			l230.4-60.2c-13.3-26.1-27.6-54.3-38.6-80.6c-10.8-27.3-23.5-55.7-25.1-83.8c-58.4,25.2-148,62.7-202.9,86.2
			c-0.3-0.4-0.7-0.6-1.2-0.8C498.8,315.4,499,315.6,499.1,315.8z"/>
		<path style="fill:#1E223C;" d="M702.7,230.5c-0.2,0.4-0.2,0.8-0.2,1.3c0,0.3,0.1,0.6,0.1,0.8c0,0.4,0.1,0.7,0.1,0.9
			c2.9,23.1,11.4,45.9,20.6,69.1c1.5,3.7,3,7.4,4.5,11l1.4,3.3c0.2,0.4,0.4,0.9,0.5,1.3c0.2,0.4,0.4,0.9,0.6,1.3
			c4.9,11.4,10.4,23.2,16.7,36.1c1,2.1,2.1,4.2,3.1,6.3c1.1,2.1,2.1,4.3,3.2,6.4c0.1,0.2,0.3,0.5,0.4,0.7c0.1,0.3,0.3,0.6,0.4,0.8
			c2.5,5.1,5.2,10.3,7.8,15.5c0,0.2,0,0.4,0.2,0.6c0.4,0.7,0.7,1.4,1.1,2.2c0.4,0.7,0.7,1.4,1.1,2.1c0.7,1.3,1.4,2.7,2.1,4l0.3-0.1
			c-0.7-1.3-1.4-2.7-2.1-4.1c-0.7-1.5-1.5-2.9-2.2-4.3c-0.1-0.1-0.1-0.3-0.1-0.5c-2.6-5.2-5.3-10.4-7.9-15.6
			c-0.3-0.5-0.5-1.1-0.8-1.6c-2.1-4.2-4.2-8.5-6.3-12.7c-5.8-11.9-11.5-23.9-16.7-36.1c-0.4-0.9-0.7-1.7-1.1-2.6
			c-2-4.7-4-9.5-5.9-14.3c-8.8-22-17.7-45.5-20.6-69.1c-0.1-1.1-0.3-2.3-0.2-3.4h-0.1c0,0.1,0,0.2,0,0.4
			C702.7,230.3,702.7,230.4,702.7,230.5z"/>
		<path style="fill:#1E223C;" d="M786.9,432.3l-242.2,63.3c1.1,5.3,2.4,11.3,3.3,16.7l247.5-64.8
			C792.6,442.5,789.7,437.4,786.9,432.3z"/>
		<path style="fill:#1E223C;" d="M795.8,447.5c-2.8-5-5.7-10.1-8.6-15.3l-0.3,0.1c2.9,5.1,5.7,10.2,8.7,15.3L795.8,447.5z"/>
		<path style="fill:#1E223C;" d="M1791.7,502.1c0.5-2.3,1.1-4.9,1.5-7.3l-242.7-63.5c-2.8,5-5.6,10.1-8.5,15.1l247.9,64.9
			C1790.4,508.8,1791.2,504.6,1791.7,502.1z"/>
		<path style="fill:#1E223C;" d="M1756.4,848.5c-1.2-61.7,3-123.3,9.7-184.6l-313.1-82c-43.3,57.5-89.1,108.3-141.9,153.1
			l445.3,116.5C1756.4,850.5,1756.4,849.5,1756.4,848.5z"/>
		<path style="fill:#1E223C;" d="M1772.8,612c0.2-1.3,0.9-6,1-7.2l-284.2-74.4c-3.3,4.9-6.7,9.8-10,14.7l291.9,76.4
			C1771.8,619.3,1772.5,614.3,1772.8,612z"/>
		<path style="fill:#1E223C;" d="M1634.2,230.5c-7.9,57.7-38.6,111.1-63.2,162.5l231,60.4c6.8-30.4,14.7-61,22.8-91.1
			c2.8-10.3,6.4-22.8,9.4-33.1c1.3-3.3,2.8-12.5,5.6-14.2c-0.9,0-1.8,0.3-2.4,0.8c-59-25.1-141.2-59.3-203.1-86.3
			C1634.3,229.7,1634.7,231,1634.2,230.5z"/>
		<path style="fill:#1E223C;" d="M1629.6,224.1l0.1,0.1c0.8,0.4,1.6,0.9,2.3,1.5C1631.3,225.1,1630.5,224.6,1629.6,224.1z"/>
		<path style="fill:#1E223C;" d="M1632.6,226.7c0.2,0.3,0.4,0.6,0.5,0.8c0.3,0.7,0.5,1.4,0.6,2.1c0.1,1.2,0,2.4-0.1,3.6
			c-2.9,23.6-11.9,47.2-20.6,69.1c-2.2,5.6-4.6,11.3-7,16.8c-5.3,12.2-10.9,24.2-16.7,36.1c-2.1,4.2-4.2,8.5-6.3,12.7
			c-0.3,0.5-0.5,1.1-0.8,1.6c-2.6,5.2-5.2,10.4-7.9,15.6c0,0.2,0,0.3-0.1,0.5c-0.7,1.4-1.5,2.9-2.2,4.3
			c-24.2,47.1-47.9,86.5-68.2,118c-40.1,62.1-82.9,117.5-127.5,164.5c-51.7,54.7-106,98.3-161.5,130c0,0-35.3,17.6-40.1,20l-0.5,0.3
			c0,0,0,0-0.1,0l-5.3,2.7l0.1,0.1l5.4-2.7l0,0l0.2-0.1h0.1l0.2-0.1c0.2-0.1,0.4-0.2,0.6-0.3c5.7-2.9,36.9-18.4,39.5-19.7
			c32.5-18.5,64.5-41.2,95.8-67.6h0.1l0.1-0.1l0.2,0.1c22.2-18.8,44.1-39.5,65.6-62.2c26-27.5,51.5-57.9,76.3-90.9l-0.4-0.1
			c8.9-11.9,17.7-24.1,26.4-36.6h0.1c0.1-0.1,0.1-0.2,0.2-0.2l0.3,0.1c3.4-4.8,6.7-9.7,10-14.7l-0.4-0.1c4.9-7.3,9.7-14.6,14.5-22
			c13.3-20.6,25.8-41.1,37.6-61.7h0.1c0.1-0.1,0.1-0.2,0.2-0.3l0.4,0.1c2.9-5,5.7-10,8.5-15.1l-0.5-0.1c5.9-10.6,11.6-21.2,17.3-32
			c1.1-2.1,2.2-4.2,3.3-6.3l0.4,0.1c0.5-1,1-1.9,1.5-2.9c0.4-0.9,0.9-1.8,1.3-2.6c0.3-0.5,0.6-1.1,0.8-1.6c0.2-0.2,0.2-0.5,0.2-0.7
			c1.3-2.6,2.6-5.1,3.9-7.7c1.3-2.6,2.7-5.2,3.9-7.8c0.2-0.3,0.3-0.6,0.4-0.9s0.2-0.5,0.4-0.8c1.1-2.1,2.1-4.2,3.2-6.4
			c1-2.1,2.1-4.2,3.1-6.3c5.2-10.6,11.2-23.2,16.7-36.1c2.4-5.5,4.8-11.2,7-16.8c8.9-22.1,17.7-45.7,20.6-69.3v-0.2
			c0-0.1,0-0.1,0-0.2c0-0.2,0.1-0.5,0.1-0.9c0-0.2,0-0.4,0-0.6s0.1-0.5,0.1-0.7c0.3,0.3,0.3,0,0.2-0.4c0-0.2-0.1-0.4-0.1-0.6h-0.1
			c-0.1-0.6-0.3-1.1-0.5-1.7c-0.1-0.4-0.4-0.7-0.6-1c-0.3-0.4-0.7-0.7-1.1-1.1c-0.7-0.6-1.5-1.1-2.3-1.5
			C1630.8,225.1,1631.8,225.7,1632.6,226.7z"/>
		<path style="fill:#1E223C;" d="M2408,1297.1c0.2-0.1,0.4-0.1,0.6-0.2c4.4-2.1,9-4.3,13.4-6.6l0,0
			c53.1-31.7,101.9-72.8,138.6-122.7c125.8-191.1,74.9-485.3,47.2-705.3l0,0l0,0c-0.7-3.5-1.2-6.9-1.9-10.4l0,0
			c-0.4-2-0.7-4.1-1.1-6.1l0,0c-8.7-46-19.2-95.1-32.9-139.8c-0.1,0-0.2-0.1-0.3-0.1c-3.7,0.1-17.8,5.4-23.6,7.2
			c-8.2,2.7-15.8,5.4-24,7.8c-1.4,0.4-4.9,1.2-5.7,2.7c39.2,149.4,58,306.5,62.9,461.5c7.8,147.3-7,323.7-137.1,416.5
			c-13,9.9-26.3,18.6-40.1,27.3c-2.1,1.4-3.4,3.8-3.1,6.3c0.9,13.4,3.2,42.7,5,57.8c0.3,2,0.3,4,2,3.9
			C2408,1297.1,2408,1297.1,2408,1297.1z"/>
		<path style="fill:#1E223C;" d="M4084.3,1229.2c-161.6-87-187.8-276.9-177.2-443.8c4.9-155,23.7-312,62.9-461.5
			c-0.8-1.5-4.2-2.3-5.7-2.7c-8.2-2.4-16-5.1-24-7.8c-5.9-1.3-20.3-8.2-24-7c-0.1,0-0.1,0.1-0.2,0.1c-28.9,100.3-46.7,209.3-55,312
			c-18.1,158.8-30.4,395.3,53.6,529c0,0,0,0.2,0.1,0.2c9.2,14.9,19.3,29.5,30.8,42.7l0,0c38.2,42.3,82.9,81.7,134.6,106.7
			c3.8,1.3,3-15.3,4.1-20.6C4084.2,1265.3,4091.5,1232.3,4084.3,1229.2z"/>
		<path style="fill:#1E223C;" d="M332.4,1299.7c0.3,0,0.6-0.1,0.8-0.1c35.6-10.5,69.5-28.9,98.6-52l0,0c2.5-1.9,5.6-4.5,8-6.6l0,0
			c194.1-166.6,147.6-542.9,100.1-768.4l0,0c-10.2-48.2-22.7-96.2-36.4-143.6l-1.7-5.8c-0.1-0.5-0.3-1-0.4-1.4l-0.3-1.1
			c-0.1-0.4-0.2-0.7-0.9-2.3c-0.5-0.8-0.7-2.2-1.3-2.9c-1.2-1.5-3.4-0.9-6-0.1l-36.2,13.9c-0.6,0.2-1.1,0.4-1.6,0.6l-5.9,2.2
			c-3.2,1-4.7,2.3-3.7,5.5c8.3,26.9,43.7,145.7,64.8,289.3c22.5,178.3,47.6,451.4-114.5,573.2c-16.2,11.4-33.9,20.6-52.2,28.1
			c-5.5,2.1-11,4.4-16.6,6.4c-1,0.4-2.1,0.6-2.3,1.7c0.7,16.4,2.6,32.7,4.2,48.9c0.5,4.7,0.8,9.7,1.8,14.3c0,0.2,0.1,0.6,0.4,0.7
			c0.3,0,0.7-0.1,1-0.1C332.4,1299.7,332.4,1299.7,332.4,1299.7z"/>
		<path style="fill:#1E223C;" d="M2012.5,1235.7C1690.7,1128,1835,534.1,1892.2,337.8c2.2-5.4-6.3-5.9-9.6-7.7
			c-0.5-0.2-1-0.4-1.6-0.6l-36.2-13.9c-4.4-1.3-6.1-1.3-7.3,3c-1.3,3-2.3,7.6-3.3,10.6c-2.4,8.4-5.6,19.3-7.9,27.7
			c-10.4,38.3-20.4,77.1-28.5,115.9l0,0c-43.9,208.9-81.4,516.9,41.9,702.9c0,0,0,0,0,0.1c16.2,24.4,35.7,46.7,58.1,65.5l0,0
			c31,26.3,67.8,47.1,106.7,58.6c0.2,0.1,0.6,0.1,0.9,0.1c3,0.8,2.4-13.7,3.3-16.4c1.4-15.7,3.4-31.4,4-47.4
			C2012.9,1236.4,2012.7,1235.9,2012.5,1235.7z"/>
	</g>
	<g id="Color_1">
		<path style="fill:#90AEE2;" d="M4081,1297.2c-0.3,0-0.6,0.1-0.8-0.1c-62.1-30.3-129.5-90.4-165.4-149.4c-0.1,0-0.1-0.2-0.1-0.2
			c-59.6-92.9-74.7-266.6-64.9-392.6H2638.7c9.4,166.8-4.9,359.7-126.1,466.8c-31.3,28.8-65.4,56.7-104,75.2
			c-0.2,0.1-0.4,0.1-0.6,0.2c0,0,0,0-0.1-0.2c-0.5,0-0.7-0.1-1.1-0.4c0.3,0.6,0.8,1.2,1.6,1.2c22.4,233.8,64.9,997.9,0.7,1376.3
			c-2,14.7,12,20.4,24.1,22.3c26.8,6.8,47.3,10.7,75.1,15.2v-0.3c11.6,1.8,23,3.3,33.8,4.6v0.1c8.2,1,16.3,1.8,26.7,2.6v0.2
			c397.1,27,1281.8,33.5,1498.4-25.5c13.4-3.4,14.9-17.4,12.1-29c-62.9-367.7-21.1-1133.7,1.6-1366.7c0.1-0.1,0.2-0.2,0.4-0.4
			C4081.2,1297.1,4081.2,1297.2,4081,1297.2L4081,1297.2L4081,1297.2z"/>
		<path style="fill:#90AEE2;" d="M2638.7,754.5c0,0.1,0,0.3,0,0.4h1211.1c0-0.1,0-0.3,0-0.4H2638.7z"/>
		<path style="fill:#90AEE2;" d="M330.4,1300.7c0,1.1,0.9,1.3,1.8,1.1c0.1,0.1,0.2,0.1,0.3,0.1c20.7,205,67.7,1003.4,1.8,1380.7
			c-1.9,14.3,13.5,17.5,24.2,19.7c22.8,5.8,51.5,11.5,74.7,15v-0.1c157,28.3,1102.9,38.6,1436.3,4.6c41.2-4.6,74.8-10.9,116-21.2
			c16.3-2.3,19.9-15.2,16.5-29.8c-63.4-359.8-18.5-1172.5,2.6-1368.9c0.9-0.2,0.9-1.2,1.1-1.8c-67.7-19.5-127.2-65.8-166-124.3
			c0-0.1,0-0.1,0-0.1c-63.1-95.1-80.2-212.2-83.3-324.2L1311,735.1c-44.9,38.1-84.5,63.6-136.6,88.2c-0.2-0.1-5.8,3-5.9,3
			c-53.6-25.3-96-51.3-141.8-90.4L581.3,852.5c-3.2,179.8-56.4,388.6-248.9,447.2c0,0,0,0-0.3,0.4c-0.6,0.1-1.5,0.3-1.4-0.6
			L330.4,1300.7z"/>
		<path style="fill:#90AEE2;" d="M1215.1,802.5c0,0-0.1,0-0.2,0.1l0,0c0,0-33,16.5-39.5,19.7c-0.1,0.1-0.3,0.1-0.4,0.2l-0.4,0.2l0,0
			l-0.2,0.1h-0.1l-5.4,2.7l0,0l-0.2,0.1l-0.1-0.1l-0.4,0.2l-5.7-2.9h-0.1l-0.5-0.3c-4.8-2.4-40.1-20-40.1-20
			c-32.1-18.3-63.7-40.6-94.7-66.7l-0.4,0.1c31,26.2,62.8,48.6,95.1,67c0,0,35.3,17.6,40.1,20l0.5,0.3c0,0,0.2,0.1,0.3,0.1l5.8,3
			l5.8-3h0.1l0.6-0.4c4.8-2.4,40.1-20,40.1-20c32.4-18.5,64.5-41.2,95.9-67.8l-0.3-0.1C1279.5,761.4,1247.6,784,1215.1,802.5z"/>
		<path style="fill:#90AEE2;" d="M581.3,852.5L581.3,852.5l445.4-116.6l0,0L581.3,852.5z"/>
		<path style="fill:#90AEE2;" d="M1027.1,735.8l-0.4,0.1l0,0L1027.1,735.8L1027.1,735.8z"/>
		<path style="fill:#90AEE2;" d="M1175,822.5c0.1-0.1,0.2-0.1,0.4-0.2c-0.2,0.1-0.4,0.2-0.6,0.3l-0.2,0.1l0,0L1175,822.5z"/>
		<rect x="1171.6" y="821.1" style="fill:#90AEE2;" width="0" height="6"/>
		<path style="fill:#90AEE2;" d="M1310.8,735L1310.8,735c-31.4,26.4-63.4,49.1-95.9,67.6c0.1-0.1,0.2-0.1,0.2-0.1
			C1247.6,784,1279.5,761.4,1310.8,735z"/>
		<path style="fill:#90AEE2;" d="M548.9,516.5c5.6,29.6,10.8,59.3,15.1,89.1l283.7-74.3c-18.3-27.2-36.1-55.7-52.1-83.7l-247.5,64.7
			L548.9,516.5z"/>
		<path style="fill:#90AEE2;" d="M847.7,531.3l0.4-0.1c-5.2-7.6-10.3-15.4-15.3-23.2c-11.4-17.7-23.9-37.9-36.9-60.5l-0.3,0.1
			c11.7,20.3,23.9,40.4,36.9,60.6C837.5,516,842.6,523.7,847.7,531.3z"/>
		<path style="fill:#90AEE2;" d="M1504.3,508.2c-4.8,7.4-9.6,14.7-14.5,22l284.1,74.3c4.5-31,10-62.1,15.9-92.9l-248.1-64.9
			C1529.9,467.3,1517.5,487.7,1504.3,508.2z"/>
		<path style="fill:#90AEE2;" d="M1489.5,530.1l0.3,0.1c4.9-7.2,9.7-14.5,14.5-22c13.2-20.5,25.6-40.9,37.5-61.5l-0.4-0.1
			c-11.7,20.6-24.2,41-37.4,61.5C1499.2,515.6,1494.4,522.9,1489.5,530.1z"/>
		<path style="fill:#90AEE2;" d="M1773.9,604.5l-284.1-74.3c-0.1,0.1-0.1,0.2-0.2,0.2l284.2,74.4
			C1773.8,604.7,1773.8,604.6,1773.9,604.5z"/>
		<path style="fill:#90AEE2;" d="M1489.5,530.1c4.9-7.2,9.7-14.5,14.5-22c13.2-20.5,25.7-40.9,37.4-61.5h-0.1
			c-11.8,20.6-24.3,41.1-37.6,61.7c-4.8,7.4-9.6,14.7-14.5,22l0.4,0.1c0.1-0.1,0.1-0.2,0.2-0.2L1489.5,530.1z"/>
	</g>
	<path id="Inside" style="fill:#F0F0F0;" d="M1149,750.8c4.3,2.1,14.7,7.5,19,9.3c171.4-84.1,332.1-321.2,397.6-502.8
		c0.2,0,0.2-0.6,0.2-0.8c-263.9,37-531.5,37.6-795.8,0.2c0,0.2,0.1,0.6,0.2,0.8v-0.1c7.6,21.7,16.7,44.3,27.1,67.5
		c-0.3-0.7-0.8-1.6-1.1-2.3C875.3,487.4,993.4,659.9,1149,750.8z"/>
</g>
<g id="Shorts_00000128462996781974683520000004413893759365639332_">
	<g id="Color_3_00000068679181160378235790000012439254737984956055_">
		<g>
			<path style="fill:#F4F4F4;" d="M600.4,4538.4l-333.7,146.5c21.3,3.9,47,8.5,76.1,13.6L682,4549.6
				C654.2,4546,626.9,4542.2,600.4,4538.4z"/>
			<path style="fill:#F4F4F4;" d="M285.5,4486.6l-81.4,35.7c-0.9,15.9-1.8,31.9-2.7,48.1l159.8-70.1
				C331.2,4495,305.7,4490.3,285.5,4486.6z"/>
			<path style="fill:#F4F4F4;" d="M1682,4549.6l339,148.8c29.1-5,54.8-9.6,76.2-13.6l-333.6-146.4
				C1737,4542.2,1709.8,4546,1682,4549.6z"/>
			<path style="fill:#F4F4F4;" d="M2002.8,4500.3l159.6,70.1c-0.9-16.2-1.8-32.2-2.7-48.1l-81.2-35.7
				C2058.3,4490.3,2032.7,4495,2002.8,4500.3z"/>
		</g>
		<g>
			<path style="fill:#F4F4F4;" d="M3812.3,4538.4l333.7,146.5c-21.3,3.9-47,8.5-76.1,13.6l-339.2-148.9
				C3758.5,4546,3785.8,4542.2,3812.3,4538.4z"/>
			<path style="fill:#F4F4F4;" d="M4127.2,4486.6l81.4,35.7c0.9,15.9,1.8,31.9,2.7,48.1l-159.8-70.1
				C4081.5,4495,4107.1,4490.3,4127.2,4486.6z"/>
			<path style="fill:#F4F4F4;" d="M2730.7,4549.6l-339,148.8c-29.1-5-54.8-9.6-76.2-13.6l333.6-146.4
				C2675.7,4542.2,2702.9,4546,2730.7,4549.6z"/>
			<path style="fill:#F4F4F4;" d="M2409.9,4500.3l-159.6,70.1c0.9-16.2,1.8-32.2,2.7-48.1l81.2-35.7
				C2354.4,4490.3,2380,4495,2409.9,4500.3z"/>
		</g>
	</g>
	<g id="Color_2_00000031896270027658151200000006679007754149748405_">
		<path style="fill:#1E223C;" d="M361.2,4500.3l-159.8,70.1c-0.3,6.5-0.7,12.9-1,19.4l191.8-84.2
			C381.4,4503.8,371.1,4502,361.2,4500.3z"/>
		<path style="fill:#1E223C;" d="M1140.2,4585.5c-140,0-306.5-16.1-458.2-35.9l-339.2,148.9c193.8,33.6,541.9,86.6,806,85.4
			c0,0,3.5-65.7,5.3-132.1c0.6-22,1-44,1-63.7c0-0.9,0-1.7,0-2.6h-7.2C1145.3,4585.5,1142.8,4585.5,1140.2,4585.5z"/>
		<path style="fill:#1E223C;" d="M235.6,4477l-1.2-0.2c-9.2-1.8-18.2-3.5-27.2-5.3c-1.1,16.8-2.1,33.7-3.1,50.8l81.4-35.7
			C254.6,4480.8,236.6,4477.2,235.6,4477z"/>
		<path style="fill:#1E223C;" d="M567.9,4533.7l-331.6,145.6c8.8,1.7,19,3.6,30.4,5.7l333.7-146.5
			C589.4,4536.9,578.6,4535.3,567.9,4533.7z"/>
		<path style="fill:#1E223C;" d="M1971.8,4505.6l191.6,84.1c-0.3-6.5-0.7-13-1-19.4l-159.6-70.1
			C1992.9,4502,1982.5,4503.8,1971.8,4505.6z"/>
		<path style="fill:#1E223C;" d="M1763.6,4538.4l333.6,146.4c11.4-2.1,21.6-4,30.4-5.6l-331.5-145.5
			C1785.4,4535.3,1774.5,4536.9,1763.6,4538.4z"/>
		<path style="fill:#1E223C;" d="M2128.3,4477c-1,0.2-19,3.8-49.9,9.6l81.2,35.7c-1-17.1-2-34-3.1-50.7c-8.9,1.7-17.9,3.5-27.1,5.2
			L2128.3,4477z"/>
		<path style="fill:#1E223C;" d="M1223.8,4585.5c-2.6,0-5.1,0-7.7,0h-7.4c0,0.9,0,1.8,0,2.7c-0.1,19.8,0.1,41.9,0.5,64
			c1,66.2,3.2,131.8,3.2,131.8c264.3,1.2,614.2-51.9,808.6-85.5l-339-148.8C1530.2,4569.4,1363.7,4585.5,1223.8,4585.5z"/>
		<path style="fill:#1E223C;" d="M4051.5,4500.3l159.8,70.1c0.3,6.5,0.7,12.9,1,19.4l-191.8-84.2
			C4031.3,4503.8,4041.6,4502,4051.5,4500.3z"/>
		<path style="fill:#1E223C;" d="M3272.5,4585.5c140,0,306.5-16.1,458.2-35.9l339.2,148.9c-193.8,33.6-541.9,86.6-806,85.4
			c0,0-3.5-65.7-5.3-132.1c-0.6-22-1-44-1-63.7c0-0.9,0-1.7,0-2.6h7.2C3267.4,4585.5,3269.9,4585.5,3272.5,4585.5z"/>
		<path style="fill:#1E223C;" d="M4177.1,4477l1.2-0.2c9.2-1.8,18.2-3.5,27.2-5.3c1.1,16.8,2.1,33.7,3.1,50.8l-81.4-35.7
			C4158.1,4480.8,4176.1,4477.2,4177.1,4477z"/>
		<path style="fill:#1E223C;" d="M3844.8,4533.7l331.6,145.6c-8.8,1.7-19,3.6-30.4,5.7l-333.7-146.6
			C3823.3,4536.9,3834.1,4535.3,3844.8,4533.7z"/>
		<path style="fill:#1E223C;" d="M2441,4505.6l-191.6,84.1c0.3-6.5,0.7-13,1-19.4l159.6-70.1C2419.8,4502,2430.2,4503.8,2441,4505.6
			z"/>
		<path style="fill:#1E223C;" d="M2649.1,4538.4l-333.6,146.5c-11.4-2.1-21.6-4-30.4-5.6l331.5-145.5
			C2627.3,4535.3,2638.2,4536.9,2649.1,4538.4z"/>
		<path style="fill:#1E223C;" d="M2284.4,4477c1,0.2,19,3.8,49.9,9.6l-81.2,35.7c1-17.1,2-34,3.1-50.7c8.9,1.7,17.9,3.5,27.1,5.2
			L2284.4,4477z"/>
		<path style="fill:#1E223C;" d="M3188.9,4585.5c2.6,0,5.1,0,7.7,0h7.4c0,0.9,0,1.8,0,2.7c0.1,19.8-0.1,41.9-0.5,64
			c-1,66.2-3.2,131.8-3.2,131.8c-264.3,1.2-614.2-51.9-808.6-85.5l339-148.8C2882.5,4569.4,3049,4585.5,3188.9,4585.5z"/>
	</g>
	<g id="Color_1_00000010277010097913906810000013741517957537291155_">
		<path style="fill:#90AEE2;" d="M2163.4,4589.8l-191.6-84.1c10.8-1.8,21.1-3.6,31-5.4c30-5.3,55.5-9.9,75.7-13.7
			c31-5.8,48.9-9.4,49.9-9.6l1.2-0.2c9.1-1.8,18.1-3.5,27.1-5.2c-66-1042.8-245.6-1437.7-245.6-1437.7c5.2-73.1-2.9-120.2-6.9-137.7
			c-1-4.5-5-7.6-9.6-7.4c-58.5,1.9-116.4,3.5-174,4.6c-20.7,0.4-41.3,0.8-61.9,1.1c-12.4,0.2-24.8,0.4-37.1,0.6
			c-149.2,2.2-296.7,2.4-446.1,2.4c-145.6,0-288-0.4-433.1-2.5c-12.4-0.2-24.7-0.4-37.1-0.6c-20.6-0.3-41.2-0.7-61.9-1.1
			c-57.9-1.2-116.4-2.7-175.9-4.6c-3.6-0.1-6.7,2.3-7.5,5.8c-3.7,16-12.6,63.8-7.2,139.4c0,0-179.6,394.9-245.5,1437.7
			c9,1.7,18,3.5,27.2,5.3l1.2,0.2c1,0.2,19,3.8,49.9,9.6c20.1,3.7,45.7,8.4,75.7,13.7c9.9,1.7,20.2,3.5,31,5.4L200.5,4590
			c-1.4,26.8-2.7,54.1-4,81.7c0,0,14.3,2.9,39.9,7.7L568,4533.8c10.7,1.6,21.5,3.2,32.5,4.7c26.5,3.8,53.8,7.5,81.6,11.2
			c151.8,19.8,318.2,35.9,458.2,35.9c2.6,0,5.1,0,7.7,0h7.2c0-5.9,0-11.5-0.1-16.9c-0.1-6.4-0.1-12.8-0.1-19.2
			c0-17.2,0.4-34.3,0.7-51.4c0.7-34.3,1.8-68.6,3.1-102.9c1.4-36.2,3-72.4,5.2-108.6c1.8-29.2,3.7-58.4,7-87.5
			c1-8.6,1.9-24.3,3.6-32.8c0.7-3.7,1.7-8,7.5-8c3.4,0,6.5,1.7,7.3,4.4c2.2,7.4,2.5,17.3,3.5,25c3.6,27,4.4,55.5,6.1,82.6
			c2.3,35.5,4,71.1,5.5,106.7c1.4,35.1,2.6,70.3,3.4,105.5c0.5,22.4,1,44.8,1.1,67.2c0,3.5,0,7,0,10.6c0,2.9,0,5.7-0.1,8.6
			c-0.1,5.4-0.1,11-0.2,16.9h7.4c2.6,0,5.1,0,7.7,0c140,0,306.5-16.1,458.2-35.9c27.8-3.6,55-7.4,81.6-11.2
			c11-1.6,21.8-3.1,32.5-4.7l331.5,145.5c25.5-4.8,39.8-7.7,39.8-7.7C2166.1,4643.9,2164.8,4616.6,2163.4,4589.8z"/>
		<path style="fill:#90AEE2;" d="M2249.3,4589.8l191.6-84.1c-10.8-1.8-21.1-3.6-31-5.4c-30-5.3-55.5-9.9-75.7-13.7
			c-31-5.8-48.9-9.4-49.9-9.6l-1.2-0.2c-9.1-1.8-18.1-3.5-27.1-5.2c65.9-1042.8,245.5-1437.7,245.5-1437.7
			c-5.2-73.1,2.9-120.2,6.9-137.7c1-4.5,5-7.6,9.6-7.4c58.5,1.9,116.4,3.5,174,4.6c20.7,0.4,41.3,0.8,61.9,1.1
			c12.4,0.2,24.8,0.4,37.1,0.6c149.2,2.2,296.7,2.4,446.1,2.4c145.6,0,288-0.4,433.1-2.5c12.4-0.2,24.7-0.4,37.1-0.6
			c20.6-0.3,41.2-0.7,61.9-1.1c57.9-1.2,116.4-2.7,175.9-4.6c3.6-0.1,6.7,2.3,7.5,5.8c3.7,16,12.6,63.8,7.2,139.4
			c0,0,179.6,394.9,245.5,1437.7c-9,1.7-18,3.5-27.2,5.3l-1.2,0.2c-1,0.2-19,3.8-49.9,9.6c-20.1,3.7-45.7,8.4-75.7,13.7
			c-9.9,1.7-20.2,3.5-31,5.4l191.8,84.2c1.4,26.8,2.7,54.1,4,81.7c0,0-14.3,2.9-39.9,7.7l-331.6-145.6c-10.7,1.6-21.5,3.2-32.5,4.7
			c-26.5,3.8-53.8,7.5-81.6,11.2c-151.8,19.8-318.2,35.9-458.2,35.9c-2.6,0-5.1,0-7.7,0h-7.2c0-5.9,0-11.5,0.1-16.9
			c0.1-6.4,0.1-12.8,0.1-19.2c0-17.2-0.4-34.3-0.7-51.4c-0.7-34.3-1.8-68.6-3.1-102.9c-1.4-36.2-3-72.4-5.2-108.6
			c-1.8-29.2-3.7-58.4-7-87.5c-1-8.6-1.9-24.3-3.6-32.8c-0.7-3.7-1.7-8-7.5-8c-3.4,0-6.5,1.7-7.3,4.4c-2.2,7.4-2.5,17.3-3.5,25
			c-3.6,27-4.4,55.5-6.1,82.6c-2.3,35.5-4,71.1-5.5,106.7c-1.4,35.1-2.6,70.3-3.4,105.5c-0.5,22.4-1,44.8-1.1,67.2c0,3.5,0,7,0,10.6
			c0,2.9,0,5.7,0.1,8.6c0.1,5.4,0.1,11,0.2,16.9h-7.4c-2.6,0-5.1,0-7.7,0c-140,0-306.5-16.1-458.2-35.9c-27.8-3.6-55-7.4-81.6-11.2
			c-11-1.6-21.8-3.1-32.5-4.7L2285,4679.5c-25.5-4.8-39.8-7.7-39.8-7.7C2246.6,4643.9,2247.9,4616.6,2249.3,4589.8z"/>
	</g>
</g>
</svg>
