<?xml version="1.0" encoding="utf-8"?>
<!-- Generator: Adobe Illustrator 28.0.0, SVG Export Plug-In . SVG Version: 6.00 Build 0)  -->
<svg version="1.1" id="Layer_1" xmlns="http://www.w3.org/2000/svg" xmlns:xlink="http://www.w3.org/1999/xlink" x="0px" y="0px"
	 viewBox="200 200 4157.5 2941.9" style="enable-background:new 0 0 4157.5 2941.9;" xml:space="preserve">
<g id="Jersey">
	<g id="Color_3">
		<path style="fill:#F4F4F4;" d="M1420,303.4c5.5-13,10.6-25.9,15.2-38.4c0.1-0.3,0.2-0.7,0.3-1c-5.3,14.3-11.1,28.9-17.5,43.9
			C1418.6,306.3,1419.3,304.9,1420,303.4z"/>
		<path style="fill:#F4F4F4;" d="M668.2,323.7c0.2,0.4,0.4,0.8,0.6,1.2c-10.4-23.2-19.5-45.8-27.1-67.5v0.1c7.3,21,16,42.8,26,65.1
			L668.2,323.7z"/>
		<path style="fill:#F4F4F4;" d="M641.5,256.8L641.5,256.8c0,0.1,0,0.1,0,0.2C641.5,256.9,641.5,256.8,641.5,256.8L641.5,256.8z"/>
		<path style="fill:#F4F4F4;" d="M1437.3,257c-0.1,0.3-0.1,0.4-0.2,0.4l-0.1,0.5l-0.1,0.4c-0.3,1.2-0.6,2.5-0.9,3.7
			c-0.2,0.7-0.4,1.3-0.5,2c0.2-0.6,0.4-1.2,0.6-1.8c-0.1,0.3-0.2,0.6-0.3,0.9c0.7-1.9,1.3-3.7,2-5.6l-0.6-0.1
			C1437.2,257.3,1437.2,257.2,1437.3,257z"/>
		<path style="fill:#F4F4F4;" d="M1417.9,307.8c-0.3,0.7-0.7,1.5-1,2.2c-0.9,1.9-1.7,3.8-2.6,5.6l-0.4,0.8l-2.1,4.5l-1.2,2.6
			l-2.7,5.6l-2.2,4.6l-1.5,3.2l-1.6,3.3l-1.7,3.4c-0.3,0.6-0.6,1.2-0.9,1.8s-0.5,1.1-0.8,1.7c-2.8,5.7-5.5,10.9-8.1,15.7l-0.2,0.4
			c-19.8,38.5-41.1,75.5-65.4,113c-38.1,59.1-78.7,111.6-120.7,156c-47.1,49.8-96.4,89.7-146.5,118.6l-16.6,8.3l-2.3,1l-2.3-1
			l-3.9-1.9l-12.8-6.4C970.3,721.9,921,682,873.8,632.2c-2.5-2.7-5-5.3-7.5-8.1c52.8,57.2,109.9,104.7,167,133.7
			c1.5,0.8,4.8,2.4,6.3,3c154.3-74.3,305-281.8,378.7-453.6c-0.5,1-1,2-1.4,3C1417.2,309.4,1417.6,308.6,1417.9,307.8z"/>
		<path style="fill:#F4F4F4;" d="M687.8,363.3l-0.1-0.4c-2.7-5.2-5.4-10.6-8.1-15.9c-1.9-3.8-3.7-7.3-5.4-10.8l-2.5-5.1
			c-0.3-0.6-0.5-1.1-0.8-1.7c-0.3-0.5-0.5-1.1-0.8-1.7c-0.5-1.1-1-2.1-1.5-3.1c-0.1-0.2-0.2-0.4-0.3-0.6
			c45.2,100.7,116.2,211.4,197.3,299.4c-38.9-42.2-76.7-91.7-112.5-147.2C728.9,438.7,707.5,401.8,687.8,363.3z"/>
		<path style="fill:#F4F4F4;" d="M1435.5,264c-0.1,0.3-0.2,0.7-0.3,1c0.2-0.6,0.5-1.2,0.7-1.9c0.1-0.3,0.2-0.6,0.3-0.9
			C1435.9,262.8,1435.7,263.4,1435.5,264z"/>
		<path style="fill:#F4F4F4;" d="M1417.9,307.8c-0.3,0.8-0.7,1.6-1,2.4c0.5-1,1-2,1.4-3c0.5-1.3,1.1-2.5,1.6-3.8
			C1419.3,304.9,1418.6,306.3,1417.9,307.8z"/>
		<path style="fill:#F4F4F4;" d="M641.5,256.8L641.5,256.8c0-0.1,0-0.2-0.1-0.3c0,0,0,0-0.1,0C641.4,256.6,641.4,256.7,641.5,256.8
			L641.5,256.8L641.5,256.8z"/>
		<path style="fill:#F4F4F4;" d="M1437.3,257.4c0-0.3,0-0.6,0.1-0.9c-0.1,0.2-0.1,0.4-0.1,0.5c0,0.2-0.1,0.3-0.1,0.5l0.6,0.1v-0.1
			L1437.3,257.4z"/>
		<path style="fill:#F4F4F4;" d="M729.4,546.2l-291.6,76.3l0.1,0.8c0.2,1.8,0.5,3.6,0.7,5.4l0.8,5.6c0.2,1.9,0.5,3.8,0.7,5.7
			l0.7,5.7c0.2,2,0.5,3.9,0.7,5.8l0.7,5.7c0.3,1.9,0.5,3.9,0.7,5.8c0,0.6,0.1,1.1,0.2,1.6l312.7-81.8
			C746.9,570.9,738.1,558.7,729.4,546.2z"/>
		<path style="fill:#F4F4F4;" d="M755.8,582.8l0.3-0.1c-8.9-11.9-17.7-24.1-26.4-36.6l-0.3,0.1C738.1,558.7,746.9,570.9,755.8,582.8
			z"/>
		<path style="fill:#F4F4F4;" d="M637.8,394.2l-230.4,60.2c2.9,13.5,6,27.5,8.7,41.1l242.2-63.3C651.2,419.7,644.4,407,637.8,394.2z
			"/>
		<path style="fill:#F4F4F4;" d="M658.2,432.2l0.4-0.1c-6.8-11.9-13.6-24.6-20.5-38l-0.3,0.1C644.4,407,651.2,419.7,658.2,432.2z"/>
		<polygon style="fill:#F4F4F4;" points="407.4,454.4 637.8,394.2 637.8,394.2 		"/>
		<polygon style="fill:#F4F4F4;" points="638.1,394.1 637.8,394.2 637.8,394.2 		"/>
		<path style="fill:#F4F4F4;" d="M1324.6,581.7l313,81.9c1.5-13.9,3.4-28,5.2-41.9l-292-76.4
			C1342.2,557.7,1333.4,569.9,1324.6,581.7z"/>
		<path style="fill:#F4F4F4;" d="M1324.6,581.7c8.8-11.8,17.6-23.9,26.3-36.4l-0.3-0.1c-8.6,12.4-17.4,24.5-26.2,36.4L1324.6,581.7z
			"/>
		<path style="fill:#F4F4F4;" d="M1637.6,663.6l-313-81.9c-0.1,0.1-0.1,0.2-0.2,0.2l313.1,82
			C1637.5,663.8,1637.5,663.7,1637.6,663.6z"/>
		<path style="fill:#F4F4F4;" d="M1324.3,581.6c8.8-11.8,17.6-23.9,26.2-36.4h-0.1c-8.7,12.5-17.5,24.7-26.4,36.6l0.4,0.1
			c0.1-0.1,0.1-0.2,0.2-0.2L1324.3,581.6z"/>
		<path style="fill:#F4F4F4;" d="M1422,431.1l242.6,63.5c2.8-13.5,5.8-27.4,8.7-40.9l-231.1-60.4
			C1435.7,406.1,1428.9,418.6,1422,431.1z"/>
		<path style="fill:#F4F4F4;" d="M1422,431.1c6.9-12.5,13.7-25,20.3-37.8l-0.4-0.1c-1.1,2-2.1,4-3.2,6
			c-5.6,10.7-11.3,21.2-17.1,31.8L1422,431.1z"/>
		<path style="fill:#F4F4F4;" d="M1664.6,494.6L1422,431.1c0,0.1-0.1,0.1-0.1,0.2l242.7,63.5V494.6z"/>
		<path style="fill:#F4F4F4;" d="M1421.6,431c5.8-10.5,11.5-21.1,17.1-31.8c-5.7,10.7-11.4,21.3-17.3,32l0.5,0.1
			c0-0.1,0.1-0.1,0.1-0.2L1421.6,431z"/>
	</g>
	<g id="Color_2">
		<path style="fill:#1E223C;" d="M628.3,200.1l0.1,0.1c3.6,19.6,7.3,35.6,12.4,56.3h0.5c-0.1-0.2-0.2-0.5-0.2-0.7
			c264.8,37,532.5,37,797,0c0,0.5-0.1,1.1-0.2,1.6c0,0,0,0,0,0.1h0.4c1.4-4.7,3.5-13.6,6.9-32.6c2.1-8.6,2.8-17.6,4.1-25.8
			c-16.8-5.3-262.7,31.9-420.5,27.8c-174.7,1-373.3-33.6-400.6-27.3C628.3,199.7,628.3,200,628.3,200.1z M628.9,199.6l-0.3,0.1
			C628.7,199.6,628.8,199.6,628.9,199.6z"/>
		<path style="fill:#1E223C;" d="M1086.3,802.6c-2.6,1.3-33.8,16.9-39.5,19.7C1053.3,819.1,1086.3,802.6,1086.3,802.6L1086.3,802.6z
			"/>
		<polygon style="fill:#1E223C;" points="1046,822.7 1045.9,822.7 1045.7,822.8 1045.8,822.8 		"/>
		<path style="fill:#1E223C;" d="M1351,545.1l-0.3-0.1c-0.1,0.1-0.1,0.2-0.2,0.2l0.3,0.1C1350.9,545.2,1350.9,545.1,1351,545.1z"/>
		<path style="fill:#1E223C;" d="M1182.3,734.9L1182.3,734.9l0.2,0.2l0.1-0.1L1182.3,734.9z"/>
		<path style="fill:#1E223C;" d="M1504.5,226.8c0.2,0.3,0.5,0.6,0.6,1c0.2,0.6,0.4,1.1,0.5,1.7h0.1c-0.1-0.6-0.3-1.1-0.5-1.6
			C1505.1,227.5,1504.8,227.2,1504.5,226.8c-0.2-0.3-0.6-0.7-1.1-1.1C1503.8,226.1,1504.2,226.4,1504.5,226.8z"/>
		<path style="fill:#1E223C;" d="M1442.3,393.3c0-0.1,0.1-0.2,0.1-0.3l-0.4-0.1c-1.1,2.1-2.2,4.2-3.3,6.3c1.1-2,2.1-4,3.2-6
			L1442.3,393.3z"/>
		<path style="fill:#1E223C;" d="M574.4,233.2c12.8,70.8,51.3,136.1,84.2,198.9l-0.4,0.1v0.1l0.3-0.1c2.9,5.2,5.8,10.3,8.6,15.3
			l-0.3,0.1l0,0l0.3-0.1c29,50.1,55.5,90.5,88.8,135.2l-0.3,0.1l0,0l0.4-0.1c43.3,57.2,89.3,108.5,142.4,153.1h-0.1
			c44.4,37.5,83.7,62.8,135.3,87c0.2-0.1,5.7,2.9,5.8,2.9l0.4-0.2l0.1,0.1l0.2-0.1l-0.1-0.1c0.1,0,5.3-2.8,5.4-2.7
			c191.3-91.2,318.5-274.3,415.1-467.5c18.3-40,39.7-81.3,44.4-125.6c-1.2-7-20-13.5-26-17.8v-0.1c-3.1-1.9-6.4-3.5-9.6-5.4
			c-6.1-3.5-12.9-5.9-20.1-7.3c-1.2,8.3-2.2,16.7-3.9,25.7h-0.1v0.1l-0.1,0.1c-3.4,19.1-5.6,27.7-6.9,32.6h-0.1v0.1h-0.5
			c-69.2,190.6-228.8,419.4-398.2,503.3C858.7,667.1,709.3,443.5,641.3,257l0,0c0,0,0-0.1-0.1-0.2c-0.1,0-0.4,0-0.5,0l-0.1-0.3l0,0
			c-5.3-20.7-8.6-37.2-12.7-56.8l0.1-0.1v-0.2l0.2-0.1c-13.8,2.7-24.3,10.5-36.6,16.9c-5.3,3.9-16.5,6.6-17.7,13.6l0,0h0.1
			C574.1,230.9,574.3,232.1,574.4,233.2z"/>
		<path style="fill:#1E223C;" d="M1413.4,446.4l-0.4-0.1c-0.1,0.1-0.1,0.2-0.2,0.3l0.4,0.1C1413.2,446.6,1413.3,446.5,1413.4,446.4z
			"/>
		<path style="fill:#1E223C;" d="M1426.4,288.3l-0.2,0.6c-0.1,0.3-0.8,1.9-1.8,4.3c-0.5,1.2-1.1,2.6-1.8,4.2c-0.9,2-1.7,4-2.6,6
			c-0.5,1.3-1.1,2.5-1.6,3.8c1.5-3.2,3-6.4,4.4-9.6c0.7-1.6,1.3-3.1,1.8-4.2c1-2.3,1.8-4,1.8-4.3l0.2-0.6c3.5-8.1,6.9-16.6,9.3-25.4
			c-0.2,0.6-0.4,1.2-0.7,1.9C1432.8,273,1429.6,280.8,1426.4,288.3z"/>
		<path style="fill:#1E223C;" d="M628.3,200.1c0-0.1,0-0.1,0-0.2l-0.1-0.3l-0.1,0.1L628.3,200.1z"/>
		<path style="fill:#1E223C;" d="M641.2,256.5h-0.4l0.1,0.3h0.4c0.1,0,0.1,0,0.1,0C641.4,256.7,641.3,256.6,641.2,256.5
			C641.3,256.5,641.3,256.5,641.2,256.5z"/>
		<path style="fill:#1E223C;" d="M1445.3,224.9l0.1-0.1v-0.1L1445.3,224.9C1445.3,224.8,1445.3,224.8,1445.3,224.9z"/>
		<path style="fill:#1E223C;" d="M1437.8,257.6h0.5v-0.1h-0.4C1437.9,257.5,1437.9,257.5,1437.8,257.6z"/>
		<path style="fill:#1E223C;" d="M3787.9,304.8c-0.3,0-0.6,0.1-0.8,0.3c-49.8-21.3-174.6-74.2-247.6-105.3
			c0.4-5.3-25.9-12.2-30.9-14.3l-0.3,0.2c-13.8-3.1-28.7-11.7-42.3-8.9c-11,5.3-92.4,25.7-119.3,27.9
			c-81.3,11.3-148.7,7.1-231.1,8.7c-81.9-1.6-150.6,2.5-231.1-8.7c-26.9-1.9-109.3-23.1-119.5-27.9c-14-2.5-29.4,6-43.4,9.4
			l-0.5-0.3c-3.6,1.9-31.5,9-29.2,14.5c-51.6,21.9-196.9,83.5-247.6,105.1c0,0,0,0-0.1,0c-0.2-0.2-0.5-0.3-0.8-0.3l-0.7,0.5
			c0.1,0.1,0.2,0.1,0.3,0.2c0.1,0,0.2,0.1,0.3,0.1c40.4,145.4,55.7,297.5,66.8,448.5h1211.2c10.8-150.9,23.4-301.7,66.3-448
			c0.1,0,0.1-0.1,0.2-0.1c0.2-0.2,0.5-0.3,0.7-0.4L3787.9,304.8z"/>
		<path style="fill:#1E223C;" d="M719.1,531.3l-283.7,74.3c0.7,5.1,1.7,11.8,2.4,16.9l291.6-76.3
			C725.9,541.3,722.5,536.3,719.1,531.3z"/>
		<path style="fill:#1E223C;" d="M729.4,546.2l0.3-0.1c-3.4-4.9-6.8-9.9-10.2-14.9l-0.4,0.1C722.5,536.3,725.9,541.3,729.4,546.2z"
			/>
		<path style="fill:#1E223C;" d="M443.5,668.8c6.8,61,10.3,122.3,9.2,183.7l445.4-116.6c-53-44.8-98.7-95.4-142.3-153.1l-312.7,81.8
			C443.3,665.8,443.3,667.6,443.5,668.8z"/>
		<path style="fill:#1E223C;" d="M898.1,735.9l0.4-0.1l0,0h0.1c-22.8-19.1-45.1-40.2-66.9-63.3c-25.8-27.3-51-57.3-75.5-89.8
			l-0.4,0.1c24.6,32.8,49.9,62.9,75.7,90C853.2,695.8,875.4,716.8,898.1,735.9z"/>
		<path style="fill:#1E223C;" d="M370.5,315.8c2,4.1,3.1,9,4.4,13.2c3,10.4,6.6,22.7,9.4,33.1c8.2,30.5,16.1,61.5,23.1,92.3
			l230.4-60.2c-13.3-26.1-27.6-54.3-38.6-80.6c-10.8-27.3-23.5-55.7-25.1-83.8c-58.4,25.2-148,62.7-202.9,86.2
			c-0.3-0.4-0.7-0.6-1.2-0.8C370.2,315.4,370.4,315.6,370.5,315.8z"/>
		<path style="fill:#1E223C;" d="M574.1,230.5c-0.2,0.4-0.2,0.8-0.2,1.3c0,0.3,0.1,0.6,0.1,0.8c0,0.4,0.1,0.7,0.1,0.9
			c2.9,23.1,11.4,45.9,20.6,69.1c1.5,3.7,3,7.4,4.5,11l1.4,3.3c0.2,0.4,0.4,0.9,0.5,1.3c0.2,0.4,0.4,0.9,0.6,1.3
			c4.9,11.4,10.4,23.2,16.7,36.1c1,2.1,2.1,4.2,3.1,6.3c1.1,2.1,2.1,4.3,3.2,6.4c0.1,0.2,0.3,0.5,0.4,0.7c0.1,0.3,0.3,0.6,0.4,0.8
			c2.5,5.1,5.2,10.3,7.8,15.5c0,0.2,0,0.4,0.2,0.6c0.4,0.7,0.7,1.4,1.1,2.2c0.4,0.7,0.7,1.4,1.1,2.1c0.7,1.3,1.4,2.7,2.1,4l0.3-0.1
			c-0.7-1.3-1.4-2.7-2.1-4.1c-0.7-1.5-1.5-2.9-2.2-4.3c-0.1-0.1-0.1-0.3-0.1-0.5c-2.6-5.2-5.3-10.4-7.9-15.6
			c-0.3-0.5-0.5-1.1-0.8-1.6c-2.1-4.2-4.2-8.5-6.3-12.7c-5.8-11.9-11.5-23.9-16.7-36.1c-0.4-0.9-0.7-1.7-1.1-2.6
			c-2-4.7-4-9.5-5.9-14.3c-8.8-22-17.7-45.5-20.6-69.1c-0.1-1.1-0.3-2.3-0.2-3.4h-0.1c0,0.1,0,0.2,0,0.4
			C574.1,230.3,574.1,230.4,574.1,230.5z"/>
		<path style="fill:#1E223C;" d="M658.3,432.3l-242.2,63.3c1.1,5.3,2.4,11.3,3.3,16.7l247.5-64.8C664,442.5,661.1,437.4,658.3,432.3
			z"/>
		<path style="fill:#1E223C;" d="M667.2,447.5c-2.8-5-5.7-10.1-8.6-15.3l-0.3,0.1c2.9,5.1,5.7,10.2,8.7,15.3L667.2,447.5z"/>
		<path style="fill:#1E223C;" d="M1663.1,502.1c0.5-2.3,1.1-4.9,1.5-7.3l-242.7-63.5c-2.8,5-5.6,10.1-8.5,15.1l247.9,64.9
			C1661.8,508.8,1662.6,504.6,1663.1,502.1z"/>
		<path style="fill:#1E223C;" d="M1627.8,848.5c-1.2-61.7,3-123.3,9.7-184.6l-313.1-82c-43.3,57.5-89.1,108.3-141.9,153.1
			l445.3,116.5C1627.8,850.5,1627.8,849.5,1627.8,848.5z"/>
		<path style="fill:#1E223C;" d="M1644.2,612c0.2-1.3,0.9-6,1-7.2L1361,530.4c-3.3,4.9-6.7,9.8-10,14.7l291.9,76.4
			C1643.2,619.3,1643.9,614.3,1644.2,612z"/>
		<path style="fill:#1E223C;" d="M1505.6,230.5c-7.9,57.7-38.6,111.1-63.2,162.5l231,60.4c6.8-30.4,14.7-61,22.8-91.1
			c2.8-10.3,6.4-22.8,9.4-33.1c1.3-3.3,2.8-12.5,5.6-14.2c-0.9,0-1.8,0.3-2.4,0.8c-59-25.1-141.2-59.3-203.1-86.3
			C1505.7,229.7,1506.1,231,1505.6,230.5z"/>
		<path style="fill:#1E223C;" d="M1501,224.1l0.1,0.1c0.8,0.4,1.6,0.9,2.3,1.5C1502.7,225.1,1501.9,224.6,1501,224.1z"/>
		<path style="fill:#1E223C;" d="M1504,226.7c0.2,0.3,0.4,0.6,0.5,0.8c0.3,0.7,0.5,1.4,0.6,2.1c0.1,1.2,0,2.4-0.1,3.6
			c-2.9,23.6-11.9,47.2-20.6,69.1c-2.2,5.6-4.6,11.3-7,16.8c-5.3,12.2-10.9,24.2-16.7,36.1c-2.1,4.2-4.2,8.5-6.3,12.7
			c-0.3,0.5-0.5,1.1-0.8,1.6c-2.6,5.2-5.2,10.4-7.9,15.6c0,0.2,0,0.3-0.1,0.5c-0.7,1.4-1.5,2.9-2.2,4.3
			c-24.2,47.1-47.9,86.5-68.2,118c-40.1,62.1-82.9,117.5-127.5,164.5c-51.7,54.7-106,98.3-161.5,130c0,0-35.3,17.6-40.1,20l-0.5,0.3
			c0,0,0,0-0.1,0l-5.3,2.7l0.1,0.1l5.4-2.7l0,0l0.2-0.1h0.1l0.2-0.1c0.2-0.1,0.4-0.2,0.6-0.3c5.7-2.9,36.9-18.4,39.5-19.7
			c32.5-18.5,64.5-41.2,95.8-67.6h0.1l0.1-0.1l0.2,0.1c22.2-18.8,44.1-39.5,65.6-62.2c26-27.5,51.5-57.9,76.3-90.9l-0.4-0.1
			c8.9-11.9,17.7-24.1,26.4-36.6h0.1c0.1-0.1,0.1-0.2,0.2-0.2l0.3,0.1c3.4-4.8,6.7-9.7,10-14.7l-0.4-0.1c4.9-7.3,9.7-14.6,14.5-22
			c13.3-20.6,25.8-41.1,37.6-61.7h0.1c0.1-0.1,0.1-0.2,0.2-0.3l0.4,0.1c2.9-5,5.7-10,8.5-15.1l-0.5-0.1c5.9-10.6,11.6-21.2,17.3-32
			c1.1-2.1,2.2-4.2,3.3-6.3l0.4,0.1c0.5-1,1-1.9,1.5-2.9c0.4-0.9,0.9-1.8,1.3-2.6c0.3-0.5,0.6-1.1,0.8-1.6c0.2-0.2,0.2-0.5,0.2-0.7
			c1.3-2.6,2.6-5.1,3.9-7.7c1.3-2.6,2.7-5.2,3.9-7.8c0.2-0.3,0.3-0.6,0.4-0.9s0.2-0.5,0.4-0.8c1.1-2.1,2.1-4.2,3.2-6.4
			c1-2.1,2.1-4.2,3.1-6.3c5.2-10.6,11.2-23.2,16.7-36.1c2.4-5.5,4.8-11.2,7-16.8c8.9-22.1,17.7-45.7,20.6-69.3v-0.2
			c0-0.1,0-0.1,0-0.2c0-0.2,0.1-0.5,0.1-0.9c0-0.2,0-0.4,0-0.6s0.1-0.5,0.1-0.7c0.3,0.3,0.3,0,0.2-0.4c0-0.2-0.1-0.4-0.1-0.6h-0.1
			c-0.1-0.6-0.3-1.1-0.5-1.7c-0.1-0.4-0.4-0.7-0.6-1c-0.3-0.4-0.7-0.7-1.1-1.1c-0.7-0.6-1.5-1.1-2.3-1.5
			C1502.2,225.1,1503.2,225.7,1504,226.7z"/>
		<path style="fill:#1E223C;" d="M2279.4,1297.1c0.2-0.1,0.4-0.1,0.6-0.2c4.4-2.1,9-4.3,13.4-6.6l0,0
			c53.1-31.7,101.9-72.8,138.6-122.7c125.8-191.1,74.9-485.3,47.2-705.3l0,0l0,0c-0.7-3.5-1.2-6.9-1.9-10.4l0,0
			c-0.4-2-0.7-4.1-1.1-6.1l0,0c-8.7-46-19.2-95.1-32.9-139.8c-0.1,0-0.2-0.1-0.3-0.1c-3.7,0.1-17.8,5.4-23.6,7.2
			c-8.2,2.7-15.8,5.4-24,7.8c-1.4,0.4-4.9,1.2-5.7,2.7c39.2,149.4,58,306.5,62.9,461.5c7.8,147.3-7,323.7-137.1,416.5
			c-13,9.9-26.3,18.6-40.1,27.3c-2.1,1.4-3.4,3.8-3.1,6.3c0.9,13.4,3.2,42.7,5,57.8c0.3,2,0.3,4,2,3.9
			C2279.4,1297.1,2279.4,1297.1,2279.4,1297.1z"/>
		<path style="fill:#1E223C;" d="M3955.7,1229.2c-161.6-87-187.8-276.9-177.2-443.8c4.9-155,23.7-312,62.9-461.5
			c-0.8-1.5-4.2-2.3-5.7-2.7c-8.2-2.4-16-5.1-24-7.8c-5.9-1.3-20.3-8.2-24-7c-0.1,0-0.1,0.1-0.2,0.1c-28.9,100.3-46.7,209.3-55,312
			c-18.1,158.8-30.4,395.3,53.6,529c0,0,0,0.2,0.1,0.2c9.2,14.9,19.3,29.5,30.8,42.7l0,0c38.2,42.3,82.9,81.7,134.6,106.7
			c3.8,1.3,3-15.3,4.1-20.6C3955.6,1265.3,3962.9,1232.3,3955.7,1229.2z"/>
		<path style="fill:#1E223C;" d="M203.8,1299.7c0.3,0,0.6-0.1,0.8-0.1c35.6-10.5,69.5-28.9,98.6-52l0,0c2.5-1.9,5.6-4.5,8-6.6l0,0
			c194.1-166.6,147.6-542.9,100.1-768.4l0,0c-10.2-48.2-22.7-96.2-36.4-143.6l-1.7-5.8c-0.1-0.5-0.3-1-0.4-1.4l-0.3-1.1
			c-0.1-0.4-0.2-0.7-0.9-2.3c-0.5-0.8-0.7-2.2-1.3-2.9c-1.2-1.5-3.4-0.9-6-0.1l-36.2,13.9c-0.6,0.2-1.1,0.4-1.6,0.6l-5.9,2.2
			c-3.2,1-4.7,2.3-3.7,5.5c8.3,26.9,43.7,145.7,64.8,289.3c22.5,178.3,47.6,451.4-114.5,573.2c-16.2,11.4-33.9,20.6-52.2,28.1
			c-5.5,2.1-11,4.4-16.6,6.4c-1,0.4-2.1,0.6-2.3,1.7c0.7,16.4,2.6,32.7,4.2,48.9c0.5,4.7,0.8,9.7,1.8,14.3c0,0.2,0.1,0.6,0.4,0.7
			c0.3,0,0.7-0.1,1-0.1C203.8,1299.7,203.8,1299.7,203.8,1299.7z"/>
		<path style="fill:#1E223C;" d="M1883.9,1235.7c-321.8-107.7-177.5-701.6-120.3-897.9c2.2-5.4-6.3-5.9-9.6-7.7
			c-0.5-0.2-1-0.4-1.6-0.6l-36.2-13.9c-4.4-1.3-6.1-1.3-7.3,3c-1.3,3-2.3,7.6-3.3,10.6c-2.4,8.4-5.6,19.3-7.9,27.7
			c-10.4,38.3-20.4,77.1-28.5,115.9l0,0c-43.9,208.9-81.4,516.9,41.9,702.9c0,0,0,0,0,0.1c16.2,24.4,35.7,46.7,58.1,65.5l0,0
			c31,26.3,67.8,47.1,106.7,58.6c0.2,0.1,0.6,0.1,0.9,0.1c3,0.8,2.4-13.7,3.3-16.4c1.4-15.7,3.4-31.4,4-47.4
			C1884.3,1236.4,1884.1,1235.9,1883.9,1235.7z"/>
	</g>
	<g id="Color_1">
		<path style="fill:#90AEE2;" d="M3952.4,1297.2c-0.3,0-0.6,0.1-0.8-0.1c-62.1-30.3-129.5-90.4-165.4-149.4c-0.1,0-0.1-0.2-0.1-0.2
			c-59.6-92.9-74.7-266.6-64.9-392.6H2510.1c9.4,166.8-4.9,359.7-126.1,466.8c-31.3,28.8-65.4,56.7-104,75.2
			c-0.2,0.1-0.4,0.1-0.6,0.2c0,0,0,0-0.1-0.2c-0.5,0-0.7-0.1-1.1-0.4c0.3,0.6,0.8,1.2,1.6,1.2c22.4,233.8,64.9,997.9,0.7,1376.3
			c-2,14.7,12,20.4,24.1,22.3c26.8,6.8,47.3,10.7,75.1,15.2v-0.3c11.6,1.8,23,3.3,33.8,4.6v0.1c8.2,1,16.3,1.8,26.7,2.6v0.2
			c397.1,27,1281.8,33.5,1498.4-25.5c13.4-3.4,14.9-17.4,12.1-29c-62.9-367.7-21.1-1133.7,1.6-1366.7c0.1-0.1,0.2-0.2,0.4-0.4
			C3952.6,1297.1,3952.6,1297.2,3952.4,1297.2L3952.4,1297.2L3952.4,1297.2z"/>
		<path style="fill:#90AEE2;" d="M2510.1,754.5c0,0.1,0,0.3,0,0.4h1211.1c0-0.1,0-0.3,0-0.4H2510.1z"/>
		<path style="fill:#90AEE2;" d="M201.8,1300.7c0,1.1,0.9,1.3,1.8,1.1c0.1,0.1,0.2,0.1,0.3,0.1c20.7,205,67.7,1003.4,1.8,1380.7
			c-1.9,14.3,13.5,17.5,24.2,19.7c22.8,5.8,51.5,11.5,74.7,15v-0.1c157,28.3,1102.9,38.6,1436.3,4.6c41.2-4.6,74.8-10.9,116-21.2
			c16.3-2.3,19.9-15.2,16.5-29.8c-63.4-359.8-18.5-1172.5,2.6-1368.9c0.9-0.2,0.9-1.2,1.1-1.8c-67.7-19.5-127.2-65.8-166-124.3
			c0-0.1,0-0.1,0-0.1c-63.1-95.1-80.2-212.2-83.3-324.2l-445.4-116.4c-44.9,38.1-84.5,63.6-136.6,88.2c-0.2-0.1-5.8,3-5.9,3
			c-53.6-25.3-96-51.3-141.8-90.4L452.7,852.5c-3.2,179.8-56.4,388.6-248.9,447.2c0,0,0,0-0.3,0.4c-0.6,0.1-1.5,0.3-1.4-0.6
			L201.8,1300.7z"/>
		<path style="fill:#90AEE2;" d="M1086.5,802.5c0,0-0.1,0-0.2,0.1l0,0c0,0-33,16.5-39.5,19.7c-0.1,0.1-0.3,0.1-0.4,0.2l-0.4,0.2l0,0
			l-0.2,0.1h-0.1l-5.4,2.7l0,0l-0.2,0.1l-0.1-0.1l-0.4,0.2l-5.7-2.9h-0.1l-0.5-0.3c-4.8-2.4-40.1-20-40.1-20
			c-32.1-18.3-63.7-40.6-94.7-66.7l-0.4,0.1c31,26.2,62.8,48.6,95.1,67c0,0,35.3,17.6,40.1,20l0.5,0.3c0,0,0.2,0.1,0.3,0.1l5.8,3
			l5.8-3h0.1l0.6-0.4c4.8-2.4,40.1-20,40.1-20c32.4-18.5,64.5-41.2,95.9-67.8l-0.3-0.1C1150.9,761.4,1119,784,1086.5,802.5z"/>
		<path style="fill:#90AEE2;" d="M452.7,852.5L452.7,852.5l445.4-116.6l0,0L452.7,852.5z"/>
		<path style="fill:#90AEE2;" d="M898.5,735.8l-0.4,0.1l0,0L898.5,735.8L898.5,735.8z"/>
		<path style="fill:#90AEE2;" d="M1046.4,822.5c0.1-0.1,0.2-0.1,0.4-0.2c-0.2,0.1-0.4,0.2-0.6,0.3l-0.2,0.1l0,0L1046.4,822.5z"/>
		<rect x="1043" y="821.1" style="fill:#90AEE2;" width="0" height="6"/>
		<path style="fill:#90AEE2;" d="M1182.2,735L1182.2,735c-31.4,26.4-63.4,49.1-95.9,67.6c0.1-0.1,0.2-0.1,0.2-0.1
			C1119,784,1150.9,761.4,1182.2,735z"/>
		<path style="fill:#90AEE2;" d="M420.3,516.5c5.6,29.6,10.8,59.3,15.1,89.1l283.7-74.3c-18.3-27.2-36.1-55.7-52.1-83.7l-247.5,64.7
			L420.3,516.5z"/>
		<path style="fill:#90AEE2;" d="M719.1,531.3l0.4-0.1c-5.2-7.6-10.3-15.4-15.3-23.2c-11.4-17.7-23.9-37.9-36.9-60.5l-0.3,0.1
			c11.7,20.3,23.9,40.4,36.9,60.6C708.9,516,714,523.7,719.1,531.3z"/>
		<path style="fill:#90AEE2;" d="M1375.7,508.2c-4.8,7.4-9.6,14.7-14.5,22l284.1,74.3c4.5-31,10-62.1,15.9-92.9l-248.1-64.9
			C1401.3,467.3,1388.9,487.7,1375.7,508.2z"/>
		<path style="fill:#90AEE2;" d="M1360.9,530.1l0.3,0.1c4.9-7.2,9.7-14.5,14.5-22c13.2-20.5,25.6-40.9,37.5-61.5l-0.4-0.1
			c-11.7,20.6-24.2,41-37.4,61.5C1370.6,515.6,1365.8,522.9,1360.9,530.1z"/>
		<path style="fill:#90AEE2;" d="M1645.3,604.5l-284.1-74.3c-0.1,0.1-0.1,0.2-0.2,0.2l284.2,74.4
			C1645.2,604.7,1645.2,604.6,1645.3,604.5z"/>
		<path style="fill:#90AEE2;" d="M1360.9,530.1c4.9-7.2,9.7-14.5,14.5-22c13.2-20.5,25.7-40.9,37.4-61.5h-0.1
			c-11.8,20.6-24.3,41.1-37.6,61.7c-4.8,7.4-9.6,14.7-14.5,22l0.4,0.1c0.1-0.1,0.1-0.2,0.2-0.2L1360.9,530.1z"/>
	</g>
	<path id="Inside" style="fill:#F0F0F0;" d="M1020.4,750.8c4.3,2.1,14.7,7.5,19,9.3c171.4-84.1,332.1-321.2,397.6-502.8
		c0.2,0,0.2-0.6,0.2-0.8c-263.9,37-531.5,37.6-795.8,0.2c0,0.2,0.1,0.6,0.2,0.8v-0.1c7.6,21.7,16.7,44.3,27.1,67.5
		c-0.3-0.7-0.8-1.6-1.1-2.3C746.7,487.4,864.8,659.9,1020.4,750.8z"/>
</g>
</svg>
