<?xml version="1.0" encoding="utf-8"?>
<!-- Generator: Adobe Illustrator 28.0.0, SVG Export Plug-In . SVG Version: 6.00 Build 0)  -->
<svg version="1.1" id="Layer_1" xmlns="http://www.w3.org/2000/svg" xmlns:xlink="http://www.w3.org/1999/xlink" x="0px" y="0px"
	 viewBox="0 0 4414.7 2292.6" style="enable-background:new 0 0 4414.7 2292.6;" xml:space="preserve">
<g id="Shorts_00000128462996781974683520000004413893759365639332_">
	<g id="Color_3_00000068679181160378235790000012439254737984956055_">
		<g>
			<path style="fill:#F4F4F4;" d="M600.4,1848.3l-333.7,146.5c21.3,3.9,47,8.5,76.1,13.6L682,1859.5
				C654.2,1855.9,626.9,1852.1,600.4,1848.3z"/>
			<path style="fill:#F4F4F4;" d="M285.5,1796.5l-81.4,35.7c-0.9,15.9-1.8,31.9-2.7,48.1l159.8-70.1
				C331.2,1804.9,305.7,1800.2,285.5,1796.5z"/>
			<path style="fill:#F4F4F4;" d="M1682,1859.5l339,148.8c29.1-5,54.8-9.6,76.2-13.6l-333.6-146.4
				C1737,1852.1,1709.8,1855.9,1682,1859.5z"/>
			<path style="fill:#F4F4F4;" d="M2002.8,1810.2l159.6,70.1c-0.9-16.2-1.8-32.2-2.7-48.1l-81.2-35.7
				C2058.3,1800.2,2032.7,1804.9,2002.8,1810.2z"/>
		</g>
		<g>
			<path style="fill:#F4F4F4;" d="M3812.3,1848.3l333.7,146.5c-21.3,3.9-47,8.5-76.1,13.6l-339.2-148.9
				C3758.5,1855.9,3785.8,1852.1,3812.3,1848.3z"/>
			<path style="fill:#F4F4F4;" d="M4127.2,1796.5l81.4,35.7c0.9,15.9,1.8,31.9,2.7,48.1l-159.8-70.1
				C4081.5,1804.9,4107.1,1800.2,4127.2,1796.5z"/>
			<path style="fill:#F4F4F4;" d="M2730.7,1859.5l-339,148.8c-29.1-5-54.8-9.6-76.2-13.6l333.6-146.4
				C2675.7,1852.1,2702.9,1855.9,2730.7,1859.5z"/>
			<path style="fill:#F4F4F4;" d="M2409.9,1810.2l-159.6,70.1c0.9-16.2,1.8-32.2,2.7-48.1l81.2-35.7
				C2354.4,1800.2,2380,1804.9,2409.9,1810.2z"/>
		</g>
	</g>
	<g id="Color_2_00000031896270027658151200000006679007754149748405_">
		<path style="fill:#1E223C;" d="M361.2,1810.2l-159.8,70.1c-0.3,6.5-0.7,12.9-1,19.4l191.8-84.2
			C381.4,1813.7,371.1,1811.9,361.2,1810.2z"/>
		<path style="fill:#1E223C;" d="M1140.2,1895.4c-140,0-306.5-16.1-458.2-35.9l-339.2,148.9c193.8,33.6,541.9,86.6,806,85.4
			c0,0,3.5-65.7,5.3-132.1c0.6-22,1-44,1-63.7c0-0.9,0-1.7,0-2.6h-7.2C1145.3,1895.4,1142.8,1895.4,1140.2,1895.4z"/>
		<path style="fill:#1E223C;" d="M235.6,1786.9l-1.2-0.2c-9.2-1.8-18.2-3.5-27.2-5.3c-1.1,16.8-2.1,33.7-3.1,50.8l81.4-35.7
			C254.6,1790.7,236.6,1787.1,235.6,1786.9z"/>
		<path style="fill:#1E223C;" d="M567.9,1843.6l-331.6,145.6c8.8,1.7,19,3.6,30.4,5.7l333.7-146.5
			C589.4,1846.8,578.6,1845.2,567.9,1843.6z"/>
		<path style="fill:#1E223C;" d="M1971.8,1815.5l191.6,84.1c-0.3-6.5-0.7-13-1-19.4l-159.6-70.1
			C1992.9,1811.9,1982.5,1813.7,1971.8,1815.5z"/>
		<path style="fill:#1E223C;" d="M1763.6,1848.3l333.6,146.4c11.4-2.1,21.6-4,30.4-5.6l-331.5-145.5
			C1785.4,1845.2,1774.5,1846.8,1763.6,1848.3z"/>
		<path style="fill:#1E223C;" d="M2128.3,1786.9c-1,0.2-19,3.8-49.9,9.6l81.2,35.7c-1-17.1-2-34-3.1-50.7
			c-8.9,1.7-17.9,3.5-27.1,5.2L2128.3,1786.9z"/>
		<path style="fill:#1E223C;" d="M1223.8,1895.4c-2.6,0-5.1,0-7.7,0h-7.4c0,0.9,0,1.8,0,2.7c-0.1,19.8,0.1,41.9,0.5,64
			c1,66.2,3.2,131.8,3.2,131.8c264.3,1.2,614.2-51.9,808.6-85.5l-339-148.8C1530.2,1879.3,1363.7,1895.4,1223.8,1895.4z"/>
		<path style="fill:#1E223C;" d="M4051.5,1810.2l159.8,70.1c0.3,6.5,0.7,12.9,1,19.4l-191.8-84.2
			C4031.3,1813.7,4041.6,1811.9,4051.5,1810.2z"/>
		<path style="fill:#1E223C;" d="M3272.5,1895.4c140,0,306.5-16.1,458.2-35.9l339.2,148.9c-193.8,33.6-541.9,86.6-806,85.4
			c0,0-3.5-65.7-5.3-132.1c-0.6-22-1-44-1-63.7c0-0.9,0-1.7,0-2.6h7.2C3267.4,1895.4,3269.9,1895.4,3272.5,1895.4z"/>
		<path style="fill:#1E223C;" d="M4177.1,1786.9l1.2-0.2c9.2-1.8,18.2-3.5,27.2-5.3c1.1,16.8,2.1,33.7,3.1,50.8l-81.4-35.7
			C4158.1,1790.7,4176.1,1787.1,4177.1,1786.9z"/>
		<path style="fill:#1E223C;" d="M3844.8,1843.6l331.6,145.6c-8.8,1.7-19,3.6-30.4,5.7l-333.7-146.6
			C3823.3,1846.8,3834.1,1845.2,3844.8,1843.6z"/>
		<path style="fill:#1E223C;" d="M2441,1815.5l-191.6,84.1c0.3-6.5,0.7-13,1-19.4l159.6-70.1
			C2419.8,1811.9,2430.2,1813.7,2441,1815.5z"/>
		<path style="fill:#1E223C;" d="M2649.1,1848.3l-333.6,146.5c-11.4-2.1-21.6-4-30.4-5.6l331.5-145.5
			C2627.3,1845.2,2638.2,1846.8,2649.1,1848.3z"/>
		<path style="fill:#1E223C;" d="M2284.4,1786.9c1,0.2,19,3.8,49.9,9.6l-81.2,35.7c1-17.1,2-34,3.1-50.7c8.9,1.7,17.9,3.5,27.1,5.2
			L2284.4,1786.9z"/>
		<path style="fill:#1E223C;" d="M3188.9,1895.4c2.6,0,5.1,0,7.7,0h7.4c0,0.9,0,1.8,0,2.7c0.1,19.8-0.1,41.9-0.5,64
			c-1,66.2-3.2,131.8-3.2,131.8c-264.3,1.2-614.2-51.9-808.6-85.5l339-148.8C2882.5,1879.3,3049,1895.4,3188.9,1895.4z"/>
	</g>
	<g id="Color_1_00000010277010097913906810000013741517957537291155_">
		<path style="fill:#90AEE2;" d="M2163.4,1899.7l-191.6-84.1c10.8-1.8,21.1-3.6,31-5.4c30-5.3,55.5-9.9,75.7-13.7
			c31-5.8,48.9-9.4,49.9-9.6l1.2-0.2c9.1-1.8,18.1-3.5,27.1-5.2c-66-1042.8-245.6-1437.7-245.6-1437.7c5.2-73.1-2.9-120.2-6.9-137.7
			c-1-4.5-5-7.6-9.6-7.4c-58.5,1.9-116.4,3.5-174,4.6c-20.7,0.4-41.3,0.8-61.9,1.1c-12.4,0.2-24.8,0.4-37.1,0.6
			c-149.2,2.2-296.7,2.4-446.1,2.4c-145.6,0-288-0.4-433.1-2.5c-12.4-0.2-24.7-0.4-37.1-0.6c-20.6-0.3-41.2-0.7-61.9-1.1
			c-57.9-1.2-116.4-2.7-175.9-4.6c-3.6-0.1-6.7,2.3-7.5,5.8c-3.7,16-12.6,63.8-7.2,139.4c0,0-179.6,394.9-245.5,1437.7
			c9,1.7,18,3.5,27.2,5.3l1.2,0.2c1,0.2,19,3.8,49.9,9.6c20.1,3.7,45.7,8.4,75.7,13.7c9.9,1.7,20.2,3.5,31,5.4l-191.8,84.2
			c-1.4,26.8-2.7,54.1-4,81.7c0,0,14.3,2.9,39.9,7.7L568,1843.7c10.7,1.6,21.5,3.2,32.5,4.7c26.5,3.8,53.8,7.5,81.6,11.2
			c151.8,19.8,318.2,35.9,458.2,35.9c2.6,0,5.1,0,7.7,0h7.2c0-5.9,0-11.5-0.1-16.9c-0.1-6.4-0.1-12.8-0.1-19.2
			c0-17.2,0.4-34.3,0.7-51.4c0.7-34.3,1.8-68.6,3.1-102.9c1.4-36.2,3-72.4,5.2-108.6c1.8-29.2,3.7-58.4,7-87.5
			c1-8.6,1.9-24.3,3.6-32.8c0.7-3.7,1.7-8,7.5-8c3.4,0,6.5,1.7,7.3,4.4c2.2,7.4,2.5,17.3,3.5,25c3.6,27,4.4,55.5,6.1,82.6
			c2.3,35.5,4,71.1,5.5,106.7c1.4,35.1,2.6,70.3,3.4,105.5c0.5,22.4,1,44.8,1.1,67.2c0,3.5,0,7,0,10.6c0,2.9,0,5.7-0.1,8.6
			c-0.1,5.4-0.1,11-0.2,16.9h7.4c2.6,0,5.1,0,7.7,0c140,0,306.5-16.1,458.2-35.9c27.8-3.6,55-7.4,81.6-11.2
			c11-1.6,21.8-3.1,32.5-4.7l331.5,145.5c25.5-4.8,39.8-7.7,39.8-7.7C2166.1,1953.8,2164.8,1926.5,2163.4,1899.7z"/>
		<path style="fill:#90AEE2;" d="M2249.3,1899.7l191.6-84.1c-10.8-1.8-21.1-3.6-31-5.4c-30-5.3-55.5-9.9-75.7-13.7
			c-31-5.8-48.9-9.4-49.9-9.6l-1.2-0.2c-9.1-1.8-18.1-3.5-27.1-5.2c65.9-1042.8,245.5-1437.7,245.5-1437.7
			c-5.2-73.1,2.9-120.2,6.9-137.7c1-4.5,5-7.6,9.6-7.4c58.5,1.9,116.4,3.5,174,4.6c20.7,0.4,41.3,0.8,61.9,1.1
			c12.4,0.2,24.8,0.4,37.1,0.6c149.2,2.2,296.7,2.4,446.1,2.4c145.6,0,288-0.4,433.1-2.5c12.4-0.2,24.7-0.4,37.1-0.6
			c20.6-0.3,41.2-0.7,61.9-1.1c57.9-1.2,116.4-2.7,175.9-4.6c3.6-0.1,6.7,2.3,7.5,5.8c3.7,16,12.6,63.8,7.2,139.4
			c0,0,179.6,394.9,245.5,1437.7c-9,1.7-18,3.5-27.2,5.3l-1.2,0.2c-1,0.2-19,3.8-49.9,9.6c-20.1,3.7-45.7,8.4-75.7,13.7
			c-9.9,1.7-20.2,3.5-31,5.4l191.8,84.2c1.4,26.8,2.7,54.1,4,81.7c0,0-14.3,2.9-39.9,7.7l-331.6-145.6c-10.7,1.6-21.5,3.2-32.5,4.7
			c-26.5,3.8-53.8,7.5-81.6,11.2c-151.8,19.8-318.2,35.9-458.2,35.9c-2.6,0-5.1,0-7.7,0h-7.2c0-5.9,0-11.5,0.1-16.9
			c0.1-6.4,0.1-12.8,0.1-19.2c0-17.2-0.4-34.3-0.7-51.4c-0.7-34.3-1.8-68.6-3.1-102.9c-1.4-36.2-3-72.4-5.2-108.6
			c-1.8-29.2-3.7-58.4-7-87.5c-1-8.6-1.9-24.3-3.6-32.8c-0.7-3.7-1.7-8-7.5-8c-3.4,0-6.5,1.7-7.3,4.4c-2.2,7.4-2.5,17.3-3.5,25
			c-3.6,27-4.4,55.5-6.1,82.6c-2.3,35.5-4,71.1-5.5,106.7c-1.4,35.1-2.6,70.3-3.4,105.5c-0.5,22.4-1,44.8-1.1,67.2c0,3.5,0,7,0,10.6
			c0,2.9,0,5.7,0.1,8.6c0.1,5.4,0.1,11,0.2,16.9h-7.4c-2.6,0-5.1,0-7.7,0c-140,0-306.5-16.1-458.2-35.9c-27.8-3.6-55-7.4-81.6-11.2
			c-11-1.6-21.8-3.1-32.5-4.7L2285,1989.4c-25.5-4.8-39.8-7.7-39.8-7.7C2246.6,1953.8,2247.9,1926.5,2249.3,1899.7z"/>
	</g>
</g>
</svg>
