<?xml version="1.0" encoding="utf-8"?>
<!-- Generator: Adobe Illustrator 28.0.0, SVG Export Plug-In . SVG Version: 6.00 Build 0)  -->
<svg version="1.1" id="Layer_1" xmlns="http://www.w3.org/2000/svg" xmlns:xlink="http://www.w3.org/1999/xlink" x="0px" y="0px"
	 viewBox="0 0 4159.4 2943.3" style="enable-background:new 0 0 4159.4 2943.3;" xml:space="preserve">
<g id="Jersey">
	<g id="Color_3_00000054983513451159156840000005116481591636025013_">
		<path style="fill:#66C0D1;" d="M1673.9,457.7C1673.9,457.7,1673.8,457.7,1673.9,457.7L1673.9,457.7c2.8-12.9,6.2-26.5,9.3-39.3
			l-197.3-95.2l-6-3.1c-5.3,12.2-10.9,24.2-16.7,36.1l7.6,3.5L1673.9,457.7z"/>
		<path style="fill:#66C0D1;" d="M621.3,356.2c-5.8-11.9-11.5-23.9-16.7-36.1l-5.9,3l-197.3,95.2c3.1,12.9,6.5,26.4,9.3,39.4l203-98
			L621.3,356.2z"/>
		<path style="fill:#66C0D1;" d="M396.1,1136.3c-9.9,19.8-21.6,38.7-34.8,56.3v1441.1v89.8c14.9,1.2,9.4,0.8,35.6,2.4V1134.7
			C396.6,1135.3,396.3,1135.8,396.1,1136.3z"/>
		<path style="fill:#66C0D1;" d="M1723.5,1192.8c-4-5.1-7.6-10.3-11.2-15.8c0-0.1,0-0.1,0-0.1c-9-13.4-17.2-27.5-24.4-41.9v1590.8
			c8.2-0.5,16.4-1,24.7-1.5l0,0c3.6-0.3,7.2-0.8,10.9-1.1v-89.5V1192.8L1723.5,1192.8z"/>
		<path style="fill:#66C0D1;" d="M2454.8,1141c-2,3.6-4.2,7.5-6.4,11.1c0,0,0.1,0.2-0.1,0.2c-3.9,6.2-7.9,12.4-12.1,18.4v1551
			c3.6,0.3,7.1,0.6,10.6,0.9v0.1c-1.2-0.1-2.6-0.2-3.8-0.3v0.2c9.6,0.6,19.2,1.2,28.8,1.8v-1619
			C2466.6,1118,2460.9,1129.9,2454.8,1141z"/>
		<path style="fill:#66C0D1;" d="M3788.9,1154.7c-9.7-16-17.5-31.6-25-49.4v1619.1c9.6-0.6,19.2-1.2,28.8-1.8v-0.2
			c-1.2,0.1-2.6,0.2-3.8,0.3v-0.1c3.6-0.3,7.1-0.6,10.6-0.9V1170.9C3796,1165.8,3792.3,1160.4,3788.9,1154.7z"/>
		<path style="fill:#66C0D1;" d="M2476.6,434.8c1,5.1,2.1,10.3,2.9,15.4c86.7-42.7,281.5-138.8,369.8-182.3
			c-1.8-0.3-3.5-0.7-5.3-0.9c-0.1,0-0.2,0-0.3,0l0,0c-2.7-0.4-5.4-1-8.1-1.5c-0.5,0-0.9-0.1-1.3-0.2c0,0-0.1,0-0.2,0
			c-15.2-2.8-30.4-6.9-45.1-11.6l0,0c0,0,0.1,0,0.1,0.1c-77.1,38-241.6,119.2-317.4,156.6c0.2,1,0.4,2,0.6,2.9h-0.1
			C2473.7,420.5,2475.2,427.7,2476.6,434.8z"/>
		<path style="fill:#66C0D1;" d="M3756.3,450.6c0-0.1,0-0.1,0-0.2s0-0.2,0-0.3c2.1-11.3,4.3-22.6,6.7-33.9c0.3-1.6,0.6-3.3,1-4.9
			c0.1-0.1,0.1-0.4,0.1-0.5l-242.8-119.9l-75.1-37.1c-19.5,6.4-39.6,11.2-60,14.3h-0.1l1.8,0.9L3756.3,450.6z"/>
	</g>
	<g id="Color_2_00000134211702034933699740000002909974329881221305_">
		<path style="fill:#2D2B2A;" d="M373.9,318.4c10.8,32.6,18.9,66.5,27.5,99.9l197.3-95.2l5.9-3c-11.4-27.5-23.8-56.2-27.6-86l0,0
			c-0.2-1.1-0.3-2.4-0.3-3.5c-67.8,29.2-167.8,71.1-203.5,86.4C373.5,317.4,373.6,317.8,373.9,318.4z"/>
		<path style="fill:#2D2B2A;" d="M1673.5,459.5c0.1-0.6,0.3-1.2,0.4-1.8l-203.1-98l-7.6-3.5c-2.4,4.7-4.7,9.6-7.1,14.3
			c54.7,26.9,159.8,77,214.3,103.5C1671.3,469.3,1672.5,464.2,1673.5,459.5z"/>
		<path style="fill:#2D2B2A;" d="M620.2,374.7l8.1-4.1c-2.3-4.8-4.6-9.7-7-14.4l-7.7,3.6l-202.9,97.9c1.1,5.3,2.4,11,3.5,16.3l0,0
			C465.3,449.3,569.4,399.1,620.2,374.7z"/>
		<path style="fill:#2D2B2A;" d="M218.8,2698.2c27.9,7.4,58.2,13.9,87.2,18.3l0,0l0,0l0,0c2.3,0.3,17.9,2.4,26.4,3.7
			c3.1,0.4,6.1,1,9.2,1.4l0,0c6.7,0.8,13.2,1.4,19.7,1.9v-89.8V1192.6c-38.4,51-93.3,91.3-154.9,108.9
			c20.7,200.5,67.2,1001,3.2,1369.4C207.7,2681.2,205.9,2694.9,218.8,2698.2z"/>
		<path style="fill:#2D2B2A;" d="M427.3,1056.4v-0.6c-6.4,22.5-20.9,57.6-30.5,78.9V2726c8.2,0.5,18.4,1.1,30.5,1.8V1056.4z"/>
		<path style="fill:#2D2B2A;" d="M1877.9,1301.3c-61.2-17.8-116.2-57.6-154.4-108.4v1440.9v89.5c6.3-0.6,12.8-1.2,19.4-1.9l0,0
			c11.4-1.7,26.4-3.1,35.6-4.4l0,0c24.2-3.6,50.7-9.1,74-14.9c11.5-1.9,25.5-7.1,23.5-21.4c-64.2-369.2-19.1-1177.4,2.4-1379.2
			C1878.2,1301.4,1878,1301.3,1877.9,1301.3L1877.9,1301.3z"/>
		<path style="fill:#2D2B2A;" d="M1687.9,1135c-11.7-23.9-23-52.8-30.5-78.4v1671l0,0c10.2-0.6,20.3-1.2,30.5-1.8V1135z"/>
		<path style="fill:#2D2B2A;" d="M2428.3,1181.6c-38.4,47.8-90.1,93-145.4,120.1c-0.1,0.1-0.2,0.1-0.3,0.1c0,0.1,0.1,0.3,0,0.4
			c-0.1,0-0.1,0-0.1,0c23,245.7,64.6,996.2,0.7,1376.7c-2,14.1,11.9,19.6,23.5,21.4c34.8,9.2,73.9,15,109.6,19.3v0.1
			c6.8,0.8,13.4,1.5,19.9,2v-1551C2433.7,1174.4,2431,1178.1,2428.3,1181.6z"/>
		<path style="fill:#2D2B2A;" d="M2471.8,1105.5v1619c10.2,0.6,20.3,1.2,30.5,1.8v-0.4v-1727
			C2495,1038.5,2484.9,1074.1,2471.8,1105.5z"/>
		<path style="fill:#2D2B2A;" d="M3952.8,1301.6c-0.1,0-0.2-0.1-0.3-0.1c-57.6-28.9-115.1-78.8-153-130.7v1550.9
			c6.5-0.6,13.1-1.2,19.9-2v-0.1c35.7-4.3,74.9-10.1,109.6-19.3c11.6-1.8,25.5-7.2,23.5-21.4c-63.9-379.2-22.3-1132.7,0.7-1376.7
			c0,0,0,0-0.1,0c0-0.1,0-0.1,0-0.2c0.1,0,0.1,0,0.1,0v-0.3l0,0c0-0.1,0-0.1,0-0.2c-0.1,0.2-0.1,0.2-0.1,0.2
			C3953,1301.6,3952.9,1301.6,3952.8,1301.6z"/>
		<path style="fill:#2D2B2A;" d="M3763.9,1105.3c-13-31.3-23.2-66.8-30.5-106.4v0.3v1727.1l0,0c0.3,0,0.6,0,0.9-0.1
			c9.8-0.6,19.6-1.1,29.4-1.8c0.1,0,0.2,0,0.3,0L3763.9,1105.3L3763.9,1105.3z"/>
		<path style="fill:#2D2B2A;" d="M2872.7,270.8c-7.9-0.6-15.7-1.6-23.5-2.8c-88.9,43.8-282.5,139.2-369.7,182.2
			c-0.9-5.1-1.9-10.3-2.9-15.4l-0.1,0.1c2.1,10.6,3.9,21.4,5.9,32l0,0c0.1,0.2,0.1,0.3,0.1,0.5l0,0c0.1,0.8,0.3,1.7,0.4,2.5l0.1-0.1
			l0,0c-0.1-1-0.3-2-0.5-3l0,0l8-4l387.2-191.6C2875.9,271.1,2874.3,271,2872.7,270.8z"/>
		<path style="fill:#2D2B2A;" d="M2446.8,311c0.1,0,0.1,0.1,0.2,0.1c9.4,32.3,18.2,69.6,25.1,102.3c0,0,0.1-0.1,0.2-0.1
			c-0.2-1-0.4-2-0.6-2.9c75.5-37.2,240.8-118.8,317.4-156.6c-0.1-0.1-0.1-0.1-0.2-0.1c-33.3-11.1-65.9-26.3-93.4-48.4
			c-0.1-0.1-0.2-0.2-0.2-0.3s0-0.1-0.1-0.2c-52.8,22.4-200.8,85.3-248.9,105.9C2446.5,310.8,2446.6,310.9,2446.8,311z"/>
		<path style="fill:#2D2B2A;" d="M3740.7,460.9L3740.7,460.9l12.6,6.2c0-0.1,0-0.1,0-0.2c0.1-0.4,0.1-0.7,0.2-1.1
			c0.6-3.1,1.1-6.2,1.7-9.3c0.3-1.7,0.6-3.5,0.9-5.2c0.1-0.2,0.1-0.5,0.2-0.7L3388,269l-1.8-0.9l0,0c-7.6,1.1-15.2,2.1-22.9,2.7
			c-2.1,0.2-4.4,0.4-6.8,0.5l-0.1,0.1L3740.7,460.9z"/>
		<path style="fill:#2D2B2A;" d="M3535,209.1c-6.1,4.4-12.2,9.1-18.5,13.1c-3.2,2-6.4,4-9.6,5.9c-3.1,1.8-6.5,3.4-9.7,5
			c-16.2,8-33.9,14.8-51,20.6l0.2,0.1l75.1,37l242.6,119.9c0-0.1,0-0.1,0.1-0.2c0-0.1,0-0.1,0-0.2c2-9.3,4.1-18.6,6.2-27.9
			c2.6-11.2,5.3-22.4,8.1-33.6l9.9-37.3c0-0.3,0.2-0.5,0.4-0.7c0.1-0.1,0.3-0.2,0.4-0.3l0,0c-49.2-20.9-195.9-84.6-248.2-106.8
			L3535,209.1z"/>
	</g>
	<g id="Color_1_00000150087909070130400120000014954931110250983042_">
		<path style="fill:#FCFCFC;" d="M834.3,673.4c-81.2-86.6-148.1-187-205.8-302.7c-54.6,26.8-159.1,76.7-214.2,103.5
			c19.8,91.9,33.7,185.3,39.3,279.2c2.3,42.1,3.2,84.4,1.1,126.6c-1.1,23.9-3,47.7-6,71.4c-3.3,25-7.5,49.9-13.4,74.4
			c-2.1,9.2-4.6,18.6-7.1,27.7c-2.5,4.3,0.1,1669.9-0.8,1674.1c163.8,9.2,671.6,31.9,1230.1,0c-0.9-3.3,1.8-1671.5-0.9-1674.2
			c-2.5-9.1-5-18.5-7.1-27.7c-5.9-24.5-10.1-49.4-13.4-74.4c-3-23.7-4.9-47.5-6-71.4c-2.1-42.2-1.2-84.5,1.1-126.6
			c5.7-93.9,19.5-187.2,39.3-279.1c-54.3-26.4-159.6-76.6-214.2-103.4C1360,559.2,1235,735,1048.3,824c-0.1-0.1-5.7,2.9-5.8,2.9
			c-0.1,0-5.6-3-5.8-2.9C957,786.9,895.9,737.9,834.3,673.4z"/>
		<path style="fill:#FCFCFC;" d="M3721.4,895c-4.7-83,2.6-166.5,9.7-243c5.4-60.8,10.8-122.5,22.1-184.8l-12.5-6.3l-384.3-189.5
			l0.1-0.1c-65.5,2.9-131.5,3.7-197.1,4.3c0.3,0,0.7,0,0.9-0.1c-0.1,0-0.3,0-0.4,0c-0.1,0-0.3,0-0.4,0
			c-76.2,0.3-154.1-0.1-230.3-2.4c-16.1-0.5-31.8-1-47.8-1.7c-3.8-4-387.6,191.8-390.9,191.4c-0.2,0.1-8,4-8,4c0.2,1,0.4,2,0.5,3
			l0,0l-0.1,0.1c19.5,127.4,32.5,238.2,32.9,369.4c0.2,62.7-13.5,159.6-13.5,159.6v1726.9c164.5,9,682.4,32.1,1231.1,0.4v-1727
			C3727.5,967.1,3723.5,932.3,3721.4,895z"/>
	</g>
	<path id="Inside" style="fill:#D6D6D6;" d="M1428.8,258.5c-127.9,14.6-257.1,28.2-386.3,27.8c-132.7,0.4-266.3-13.5-398.4-29.1
		c0.1,0.9,0.2,1.7,0.4,2.4l-0.2,0.2c66.4,180.7,226,418,397.7,501.3c168-80.4,336.5-326,398.4-504.1
		C1434,257.8,1433.5,257.9,1428.8,258.5z"/>
	<g id="Trim">
		<g>
			<path style="fill:none;" d="M650.5,257.4c0,0-3.2-0.4-6.8-1c4.5,21.5,13.9,39.4,23.2,60.6c83.4,172.4,205.5,357.6,375.1,444.2
				c169.5-87.1,292.2-271.8,375.4-444.8c9.1-20.6,19.1-39.5,23.1-60c-128.6,15-257.8,28.8-387.6,29.3
				C918.9,286.7,783.8,273.1,650.5,257.4z"/>
			<path style="fill:#2D2B2A;" d="M1507.8,230.3c-0.7,7.8-2,15.6-3.8,23.2c-4,17.2-10.6,34.3-16.8,50.3c-2,4.4-4,8.8-6,13.3
				c-0.4,1-0.8,1.9-1.2,2.9l5.9,3l197.3,95.2c0.5-2.1,1.6-6.5,2.1-8.6c5.2-20.3,10.5-41.2,16.3-61.3c3.2-9.8,5.5-22.2,9.8-31.5
				C1675.9,301.6,1575.5,259.6,1507.8,230.3z"/>
			<path style="fill:#0C0C0C;" d="M1503.9,253.5c1.8-7.6,3-15.3,3.5-22.9c-0.8-5.3-7.4-6.6-11.1-9.5c-19.7-12.2-46.9-25.4-63-21.9
				c1.5-0.4-245.6,31-391.3,28.9c-147.2,1.6-390.8-28.6-391.3-28.9c-3.5-0.4-20.8-1.3-37.9,8.1c-6.2,3.4-12.5,6.8-18.7,10.2
				c-5.9,4.4-18.6,7-17.3,15.4c0,0.4,0.1,0.8,0.2,1.2c8.8,54,35.4,103.4,59.3,152c98,184.6,214.5,347.7,400.1,437.6
				c0.1-0.1,5.7,2.9,5.8,2.9c0.1,0,5.6-3,5.8-2.9c202.5-97.4,339.1-299.2,433.2-506.6c2-4.4,4-8.8,6-13.3
				C1493.3,287.8,1499.9,270.8,1503.9,253.5z M1417.4,316.4c-83.2,173-205.9,357.7-375.4,444.8C872.3,674.6,750.3,489.4,666.9,317
				c-9.3-21.2-18.8-39.1-23.2-60.6c3.6,0.6,6.8,1,6.8,1c133.3,15.7,268.4,29.3,402.4,28.3c129.8-0.5,259-14.3,387.6-29.3
				C1436.4,276.9,1426.4,295.8,1417.4,316.4z"/>
		</g>
		<path style="fill:#0C0C0C;" d="M207.4,1301.4c315.3-102.7,261-571.2,206.8-827.4l0,0c-1.1-5.3-2.4-11-3.5-16.3l0,0
			c-10-44.6-21.7-89.2-34.6-133.1c-0.1-0.5-0.3-1-0.4-1.4l-0.3-1.1c-0.1-0.4-0.2-0.7-0.9-2.3c-0.5-0.8-0.7-2.1-1.2-2.8
			c-1.2-1.6-3.4-1-6-0.2c-5.9,2.5-38.7,14.7-43.7,16.7c-3.2,1-4.7,2.3-3.7,5.5c8.3,26.9,43.7,145.7,64.8,289.3
			c23,181.1,48.9,469.2-128.5,582.3c-17.8,11-37.4,18.7-56.7,26.3c-1,7.9,1.1,18.8,1.6,26.6c1.2,12.4,1.9,25.1,4,37.4
			C204.9,1302.1,206.7,1301.4,207.4,1301.4z"/>
		<path style="fill:#0C0C0C;" d="M1669.2,479.7c-43,207.8-79.4,512.3,43.1,697.3c0,0,0,0,0,0.1c38.1,57.8,96.4,102.8,162.6,123.5
			c1.2,0.4,2.6,0.8,4,0.8c1.8-4.6,1.4-10,2.2-15c1.6-16.2,3.5-32.4,4.2-48.9c-321-107.2-178.3-702.1-120.5-898.4
			c1-3.2-0.5-4.4-3.7-5.5l-5.9-2.2c-0.5-0.2-1-0.4-1.6-0.6l-36.2-13.9c-4.4-1.4-6.1-1.2-7.3,3c-1.1,3-2.4,7.5-3.3,10.6
			c-2.4,8.4-5.6,19.4-7.9,27.7C1687.9,398.3,1677.6,439,1669.2,479.7z"/>
		<path style="fill:#0C0C0C;" d="M2695.6,205.4c27.6,22.1,60.1,37.2,93.4,48.4c14.7,4.7,29.9,8.8,45.1,11.6c0.5,0,1,0.1,1.5,0.2
			c2.7,0.5,5.4,1.1,8.1,1.5l0,0c0.1,0,0.2,0,0.3,0c40.2,6.7,81.4,5.3,122.1,7c63.9,1.3,130,1.7,194,1.4l0,0c0,0,0.1,0,0.2,0
			c41.8-0.3,83.9-0.8,125.7-1.8c21.1-0.6,42-1.3,62.9-2c33.2-1.3,65.9-7.7,97.6-17.9c33.2-11.6,68.9-25.8,94.5-49.9
			c-1.4-2.8-5.2-3.8-7.9-5c-3.1-1.2-14.1-5.5-17.3-6.4c-11-3.6-26.3-8.5-37.7-11c-16.4-0.8-16.8,5.4-62.9,15.4
			c-28.6,7.5-56.4,12-86.1,15.3c-102.6,10-212,4.9-315,5.5c-61.4-0.1-123.4-4.3-183.3-18.3c-26.4-6.1-65.7-17.8-63.4-17.6
			c-11.3-2.6-26.7,5.1-37.7,7.7c-7.7,3-35.9,10.2-34.4,15.6C2695.4,205.1,2695.5,205.2,2695.6,205.4z"/>
		<path style="fill:#0C0C0C;" d="M2282.9,1301.7c62.1-30.3,129.5-90.4,165.4-149.4c0.1,0,0.1-0.2,0.1-0.2
			c107.5-188.5,61.2-476.5,34.1-684.7l0,0c0-0.2-0.1-0.3-0.1-0.5l0,0c-9.2-51.7-20.8-105.2-35.4-155.8c-0.1,0-0.1-0.1-0.2-0.1
			c-0.2-0.2-0.5-0.3-0.7-0.4c-13.5,4-32.9,10.8-47.3,15.2c-11.3,1.4-3.6,11.8-1.5,23.1c39.2,143.4,52.6,292.9,58.7,441.1
			c8.9,153.3-10.1,337.1-151.4,426.9c-5.9,5.7-30.5,16.1-29.1,23.2c0.9,13.4,3.2,42.7,5,57.8
			C2280.8,1300.1,2281,1302.4,2282.9,1301.7z"/>
		<path style="fill:#0C0C0C;" d="M3960.2,1238.1c-1.9-6.3-10.1-8.1-14.8-12.1c-9.7-6.3-19.1-12.7-28.3-19.8
			c-79.9-55.4-118-151.4-132-244.8c-18.7-211,7.6-428.7,57.8-633.2c-0.8-1.5-4.3-2.3-5.7-2.7c-8.2-2.4-15.8-5.1-24-7.8
			c-5.8-1.9-20-7.3-23.6-7.2c-0.1,0-0.2,0.1-0.3,0.1c-36.4,120.7-51.3,249.7-61,374.1c-14,158.4-20.9,356.1,75.7,492.2
			c38.8,49.9,92,96.1,148.6,124.6c0.2,0.1,0.4,0.1,0.6,0.2c0,0,0,0,0.1-0.2l0,0c3.5-0.9,2.5-14.6,3.7-20.7
			C3958.2,1267.1,3959.8,1250,3960.2,1238.1z"/>
	</g>
</g>
</svg>
