<?xml version="1.0" encoding="utf-8"?>
<!-- Generator: Adobe Illustrator 28.0.0, SVG Export Plug-In . SVG Version: 6.00 Build 0)  -->
<svg version="1.1" id="Layer_1" xmlns="http://www.w3.org/2000/svg" xmlns:xlink="http://www.w3.org/1999/xlink" x="0px" y="0px"
	 viewBox="0 0 4416 4986.9" style="enable-background:new 0 0 4416 4986.9;" xml:space="preserve">
<g id="Shorts">
	<g id="Color_3">
		<path style="fill:#66C0D1;" d="M1864.7,3447.5c-24.8-116.3-53.2-231.7-85-346.2c-0.9-3.2-1.8-6.3-2.7-9.5
			c-10.2-36.7-34.1-119.8-52-184.8c-0.3-1-0.6-2.1-0.8-3.1c-0.6-2.1-1.2-4.2-1.7-6.3c-20.7,0.4-41.4,1-62,1.3
			c12.5,46.2,30,107.4,43.8,155.9c6.1,21.5,11.4,40.1,15,52.9c1.9,6.9,3.8,13.8,5.6,20.8c30.1,109.3,57.4,220.7,81.1,331.5
			c55.7,260,95.3,542.4,120.9,862.2l-716.3,270.1c-0.1,19.8,0.2,42.1,0.6,64.2l779.3-294.3
			C1967.1,4054.8,1929.3,3749.2,1864.7,3447.5z"/>
		<path style="fill:#66C0D1;" d="M561.6,3460.1c25.2-117.8,54.4-236.2,86.8-352.1c3.6-12.8,8.8-31.4,15-52.9
			c13.8-48.6,31.2-110,43.7-156.2c-0.4,0-0.9,0-1.3,0c-20.1-0.3-40.3-0.7-60.6-1.1l0,0c-14.1,51.5-32.8,117.3-45.5,162
			c-3.6,12.7-6.7,23.7-9.1,32.2c-14.2,51-27.8,102.2-40.7,153.6c-11.7,46.5-22.7,93.1-33.3,139.8c-4.7,20.7-9.2,41.5-13.7,62.3
			c-2,9.4-4,18.9-6,28.3c-61,292.5-97.1,588.6-119.7,886.5l778.6,294l0,0c0.6-22,1-44,1-63.8l-1.1-0.4l-715.2-270.1
			C466.3,4002.5,506,3720.1,561.6,3460.1z"/>
		<path style="fill:#66C0D1;" d="M3913.1,3447.5c-24.8-116.3-53.2-231.7-85-346.2c-0.9-3.2-1.8-6.3-2.7-9.5
			c-10.2-36.7-34.1-119.8-52-184.8c-0.3-1-0.6-2.1-0.8-3.1c-0.6-2.1-1.2-4.2-1.7-6.3c-20.7,0.4-41.4,1-62,1.3
			c12.5,46.2,30,107.4,43.8,155.9c6.1,21.5,11.4,40.1,15,52.9c1.9,6.9,3.8,13.8,5.6,20.8c30.1,109.3,57.4,220.7,81.1,331.5
			c55.7,260,95.3,542.4,120.9,862.2L3259,4592.3c-0.1,19.8,0.2,42.1,0.6,64.2l779.3-294.3
			C4015.5,4054.8,3977.7,3749.2,3913.1,3447.5z"/>
		<path style="fill:#66C0D1;" d="M2610,3460.1c25.2-117.8,54.4-236.2,86.8-352.1c3.6-12.8,8.8-31.4,15-52.9
			c13.8-48.6,31.2-110,43.7-156.2c-0.4,0-0.9,0-1.3,0c-20.1-0.3-40.3-0.7-60.6-1.1l0,0c-14.1,51.5-32.8,117.3-45.5,162
			c-3.6,12.7-6.7,23.7-9.1,32.2c-14.2,51-27.8,102.2-40.7,153.6c-11.7,46.5-22.7,93.1-33.3,139.8c-4.7,20.7-9.2,41.5-13.7,62.3
			c-2,9.4-4,18.9-6,28.3c-61,292.5-97.1,588.6-119.7,886.5l778.6,294l0,0c0.6-22,1-44,1-63.8l-1.1-0.4l-715.2-270.1
			C2514.7,4002.5,2554.4,3720.1,2610,3460.1z"/>
	</g>
	<g id="Color_2">
		<path style="fill:#2D2B2A;" d="M497,3476c2-9.5,3.9-19,6-28.5c4.4-20.7,9-41.4,13.7-62.1c10.5-46.7,21.6-93.3,33.3-139.8
			c12.9-51.4,26.4-102.7,40.7-153.8c2.4-8.5,5.5-19.4,9.1-32c12.7-44.7,31.4-110.5,45.5-162c-57.7-1.2-116.6-2.9-175.9-4.8
			c-3.6-0.1-6.7,2.3-7.5,5.8c-3.7,16-12.6,63.8-7.2,139.4c0,0-202.4,445.1-256.3,1637.7c0,0,566.1,114.1,952.3,112.4
			c0,0,3.5-65.6,5.3-131.8l-778.6-294C399.9,4064.6,436,3768.5,497,3476z"/>
		<path style="fill:#2D2B2A;" d="M1805.9,3460.1c-23.7-110.8-51-222.2-81.1-331.5c-1.9-6.9-3.8-13.7-5.7-20.6
			c-3.6-12.8-8.8-31.4-15-52.9c-13.8-48.6-31.2-109.9-43.7-156.1c-12.4,0.2-24.7,0.4-37,0.6c12.7,47.5,31.7,114.4,46.1,165.2
			l0.1,0.2c6.1,21.5,11.4,40,14.9,52.7c32.1,115.1,61.1,232.9,86.2,349.9c53.8,251.6,92.5,523.3,118.1,830.4h-0.1c0,0,0,0,0,0.1
			l-4.4,1.7L1214,4552.9l-3.4,1.2c0,3.5,0,7,0,10.6c0,2.9,0,5.7-0.1,8.5c-0.1,6.2,0.1,12.4,0,19.2l716.3-270.1
			C1901.2,4002.5,1861.6,3720.1,1805.9,3460.1z"/>
		<path style="fill:#2D2B2A;" d="M1912.9,3038.2c5.2-73.1-2.9-120.2-6.8-137.7c-1-4.5-5.1-7.6-9.6-7.4
			c-58.5,1.9-116.5,3.4-174.1,4.6c0.6,2.1,1.1,4.2,1.7,6.3c0.3,1,0.6,2,0.8,3.1c17.9,65,41.8,148,52.1,184.8
			c0.9,3.2,1.8,6.3,2.6,9.5c31.7,114.5,60.2,229.9,85,346.2c64.6,301.7,102.4,607.3,125.7,914.8L1211,4656.7
			c1,66.2,3.2,131.8,3.2,131.8c386.3,1.7,955-112.4,955-112.4C2115.3,3483.3,1912.9,3038.2,1912.9,3038.2z"/>
		<path style="fill:#2D2B2A;" d="M485.1,4300.4l-6.4-2.4c24.1-289.6,59.9-547.7,109.1-787.2c3-14.5,6-28.9,9-43.2
			c25.1-117,54.1-234.8,86.2-349.9c3.5-12.7,8.8-31.2,14.9-52.7v-0.2c13.8-48.7,31.7-112,44.4-158.9c0.6-2.1,1.2-4.3,1.7-6.4
			c-12.3-0.2-25.8-0.4-38.2-0.6l0,0c0.4,0,0.9,0,1.3,0c-12.5,46.2-29.9,107.6-43.7,156.2c-6.2,21.5-11.4,40.1-15,52.9
			c-32.4,115.9-61.6,234.3-86.8,352.1c-55.6,260-95.3,542.4-121,862.1l715.2,270.1l0.9,0.3c0-6.8,0-13.4-0.1-19.5
			c-0.1-6.4,0.3-12.5,0.3-18.9l-3.6-1.4L485.1,4300.4z"/>
		<path style="fill:#2D2B2A;" d="M2545.4,3476c2-9.5,3.9-19,6-28.5c4.4-20.7,9-41.4,13.7-62.1c10.5-46.7,21.6-93.3,33.3-139.8
			c12.9-51.4,26.4-102.7,40.7-153.8c2.4-8.5,5.5-19.4,9.1-32c12.7-44.7,31.4-110.5,45.5-162c-57.7-1.2-116.6-2.9-175.9-4.8
			c-3.6-0.1-6.7,2.3-7.5,5.8c-3.7,16-12.6,63.8-7.2,139.4c0,0-202.4,445.1-256.3,1637.7c0,0,566.1,114.1,952.3,112.4
			c0,0,3.5-65.6,5.3-131.8l-778.6-294C2448.3,4064.6,2484.4,3768.5,2545.4,3476z"/>
		<path style="fill:#2D2B2A;" d="M3854.3,3460.1c-23.7-110.8-51-222.2-81.1-331.5c-1.9-6.9-3.8-13.7-5.7-20.6
			c-3.6-12.8-8.8-31.4-15-52.9c-13.8-48.6-31.2-109.9-43.7-156.1c-12.4,0.2-24.7,0.4-37,0.6c12.7,47.5,31.7,114.4,46.1,165.2
			l0.1,0.2c6.1,21.5,11.4,40,14.9,52.7c32.1,115.1,61.1,232.9,86.2,349.9c53.8,251.6,92.5,523.3,118.1,830.4h-0.1c0,0,0,0,0,0.1
			l-4.4,1.7l-670.3,253.1l-3.4,1.2c0,3.5,0,7,0,10.6c0,2.9,0,5.7-0.1,8.5c-0.1,6.2,0.1,12.4,0,19.2l716.3-270.1
			C3949.6,4002.5,3910,3720.1,3854.3,3460.1z"/>
		<path style="fill:#2D2B2A;" d="M3961.3,3038.2c5.2-73.1-2.9-120.2-6.8-137.7c-1-4.5-5.1-7.6-9.6-7.4
			c-58.5,1.9-116.5,3.4-174.1,4.6c0.6,2.1,1.1,4.2,1.7,6.3c0.3,1,0.6,2,0.8,3.1c17.9,65,41.8,148,52.1,184.8
			c0.9,3.2,1.8,6.3,2.6,9.5c31.7,114.5,60.2,229.9,85,346.2c64.6,301.7,102.4,607.3,125.7,914.8l-779.3,294.3
			c1,66.2,3.2,131.8,3.2,131.8c386.3,1.7,955-112.4,955-112.4C4163.7,3483.3,3961.3,3038.2,3961.3,3038.2z"/>
		<path style="fill:#2D2B2A;" d="M2533.5,4300.4l-6.4-2.4c24.1-289.6,59.9-547.7,109.1-787.2c3-14.5,6-28.9,9-43.2
			c25.1-117,54.1-234.8,86.2-349.9c3.5-12.7,8.8-31.2,14.9-52.7v-0.2c13.8-48.7,31.7-112,44.4-158.9c0.6-2.1,1.2-4.3,1.7-6.4
			c-12.3-0.2-25.8-0.4-38.2-0.6l0,0c0.4,0,0.9,0,1.3,0c-12.5,46.2-29.9,107.6-43.7,156.2c-6.2,21.5-11.4,40.1-15,52.9
			c-32.4,115.9-61.6,234.3-86.8,352.1c-55.6,260-95.3,542.4-121,862.1l715.2,270.1l0.9,0.3c0-6.8,0-13.4-0.1-19.5
			c-0.1-6.4,0.3-12.5,0.3-18.9l-3.6-1.4L2533.5,4300.4z"/>
	</g>
	<g id="Color_1">
		<path style="fill:#FCFCFC;" d="M1884.3,4299.8l4.4-1.7h0.1c-25.6-307.1-64.3-578.8-118.1-830.4c-25.1-117-54.1-234.8-86.2-349.9
			c-3.5-12.7-8.8-31.2-14.9-52.7l-0.1-0.2c-14.4-50.8-33.4-117.7-46.1-165.2v-0.1c-149.2,2.2-296.7,2.4-446.1,2.4
			c-145.6,0-288-0.4-433.1-2.5c-0.7,2.4-1.3,4.6-1.9,6.5c-12.7,47-30.6,110.3-44.4,158.9v0.2c-6.1,21.5-11.4,40-14.9,52.7
			c-32.1,115.1-61.1,232.9-86.2,349.9c-3.1,14.3-6.1,28.7-9,43.2c-49.1,239.5-84.9,497.6-109.1,787.2l6.4,2.4l668.2,252.4l3.6,1.4
			c0-17.1,0.3-34.7,0.7-51.9c0.7-34.3,1.8-68.6,3.1-103c1.4-36.2,3-72.4,5.2-108.6c1.8-29.2,3.7-58.4,7-87.5
			c1-8.5,1.9-24.3,3.6-32.8c0.7-3.7,1.7-8,7.5-8c3.4,0,6.5,1.7,7.3,4.4c2.2,7.4,2.5,17.3,3.5,25c3.6,27,4.4,55.5,6.1,82.6
			c2.3,35.5,4,71.1,5.5,106.7c1.4,35.1,2.6,70.3,3.4,105.5c0.5,22.4,0.7,45.1,0.8,67.5l3.4-1.2L1884.3,4299.8z"/>
		<path style="fill:#FCFCFC;" d="M3932.7,4299.8l4.4-1.7h0.1c-25.6-307.1-64.3-578.8-118.1-830.4c-25.1-117-54.1-234.8-86.2-349.9
			c-3.5-12.7-8.8-31.2-14.9-52.7l-0.1-0.2c-14.4-50.8-33.4-117.7-46.1-165.2v-0.1c-149.2,2.2-296.7,2.4-446.1,2.4
			c-145.6,0-288-0.4-433.1-2.5c-0.7,2.4-1.3,4.6-1.9,6.5c-12.7,47-30.6,110.3-44.4,158.9v0.2c-6.1,21.5-11.4,40-14.9,52.7
			c-32.1,115.1-61.1,232.9-86.2,349.9c-3.1,14.3-6.1,28.7-9,43.2c-49.1,239.5-84.9,497.6-109.1,787.2l6.4,2.4l668.2,252.4l3.6,1.4
			c0-17.1,0.3-34.7,0.7-51.9c0.7-34.3,1.8-68.6,3.1-103c1.4-36.2,3-72.4,5.2-108.6c1.8-29.2,3.7-58.4,7-87.5
			c1-8.5,1.9-24.3,3.6-32.8c0.7-3.7,1.7-8,7.5-8c3.4,0,6.5,1.7,7.3,4.4c2.2,7.4,2.5,17.3,3.5,25c3.6,27,4.4,55.5,6.1,82.6
			c2.3,35.5,4,71.1,5.5,106.7c1.4,35.1,2.6,70.3,3.4,105.5c0.5,22.4,0.7,45.1,0.8,67.5l3.4-1.2L3932.7,4299.8z"/>
	</g>
</g>
<g id="Jersey">
	<g id="Color_3_00000054983513451159156840000005116481591636025013_">
		<path style="fill:#66C0D1;" d="M1802,457.7C1802,457.7,1801.9,457.7,1802,457.7L1802,457.7c2.8-12.9,6.2-26.5,9.3-39.3L1614,323.2
			l-6-3.1c-5.3,12.2-10.9,24.2-16.7,36.1l7.6,3.5L1802,457.7z"/>
		<path style="fill:#66C0D1;" d="M749.4,356.2c-5.8-11.9-11.5-23.9-16.7-36.1l-5.9,3l-197.3,95.2c3.1,12.9,6.5,26.4,9.3,39.4l203-98
			L749.4,356.2z"/>
		<path style="fill:#66C0D1;" d="M524.2,1136.3c-9.9,19.8-21.6,38.7-34.8,56.3v1441.1v89.8c14.9,1.2,9.4,0.8,35.6,2.4V1134.7
			C524.7,1135.3,524.4,1135.8,524.2,1136.3z"/>
		<path style="fill:#66C0D1;" d="M1851.6,1192.8c-4-5.1-7.6-10.3-11.2-15.8c0-0.1,0-0.1,0-0.1c-9-13.4-17.2-27.5-24.4-41.9v1590.8
			c8.2-0.5,16.4-1,24.7-1.5l0,0c3.6-0.3,7.2-0.8,10.9-1.1v-89.5V1192.8L1851.6,1192.8z"/>
		<path style="fill:#66C0D1;" d="M2582.9,1141c-2,3.6-4.2,7.5-6.4,11.1c0,0,0.1,0.2-0.1,0.2c-3.9,6.2-7.9,12.4-12.1,18.4v1551
			c3.6,0.3,7.1,0.6,10.6,0.9v0.1c-1.2-0.1-2.6-0.2-3.8-0.3v0.2c9.6,0.6,19.2,1.2,28.8,1.8v-1619
			C2594.7,1118,2589,1129.9,2582.9,1141z"/>
		<path style="fill:#66C0D1;" d="M3917,1154.7c-9.7-16-17.5-31.6-25-49.4v1619.1c9.6-0.6,19.2-1.2,28.8-1.8v-0.2
			c-1.2,0.1-2.6,0.2-3.8,0.3v-0.1c3.6-0.3,7.1-0.6,10.6-0.9V1170.9C3924.1,1165.8,3920.4,1160.4,3917,1154.7z"/>
		<path style="fill:#66C0D1;" d="M2604.7,434.8c1,5.1,2.1,10.3,2.9,15.4c86.7-42.7,281.5-138.8,369.8-182.3
			c-1.8-0.3-3.5-0.7-5.3-0.9c-0.1,0-0.2,0-0.3,0l0,0c-2.7-0.4-5.4-1-8.1-1.5c-0.5,0-0.9-0.1-1.3-0.2c0,0-0.1,0-0.2,0
			c-15.2-2.8-30.4-6.9-45.1-11.6l0,0c0,0,0.1,0,0.1,0.1c-77.1,38-241.6,119.2-317.4,156.6c0.2,1,0.4,2,0.6,2.9h-0.1
			C2601.8,420.5,2603.3,427.7,2604.7,434.8z"/>
		<path style="fill:#66C0D1;" d="M3884.4,450.6c0-0.1,0-0.1,0-0.2s0-0.2,0-0.3c2.1-11.3,4.3-22.6,6.7-33.9c0.3-1.6,0.6-3.3,1-4.9
			c0.1-0.1,0.1-0.4,0.1-0.5l-242.8-119.9l-75.1-37.1c-19.5,6.4-39.6,11.2-60,14.3h-0.1l1.8,0.9L3884.4,450.6z"/>
	</g>
	<g id="Color_2_00000134211702034933699740000002909974329881221305_">
		<path style="fill:#2D2B2A;" d="M502,318.4c10.8,32.6,18.9,66.5,27.5,99.9l197.3-95.2l5.9-3c-11.4-27.5-23.8-56.2-27.6-86l0,0
			c-0.2-1.1-0.3-2.4-0.3-3.5C637,259.8,537,301.7,501.3,317C501.6,317.4,501.7,317.8,502,318.4z"/>
		<path style="fill:#2D2B2A;" d="M1801.6,459.5c0.1-0.6,0.3-1.2,0.4-1.8l-203.1-98l-7.6-3.5c-2.4,4.7-4.7,9.6-7.1,14.3
			c54.7,26.9,159.8,77,214.3,103.5C1799.4,469.3,1800.6,464.2,1801.6,459.5z"/>
		<path style="fill:#2D2B2A;" d="M748.3,374.7l8.1-4.1c-2.3-4.8-4.6-9.7-7-14.4l-7.7,3.6l-202.9,97.9c1.1,5.3,2.4,11,3.5,16.3l0,0
			C593.4,449.3,697.5,399.1,748.3,374.7z"/>
		<path style="fill:#2D2B2A;" d="M346.9,2698.2c27.9,7.4,58.2,13.9,87.2,18.3l0,0l0,0l0,0c2.3,0.3,17.9,2.4,26.4,3.7
			c3.1,0.4,6.1,1,9.2,1.4l0,0c6.7,0.8,13.2,1.4,19.7,1.9v-89.8V1192.6c-38.4,51-93.3,91.3-154.9,108.9
			c20.7,200.5,67.2,1001,3.2,1369.4C335.8,2681.2,334,2694.9,346.9,2698.2z"/>
		<path style="fill:#2D2B2A;" d="M555.4,1056.4v-0.6c-6.4,22.5-20.9,57.6-30.5,78.9V2726c8.2,0.5,18.4,1.1,30.5,1.8V1056.4z"/>
		<path style="fill:#2D2B2A;" d="M2006,1301.3c-61.2-17.8-116.2-57.6-154.4-108.4v1440.9v89.5c6.3-0.6,12.8-1.2,19.4-1.9l0,0
			c11.4-1.7,26.4-3.1,35.6-4.4l0,0c24.2-3.6,50.7-9.1,74-14.9c11.5-1.9,25.5-7.1,23.5-21.4c-64.2-369.2-19.1-1177.4,2.4-1379.2
			C2006.3,1301.4,2006.1,1301.3,2006,1301.3L2006,1301.3z"/>
		<path style="fill:#2D2B2A;" d="M1816,1135c-11.7-23.9-23-52.8-30.5-78.4v1671l0,0c10.2-0.6,20.3-1.2,30.5-1.8V1135z"/>
		<path style="fill:#2D2B2A;" d="M2556.4,1181.6c-38.4,47.8-90.1,93-145.4,120.1c-0.1,0.1-0.2,0.1-0.3,0.1c0,0.1,0.1,0.3,0,0.4
			c-0.1,0-0.1,0-0.1,0c23,245.7,64.6,996.2,0.7,1376.7c-2,14.1,11.9,19.6,23.5,21.4c34.8,9.2,73.9,15,109.6,19.3v0.1
			c6.8,0.8,13.4,1.5,19.9,2v-1551C2561.8,1174.4,2559.1,1178.1,2556.4,1181.6z"/>
		<path style="fill:#2D2B2A;" d="M2599.9,1105.5v1619c10.2,0.6,20.3,1.2,30.5,1.8v-0.4v-1727
			C2623.1,1038.5,2613,1074.1,2599.9,1105.5z"/>
		<path style="fill:#2D2B2A;" d="M4080.9,1301.6c-0.1,0-0.2-0.1-0.3-0.1c-57.6-28.9-115.1-78.8-153-130.7v1550.9
			c6.5-0.6,13.1-1.2,19.9-2v-0.1c35.7-4.3,74.9-10.1,109.6-19.3c11.6-1.8,25.5-7.2,23.5-21.4c-63.9-379.2-22.3-1132.7,0.7-1376.7
			c0,0,0,0-0.1,0c0-0.1,0-0.1,0-0.2c0.1,0,0.1,0,0.1,0v-0.3l0,0c0-0.1,0-0.1,0-0.2c-0.1,0.2-0.1,0.2-0.1,0.2
			C4081.1,1301.6,4081,1301.6,4080.9,1301.6z"/>
		<path style="fill:#2D2B2A;" d="M3892,1105.3c-13-31.3-23.2-66.8-30.5-106.4v0.3v1727.1l0,0c0.3,0,0.6,0,0.9-0.1
			c9.8-0.6,19.6-1.1,29.4-1.8c0.1,0,0.2,0,0.3,0L3892,1105.3L3892,1105.3z"/>
		<path style="fill:#2D2B2A;" d="M3000.8,270.8c-7.9-0.6-15.7-1.6-23.5-2.8c-88.9,43.8-282.5,139.2-369.7,182.2
			c-0.9-5.1-1.9-10.3-2.9-15.4l-0.1,0.1c2.1,10.6,3.9,21.4,5.9,32l0,0c0.1,0.2,0.1,0.3,0.1,0.5l0,0c0.1,0.8,0.3,1.7,0.4,2.5l0.1-0.1
			l0,0c-0.1-1-0.3-2-0.5-3l0,0l8-4l387.2-191.6C3004,271.1,3002.4,271,3000.8,270.8z"/>
		<path style="fill:#2D2B2A;" d="M2574.9,311c0.1,0,0.1,0.1,0.2,0.1c9.4,32.3,18.2,69.6,25.1,102.3c0,0,0.1-0.1,0.2-0.1
			c-0.2-1-0.4-2-0.6-2.9c75.5-37.2,240.8-118.8,317.4-156.6c-0.1-0.1-0.1-0.1-0.2-0.1c-33.3-11.1-65.9-26.3-93.4-48.4
			c-0.1-0.1-0.2-0.2-0.2-0.3s0-0.1-0.1-0.2c-52.8,22.4-200.8,85.3-248.9,105.9C2574.6,310.8,2574.7,310.9,2574.9,311z"/>
		<path style="fill:#2D2B2A;" d="M3868.8,460.9L3868.8,460.9l12.6,6.2c0-0.1,0-0.1,0-0.2c0.1-0.4,0.1-0.7,0.2-1.1
			c0.6-3.1,1.1-6.2,1.7-9.3c0.3-1.7,0.6-3.5,0.9-5.2c0.1-0.2,0.1-0.5,0.2-0.7L3516.1,269l-1.8-0.9l0,0c-7.6,1.1-15.2,2.1-22.9,2.7
			c-2.1,0.2-4.4,0.4-6.8,0.5l-0.1,0.1L3868.8,460.9z"/>
		<path style="fill:#2D2B2A;" d="M3663.1,209.1c-6.1,4.4-12.2,9.1-18.5,13.1c-3.2,2-6.4,4-9.6,5.9c-3.1,1.8-6.5,3.4-9.7,5
			c-16.2,8-33.9,14.8-51,20.6l0.2,0.1l75.1,37l242.6,119.9c0-0.1,0-0.1,0.1-0.2c0-0.1,0-0.1,0-0.2c2-9.3,4.1-18.6,6.2-27.9
			c2.6-11.2,5.3-22.4,8.1-33.6l9.9-37.3c0-0.3,0.2-0.5,0.4-0.7c0.1-0.1,0.3-0.2,0.4-0.3l0,0c-49.2-20.9-195.9-84.6-248.2-106.8
			L3663.1,209.1z"/>
	</g>
	<g id="Color_1_00000150087909070130400120000014954931110250983042_">
		<path style="fill:#FCFCFC;" d="M962.4,673.4c-81.2-86.6-148.1-187-205.8-302.7c-54.6,26.8-159.1,76.7-214.2,103.5
			c19.8,91.9,33.7,185.3,39.3,279.2c2.3,42.1,3.2,84.4,1.1,126.6c-1.1,23.9-3,47.7-6,71.4c-3.3,25-7.5,49.9-13.4,74.4
			c-2.1,9.2-4.6,18.6-7.1,27.7c-2.5,4.3,0.1,1669.9-0.8,1674.1c163.8,9.2,671.6,31.9,1230.1,0c-0.9-3.3,1.8-1671.5-0.9-1674.2
			c-2.5-9.1-5-18.5-7.1-27.7c-5.9-24.5-10.1-49.4-13.4-74.4c-3-23.7-4.9-47.5-6-71.4c-2.1-42.2-1.2-84.5,1.1-126.6
			c5.7-93.9,19.5-187.2,39.3-279.1c-54.3-26.4-159.6-76.6-214.2-103.4c-96.3,188.4-221.3,364.2-408,453.2c-0.1-0.1-5.7,2.9-5.8,2.9
			c-0.1,0-5.6-3-5.8-2.9C1085.1,786.9,1024,737.9,962.4,673.4z"/>
		<path style="fill:#FCFCFC;" d="M3849.5,895c-4.7-83,2.6-166.5,9.7-243c5.4-60.8,10.8-122.5,22.1-184.8l-12.5-6.3l-384.3-189.5
			l0.1-0.1c-65.5,2.9-131.5,3.7-197.1,4.3c0.3,0,0.7,0,0.9-0.1c-0.1,0-0.3,0-0.4,0c-0.1,0-0.3,0-0.4,0
			c-76.2,0.3-154.1-0.1-230.3-2.4c-16.1-0.5-31.8-1-47.8-1.7c-3.8-4-387.6,191.8-390.9,191.4c-0.2,0.1-8,4-8,4c0.2,1,0.4,2,0.5,3
			l0,0l-0.1,0.1c19.5,127.4,32.5,238.2,32.9,369.4c0.2,62.7-13.5,159.6-13.5,159.6v1726.9c164.5,9,682.4,32.1,1231.1,0.4v-1727
			C3855.6,967.1,3851.6,932.3,3849.5,895z"/>
	</g>
	<path id="Inside" style="fill:#D6D6D6;" d="M1556.9,258.5c-127.9,14.6-257.1,28.2-386.3,27.8c-132.7,0.4-266.3-13.5-398.4-29.1
		c0.1,0.9,0.2,1.7,0.4,2.4l-0.2,0.2c66.4,180.7,226,418,397.7,501.3c168-80.4,336.5-326,398.4-504.1
		C1562.1,257.8,1561.6,257.9,1556.9,258.5z"/>
	<g id="Trim">
		<g>
			<path style="fill:none;" d="M778.6,257.4c0,0-3.2-0.4-6.8-1c4.5,21.5,13.9,39.4,23.2,60.6c83.4,172.4,205.5,357.6,375.1,444.2
				c169.5-87.1,292.2-271.8,375.4-444.8c9.1-20.6,19.1-39.5,23.1-60c-128.6,15-257.8,28.8-387.6,29.3
				C1047,286.7,911.9,273.1,778.6,257.4z"/>
			<path style="fill:#2D2B2A;" d="M1635.9,230.3c-0.7,7.8-2,15.6-3.8,23.2c-4,17.2-10.6,34.3-16.8,50.3c-2,4.4-4,8.8-6,13.3
				c-0.4,1-0.8,1.9-1.2,2.9l5.9,3l197.3,95.2c0.5-2.1,1.6-6.5,2.1-8.6c5.2-20.3,10.5-41.2,16.3-61.3c3.2-9.8,5.5-22.2,9.8-31.5
				C1804,301.6,1703.6,259.6,1635.9,230.3z"/>
			<path style="fill:#0C0C0C;" d="M1632,253.5c1.8-7.6,3-15.3,3.5-22.9c-0.8-5.3-7.4-6.6-11.1-9.5c-19.7-12.2-46.9-25.4-63-21.9
				c1.5-0.4-245.6,31-391.3,28.9c-147.2,1.6-390.8-28.6-391.3-28.9c-3.5-0.4-20.8-1.3-37.9,8.1c-6.2,3.4-12.5,6.8-18.7,10.2
				c-5.9,4.4-18.6,7-17.3,15.4c0,0.4,0.1,0.8,0.2,1.2c8.8,54,35.4,103.4,59.3,152c98,184.6,214.5,347.7,400.1,437.6
				c0.1-0.1,5.7,2.9,5.8,2.9c0.1,0,5.6-3,5.8-2.9c202.5-97.4,339.1-299.2,433.2-506.6c2-4.4,4-8.8,6-13.3
				C1621.4,287.8,1628,270.8,1632,253.5z M1545.5,316.4c-83.2,173-205.9,357.7-375.4,444.8C1000.4,674.6,878.4,489.4,795,317
				c-9.3-21.2-18.8-39.1-23.2-60.6c3.6,0.6,6.8,1,6.8,1c133.3,15.7,268.4,29.3,402.4,28.3c129.8-0.5,259-14.3,387.6-29.3
				C1564.5,276.9,1554.5,295.8,1545.5,316.4z"/>
		</g>
		<path style="fill:#0C0C0C;" d="M335.5,1301.4c315.3-102.7,261-571.2,206.8-827.4l0,0c-1.1-5.3-2.4-11-3.5-16.3l0,0
			c-10-44.6-21.7-89.2-34.6-133.1c-0.1-0.5-0.3-1-0.4-1.4l-0.3-1.1c-0.1-0.4-0.2-0.7-0.9-2.3c-0.5-0.8-0.7-2.1-1.2-2.8
			c-1.2-1.6-3.4-1-6-0.2c-5.9,2.5-38.7,14.7-43.7,16.7c-3.2,1-4.7,2.3-3.7,5.5c8.3,26.9,43.7,145.7,64.8,289.3
			c23,181.1,48.9,469.2-128.5,582.3c-17.8,11-37.4,18.7-56.7,26.3c-1,7.9,1.1,18.8,1.6,26.6c1.2,12.4,1.9,25.1,4,37.4
			C333,1302.1,334.8,1301.4,335.5,1301.4z"/>
		<path style="fill:#0C0C0C;" d="M1797.3,479.7c-43,207.8-79.4,512.3,43.1,697.3c0,0,0,0,0,0.1c38.1,57.8,96.4,102.8,162.6,123.5
			c1.2,0.4,2.6,0.8,4,0.8c1.8-4.6,1.4-10,2.2-15c1.6-16.2,3.5-32.4,4.2-48.9c-321-107.2-178.3-702.1-120.5-898.4
			c1-3.2-0.5-4.4-3.7-5.5l-5.9-2.2c-0.5-0.2-1-0.4-1.6-0.6l-36.2-13.9c-4.4-1.4-6.1-1.2-7.3,3c-1.1,3-2.4,7.5-3.3,10.6
			c-2.4,8.4-5.6,19.4-7.9,27.7C1816,398.3,1805.7,439,1797.3,479.7z"/>
		<path style="fill:#0C0C0C;" d="M2823.7,205.4c27.6,22.1,60.1,37.2,93.4,48.4c14.7,4.7,29.9,8.8,45.1,11.6c0.5,0,1,0.1,1.5,0.2
			c2.7,0.5,5.4,1.1,8.1,1.5l0,0c0.1,0,0.2,0,0.3,0c40.2,6.7,81.4,5.3,122.1,7c63.9,1.3,130,1.7,194,1.4l0,0c0,0,0.1,0,0.2,0
			c41.8-0.3,83.9-0.8,125.7-1.8c21.1-0.6,42-1.3,62.9-2c33.2-1.3,65.9-7.7,97.6-17.9c33.2-11.6,68.9-25.8,94.5-49.9
			c-1.4-2.8-5.2-3.8-7.9-5c-3.1-1.2-14.1-5.5-17.3-6.4c-11-3.6-26.3-8.5-37.7-11c-16.4-0.8-16.8,5.4-62.9,15.4
			c-28.6,7.5-56.4,12-86.1,15.3c-102.6,10-212,4.9-315,5.5c-61.4-0.1-123.4-4.3-183.3-18.3c-26.4-6.1-65.7-17.8-63.4-17.6
			c-11.3-2.6-26.7,5.1-37.7,7.7c-7.7,3-35.9,10.2-34.4,15.6C2823.5,205.1,2823.6,205.2,2823.7,205.4z"/>
		<path style="fill:#0C0C0C;" d="M2411,1301.7c62.1-30.3,129.5-90.4,165.4-149.4c0.1,0,0.1-0.2,0.1-0.2
			c107.5-188.5,61.2-476.5,34.1-684.7l0,0c0-0.2-0.1-0.3-0.1-0.5l0,0c-9.2-51.7-20.8-105.2-35.4-155.8c-0.1,0-0.1-0.1-0.2-0.1
			c-0.2-0.2-0.5-0.3-0.7-0.4c-13.5,4-32.9,10.8-47.3,15.2c-11.3,1.4-3.6,11.8-1.5,23.1c39.2,143.4,52.6,292.9,58.7,441.1
			c8.9,153.3-10.1,337.1-151.4,426.9c-5.9,5.7-30.5,16.1-29.1,23.2c0.9,13.4,3.2,42.7,5,57.8
			C2408.9,1300.1,2409.1,1302.4,2411,1301.7z"/>
		<path style="fill:#0C0C0C;" d="M4088.3,1238.1c-1.9-6.3-10.1-8.1-14.8-12.1c-9.7-6.3-19.1-12.7-28.3-19.8
			c-79.9-55.4-118-151.4-132-244.8c-18.7-211,7.6-428.7,57.8-633.2c-0.8-1.5-4.3-2.3-5.7-2.7c-8.2-2.4-15.8-5.1-24-7.8
			c-5.8-1.9-20-7.3-23.6-7.2c-0.1,0-0.2,0.1-0.3,0.1c-36.4,120.7-51.3,249.7-61,374.1c-14,158.4-20.9,356.1,75.7,492.2
			c38.8,49.9,92,96.1,148.6,124.6c0.2,0.1,0.4,0.1,0.6,0.2c0,0,0,0,0.1-0.2l0,0c3.5-0.9,2.5-14.6,3.7-20.7
			C4086.3,1267.1,4087.9,1250,4088.3,1238.1z"/>
	</g>
</g>
</svg>
