<?xml version="1.0" encoding="utf-8"?>
<!-- Generator: Adobe Illustrator 28.0.0, SVG Export Plug-In . SVG Version: 6.00 Build 0)  -->
<svg version="1.1" id="Layer_1" xmlns="http://www.w3.org/2000/svg" xmlns:xlink="http://www.w3.org/1999/xlink" x="0px" y="0px"
	 viewBox="0 0 4417.4 2973.9" style="enable-background:new 0 0 4417.4 2973.9;" xml:space="preserve">
<g id="Jersey">
	<g id="Color_3_00000181796004705482777670000010410085112061544852_">
		<g>
			<path style="fill:#C84448;" d="M2615.1,489c3.1,18.7,5.7,37.5,7.9,56.2h1248.6c2.7-21.9,5.8-43.7,9.4-65.5H2613.5
				C2614,482.9,2614.6,486,2615.1,489z"/>
		</g>
		<g>
			<path style="fill:#C84448;" d="M1779.8,570.8c3.5-20.4,7-40.9,11.1-61.2l-263-36c-13.4,22.1-25,40.4-38.9,60.8l290.2,39.8
				C1779.4,573,1779.6,571.9,1779.8,570.8z"/>
			<path style="fill:#C84448;" d="M834.7,509.5c-7.1-11-14.6-23-22.4-36l-263,36c4.4,21.3,8,43,11.7,64.5l290.2-39.7
				C845.6,526.2,840.1,517.9,834.7,509.5z"/>
		</g>
	</g>
	<g id="Color_2_00000096773107330741946300000016807000130045313155_">
		<g id="Color_2_00000100379312072352433250000015289052367938456984_">
			<path style="fill:#F4F4F4;" d="M3669.9,207.8c-26.9,22.7-60.4,37.6-93.6,48.9c-29.4,9.6-59.9,15.6-90.8,17.6
				c-25.6,1.2-51.3,1.8-77.1,2.6c-67.1,1.5-136.5,1.9-203.7,1.6c0.2,0.1,0.6,0.1,0.9,0.1c-42-0.3-84.6-0.9-126.5-1.9
				c-54.3-1.2-108.6-1.7-160.4-19.9c-33.6-11-66.8-26.1-94.3-48.7c-52.4,22.2-199.9,84.8-248.8,105.6c0.1,0,0.2,0.1,0.3,0.1
				c14.9,48.8,25.9,101.6,35.1,151.8h1272.6c9.1-50.2,20.2-102.8,34.8-151.6v-0.1c0.2-0.1,0.3-0.2,0.5-0.3
				C3870.7,293,3722.6,230.1,3669.9,207.8L3669.9,207.8z"/>
			<path style="fill:#F4F4F4;" d="M2628.6,596.1h1237.5c1.2-12.1,2.5-24.3,3.9-36.6H2624.7C2626.1,571.8,2627.4,584,2628.6,596.1z"
				/>
			<g>
				<path style="fill:#F4F4F4;" d="M2826.1,209.4c27.6,21.5,59.7,36.6,92.8,47.3c19.7,6.3,39.8,11.3,60.2,14.3
					c10,1.4,19.7,2.6,29.8,3.2c0.1,0,1.6,0.1,1.7,0.1c62.8,2.6,126.2,3.7,189.2,4.1l5.7,0.1c0.1,0,0.3,0,0.4,0c-0.3,0-0.7,0-0.9-0.1
					c67.2,0.3,136.6-0.1,203.7-1.6c25.8-0.8,51.5-1.4,77.1-2.6c30.9-2.1,61.4-8,90.8-17.6c33.3-11.2,66.1-26.3,93.5-48.6
					c1.5-5.2-21.2-10.5-25.1-12.6c-10.1-3.4-24.7-7.8-35.2-10.5c-11.1-3.7-43.2,11.4-79.3,18.4c-79.1,18.1-160.9,17.6-241.6,17.6
					c-88.8-0.5-185,3.6-272.7-8.3c-25.8-1.8-110.6-23.3-119.6-27.9c-11.2-2.6-26.8,5.1-37.7,7.7
					C2854.8,194.4,2816.4,203.9,2826.1,209.4z"/>
				<path style="fill:#F4F4F4;" d="M2412.2,1304.7c0.2-0.1,0.4-0.1,0.6-0.2c4.4-2.1,9-4.3,13.4-6.6l0,0
					c53.1-31.7,101.9-72.8,138.6-122.7c125.8-191.1,74.9-485.3,47.2-705.3l0,0l0,0c-0.7-3.5-1.2-6.9-1.9-10.4l0,0
					c-0.4-2-0.7-4.1-1.1-6.1l0,0c-8.7-46-19.2-95.1-32.9-139.8c-0.1,0-0.2-0.1-0.3-0.1c-3.7,0.1-17.8,5.4-23.6,7.2
					c-8.2,2.7-15.8,5.4-24,7.8c-1.4,0.4-4.9,1.2-5.7,2.7c39.2,149.4,58,306.5,62.9,461.5c7.8,147.3-7,323.7-137.1,416.5
					c-13,9.9-26.3,18.6-40.1,27.3c-2.1,1.4-3.4,3.8-3.1,6.3c0.9,13.4,3.2,42.7,5,57.8c0.3,2,0.3,4,2,3.9
					C2412.2,1304.7,2412.2,1304.7,2412.2,1304.7z"/>
				<path style="fill:#F4F4F4;" d="M4086.5,1236.8c-161.6-87-187.8-276.9-177.2-443.8c4.9-155,23.7-312,62.9-461.5
					c-0.8-1.5-4.2-2.3-5.7-2.7c-8.2-2.4-16-5.1-24-7.8c-5.9-1.3-20.3-8.2-24-7c-0.1,0-0.1,0.1-0.2,0.1
					c-28.9,100.3-46.7,209.3-55,312c-18.1,158.8-30.4,395.3,53.6,529c0,0,0,0.2,0.1,0.2c9.3,14.9,19.3,29.5,30.8,42.7l0,0
					c38.2,42.3,82.9,81.7,134.6,106.7c3.8,1.3,3-15.3,4.1-20.6C4086.4,1272.9,4093.7,1239.9,4086.5,1236.8z"/>
			</g>
			<path style="fill:#F4F4F4;" d="M334.1,1302c0.3,0,0.6-0.1,0.8-0.1c35.6-10.5,69.5-28.9,98.6-52l0,0c2.5-1.9,5.6-4.5,8-6.6l0,0
				c194.1-166.6,147.6-542.9,100.1-768.4l0,0c-10.2-48.2-22.7-96.2-36.4-143.6l-1.7-5.8c-0.1-0.5-0.3-1-0.4-1.4l-0.3-1.1
				c-0.1-0.4-0.2-0.7-0.9-2.3c-0.5-0.8-0.7-2.2-1.3-2.9c-1.2-1.5-3.4-0.9-6-0.1l-36.2,13.9c-0.6,0.2-1.1,0.4-1.6,0.6l-5.9,2.2
				c-3.2,1-4.7,2.3-3.7,5.5c8.3,26.9,43.7,145.7,64.8,289.3c22.5,178.3,47.6,451.4-114.5,573.2c-16.2,11.4-33.9,20.6-52.2,28.1
				c-5.5,2.1-11,4.4-16.6,6.4c-1,0.4-2.1,0.6-2.3,1.7c0.7,16.4,2.6,32.7,4.2,48.9c0.5,4.7,0.8,9.7,1.8,14.3c0,0.2,0.1,0.6,0.4,0.7
				c0.3,0,0.7-0.1,1-0.1C334.1,1302,334.1,1302,334.1,1302z"/>
			<path style="fill:#F4F4F4;" d="M2012.7,1237.5c-321.8-107.7-177.5-701.6-120.3-897.9c2.2-5.4-6.3-5.9-9.6-7.7
				c-0.5-0.2-1-0.4-1.6-0.6l-36.2-13.9c-4.4-1.3-6.1-1.3-7.3,3c-1.3,3-2.3,7.6-3.3,10.6c-2.4,8.4-5.6,19.3-7.9,27.7
				c-10.4,38.3-20.4,77.1-28.5,115.9l0,0c-43.9,208.9-81.4,516.9,41.9,702.9c0,0,0,0,0,0.1c16.2,24.4,35.7,46.7,58.1,65.5l0,0
				c31,26.3,67.8,47.1,106.7,58.6c0.2,0.1,0.6,0.1,0.9,0.1c3,0.8,2.4-13.7,3.3-16.4c1.4-15.7,3.4-31.4,4-47.4
				C2013.1,1238.2,2012.9,1237.7,2012.7,1237.5z"/>
			<path style="fill:#F4F4F4;" d="M1772.3,619.6c1.5-10.2,2.9-21.1,4.6-31.3L1480,547.6c-8,11.5-16.1,22.7-24.2,33.7l315.9,43.3
				L1772.3,619.6z"/>
			<path style="fill:#F4F4F4;" d="M1794.9,489.8c7.8-38.1,17-76.3,27.1-113.9c3.3-12.7,7.3-26.9,11-39.5c1.9-6.1,3.2-12.9,6.1-18.7
				c-35.6-15.2-136-57.2-203.7-86.5c-4.7,44.3-26.1,85.6-44.4,125.6c-16.7,34.3-37.2,73.3-55.3,103.6l258,35.3L1794.9,489.8z"/>
			<path style="fill:#F4F4F4;" d="M766.5,391.5c-24.4-51.2-54.7-103.3-61.7-160.4c-67.8,29.2-168.1,71.2-203.7,86.5
				c2.9,5.8,4.2,12.6,6.1,18.7c3.9,13.6,8.1,28.5,11.7,42.1c10.3,38.8,19.7,78,27.6,117.3l257.9-35.3
				C792.2,439.6,779.4,416.7,766.5,391.5z"/>
			<path style="fill:#F4F4F4;" d="M860.2,547.5l-296.9,40.7c1.9,11.8,3.5,24.3,5.3,36.1L884.4,581
				C876.2,570.1,868.2,558.9,860.2,547.5z"/>
		</g>
	</g>
	<g id="Color_1_00000065778354812324660300000006583918278438239373_">
		<path style="fill:#F4F4F4;" d="M1635,231.1c-1.1-6.8-18.6-12.7-24.3-16.8c-16.3-11.3-41.8-16.9-49.8-14.6
			c1.6-0.1-245.6,30.8-391.3,28.9c-147.2,1.6-390.8-28.6-391.3-28.9c-3.5-0.4-20.8-1.3-37.9,8.1c-6.2,3.4-12.5,6.8-18.7,10.2
			c-5.5,4.1-15.5,6.2-17.5,13.1c2.9,30.2,15.5,59.1,26.8,86.9c95.5,206.8,230,409.1,432.9,506.2c0.1-0.1,5.7,2.9,5.8,2.9
			c0.1,0,5.6-3,5.8-2.9c186.7-89.1,311.6-264.8,408-453.2C1604.6,326.5,1629.4,280.6,1635,231.1z M1567.9,258.5
			c-64.3,179.9-228.1,420.7-398.3,503.2c-169.7-86.9-292-271.8-375.5-444.6c-9.3-21.2-18.8-39.2-23.2-60.6c0.1,0,0.2,0.1,0.3,0.1
			c0.2,0.7,0.3,1.2,0.5,1.9c132.1,15.6,265.7,29.5,398.4,29.1c131.1,0.3,262-13.5,391.7-28.5
			C1561.8,259.1,1564.7,258.7,1567.9,258.5z M1568.4,258.3L1568.4,258.3L1568.4,258.3L1568.4,258.3z"/>
		<path style="fill:#F0F0F0;" d="M1567.8,257.9c-128.3,14.9-257.3,28.7-386.9,29.2c-136.4,1-273.5-13-409.2-29.1
			c-0.1-0.3-0.1-0.5-0.2-0.8c4.9,23.5,16.3,44.7,26.6,67.6c20.3,42.3,42.2,83.4,66.9,123.7l0,0v0.5c2.9,4.8,5.8,9.5,8.8,14.2h0.3
			c13.9,22.1,28.7,44.3,43.6,65l0,0v0.5c3.4,4.8,6.9,9.5,10.4,14.2h0.4c9.2,12.5,18.6,24.6,27.9,36.2l0,0v0.5
			c60.2,73.8,134.2,144.7,213.6,182.7c79.3-38.1,153.5-108.9,213.5-182.7v-0.5l0,0c9.5-11.6,18.7-23.7,27.9-36.2h0.5
			c3.5-4.7,6.9-9.4,10.4-14.2l-0.1-0.5l0,0c14.9-20.7,29.7-42.9,43.6-65h0.3c3-4.7,5.9-9.4,8.8-14.2l-0.1-0.5l0,0
			c23.5-38.8,44.7-77.5,64.1-118c10.9-23.9,23.9-48.4,29.4-72.7C1568.1,257.8,1567.9,257.8,1567.8,257.9z"/>
		<path d="M2631.4,626.1c18.7,184.7,38.2,444.8-95.4,584c-35.8,36.9-76.9,71.8-123.4,94.6c-0.2,0.1-0.4,0.1-0.6,0.2c0,0,0,0-0.1,0
			c22.9,245.7,64.7,996.4,0.7,1377c-2,14,11.9,19.7,23.5,21.4c23.1,6,50,11.3,74.1,15v-0.3c12.2,1.9,24,3.5,35.5,4.8v0.1
			c9.2,1.1,18,1.9,26.7,2.6v0.2c697,44.3,1337.1,0.5,1349.9-0.4c8.2-0.7,16.6-1.5,25.2-2.4c40.3-4.7,83.1-12.5,122.3-22.8
			c13.2-3.3,14.1-17.2,11.7-28.3c-63-379.7-21.6-1116.6,1.6-1367c-0.3,0-0.6,0.1-0.8-0.1c-62.1-30.3-129.5-90.3-165.4-149.4
			c0,0,0-0.1-0.1-0.1c0,0,0,0,0-0.1c-89.5-144.6-69.1-389.9-50.8-559H2628.6C2629.6,606.2,2630.5,616.2,2631.4,626.1z"/>
		<path d="M2624.7,559.5h1245.2c0.5-4.7,1.1-9.5,1.7-14.3H2623C2623.6,550,2624.2,554.7,2624.7,559.5z"/>
		<path d="M2611.6,469c0.1,0.4,0.1,0.7,0.2,1.1c0.1,0.3,0.1,0.6,0.2,0.9c0,0.3,0.1,0.5,0.1,0.8c0.1,0.3,0.1,0.6,0.2,0.9
			c0.4,2.4,0.8,4.7,1.2,7h1267.6c0.4-2.2,0.8-4.5,1.3-6.8c0-0.1,0-0.1,0-0.2c0.1-0.3,0.1-0.6,0.2-0.9c0-0.3,0.1-0.5,0.1-0.8
			c0.1-0.2,0.1-0.4,0.1-0.6s0-0.3,0.1-0.5c0.1-0.3,0.1-0.6,0.2-0.9c0.2-1.1,0.4-2.3,0.6-3.4H2611
			C2611.2,466.7,2611.4,467.9,2611.6,469z"/>
		<path d="M2005.6,1302c-67.5-19.6-126.9-65.7-165.6-124.2c0,0,0,0,0-0.1c-101.4-154.5-91.3-376.6-68.4-553.2l-315.9-43.3
			c-76.4,102.2-168.9,192.6-279.8,243.1c-0.1-0.1-5.7,2.9-5.8,2.9c-0.1,0-5.6-3-5.8-2.9c-110.9-50.6-203.5-141-279.9-243.3
			l-315.8,43.3c31.3,232.8,38,590.3-234.1,677.5c0,0,0,0-0.1,0c21.3,203.9,67.3,1010.5,1.8,1381.2c-1.9,13.9,13.3,16.9,23.8,19.1
			c23.1,5.8,50,11.3,74,14.9v-0.1c90.4,11.2,629.4,51.4,1406.5,7.5c50.1-3.6,102.4-12.4,151-25.2c12.9-3.6,13.9-16.2,11-27.6
			C1938.7,2304.7,1984.9,1500,2005.6,1302L2005.6,1302z"/>
		<path d="M1777.2,586.5c0.7-4.1,1.3-8.2,2.1-12.3l-290.2-39.8c-3,4.4-6,8.8-9.1,13.2l296.9,40.7
			C1777,587.7,1777.1,587.1,1777.2,586.5z"/>
		<path d="M1791.2,508.1c0.8-4.1,1.7-8.2,2.5-12.3l-258-35.3c-2.6,4.5-5.3,8.9-7.8,13.2l263,36L1791.2,508.1z"/>
		<path d="M804.4,460.4l-257.9,35.3c0.9,4.6,2,9.3,2.8,13.9l263-36C809.7,469.2,807.1,464.9,804.4,460.4z"/>
		<path d="M851.1,534.3L560.9,574c0.7,4.7,1.5,9.4,2.3,14.1l296.9-40.7C857.2,543.1,854.1,538.8,851.1,534.3z"/>
	</g>
</g>
</svg>
