<?xml version="1.0" encoding="utf-8"?>
<!-- Generator: Adobe Illustrator 28.0.0, SVG Export Plug-In . SVG Version: 6.00 Build 0)  -->
<svg version="1.1" id="Layer_1" xmlns="http://www.w3.org/2000/svg" xmlns:xlink="http://www.w3.org/1999/xlink" x="0px" y="0px"
	 viewBox="0 0 4417.4 2273.4" style="enable-background:new 0 0 4417.4 2273.4;" xml:space="preserve">
<g id="Shorts">
	<g id="Color_3">
		<path style="fill:#C84448;" d="M3260.2,1889v0.2c0,2.1-0.2,4.3-0.2,6.5c0,0.6,0,1.3,0,1.9c0,1.9,0,3.9,0,5.8c0,0.8,0,1.6,0,2.4
			c0,1.6,0,3.1,0.1,4.7c0,1.1,0,2.2,0,3.4c0,1,0,2,0,3c0,2.4,0.1,4.9,0.1,7.3c0,0.5,0,1,0,1.5c0,1.7,0.1,3.3,0.1,5l0,0l0,0
			l544.7-36.8h0.2l102.1-6.9h0.3l289.1-269.7l0,0c-0.4-5.4-0.8-10.7-1.3-16c0-0.5-0.1-1-0.1-1.5c-3.1-38.9-6.4-76.8-9.8-113.8
			l-305.2,284.8l-16.4,15.3l-22.4,1.5l-581.9,39.1l0.4,23.6v0.1c0,4.8,0.2,9.4,0.3,14.2c0,1.6,0,3.2,0,4.8c0,1.5,0,3.1-0.1,4.7
			c0,4.7,0,9.7,0,14.8l0,0L3260.2,1889z"/>
		<path style="fill:#C84448;" d="M3206,1888.7c0-6.8,0-13.4-0.1-19.5c-0.1-6.4,0.3-12.5,0.3-18.9v-23.7l-581.5-39.1l-22.4-1.5
			l-16.4-15.3l-305.2-284.8c-3.9,42.4-7.7,86.2-11.2,131.3l288.9,269.7h0.3l102.1,6.9h0.2l544.7,36.6c0.3-14.4,0.3-28.3,0.3-41.4
			V1888.7z"/>
		<path style="fill:#C84448;" d="M1211,1888.8L1211,1888.8c0,2.1-0.2,4.6-0.2,6.8c0,0.6,0,1.3,0,1.9c0,1.9,0,3.9,0,5.8
			c0,0.8,0,1.6,0,2.4c0,1.6,0,3.1,0.1,4.7c0,1.1,0,2.2,0,3.4c0,1,0,2,0,3c0,2.4,0.1,4.9,0.1,7.3c0,0.5,0,1,0,1.5
			c0,1.7,0.1,3.3,0.1,5l0,0l0,0l544.7-36.8h0.2l102.1-6.9h0.3l289.1-269.7l0,0c-0.4-5.4-0.8-10.7-1.3-16c0-0.5-0.1-1-0.1-1.5
			c-3.1-38.9-6.4-76.8-9.8-113.8l-305.2,284.8l-16.4,15.3l-22.4,1.5l-581.7,39.1v-2.5c0.1,8.7,0.2,17.5,0.2,26.1v0.1
			c0,4.8,0.2,9.4,0.3,14.2c0,1.6,0,3.2,0,4.8c0,1.5,0,3.1-0.1,4.7C1211,1878.7,1211,1883.7,1211,1888.8L1211,1888.8z"/>
		<path style="fill:#C84448;" d="M508.8,1886.9h0.3l102.1,6.9h0.2l544.7,36.6c0.3-14.4,0.3-28.6,0.3-41.7l0,0l0,0
			c0-6.8,0-13.4-0.1-19.5c-0.1-6.4,0.3-12.5,0.3-18.9c0-8.6,0.1-17.4,0.2-26.2v2.5l-581.7-39.1l-22.4-1.5l-16.4-15.3l-305.2-284.8
			c-3.9,42.4-7.7,86.2-11.2,131.3L508.8,1886.9z"/>
	</g>
	<g id="Color_2">
		<path style="fill:#F4F4F4;" d="M3701.4,1782.7h0.2l14.9-1l141.4-9.5l326-304.1l0,0c-0.6-6-1.1-11.9-1.7-17.8
			c-0.1-0.6-0.1-1.2-0.2-1.8c-0.6-5.9-1.1-11.7-1.7-17.5c0-0.2,0-0.3-0.1-0.5c-0.6-6-1.2-12-1.8-18v-0.1c-0.6-5.8-1.2-11.6-1.8-17.4
			c-0.1-0.5-0.1-1.1-0.2-1.6c-0.6-5.8-1.2-11.5-1.8-17.2c0-0.1,0-0.1,0-0.2c-1.2-11.7-2.5-23.2-3.7-34.7c-0.1-0.5-0.1-1-0.2-1.5
			c-0.6-5.6-1.2-11.2-1.9-16.8l-360.1,335.9l-552.7,37.2l0,0c0.3,8.5,0.6,17.1,0.9,25.6c0,0.7,0,1.3,0.1,2
			c0.3,7.9,0.5,15.7,0.8,23.6c0.1,2.5,0.1,4.9,0.2,7.4c0.2,6.1,0.4,12.1,0.5,18.2c0.2,8.5,0.4,17.1,0.6,25.6c0,0.1,0,0.1,0,0.2
			c0.1,4.6,0.2,9.2,0.3,13.8l0,0L3701.4,1782.7z"/>
		<path style="fill:#F4F4F4;" d="M4217.5,1952c-0.1-1.4-0.1-2.7-0.2-4.1c-0.3-6.5-0.6-13-0.9-19.5c0-0.9-0.1-1.9-0.1-2.8
			c-0.3-6.2-0.6-12.5-0.9-18.6c0-0.7-0.1-1.4-0.1-2.1c-0.3-6.7-0.7-13.4-1-20c0-0.9-0.1-1.7-0.1-2.6c-0.7-13.8-1.5-27.6-2.3-41.2
			c0-0.3,0-0.6-0.1-0.9c-4-71.2-8.6-139.4-13.6-204.9l-268.3,250.1l-16.4,15.3l-22.4,1.5l-630.5,42.4c0.1,2.7,0.1,5.3,0.2,8l0,0l0,0
			l0,0l0,0c0.6,20.7,1.3,41.3,2,59.9c0,0.9,0.1,1.9,0.1,2.8c0.1,1.8,0.1,3.7,0.2,5.4c0,0.9,0.1,1.8,0.1,2.7c0.1,3.5,0.3,7,0.4,10.3
			c0.2,5,0.4,9.7,0.6,14.2c0.1,1.5,0.1,2.9,0.2,4.3c0,0.7,0.1,1.4,0.1,2.1c0.1,1.4,0.1,2.7,0.2,4c0.1,1.3,0.1,2.5,0.2,3.8
			c0.2,4.2,0.4,8,0.5,11.1c0,0.9,0.1,1.7,0.1,2.5c0.3,5.6,0.4,8.7,0.4,8.7c3,0,6,0,9.1,0c57.7,0,119.3-2.5,182.3-6.8
			c3.3-0.2,6.6-0.5,10-0.7c36.5-2.6,73.5-5.8,110.4-9.3c3.4-0.3,6.7-0.7,10.1-1c16.8-1.7,33.5-3.4,50.2-5.3c3.3-0.4,6.7-0.7,10-1.1
			c6.7-0.7,13.3-1.5,20-2.3c3.3-0.4,6.6-0.8,9.9-1.2c6.6-0.8,13.2-1.6,19.8-2.4c9.9-1.2,19.7-2.4,29.5-3.6c6.5-0.8,13-1.6,19.5-2.5
			c16.2-2.1,32.2-4.2,48.1-6.4c6.3-0.9,12.6-1.7,18.9-2.6c28.2-3.9,55.6-7.9,82.1-11.9c5.9-0.9,11.7-1.8,17.5-2.7
			c2.9-0.4,5.8-0.9,8.6-1.3c14.3-2.2,28.3-4.4,41.9-6.6c8.2-1.3,16.2-2.6,24.1-3.9c5.3-0.9,10.5-1.7,15.6-2.6
			c128.3-21.1,214.7-38.5,214.7-38.5C4218.1,1965.3,4217.8,1958.6,4217.5,1952z"/>
		<path style="fill:#F4F4F4;" d="M2297.2,1323L2297.2,1323c-5.3,46.5-10.3,94.8-15,145.1l326,304.1l141.4,9.5l14.9,1h0.2l441.9,29.7
			c0-0.3,0-0.7,0-1c0.1-4.3,0.2-8.7,0.3-13c0.7-34.1,1.8-68.2,3.1-102.4h-0.2l-552.5-37.2L2297.2,1323z"/>
		<path style="fill:#F4F4F4;" d="M3199.8,2084.4c0,0,3.5-65.6,5.3-131.8l0,0c0.1-2.7,0.1-5.3,0.2-8l-630.5-42.4l-22.4-1.5
			l-16.4-15.3l-268.1-250.2c-8,104.9-15,217.1-20.4,336.7l0,0c0.1,0,52,10.5,135,25c169.9,29.7,470.3,76.5,724,85.8
			C3138.5,2084,3169.7,2084.5,3199.8,2084.4z"/>
		<path style="fill:#F4F4F4;" d="M1652.1,1782.7h0.2l14.9-1l141.4-9.5l326-304.1l0,0c-0.6-6-1.1-11.9-1.7-17.8
			c-0.1-0.6-0.1-1.2-0.2-1.8c-0.6-5.9-1.1-11.7-1.7-17.5c0-0.2,0-0.3-0.1-0.5c-0.6-6-1.2-12-1.8-18v-0.1c-0.6-5.8-1.2-11.6-1.8-17.4
			c-0.1-0.5-0.1-1.1-0.2-1.6c-0.6-5.8-1.2-11.5-1.8-17.2c0-0.1,0-0.1,0-0.2c-1.2-11.7-2.5-23.2-3.7-34.7c-0.1-0.5-0.1-1-0.2-1.5
			c-0.6-5.6-1.2-11.2-1.9-16.8l-360.1,335.9l-552.7,37.2l0,0c0.3,8.5,0.6,17.1,0.9,25.6c0,0.7,0,1.3,0.1,2
			c0.3,7.9,0.5,15.7,0.8,23.6c0.1,2.5,0.1,4.9,0.2,7.4c0.2,6.1,0.4,12.1,0.5,18.2c0.2,8.5,0.4,17.1,0.6,25.6c0,0.1,0,0.1,0,0.2
			c0.1,4.6,0.2,9.2,0.3,13.8l0,0L1652.1,1782.7z"/>
		<path style="fill:#F4F4F4;" d="M2168.3,1952c-0.1-1.4-0.1-2.7-0.2-4.1c-0.3-6.5-0.6-13-0.9-19.5c0-0.9-0.1-1.9-0.1-2.8
			c-0.3-6.2-0.6-12.5-0.9-18.6c0-0.7-0.1-1.4-0.1-2.1c-0.3-6.7-0.7-13.4-1-20c0-0.9-0.1-1.7-0.1-2.6c-0.7-13.8-1.5-27.6-2.3-41.2
			c0-0.3,0-0.6-0.1-0.9c-4-71.2-8.6-139.4-13.6-204.9l-268.3,250.1l-16.4,15.3l-22.4,1.5l-630.5,42.4c0.1,2.7,0.1,5.3,0.2,8l0,0l0,0
			l0,0l0,0c0.6,20.7,1.3,41.3,2,59.9c0,0.9,0.1,1.9,0.1,2.8c0.1,1.8,0.1,3.7,0.2,5.4c0,0.9,0.1,1.8,0.1,2.7c0.1,3.5,0.3,7,0.4,10.3
			c0.2,5,0.4,9.7,0.6,14.2c0.1,1.5,0.1,2.9,0.2,4.3c0,0.7,0.1,1.4,0.1,2.1c0.1,1.4,0.1,2.7,0.2,4s0.1,2.5,0.2,3.8
			c0.2,4.2,0.4,8,0.5,11.1c0,0.9,0.1,1.7,0.1,2.5c0.3,5.6,0.4,8.7,0.4,8.7c3,0,6,0,9.1,0c57.7,0,119.3-2.5,182.3-6.8
			c3.3-0.2,6.6-0.5,10-0.7c36.5-2.6,73.5-5.8,110.4-9.3c3.4-0.3,6.7-0.7,10.1-1c16.8-1.7,33.5-3.4,50.2-5.3c3.3-0.4,6.7-0.7,10-1.1
			c6.7-0.7,13.3-1.5,20-2.3c3.3-0.4,6.6-0.8,9.9-1.2c6.6-0.8,13.2-1.6,19.8-2.4c9.9-1.2,19.7-2.4,29.5-3.6c6.5-0.8,13-1.6,19.5-2.5
			c16.2-2.1,32.2-4.2,48.1-6.4c6.3-0.9,12.6-1.7,18.9-2.6c28.2-3.9,55.6-7.9,82.1-11.9c5.9-0.9,11.7-1.8,17.5-2.7
			c2.9-0.4,5.8-0.9,8.6-1.3c14.3-2.2,28.3-4.4,41.9-6.6c8.2-1.3,16.2-2.6,24.1-3.9c5.3-0.9,10.5-1.7,15.6-2.6
			c128.3-21.1,214.7-38.5,214.7-38.5C2168.9,1965.3,2168.6,1958.6,2168.3,1952z"/>
		<path style="fill:#F4F4F4;" d="M248,1323L248,1323c-5.3,46.5-10.3,94.8-15,145.1l326,304.1l141.4,9.5l14.9,1h0.2l441.9,29.7
			c0-0.3,0-0.7,0-1c0.1-4.3,0.2-8.7,0.3-13c0.7-34.1,1.8-68.2,3.1-102.4h-0.2l-552.5-37.2L248,1323z"/>
		<path style="fill:#F4F4F4;" d="M1150.5,2084.4c0,0,3.5-65.6,5.3-131.8l0,0c0.1-2.7,0.1-5.3,0.2-8l-630.5-42.4l-22.4-1.5
			l-16.4-15.3l-268.1-250.2c-8,104.9-15,217.1-20.4,336.7l0,0c0.1,0,52,10.5,135,25c169.9,29.7,470.3,76.5,724,85.8
			C1089.3,2084,1120.4,2084.5,1150.5,2084.4z"/>
	</g>
	<g id="Color_1_00000007418722896575414910000014869481712776141718_">
		<g id="Color_1">
			<path d="M3206.5,1812.4C3206.5,1812.7,3206.5,1812.1,3206.5,1812.4l-441.9-29.7h-0.2l-14.9-1l-141.4-9.5l-326-304.1l-1.2,12.3
				l-0.5,5.5l0,0l305.2,284.8l16.4,15.3l22.4,1.5l581.7,39.1h0.1L3206.5,1812.4z M3205.6,1930.4l-544.7-36.6h-0.2l-102.1-6.9h-0.3
				l-289.1-269.7l-1,12.5l-0.4,5.6l0,0l268.1,250.2l16.4,15.3l22.4,1.5l630.5,42.4L3205.6,1930.4z"/>
			<path d="M4196.7,1617.2"/>
			<path d="M3260.9,1952.6L3260.9,1952.6L3260.9,1952.6z"/>
			<path d="M3672.6,195.5c-145.1,2.1-287.5,2.5-433.1,2.5c-149.4,0-296.9-0.2-446.1-2.4v0.1c-12.3-0.2-24.6-0.4-37-0.6
				c-20.6-0.3-41.3-0.9-62-1.3c-57.6-1.2-115.6-2.7-174.1-4.6c-4.5-0.2-8.6,2.9-9.6,7.4c-3.9,17.5-12,64.6-6.8,137.7
				c0,0-127.1,279.4-206.7,988.7l360,335.9l552.5,37.2c0.2-6.3,0.5-12.5,0.7-18.8c1.5-35.6,3.2-71.2,5.5-106.7
				c1.7-27.1,2.5-55.6,6.1-82.6c1-7.7,1.3-17.6,3.5-25c0.8-2.7,3.9-4.4,7.3-4.4c5.8,0,6.8,4.3,7.5,8c1.7,8.5,2.6,24.3,3.6,32.8
				c3.3,29.1,5.2,58.3,7,87.5c2.2,36.2,3.8,72.4,5.2,108.6c0,0.2,0,0.4,0,0.6l552.7-37.2l360-335.9c0,0-0.6-5.7,0,0
				c-79.4-721.6-206.6-988.7-206.6-988.7c5.4-75.6-3.5-123.4-7.2-139.4c-0.8-3.5-3.9-5.9-7.5-5.8c-59.3,1.9-118.2,3.6-175.9,4.8l0,0
				c-20.3,0.4-40.5,0.8-60.6,1.1l0,0c-12.4,0.2-25.9,0.4-38.2,0.6L3672.6,195.5z"/>
			<path d="M4185.5,1485.9L4185.5,1485.9l-0.5-5.5c-0.4-4.1-0.8-8.2-1.2-12.3l0,0l-326,304.1l-141.4,9.5l-14.9,1h-0.2l-441.9,29.7
				l0,0l0,0l0.2,11.7v2.5l581.7-39.1l22.4-1.5l16.4-15.3L4185.5,1485.9"/>
			<path d="M4198.1,1635.3L4198.1,1635.3l-0.2-2.4c-0.4-5.3-0.8-10.5-1.2-15.7l0,0l-289.1,269.7h-0.3l-102.1,6.9h-0.2l-544.7,36.6
				l0,0l0,0l0,0c0.1,7.3,0.1,6.8,0.3,14.2l0,0l0,0l630.5-42.4l22.4-1.5l16.4-15.3L4198.1,1635.3"/>
			<path d="M2147.5,1617.2"/>
			<path d="M1211.7,1952.6L1211.7,1952.6L1211.7,1952.6z"/>
			<path d="M1623.4,195.5c-145.1,2.1-287.5,2.5-433.1,2.5c-149.4,0-296.9-0.2-446.1-2.4v0.1c-12.3-0.2-24.6-0.4-37-0.6
				c-20.6-0.3-41.3-0.9-62-1.3c-57.6-1.2-115.6-2.7-174.1-4.6c-4.5-0.2-8.6,2.9-9.6,7.4c-3.9,17.5-12,64.6-6.8,137.7
				c0,0-127.1,279.4-206.7,988.7l360,335.9l552.5,37.2c0.2-6.3,0.5-12.5,0.7-18.8c1.5-35.6,3.2-71.2,5.5-106.7
				c1.7-27.1,2.5-55.6,6.1-82.6c1-7.7,1.3-17.6,3.5-25c0.8-2.7,3.9-4.4,7.3-4.4c5.8,0,6.8,4.3,7.5,8c1.7,8.5,2.6,24.3,3.6,32.8
				c3.3,29.1,5.2,58.3,7,87.5c2.2,36.2,3.8,72.4,5.2,108.6c0,0.2,0,0.4,0,0.6l552.7-37.2l360-335.9l0,0
				C2040.2,601.4,1913,334.3,1913,334.3c5.4-75.6-3.5-123.4-7.2-139.4c-0.8-3.5-3.9-5.9-7.5-5.8c-59.3,1.9-118.2,3.6-175.9,4.8l0,0
				c-20.3,0.4-40.5,0.8-60.6,1.1l0,0c-12.4,0.2-25.9,0.4-38.2,0.6L1623.4,195.5z"/>
			<path d="M2134.6,1468.1"/>
			<path d="M1211.1,1930.4"/>
			<path d="M2136.3,1485.9L2136.3,1485.9l-0.5-5.5c-0.4-4.1-0.8-8.2-1.2-12.3l0,0l-326,304.1l-141.4,9.5l-14.9,1h-0.2l-441.9,29.7
				l0,0l0,0l0.2,11.7v2.5l581.7-39.1l22.4-1.5l16.4-15.3L2136.3,1485.9"/>
			<path d="M1211.4,1944.6L1211.4,1944.6c-0.2-7.4-0.2-6.9-0.3-14.2l0,0l0,0l0,0l544.7-36.6h0.2l102.1-6.9h0.3l289.1-269.7l0,0
				c0.4,5.2,0.8,10.4,1.2,15.7l0.2,2.4l0,0l-268.2,250.1l-16.4,15.3l-22.4,1.5L1211.4,1944.6z"/>
		</g>
		<path d="M1156.1,1930.4l-544.4-36.6h-0.2l-102.1-6.9h-0.3L220,1617.2l-1,12.5l-0.4,5.6l0,0l268.2,250.1l16.4,15.3l22.4,1.5
			l630.5,42.4l0,0V1930.4z M1157.2,1812.4l-441.9-29.7h-0.2l-14.9-1l-141.4-9.5l-326-304.1l-1.2,12.3l-0.5,5.5l0,0l305.2,284.8
			l16.4,15.3l22.4,1.5l581.7,39.1L1157.2,1812.4z"/>
	</g>
</g>
</svg>
