<?xml version="1.0" standalone="no"?>
<!DOCTYPE svg PUBLIC "-//W3C//DTD SVG 1.1//EN" "http://www.w3.org/Graphics/SVG/1.1/DTD/svg11.dtd" >
<svg>
<metadata>
Created by FontForge 20090622 at Mon Jun 24 11:33:00 2019
 By deploy user
Copyright(c) Akubi&#226;&#128;&#144;Zirushi 2003&#226;&#128;&#144;2004
</metadata>
<defs>
<font id="AKMyPrince" horiz-adv-x="214" >
  <font-face 
    font-family="AKMy Prince"
    font-weight="400"
    font-stretch="normal"
    units-per-em="1000"
    panose-1="0 0 4 0 0 0 0 0 0 0"
    ascent="800"
    descent="-200"
    x-height="367"
    cap-height="692"
    bbox="-211 -333 980 700"
    underline-thickness="20"
    underline-position="-123"
    unicode-range="U+0020-U+201D"
  />
<missing-glyph horiz-adv-x="500" 
d="M63 0v700h375v-700h-375zM125 63h250v575h-250v-575z" />
    <glyph glyph-name=".notdef" horiz-adv-x="500" 
d="M63 0v700h375v-700h-375zM125 63h250v575h-250v-575z" />
    <glyph glyph-name=".null" horiz-adv-x="0" 
 />
    <glyph glyph-name="nonmarkingreturn" horiz-adv-x="250" 
 />
    <glyph glyph-name="space" unicode=" " horiz-adv-x="250" 
 />
    <glyph glyph-name="exclam" unicode="!" horiz-adv-x="296" 
d="M79 -9q-49 11 -49 69q0 34 26.5 60.5t60.5 26.5q40 0 63.5 -28t23.5 -69q0 -84 -93 -84q-35 0 -35 16q0 5 3 9zM112 82q19 0 31.5 -13t12.5 -32q0 -26 -19 -38q37 9 37 51q0 28 -15 47.5t-42 19.5q-22 0 -39.5 -17.5t-17.5 -39.5q0 -41 41 -41q25 0 25 18
q0 12 -15.5 14.5t-15.5 15.5q0 15 17 15zM251 640q15 0 15 -15q0 -3 -1 -6q-49 -110 -98 -327q-8 -36 -13 -62q-2 -13 -3 -25q-4 -16 -16 -16q-16 0 -15 15v2q4 63 47 219t70 206q5 9 14 9z" />
    <glyph glyph-name="quotedbl" unicode="&#x22;" horiz-adv-x="243" 
d="M48 476q-5 -3 -9 -3q-15 0 -15 15q0 6 6 12q16 15 24 29h-3q-21 -1 -36 14.5t-15 36.5q0 20 15 35t36 15q20 0 35 -15t15 -35q0 -23 -17.5 -57t-35.5 -47zM190 476q-5 -3 -9 -3q-15 0 -15 15q0 6 6 12q16 15 24 29h-3q-21 -1 -36 14.5t-15 36.5q0 20 15 35t36 15
q20 0 35 -15t15 -35q0 -23 -17.5 -57t-35.5 -47z" />
    <glyph glyph-name="numbersign" unicode="#" horiz-adv-x="459" 
d="M188 493l-17 -110h108l17 110h-108zM193 523h108l18 119q2 12 15 12q15 0 15 -14q0 -1 -18 -117h93q15 0 15 -15t-15 -15h-98l-17 -110h92q15 0 15 -15t-15 -15h-96l-19 -119q-2 -13 -14 -13q-16 0 -16 14q0 2 18 118h-108l-21 -136q-2 -13 -15 -13q-16 0 -15 15v3
l21 131h-101q-15 0 -15 15t15 15h105l17 110h-99q-15 0 -15 15t15 15h104l16 102q2 13 14 13q16 0 16 -15q0 -1 -15 -100z" />
    <glyph glyph-name="dollar" unicode="$" horiz-adv-x="502" 
d="M263 329q19 107 44 197l-9 1q-51 1 -94 -28q-49 -33 -49 -82q0 -35 39 -58q15 -10 69 -30zM286 285q-8 -89 -34 -267q60 8 100 32q52 32 52 84q0 44 -39 89q-32 36 -79 62zM339 523q-17 -58 -29 -111q3 2 7 2q1 0 21.5 -9.5t40.5 -9.5q29 0 49 14q24 16 24 44
q0 51 -113 70zM429 597q16 0 16 28q0 34 -33 34q-24 0 -43 -43q-7 -14 -22 -64q135 -24 135 -99q0 -41 -31 -64.5t-72 -23.5q-54 0 -74 25q-8 -38 -14 -74q58 -29 97 -73q46 -53 46 -109q0 -68 -64 -108q-49 -30 -125 -39q-40 -152 -120 -152q-27 0 -46.5 19t-19.5 45
q0 24 18 42t42 18q16 0 27.5 -13t11.5 -30q0 -15 -16 -15q-11 0 -14.5 14t-8.5 14q-12 0 -21 -9t-9 -21q0 -14 10.5 -24t25.5 -10q55 0 88 120h-11q-74 -1 -125 38q-57 43 -57 114q0 43 27.5 78t68.5 35q24 0 24 -15t-23 -15q-29 0 -48 -26t-19 -57q0 -58 48 -92
q43 -30 104 -30h18q16 69 26 176q3 36 12 108q-70 28 -87 39q-46 31 -46 79q0 67 64 107q58 37 126 32q18 58 32 83q27 50 65 50q27 0 45 -18.5t18 -45.5q0 -23 -11 -39q-13 -19 -35 -19q-47 0 -47 42q0 15 15 15q12 0 14 -13.5t18 -13.5z" />
    <glyph glyph-name="percent" unicode="%" horiz-adv-x="553" 
d="M374 517l-30 -104l-57 -197q-34 -113 -66 -195q35 -6 95 -6q187 0 187 91q0 60 -22 89.5t-80 49.5q-15 4 -46 14q-13 5 -13 15q0 11 16 15q14 1 42 7q103 28 103 116q0 43 -45 73q-35 24 -84 32zM476 593q18 0 18 31q0 33 -33 33q-37 0 -77 -111q60 -12 100 -43
q49 -37 49 -91q0 -105 -114 -141q62 -23 88 -60.5t26 -104.5q0 -78 -83 -105q-48 -16 -147 -16q-51 0 -94 8q-68 -157 -125 -157q-26 0 -45 19.5t-19 45.5q0 24 18 41.5t42 17.5q18 0 29.5 -12t11.5 -29q0 -20 -15 -20t-15 20q0 11 -11 11t-20.5 -9t-9.5 -20q0 -14 10 -24.5
t24 -10.5q37 0 94 135q-65 20 -98 63q-3 5 -3 10q0 15 15 15q6 0 12 -6q37 -40 85 -54q43 108 127 393l28 99h-10q-75 2 -128 -18q-76 -28 -76 -91q0 -27 16.5 -45t42.5 -18q24 0 40.5 13.5t16.5 36.5q0 16 -8.5 28.5t-23.5 12.5q-24 0 -24 -21q0 -2 5.5 -16.5t5.5 -21.5
q0 -8 -6 -8q-14 0 -24.5 15.5t-10.5 30.5q0 21 16 36t38 15q28 0 45 -21.5t17 -49.5q0 -36 -25 -58t-62 -22q-39 0 -64 27t-25 66q0 78 83 114q60 25 151 25q10 0 20 -1q47 137 107 137q27 0 45 -18.5t18 -44.5q0 -23 -13 -42t-35 -19q-47 0 -47 43q0 18 15 18
q13 0 14.5 -15.5t17.5 -15.5z" />
    <glyph glyph-name="ampersand" unicode="&#x26;" horiz-adv-x="560" 
d="M217 329q-72 -44 -106 -81q-51 -54 -51 -119q0 -107 169 -107q108 0 175 54q-121 133 -187 253zM242 345q65 -117 185 -249l76 91q5 7 11 7q16 0 16 -15q0 -10 -36 -53q-31 -37 -47 -52l54 -54q5 -5 5 -11q0 -15 -16 -15q-9 0 -65 60q-77 -62 -196 -62q-199 0 -199 137
q0 72 55 135q38 42 118 92q-45 91 -45 157q0 61 44.5 115t104.5 54q49 0 81 -24q36 -28 36 -75q0 -54 -28 -88t-81 -34q-31 0 -51 22t-20 52q0 27 19 51t45 24q36 0 36 -26q0 -17 -12 -17q-5 0 -11.5 6.5t-12.5 6.5q-13 0 -23.5 -15.5t-10.5 -29.5q0 -18 11 -31t30 -13
q79 0 79 92q0 34 -27 53q-24 16 -60 16q-47 0 -85 -47q-34 -44 -34 -92q0 -59 40 -141l65 41q35 24 59 48q5 5 11 5q16 0 16 -15q0 -24 -137 -106z" />
    <glyph glyph-name="quotesingle" unicode="'" 
d="M102 559q19 0 31.5 -12.5t12.5 -31.5q0 -48 -55 -48q-71 0 -71 71q0 34 26.5 60.5t60.5 26.5q40 0 63.5 -28t23.5 -69q0 -50 -38 -87.5t-88 -41.5h-3q-14 -1 -14 15q0 11 13 15q9 2 29 8q71 28 71 91q0 28 -15 47.5t-42 19.5q-22 0 -39.5 -17.5t-17.5 -39.5q0 -41 41 -41
q25 0 25 18q0 12 -15.5 14.5t-15.5 14.5q0 15 17 15z" />
    <glyph glyph-name="parenleft" unicode="(" horiz-adv-x="229" 
d="M50 152q0 -86 23 -146q1 -4 1 -7q0 -14 -15 -14q-21 0 -31 73q-8 50 -8 94q0 128 42 283q48 177 120 252q5 5 11 5q16 0 16 -15q0 -5 -5 -10q-23 -27 -36 -48q-51 -83 -86 -226q-32 -133 -32 -241z" />
    <glyph glyph-name="parenright" unicode=")" horiz-adv-x="229" 
d="M179 525q0 86 -23 146q-2 4 -2 7q0 14 16 14q20 0 31 -73q8 -50 8 -94q0 -128 -42 -283q-48 -177 -121 -252q-5 -5 -11 -5q-15 0 -15 15q0 5 4 10q23 27 36 48q52 83 86 226q33 133 33 241z" />
    <glyph glyph-name="asterisk" unicode="*" horiz-adv-x="367" 
d="M342 401q0 -60 -43 -105q-2 -3 -85 -70q-49 -40 -57 -80q-3 -13 -15 -13q-18 0 -15 18q2 8 2 16q0 32 -52 85.5t-52 103.5q0 47 25 80q28 37 77 37q46 0 64 -42q32 42 77 42q74 0 74 -72zM314 398q0 26 -15 26q-18 0 -16 -17q1 -6 1 -9v-4q0 -5 -1 -12q-4 -18 15 -18
q16 0 16 30v4zM291 334q0 15 -16 15q-7 0 -12 -8t-46 -44q-35 -31 -35 -44q0 -14 12 -14q5 0 10 6q2 2 50 44q37 33 37 45z" />
    <glyph glyph-name="plus" unicode="+" horiz-adv-x="418" 
d="M227 307h156q15 0 15 -15t-15 -15h-160l-27 -175q-2 -12 -15 -12q-16 0 -15 14v3l26 170h-157q-15 0 -15 15t15 15h162l26 166q2 13 14 13q17 0 16 -15l-1 -3z" />
    <glyph glyph-name="comma" unicode="," 
d="M102 82q19 0 31.5 -13t12.5 -32q0 -48 -55 -48q-71 0 -71 71q0 34 26.5 60.5t60.5 26.5q40 0 63.5 -28t23.5 -69q0 -50 -38 -87.5t-88 -41.5h-3q-14 -1 -14 15q0 12 13 15q9 2 29 8q71 28 71 91q0 28 -15 47.5t-42 19.5q-22 0 -39.5 -17.5t-17.5 -39.5q0 -41 41 -41
q25 0 25 18q0 12 -15.5 14.5t-15.5 15.5q0 15 17 15z" />
    <glyph glyph-name="hyphen" unicode="&#x2010;" horiz-adv-x="365" 
d="M35 318h295q15 0 15 -15t-15 -15h-295q-15 0 -15 15t15 15z" />
    <glyph glyph-name="period" unicode="." horiz-adv-x="244" 
d="M69 -9q-49 11 -49 69q0 34 26.5 60.5t60.5 26.5q40 0 63.5 -28t23.5 -69q0 -84 -93 -84q-35 0 -35 16q0 5 3 9zM102 82q19 0 31.5 -13t12.5 -32q0 -26 -19 -38q37 9 37 51q0 28 -15 47.5t-42 19.5q-22 0 -39.5 -17.5t-17.5 -39.5q0 -41 41 -41q25 0 25 18
q0 12 -15.5 14.5t-15.5 15.5q0 15 17 15z" />
    <glyph glyph-name="slash" unicode="/" horiz-adv-x="425" 
d="M46 -15q-16 0 -16 14q0 36 95 228q74 149 156 285q27 46 87 132q5 6 12 6q15 0 15 -15q0 -5 -3 -9q-66 -91 -151 -242q-106 -192 -158 -322l-23 -66q-5 -11 -14 -11z" />
    <glyph glyph-name="zero" unicode="0" horiz-adv-x="515" 
d="M324 629q20 4 41 4q80 0 119 -66q31 -53 31 -139q0 -146 -76 -274q-89 -150 -225 -150q-94 0 -148 85q-46 72 -46 172q0 135 80 258q90 139 218 139q15 0 15 -15q0 -11 -9 -14zM336 549q26 0 45 -19.5t19 -46.5q0 -33 -26 -56t-59 -23q-42 0 -72.5 28t-30.5 69
q0 49 29.5 82t78.5 45q-114 0 -197 -131q-73 -116 -73 -236q0 -87 38 -151q45 -76 126 -76q99 0 177 104q66 87 86 196q8 46 8 94q0 175 -120 175q-50 0 -85 -25q-38 -28 -38 -77q0 -29 21.5 -48t51.5 -19q21 0 38 14.5t17 34.5q0 14 -10 25t-24 11q-3 0 -8 -1t-7 -1
q-15 0 -15 15q0 17 30 17z" />
    <glyph glyph-name="one" unicode="1" horiz-adv-x="309" 
d="M274 675q15 0 15 -15q0 -5 -4 -10q-46 -63 -107 -264q-43 -142 -75 -284q-6 -34 -20 -102q-3 -13 -15 -13q-15 0 -15 17q0 11 15 81q69 317 153 510q-31 -23 -77 -49q-59 -34 -80 -34q-14 0 -14 15q0 10 11 14q112 46 201 129q6 5 12 5z" />
    <glyph glyph-name="two" unicode="2" horiz-adv-x="537" 
d="M168 52q-54 26 -88 26q-12 0 -29 -6q-21 -6 -21 -15q0 -24 50 -24q42 0 88 19zM243 548q27 0 41 -19.5t14 -47.5q0 -34 -23.5 -58t-57.5 -24q-37 0 -60 33q-20 29 -20 68q0 76 60 121q54 41 132 41q75 0 127 -57t52 -133q0 -126 -80 -244q-74 -109 -190 -175
q50 -20 100 -20q77 0 157 41q4 2 7 2q15 0 15 -15q0 -8 -8 -13q-70 -45 -171 -45q-65 0 -134 32q-66 -32 -124 -32q-80 0 -80 54q0 24 29 39q23 12 51 12q40 0 123 -40q117 61 193 166q82 114 82 238q0 64 -43 112t-106 48q-65 0 -111 -33q-51 -36 -51 -99q0 -26 12 -47
q14 -24 38 -24q22 0 36.5 15t14.5 37q0 37 -25 37q-3 0 -8.5 -2t-8.5 -2q-14 0 -14 16q0 18 31 18z" />
    <glyph glyph-name="three" unicode="3" horiz-adv-x="517" 
d="M251 588q20 0 34 -17t14 -38q0 -32 -27 -52t-60 -20q-38 0 -63.5 24t-25.5 61q0 64 55 97q46 28 115 28q80 0 139 -45q65 -49 65 -127q0 -62 -54 -107q-43 -37 -111 -55q126 -44 126 -152q0 -83 -76 -138q-69 -50 -156 -50q-86 0 -133 29q-53 34 -73 113v4q0 14 15 14
q11 0 15 -11q4 -16 16 -47q38 -72 160 -72q74 0 134 41q68 47 68 117q0 99 -133 132q-19 3 -57 10q-14 3 -14 15q0 14 29 14q72 0 137 35q77 42 77 108q0 65 -56 105q-51 37 -118 37q-55 0 -93 -20q-47 -25 -47 -75q0 -25 16.5 -40t42.5 -15q20 0 38.5 11.5t18.5 30.5
q0 20 -24.5 26.5t-24.5 13.5q0 6 11.5 10.5t19.5 4.5z" />
    <glyph glyph-name="four" unicode="4" horiz-adv-x="498" 
d="M323 254q47 206 90 348q-180 -193 -377 -339q92 -12 184 -12q49 0 103 3zM349 226q-24 -97 -32 -152q-1 -25 -7 -73q-3 -14 -15 -14q-15 0 -15 16q0 52 37 221q-51 -3 -97 -3q-153 0 -225 18q-15 3 -15 13q0 7 9 14l120 92q143 118 328 316q7 7 14 7q13 0 13 -14
q0 -4 -1 -8q-45 -141 -107 -402q10 0 53 6q33 4 53 4q16 0 16 -16q0 -11 -13 -14q-16 -4 -116 -11z" />
    <glyph glyph-name="five" unicode="5" horiz-adv-x="489" 
d="M238 623q102 -5 130 -5q21 0 62.5 4t62.5 4q16 0 16 -15q0 -11 -13 -15q-35 -8 -128 -8q-24 0 -138 6l-63 -228q17 2 36 2q97 0 167 -45q80 -52 80 -145q0 -80 -66.5 -135.5t-148.5 -55.5q-83 0 -142 33q-73 39 -73 115q0 44 28.5 72.5t72.5 28.5q28 0 51.5 -18.5
t23.5 -46.5q0 -25 -14 -46q-16 -24 -40 -24q-32 0 -32 24q0 14 12 14q4 0 10.5 -4t9.5 -4q10 0 17 16q7 13 7 24q0 15 -15 25t-30 10q-32 0 -51.5 -19.5t-19.5 -51.5q0 -62 65 -93q51 -25 120 -25t125 45q60 49 60 116q0 80 -72 123q-61 37 -145 37q-10 0 -29.5 -2.5
t-29.5 -2.5q-13 0 -13 13q0 3 89 324q3 11 14 11q16 0 16 -14q0 -2 -12 -44z" />
    <glyph glyph-name="six" unicode="6" horiz-adv-x="492" 
d="M326 644q-110 0 -199 -167q-77 -146 -77 -268q0 -78 44 -130q46 -56 123 -56q93 0 147.5 50.5t54.5 142.5q0 53 -48.5 101t-101.5 48q-40 0 -68 -27t-28 -67q0 -25 15 -40.5t40 -15.5q31 0 31 38q0 12 -9.5 16.5t-9.5 13.5q0 15 14 15q15 0 25 -14.5t10 -30.5
q0 -27 -17 -47.5t-44 -20.5q-37 0 -61 24.5t-24 61.5q0 53 36.5 88.5t89.5 35.5q66 0 123 -56.5t57 -122.5q0 -105 -63 -164t-169 -59q-89 0 -144 65q-53 61 -53 151q0 82 39 188q42 116 107 190q76 87 160 87q112 0 164 -91q2 -3 2 -7q0 -15 -16 -15q-5 0 -21 21
q-20 27 -42 40q-35 22 -87 22z" />
    <glyph glyph-name="seven" unicode="7" horiz-adv-x="475" 
d="M280 348q100 177 162 265q-57 -9 -163 -9q-193 0 -247 17q-12 3 -12 14q0 15 18 15q12 0 37 -4q30 -6 39 -7q60 -5 165 -5q34 0 101.5 8.5t99.5 8.5q15 0 15 -13q0 -5 -6 -12q-73 -97 -188 -302q74 -84 74 -91q0 -16 -16 -16q-5 0 -73 79q-82 -148 -123 -240l-24 -62
q-5 -11 -14 -11q-16 0 -16 15q0 42 156 322l-41 43q-34 34 -34 39q0 16 16 16q11 0 74 -70z" />
    <glyph glyph-name="eight" unicode="8" horiz-adv-x="451" 
d="M121 481q0 -103 124 -103q71 0 113.5 36.5t42.5 106.5q0 53 -35.5 89t-88.5 36q-76 0 -116 -44.5t-40 -120.5zM199 -7q-76 0 -123 31q-56 35 -56 108q0 67 44 133t105 95q-78 29 -78 121q0 89 49 142t137 53q65 0 109.5 -44.5t44.5 -110.5q0 -127 -114 -163
q46 -25 76 -75t30 -101q0 -189 -224 -189zM199 23q194 0 194 159q0 59 -45 112.5t-103 53.5q-73 0 -134 -70.5t-61 -145.5q0 -109 149 -109z" />
    <glyph glyph-name="nine" unicode="9" horiz-adv-x="454" 
d="M242 321q-23 0 -41 19.5t-18 43.5q0 29 21.5 48t50.5 19q37 0 61.5 -19.5t24.5 -55.5q0 -52 -44.5 -90.5t-96.5 -38.5q-75 0 -127.5 50.5t-52.5 125.5q0 107 68 180.5t175 73.5q90 0 134 -67q37 -57 37 -151q0 -46 -6 -86q-22 -130 -124 -247q-112 -129 -235 -129
q-15 0 -15 15t15 15q112 0 215 122q94 110 114 228q6 38 6 82q0 188 -141 188q-94 0 -153.5 -64.5t-59.5 -159.5q0 -63 43.5 -104.5t106.5 -41.5q39 0 75 30t36 69q0 45 -56 45q-17 0 -29.5 -10.5t-12.5 -26.5q0 -23 28 -32.5t28 -18.5q0 -12 -27 -12z" />
    <glyph glyph-name="colon" unicode=":" horiz-adv-x="196" 
d="M55 415q0 20 15 35t36 15q20 0 35 -15t15 -35q0 -21 -15 -36t-35 -15q-21 0 -36 15t-15 36zM30 103q0 20 15 35t36 15q20 0 35 -15t15 -35q0 -21 -15 -36t-35 -15q-21 0 -36 15t-15 36z" />
    <glyph glyph-name="semicolon" unicode=";" horiz-adv-x="196" 
d="M55 415q0 20 15 35t36 15q20 0 35 -15t15 -35q0 -21 -15 -36t-35 -15q-21 0 -36 15t-15 36zM78 -1q-5 -3 -9 -3q-15 0 -15 15q0 6 6 12q16 15 24 29h-3q-21 -1 -36 14.5t-15 36.5q0 20 15 35t36 15q20 0 35 -15t15 -35q0 -23 -17.5 -57t-35.5 -47z" />
    <glyph glyph-name="less" unicode="&#x3c;" horiz-adv-x="307" 
d="M54 229l156 -249q2 -4 2 -9q0 -15 -15 -15q-8 0 -13 8l-162 260q-2 3 -2 8q0 7 5 12l237 206q5 4 10 4q15 0 15 -16q0 -6 -5 -11z" />
    <glyph glyph-name="equal" unicode="=" horiz-adv-x="365" 
d="M35 268h295q15 0 15 -15t-15 -15h-295q-15 0 -15 15t15 15zM35 368h295q15 0 15 -15t-15 -15h-295q-15 0 -15 15t15 15z" />
    <glyph glyph-name="greater" unicode="&#x3e;" horiz-adv-x="307" 
d="M253 181l-156 250q-2 4 -2 8q0 15 16 15q7 0 12 -7l162 -261q2 -3 2 -7q0 -8 -4 -12l-238 -207q-4 -4 -10 -4q-15 0 -15 16q0 6 5 11z" />
    <glyph glyph-name="question" unicode="?" horiz-adv-x="379" 
d="M79 -9q-49 11 -49 69q0 34 26.5 60.5t60.5 26.5q40 0 63.5 -28t23.5 -69q0 -84 -93 -84q-35 0 -35 16q0 5 3 9zM112 82q19 0 31.5 -13t12.5 -32q0 -26 -19 -38q37 9 37 51q0 28 -15 47.5t-42 19.5q-22 0 -39.5 -17.5t-17.5 -39.5q0 -41 41 -41q25 0 25 18
q0 12 -15.5 14.5t-15.5 15.5q0 15 17 15zM236 647q44 0 78.5 -33t34.5 -77q0 -50 -29 -80q-14 -15 -61 -40q-41 -23 -55 -46q-30 -47 -41 -99q-4 -25 -17 -72q-4 -11 -14 -11q-15 0 -15 14q0 32 22 95q20 58 39 89q15 23 54 47q48 28 59 39q28 26 28 64q0 31 -25.5 55.5
t-57.5 24.5q-30 0 -61 -17.5t-47 -42.5q-6 -9 -14 -9q-15 0 -15 15q0 3 1 6q16 32 58 55t78 23z" />
    <glyph glyph-name="at" unicode="@" horiz-adv-x="564" 
d="M364 166q0 -11 12 -11q59 0 98.5 58t39.5 175q0 187 -157 187q-134 0 -222 -99q-85 -94 -85 -230q0 -97 39 -158q46 -73 138 -73q118 0 200 73q10 9 31 32q5 7 11 7q16 0 16 -16q0 -4 -3 -9q-41 -55 -114 -87q-68 -30 -141 -30q-105 0 -160 81q-47 70 -47 180
q0 148 95.5 253.5t241.5 105.5q187 0 187 -217q0 -126 -45 -193q-21 -30 -55 -50t-68 -20q-45 0 -42 47q-51 -44 -102 -44q-39 0 -64 30.5t-25 69.5q0 82 65 154.5t146 72.5q71 0 71 -72q0 -27 -14 -63q-7 -23 -23 -67q-4 -10 -13 -30q-11 -30 -11 -57zM395 383
q0 25 -8.5 33.5t-32.5 8.5q-69 0 -125 -63.5t-56 -133.5q0 -27 16 -47q17 -23 43 -23q29 0 61 21t49 47q2 3 5 9l12 34l24 61q12 31 12 53z" />
    <glyph glyph-name="A" unicode="A" horiz-adv-x="773" 
d="M443 292h-5q-34 0 -62 -23t-28 -57q0 -25 19 -49q36 54 76 129zM634 72q-3 3 -5 9q-14 72 -49 125q-42 64 -104 81q-43 -84 -87 -146q42 -35 107 -56q61 -19 120 -19h17zM490 314q106 -34 154 -169q45 302 45 468q0 29 -5 47q-33 -24 -104 -161zM659 38q-10 -53 -25 -53
t-15 14q0 -7 9 37h-12q-59 -1 -129 21q-73 24 -117 59q-100 -131 -189 -131q-73 0 -117 38.5t-44 109.5q0 69 43.5 122.5t111.5 53.5q42 0 77.5 -36t35.5 -78q0 -44 -30 -80q-33 -37 -76 -37q-33 0 -53 21t-20 54q0 20 11 39q12 24 30 24q15 0 15 -16q0 -6 -13 -16t-13 -31
q0 -45 43 -45q31 0 53.5 28t22.5 59q0 29 -26.5 56.5t-56.5 27.5q-55 0 -92 -46q-33 -43 -33 -100q0 -118 136 -118q73 0 162 122q-30 35 -30 75q0 46 38 78q35 32 82 32q10 0 20 -2l101 203q88 169 130 169q30 0 30 -77q0 -119 -18 -274q-6 -50 -37 -272q61 8 98 41
q6 4 11 4q15 0 15 -15q0 -6 -5 -11q-38 -41 -124 -50z" />
    <glyph glyph-name="B" unicode="B" horiz-adv-x="642" 
d="M180 35q65 -20 148 -20q117 0 167 17q87 31 87 125q0 114 -133 156q-18 5 -54 14q-14 4 -14 15q0 12 16.5 14.5t52.5 10.5q131 35 131 148q0 54 -56 93q-44 30 -105 42q1 -6 -4 -12q-36 -46 -56 -113l-31 -122q-48 -173 -57 -200q-43 -129 -92 -168zM152 523
q0 26 19.5 43t45.5 17q32 0 52.5 -25t20.5 -59q0 -43 -30.5 -70t-74.5 -27q-47 0 -77 33t-30 80q0 96 103 139q74 31 186 31q86 0 158 -42q86 -49 86 -128q0 -131 -146 -175q147 -50 147 -183q0 -110 -95 -148q-60 -24 -189 -24q-91 0 -163 23q-93 29 -128 93q-17 31 -17 48
q0 18 15 18q11 0 15 -12q12 -43 32.5 -66t61.5 -41l5 3q58 36 114 224l69 263q21 73 58 116q-12 1 -23 1q-99 0 -164 -24q-95 -35 -95 -116q0 -35 21 -59t56 -24q32 0 53.5 18t21.5 49q0 21 -12 37.5t-31 16.5q-14 0 -24.5 -8.5t-10.5 -21.5q0 -11 8 -18.5t8 -13.5
q0 -16 -15 -16q-13 0 -22 17t-9 31z" />
    <glyph glyph-name="C" unicode="C" horiz-adv-x="603" 
d="M514 533q0 19 -15 32.5t-34 13.5q-31 0 -51.5 -27.5t-20.5 -59.5q0 -72 80 -72q52 0 82 38q28 35 28 89q0 62 -26 88.5t-88 26.5q-102 0 -204 -77q-93 -71 -154 -181.5t-61 -210.5q0 -91 77 -139q65 -42 160 -42q80 0 161 24q92 27 144 74q5 4 11 4q15 0 15 -15
q0 -6 -5 -11q-47 -48 -153 -79q-92 -27 -173 -27q-108 0 -182 50q-85 57 -85 161q0 108 65 225.5t165 192.5q108 81 219 81q144 0 144 -145q0 -66 -36 -110q-39 -47 -104 -47q-51 0 -80.5 26t-29.5 76q0 45 29 81t73 36q32 0 55.5 -22.5t23.5 -53.5q0 -16 -11 -34
q-11 -21 -26 -21t-15 16q0 6 11 15t11 24z" />
    <glyph glyph-name="D" unicode="D" horiz-adv-x="606" 
d="M143 56q-27 30 -46 30q-15 0 -31 -12.5t-16 -27.5q0 -31 52 -31q21 0 41 41zM165 34q-29 -49 -63 -49q-32 0 -55 14q-27 17 -27 47q0 27 24.5 48.5t52.5 21.5q32 0 60 -30q9 25 22 65q-93 99 -93 230q0 126 76 216q81 95 204 95q118 0 190 -95q65 -86 65 -208
q0 -88 -29 -172q-32 -90 -89 -149q54 10 90 42q6 4 11 4q15 0 15 -15q0 -6 -4 -11q-51 -50 -152 -54q-69 -49 -157 -49t-141 49zM204 127q-13 -39 -25 -66q45 -46 127 -46q54 0 101 21q-116 14 -203 91zM214 157q100 -95 238 -94q68 51 105 147q34 86 34 179q0 109 -57 187
q-63 86 -168 86q-111 0 -182 -86q-68 -82 -68 -195q0 -108 73 -198q42 133 61 179q47 114 103 150q4 2 8 2q15 0 15 -15q0 -7 -7 -13q-22 -16 -32 -28q-38 -44 -74 -143z" />
    <glyph glyph-name="E" unicode="E" horiz-adv-x="521" 
d="M193 366q42 -35 118 -35q54 0 54 24q0 23 -86 23q-47 0 -86 -12zM431 545q0 40 -36 40q-21 0 -34.5 -16.5t-13.5 -37.5q0 -63 68 -63q83 0 83 72q0 56 -55 91q-48 31 -107 31q-85 0 -137 -52t-52 -137q0 -49 23 -83q50 18 109 18q116 0 116 -53q0 -29 -29 -43
q-23 -11 -55 -11q-98 0 -150 53q-111 -51 -111 -183q0 -74 70 -118q60 -38 138 -38q72 0 108 7q54 11 98 46q9 7 46 42q5 4 11 4q15 0 15 -15q0 -6 -4 -11q-61 -64 -124 -85q-52 -18 -150 -18q-92 0 -160 46q-78 53 -78 140q0 147 122 207q-25 40 -25 95q0 98 61 158.5
t158 60.5q72 0 129 -39q63 -44 63 -113q0 -50 -30.5 -76t-82.5 -26q-43 0 -70.5 25t-27.5 68q0 34 22 59t56 25q28 0 47 -20.5t19 -49.5q0 -38 -24 -38q-17 0 -17 13q0 5 5.5 11t5.5 14z" />
    <glyph glyph-name="F" unicode="F" horiz-adv-x="600" 
d="M318 362l41 139q30 91 55 130q-68 5 -137 23q-33 8 -52 8q-71 0 -121 -44q-54 -46 -54 -115q0 -44 25 -77q28 -36 70 -36q30 0 55.5 19t25.5 48q0 62 -38 62q-42 0 -42 -35q0 -11 6 -20.5t6 -13.5q0 -15 -16 -15q-11 0 -19 19q-7 16 -7 30q0 65 72 65q68 0 68 -92
q0 -42 -34 -69.5t-77 -27.5q-55 0 -91 45q-34 41 -34 98q0 82 61 135.5t144 53.5q23 0 57 -9q48 -13 56 -14q63 -11 223 -11q85 0 163 33q4 1 7 1q14 0 14 -16q0 -8 -9 -13q-5 -2 -26 -11q-62 -24 -149 -24q-83 0 -114 1q0 -4 -3 -8q-30 -43 -57 -123q-7 -21 -38 -132h9
q26 0 75 -7.5t73 -7.5q39 0 72 15q4 2 8 2q14 0 14 -15q0 -16 -40 -25q-29 -7 -54 -7t-75 7.5t-76 7.5q-7 0 -14 -1q-42 -149 -70 -211q-64 -141 -145 -141q-37 0 -64.5 26.5t-27.5 63.5t32 67.5t70 30.5q23 0 39.5 -16.5t16.5 -39.5q0 -24 -17 -42t-41 -18q-29 0 -29 17
q0 15 15 15q2 0 6.5 -1t7.5 -1q11 0 19.5 9t8.5 21q0 26 -26 26q-25 0 -48.5 -21.5t-23.5 -46.5t19 -42.5t43 -17.5q62 0 119 131q25 56 63 185q-3 -1 -16 -8t-17 -7q-15 0 -15 15q0 22 58 33z" />
    <glyph glyph-name="G" unicode="G" horiz-adv-x="637" 
d="M413 -26q-22 -7 -164 -45q-42 -11 -126 -39q-71 -29 -71 -79q0 -33 28 -53q24 -18 58 -18q174 0 275 234zM156 472q93 -53 235 -53q96 0 132 25q27 20 45.5 54.5t18.5 67.5q0 81 -117 81q-90 0 -177 -51q-77 -47 -137 -124zM131 488q64 84 148 134q94 55 191 55
q62 0 101 -24q46 -29 46 -87q0 -40 -22 -81.5t-55 -64.5q-44 -31 -149 -31q-154 0 -253 58q-88 -127 -88 -258q0 -67 41 -119q44 -55 109 -55q69 0 148 51q74 47 114 109q60 93 114 235q4 11 14 11q15 0 15 -15q0 -3 -15 -42l-125 -341q106 38 162 87q5 4 10 4q15 0 15 -15
q0 -6 -4 -11q-53 -55 -197 -102q-112 -276 -313 -276q-47 0 -80 26q-36 29 -36 75q0 51 46 84q28 20 92 40q90 23 268 75q5 13 48 133q-47 -64 -122 -109q-81 -49 -154 -49q-78 0 -130 64q-50 60 -50 140q0 140 93 275q-17 13 -34 35q-20 26 -20 43q0 14 15 14q9 0 14 -10
q17 -38 43 -58z" />
    <glyph glyph-name="H" unicode="H" horiz-adv-x="675" 
d="M253 389q-13 2 -25 2q-67 0 -67 -79q0 -42 27 -86q40 86 65 163zM496 72q-13 87 -37 147q-22 55 -71 100.5t-106 62.5q-29 -91 -73 -184q90 -112 287 -126zM531 76l1 -5q88 0 132 39q6 4 11 4q15 0 15 -15q0 -6 -4 -11q-45 -46 -154 -47q1 -6 2.5 -20t1.5 -22
q0 -15 -15 -15q-10 0 -13.5 15.5t-6.5 42.5q-205 8 -307 126q-92 -183 -159 -183q-15 0 -15 15q0 12 15 15q5 1 16 5q49 24 123 175q-43 62 -43 117q0 109 97 109q16 0 33 -3q28 96 28 159q0 82 -73 82q-44 0 -79.5 -31.5t-35.5 -74.5q0 -29 20.5 -46.5t49.5 -17.5
q19 0 38 14.5t19 33.5q0 12 -8.5 27.5t-19.5 15.5q-3 0 -7.5 -2.5t-7.5 -2.5q-15 0 -15 16q0 19 30 19q24 0 41 -23.5t17 -49.5q0 -31 -27.5 -54.5t-59.5 -23.5q-42 0 -71 26.5t-29 67.5q0 56 44.5 96t100.5 40q103 0 103 -112q0 -68 -28 -166q63 -19 117.5 -69.5
t78.5 -112.5q10 -25 19 -57q7 78 24 148q28 108 81 213q75 151 146 151q14 0 14 -15q0 -10 -12 -14.5t-36 -18.5q-53 -39 -102 -148q-38 -84 -61 -176q-29 -111 -29 -236z" />
    <glyph glyph-name="I" unicode="I" horiz-adv-x="424" 
d="M225 50q63 47 108 152q37 85 54 183q6 36 6 103q0 54 -7 99q-12 75 -39 75q-45 0 -85 -60q-29 -42 -47 -101q-39 -119 -39 -225q0 -3 5 -72v-2q1 -15 -15 -15q-11 0 -15 13q-5 21 -5 76q0 122 46 250q58 166 155 166q76 0 76 -204q0 -69 -7 -109q-39 -229 -151 -335h16
q59 0 132 66q5 4 11 4q15 0 15 -15q0 -6 -5 -11q-29 -30 -70 -51q-44 -23 -83 -23q-25 0 -49 4q-50 -33 -107 -33q-53 0 -82 54q-23 44 -23 102q0 48 16 48q7 0 13 -8q9 -12 27 -34q68 -78 149 -97zM50 131q2 -42 18 -74q20 -42 57 -42q34 0 65 14q-76 27 -140 102z" />
    <glyph glyph-name="J" unicode="J" horiz-adv-x="643" 
d="M417 -31q-95 -21 -281 -77q-78 -29 -78 -81q0 -33 27 -53q24 -18 59 -18q173 0 273 229zM454 -19q-111 -271 -310 -271q-47 0 -80 26q-36 29 -36 75q0 55 52 88q31 19 102 39q84 20 250 67l26 70l187 554q-81 -23 -148 -67q-46 -29 -129 -100q-113 -97 -225 -97
q-123 0 -123 117q0 64 29 105q34 46 95 46q113 0 113 -121q0 -37 -26.5 -60t-64.5 -23q-28 0 -47 20.5t-19 49.5q0 15 9 35.5t22 20.5q16 0 16 -15q0 -4 -8.5 -15.5t-8.5 -25.5q0 -16 10.5 -28t25.5 -12q25 0 43 14.5t18 38.5q0 47 -17 68q-20 23 -66 23q-48 0 -73 -38
q-21 -32 -21 -83q0 -87 93 -87q76 0 144 43q20 13 117 95q49 41 126 83q92 50 139 50q13 0 13 -13q0 -27 -196 -588l-17 -47q102 37 163 92q5 4 10 4q16 0 16 -15q0 -6 -5 -11q-59 -62 -199 -107z" />
    <glyph glyph-name="K" unicode="K" horiz-adv-x="751" 
d="M361 362q-18 -1 -33 -9q-19 -11 -19 -26q0 -32 31 -35zM441 317q-24 31 -50 41q-9 -32 -19 -64q31 4 69 23zM747 676q0 -33 -12 -77q-47 -180 -250 -294q40 -67 79 -214q20 -76 57 -76q25 0 75 49.5t56 49.5q15 0 15 -15q0 -5 -5 -11q-92 -103 -141 -103q-48 0 -76 68
l-32 109q-25 79 -55 130q-54 -26 -95 -30q-44 -140 -70 -182q-56 -90 -159 -90q-61 0 -84 28q-30 37 -30 83q0 57 37 99.5t94 42.5q42 0 68 -25t26 -67q0 -35 -23 -59t-58 -24q-17 0 -34 12t-17 29q0 14 16 14q8 0 14.5 -12.5t20.5 -12.5q23 0 37 15t14 38q0 62 -64 62
q-44 0 -72.5 -33.5t-28.5 -78.5q0 -66 49 -78q14 -3 35 -3q67 0 108 41q30 31 57 103q14 38 32 99q-52 8 -52 64q0 31 31 50q27 16 60 15q37 130 60 249q-30 -19 -63 -19q-25 0 -67.5 16.5t-62.5 16.5q-34 0 -56.5 -26t-22.5 -61q0 -45 52 -45q45 0 45 32q0 28 -20 28
q-3 0 -9 -3.5t-9 -3.5q-15 0 -15 16q0 21 33 21q22 0 36 -18t14 -40q0 -30 -22 -46t-53 -16q-35 0 -58.5 20.5t-23.5 54.5q0 47 31.5 82t77.5 35q23 0 65 -16.5t65 -16.5q28 0 57 21t31 21q13 0 13 -15q0 -50 -68 -292q36 -13 68 -57q70 39 125 91q91 84 116 202q2 18 8 55
q2 14 15 14q15 0 15 -16z" />
    <glyph glyph-name="L" unicode="L" horiz-adv-x="645" 
d="M258 107q-47 46 -107 46q-37 0 -68 -23q-33 -26 -33 -62q0 -27 28 -42q22 -11 53 -11q87 0 127 92zM403 486q28 -3 54 -3q50 0 105 22q67 28 67 70q0 48 -21.5 67.5t-70.5 19.5q-70 0 -134 -176zM373 492q71 200 164 200q122 0 122 -117q0 -57 -75 -93q-62 -29 -127 -29
q-31 0 -64 4l-5 -14q-22 -66 -53 -187q-9 -42 -35 -125l-6 -17q54 -60 63 -68q38 -31 87 -31q87 0 190 95q6 4 11 4q15 0 15 -15q0 -6 -4 -11q-41 -42 -97 -71q-61 -32 -115 -32t-94 29q-22 15 -70 70q-47 -99 -149 -99q-44 0 -75 19q-36 23 -36 64q0 49 42 83q39 32 89 32
q69 0 120 -46l1 5q10 25 35 124q31 121 52 186l4 11q-136 29 -176 110q-2 4 -2 7q0 15 16 15q7 0 12 -8t15 -22q42 -52 145 -73z" />
    <glyph glyph-name="M" unicode="M" horiz-adv-x="965" 
d="M149 169q0 -16 13 -29.5t29 -13.5q32 0 54 31q20 28 20 62q0 33 -25 60t-58 27q-132 0 -132 -166q0 -51 37 -87t88 -36q96 0 177 129q31 49 102 213l59 135q34 79 51 139l9 33q5 13 15 13q16 0 15 -16v-2q-4 -92 -26 -288q-21 -187 -25 -288q58 158 182 469q16 41 56 117
q6 8 14 8q14 0 14 -14q0 -3 -1 -8q-16 -46 -28 -222q-13 -187 -13 -315v-11q0 -94 41 -94q38 0 91.5 49.5t56.5 49.5q15 0 15 -15q0 -6 -5 -11q-95 -103 -158 -103q-71 0 -71 135q0 71 6 202q7 147 18 240q-56 -127 -151 -384l-48 -128l-21 -55q-5 -12 -15 -12q-14 0 -14 17
q0 160 38 527q-4 -11 -77 -180q-75 -173 -111 -228q-87 -132 -196 -132q-63 0 -109 44.5t-46 108.5q0 86 37 137q42 59 125 59q45 0 79 -35.5t34 -81.5q0 -47 -28 -83q-31 -40 -76 -40q-28 0 -50 22.5t-22 50.5q0 13 9 31.5t22 18.5q15 0 15 -15q0 -5 -8 -15t-8 -20z" />
    <glyph glyph-name="N" unicode="N" horiz-adv-x="872" 
d="M530 517q-49 -223 -159 -392q-89 -138 -198 -138q-65 0 -109 45.5t-44 110.5q0 86 38 137q43 59 126 59q51 0 82 -29.5t31 -79.5q0 -51 -29 -85q-32 -37 -82 -37q-26 0 -43.5 21t-17.5 48q0 16 9 37q12 25 25 25q16 0 16 -16q0 -4 -10 -17t-10 -29q0 -14 8.5 -26.5
t22.5 -12.5q38 0 59.5 27t21.5 65q0 79 -83 79q-70 0 -104 -50q-30 -43 -30 -116q0 -53 35 -89.5t88 -36.5q95 0 177 129q36 58 102 213q29 70 57 203q7 38 23 104q4 13 15 13q15 0 14 -16v-2q-3 -75 -3 -81q0 -118 26 -257q27 -148 72 -247q0 189 89 427q70 189 146 189
q54 0 83 -52q2 -4 2 -7q0 -15 -16 -15q-5 0 -24 22t-45 22q-56 0 -119 -174q-44 -119 -65 -230q-21 -105 -21 -181q0 -16 5 -43t5 -36q0 -15 -14 -15q-8 0 -14 9q-59 81 -98 252q-32 139 -40 273z" />
    <glyph glyph-name="O" unicode="O" horiz-adv-x="619" 
d="M440 679h2h-2zM367 64q-102 77 -102 275q0 225 100 306q-59 -6 -102 -31q-38 -23 -81 -71q-58 -64 -95 -156t-37 -176q0 -75 44 -133q47 -63 120 -63q80 0 153 49zM422 66q29 -11 65 -11q64 0 121 54q5 5 11 5q15 0 15 -15q0 -6 -4 -10q-59 -64 -143 -64q-51 0 -92 21
q-90 -61 -181 -61q-86 0 -142 72q-52 66 -52 154q0 89 40 188q38 96 100.5 165.5t125.5 93.5q54 21 156 21q84 0 123 -72q32 -57 32 -148q0 -171 -109 -323q-28 -39 -66 -70zM442 649q-17 0 -44 -17q-57 -35 -83 -132q-20 -72 -20 -161q0 -192 97 -257q83 66 130 169
q45 99 45 208q0 190 -125 190z" />
    <glyph glyph-name="P" unicode="P" horiz-adv-x="587" 
d="M241 612q-67 -86 -105 -86q-15 0 -15 15q0 9 10 14q41 21 72 57l54 73q7 9 14 9q14 0 14 -15q0 -9 -21 -103q92 116 203 116q79 0 124 -56q41 -52 41 -132q0 -123 -73 -212q-77 -94 -198 -94q-136 0 -136 114q0 48 26 82q30 37 76 37q36 0 61 -14q30 -18 30 -52
q0 -25 -13 -45q-15 -23 -39 -23q-19 0 -19 15q0 10 20.5 16t20.5 37q0 36 -61 36q-34 0 -53 -26.5t-19 -62.5q0 -84 106 -84q108 0 177 86q64 80 64 190q0 68 -33 111q-36 47 -102 47q-77 0 -130 -53l-90 -108q-114 -479 -201 -568q-5 -5 -11 -5q-15 0 -15 15q0 5 4 10
q101 121 217 659z" />
    <glyph glyph-name="Q" unicode="Q" horiz-adv-x="602" 
d="M332 45l-47 110q-30 56 -94 56q-44 0 -74 -23q-34 -25 -34 -67q0 -14 6 -36q48 -70 125 -70q58 0 118 30zM376 34q28 -28 58 -28q37 0 86 38q6 5 71 66q5 4 11 4q15 0 15 -15q0 -6 -5 -11q-104 -112 -178 -112q-50 0 -85 43q-69 -34 -135 -34q-86 0 -142 72
q-52 66 -52 154q0 89 40 188q38 95 99 164q106 119 234 119q203 0 203 -226q0 -123 -58 -239q-61 -122 -162 -183zM57 154q12 41 52 65q37 22 82 22q80 0 113 -60l54 -123q95 57 153 173q55 109 55 225q0 96 -37 143q-42 53 -136 53q-114 0 -211 -109q-58 -64 -95 -156
t-37 -176q0 -29 7 -57z" />
    <glyph glyph-name="R" unicode="R" horiz-adv-x="848" 
d="M408 400q-38 -9 -38 -47q0 -18 13 -32q13 37 25 79zM586 296q-40 101 -146 106q-16 -53 -32 -99q41 -19 90 -19q44 0 88 12zM449 431q120 -9 166 -125q70 27 113 79q47 56 47 128q0 81 -79 118q-59 28 -151 28q-16 0 -34 -1zM311 554q0 71 86 108q66 27 148 27
q105 0 173 -35q87 -46 87 -141q0 -82 -53 -146q-48 -59 -128 -90q11 -41 11 -87q0 -17 -2 -50t-2 -50q0 -75 40 -75q37 0 106.5 49.5t70.5 49.5q15 0 15 -15q0 -6 -6 -12q-36 -34 -87 -65q-63 -37 -99 -37q-70 0 -70 105q0 17 2 50t2 50q0 42 -9 78q-49 -14 -98 -14
q-54 0 -100 21q-47 -129 -85 -187q-68 -103 -161 -103q-58 0 -95 41t-37 99q0 71 34 120q38 55 106 55q47 0 78 -30t31 -77q0 -46 -27.5 -77.5t-73.5 -31.5q-28 0 -45.5 21.5t-17.5 50.5q0 15 8 36q10 25 23 25q16 0 16 -15q0 -4 -8.5 -18t-8.5 -28q0 -16 9 -29t24 -13
q33 0 52 23t19 56q0 34 -22.5 55.5t-56.5 21.5q-55 0 -85 -47q-25 -39 -25 -98q0 -46 28.5 -78t73.5 -32q67 0 119 66q32 41 68 126q17 40 33 84q-32 25 -32 62q0 72 78 79q11 37 60 221q-137 -23 -137 -99q0 -12 5 -20t5 -12q0 -15 -15 -15q-12 0 -20 18q-5 14 -5 29z" />
    <glyph glyph-name="S" unicode="S" horiz-adv-x="610" 
d="M465 490q38 0 64 19q31 21 31 57q0 46 -78 74q-61 22 -118 22q-66 0 -121 -37q-62 -42 -62 -104q0 -45 50 -76q18 -10 89 -38q80 -31 140 -92q70 -72 70 -148q0 -95 -101 -144q-79 -38 -186 -38q-90 0 -153 47q-70 52 -70 140q0 53 32 93q35 44 87 44q44 0 77 -30.5
t33 -75.5q0 -37 -24.5 -63.5t-61.5 -26.5q-28 0 -45.5 19t-17.5 47q0 15 10.5 33.5t24.5 18.5q15 0 15 -16q0 -6 -10 -14.5t-10 -21.5q0 -36 33 -36q24 0 40 18t16 42q0 32 -24 54t-56 22q-40 0 -64.5 -33.5t-24.5 -73.5q0 -75 61 -119q54 -38 132 -38q93 0 163 31
q94 41 94 121q0 66 -65 130q-55 54 -126 82q-79 31 -104 48q-54 36 -54 94q0 75 71 126q63 45 142 45q72 0 140 -28q86 -36 86 -98q0 -49 -37.5 -77.5t-87.5 -28.5q-52 0 -86 27q-6 5 -6 12q0 15 15 15q4 0 9 -3q31 -21 68 -21z" />
    <glyph glyph-name="T" unicode="T" horiz-adv-x="645" 
d="M512 570q-209 -232 -209 -411q0 -144 152 -144q74 0 179 95q5 4 10 4q16 0 16 -15q0 -6 -5 -11q-35 -37 -92 -69q-63 -34 -108 -34q-182 0 -182 174q0 183 201 413q-52 5 -102 24q-15 6 -95 43q-50 23 -86 23q-60 0 -99 -33q-42 -35 -42 -94q0 -92 100 -92q37 0 57 28
q17 25 17 63q0 48 -50 48q-16 0 -29 -12.5t-13 -28.5q0 -21 18 -25t18 -16q0 -15 -16 -15q-23 0 -36.5 16.5t-13.5 39.5q0 28 22 49.5t50 21.5q35 0 57.5 -21.5t22.5 -56.5q0 -51 -27 -86t-77 -35q-59 0 -94.5 32t-35.5 90q0 72 49 114.5t122 42.5q42 0 95 -24l90 -42
q67 -26 154 -26q150 0 250 88q5 4 10 4q16 0 16 -15q0 -6 -5 -11q-48 -49 -135 -75q-76 -23 -154 -21z" />
    <glyph glyph-name="U" unicode="U" horiz-adv-x="670" 
d="M148 612q26 0 42.5 -22t16.5 -48q0 -33 -25.5 -54t-59.5 -21q-40 0 -71 30t-31 69q0 54 53 91q47 33 104 33q43 0 76 -21q37 -25 37 -66q0 -61 -46 -164l-86 -180q-46 -107 -46 -178q0 -66 55 -66q153 0 292 261q58 109 167 406q4 11 14 11q15 0 15 -15q0 -1 -53 -151
q-40 -111 -86 -264q-30 -105 -30 -176q0 -72 36 -72q37 0 91 49.5t57 49.5q15 0 15 -15q0 -6 -4 -11q-95 -103 -159 -103q-66 0 -66 102q0 73 28 171q-62 -118 -118 -171q-107 -102 -199 -102q-85 0 -85 96q0 76 52 198l90 191q36 85 36 133q0 28 -29 44q-24 13 -54 13
q-43 0 -83 -25q-44 -28 -44 -69q0 -27 22 -48t50 -21q21 0 38 12.5t17 32.5q0 13 -8 26.5t-21 13.5q-9 0 -17.5 -9.5t-14.5 -9.5q-16 0 -16 15q0 13 19 24q16 10 29 10z" />
    <glyph glyph-name="V" unicode="V" horiz-adv-x="766" 
d="M603 228q36 72 67 196.5t31 200.5q0 26 -6 37q-25 -1 -54 -110q-21 -79 -29 -139q-10 -74 -10 -140q0 -26 1 -45zM147 435q40 0 40 44q0 71 -67 71q-70 0 -70 -98q0 -19 2 -30q4 -26 29.5 -43t53.5 -17t55 18q65 42 102 91q31 42 63 120q12 32 39 92q5 10 14 10
q15 0 15 -15q0 -3 -2 -7q-95 -236 -105 -263q-59 -166 -59 -270q0 -123 97 -123q122 0 224 167q-6 38 -6 91q0 89 17 193q21 121 55 183q23 43 52 43q35 0 35 -67q0 -130 -67 -328q-21 -62 -55 -121q17 -96 78 -96q26 0 52 17t27 17q15 0 15 -15q0 -6 -4 -11
q-38 -38 -90 -38q-74 0 -100 90q-105 -155 -233 -155q-127 0 -127 153q0 108 63 284q-86 -90 -155 -90q-40 0 -74 24t-39 62q-2 14 -2 34q0 54 22 88q27 40 78 40q46 0 71.5 -27.5t25.5 -73.5q0 -19 -2 -29q-6 -19 -26.5 -32t-41.5 -13q-26 0 -42.5 19.5t-16.5 45.5
q0 16 15 16q11 0 17 -25.5t27 -25.5z" />
    <glyph glyph-name="W" unicode="W" horiz-adv-x="885" 
d="M777 603q-29 57 -56 57q-10 0 -10 -16q0 -42 52 -42q7 0 14 1zM95 550q0 25 20.5 41t45.5 16q32 0 50 -23t18 -56q0 -41 -28.5 -71.5t-69.5 -30.5q-45 0 -78 33.5t-33 79.5q0 25 11 54q37 99 150 99q54 0 89 -31.5t35 -84.5q0 -63 -49 -166l-79 -160q-20 -47 -20 -106
q0 -129 83 -129q126 0 209 212q17 45 24 69l18 84q19 76 52 229q2 13 14 13q15 0 15 -15q0 -2 -9 -53q-21 -113 -36 -175q-10 -34 -28 -103q-10 -49 -10 -118q0 -143 102 -143q118 0 174 152q40 107 40 251q0 106 -17 156q-13 -2 -25 -2q-35 0 -58.5 19t-23.5 53q0 46 40 46
q47 0 84 -81q43 13 89 56q5 5 11 5q15 0 15 -16q0 -5 -4 -10q-40 -44 -100 -63q19 -52 19 -158q0 -161 -46 -277q-63 -161 -198 -161q-137 0 -132 190q-86 -190 -219 -190q-61 0 -90 52q-23 41 -23 107q0 72 38 154l72 143q38 85 38 135q0 41 -26 63.5t-68 22.5
q-49 0 -77 -17.5t-45 -61.5q-9 -24 -9 -44q0 -34 24 -58.5t57 -24.5q28 0 48 22t20 50q0 49 -38 49q-12 0 -24 -7.5t-12 -19.5q0 -2 2 -6.5t2 -6.5q0 -15 -16 -15q-18 0 -18 28z" />
    <glyph glyph-name="X" unicode="X" horiz-adv-x="665" 
d="M400 337q-2 -34 -2 -57q0 -78 27 -158q35 -107 95 -107q29 0 74 36l63 59q5 4 10 4q16 0 16 -15q0 -6 -5 -11q-95 -103 -158 -103q-78 0 -120 117q-32 88 -32 185q-79 -130 -137 -193q-100 -109 -196 -109q-15 0 -15 15t15 15q93 0 196 125q43 52 139 206q2 52 2 82
q0 200 -68 225q-24 9 -52 9q-57 0 -97 -42t-40 -100q0 -36 26.5 -59.5t62.5 -23.5q30 0 52 32q20 29 20 61q0 18 -13.5 33t-30.5 15q-15 0 -24 -15.5t-9 -30.5q0 -2 1 -7v-6q0 -14 -15 -14q-16 0 -16 27q0 28 17.5 52t45.5 24q30 0 52 -24t22 -54q0 -45 -28 -82
q-31 -41 -74 -41q-49 0 -84 32.5t-35 80.5q0 70 48.5 121t118.5 51q103 0 135 -105q17 -57 14 -190q79 127 140 190q101 105 200 105q15 0 15 -15t-15 -15q-97 0 -201 -121q-48 -55 -140 -204z" />
    <glyph glyph-name="Y" unicode="Y" horiz-adv-x="715" 
d="M489 -27q-117 -35 -135 -42q-85 -31 -121 -67q-48 -48 -48 -92q0 -31 25 -48q22 -14 55 -14q24 0 46 6q81 25 178 257zM95 529q0 24 19 42.5t42 18.5q31 0 52.5 -23t21.5 -54q0 -45 -34 -75.5t-79 -30.5t-71 29t-26 74q0 65 46.5 109.5t110.5 44.5q122 0 122 -121
q0 -61 -34 -138l-64 -137q-34 -83 -34 -158q0 -95 64 -95q264 0 411 457q14 44 30 100q4 16 13 47q3 12 14 12q15 0 15 -15q0 -22 -54 -221q-58 -215 -120 -374q107 38 164 89q5 4 11 4q15 0 15 -15q0 -6 -5 -11q-55 -57 -200 -103q-109 -268 -205 -297q-26 -8 -55 -8
q-46 0 -76 23q-34 25 -34 69q0 111 165 177q4 2 183 60q43 108 86 250q-138 -274 -358 -274q-94 0 -94 125q0 90 44 190l57 118q31 71 31 125q0 91 -92 91q-52 0 -89.5 -36t-37.5 -88q0 -73 67 -73q32 0 57.5 22t25.5 54q0 19 -12.5 33t-31.5 14q-11 0 -21 -10t-10 -21
q0 -2 1.5 -6t1.5 -6q0 -15 -16 -15q-17 0 -17 27z" />
    <glyph glyph-name="Z" unicode="Z" horiz-adv-x="716" 
d="M167 48q-51 25 -68 25q-15 0 -30 -7q-19 -9 -19 -22q0 -14 17 -22q14 -7 29 -7q25 0 71 33zM194 536q0 27 20.5 43.5t48.5 16.5q26 0 46.5 -25.5t20.5 -52.5q0 -44 -29 -66.5t-74 -22.5q-53 0 -80.5 32t-27.5 85q0 47 31 87.5t77 40.5q50 0 149 -17.5t149 -17.5
q121 0 220 34q4 1 8 1q14 0 14 -13q0 -7 -7 -13l-53 -52q-66 -64 -120 -129l-176 -225q-78 -99 -187 -188q85 -39 155 -39q101 0 145 6q79 12 135 50q16 11 46 39q5 4 11 4q15 0 15 -15q0 -6 -4 -11q-67 -68 -162 -89q-60 -14 -186 -14q-77 0 -181 49q-66 -49 -102 -49
q-29 0 -51 15q-25 17 -25 44t27 44q23 15 52 15q26 0 96 -34q112 89 192 191q134 172 149 190q86 106 161 179q-95 -20 -172 -20q-50 0 -149 17.5t-149 17.5q-33 0 -55.5 -32t-22.5 -66q0 -87 78 -87q73 0 73 59q0 14 -12 31t-25 17q-39 0 -39 -30q0 -4 1.5 -10t1.5 -9
q0 -15 -16 -15q-17 0 -17 34z" />
    <glyph glyph-name="bracketleft" unicode="[" horiz-adv-x="751" 
d="M178 247q29 36 69 36q69 0 69 -67q0 -50 -30 -86q-16 -19 -65 -56q-44 -32 -60 -58q-5 -8 -13 -32q-5 -13 -15 -13q-15 0 -15 15q0 3 1 9v8q0 29 -47 78t-47 94t25 76.5t69 31.5q41 0 59 -36zM142 41q15 21 58 53.5t58 50.5q28 33 28 71q0 37 -39 37q-37 0 -57 -43
l-6.5 -19.5t-13.5 -10.5q-15 0 -15 15q0 2 1 7v8q0 43 -37 43q-31 0 -47.5 -22.5t-16.5 -55.5q0 -32 35 -70q44 -47 52 -64zM541 586q39 56 96 56q41 0 65 -22.5t24 -63.5q0 -69 -41 -117q-20 -24 -89 -74q-60 -44 -83 -83q-4 -6 -18 -44q-4 -13 -14 -13q-16 0 -16 15
q0 4 1.5 11.5t1.5 11.5q0 37 -34 76l-63 68q-33 44 -33 92q0 60 32.5 101.5t90.5 41.5q59 0 80 -56zM491 304q22 33 80 77q65 49 85 73q40 45 40 102q0 56 -59 56q-26 0 -49 -18.5t-34 -44.5q-2 -8 -7 -22.5t-15 -14.5q-15 0 -15 15v8q1 6 1 9q0 68 -57 68q-45 0 -70 -35
q-23 -31 -23 -78t51 -102q61 -64 72 -93z" />
    <glyph glyph-name="backslash" unicode="\" horiz-adv-x="604" 
d="M406 -43q60 13 112 13q43 0 43 -16q0 -15 -16 -15q-4 0 -13 1h-14q-58 0 -127 -17q-120 -256 -258 -256q-50 0 -81.5 32.5t-31.5 82.5q0 114 147 196q109 60 249 83q33 88 69 214q-117 -225 -291 -225q-72 0 -72 95q0 72 48 170.5t48 145.5q0 62 -63 62q-55 0 -80 -47
q-1 -1 -7 -17q-4 -12 -14 -12q-15 0 -15 15q0 35 41 64q38 27 75 27q93 0 93 -92q0 -53 -48 -151.5t-48 -164.5q0 -65 42 -65q204 0 325 352q13 37 25 78q3 12 10 36q4 12 15 12q15 0 15 -15q0 -42 -57 -235q-49 -163 -78 -243q36 4 67 4h32q21 -3 21 -16q0 -15 -16 -15
q-6 0 -19 1h-18q-35 0 -79 -6q-15 -40 -31 -76zM371 -51q17 37 33 79q-125 -23 -221 -75q-133 -73 -133 -171q0 -37 23 -61t60 -24q114 0 221 216q-76 -23 -186 -75q-3 -2 -7 -2q-14 0 -14 16q0 8 8 13q5 3 36 17q95 45 180 67z" />
    <glyph glyph-name="bracketright" unicode="]" horiz-adv-x="751" 
d="M178 247q29 36 69 36q69 0 69 -67q0 -50 -30 -86q-16 -19 -65 -56q-44 -32 -60 -58q-5 -8 -13 -32q-5 -13 -15 -13q-15 0 -15 15q0 3 1 9v8q0 29 -47 78t-47 94t25 76.5t69 31.5q41 0 59 -36zM541 586q39 56 96 56q41 0 65 -22.5t24 -63.5q0 -69 -41 -117
q-20 -24 -89 -74q-60 -44 -83 -83q-4 -6 -18 -44q-4 -13 -14 -13q-16 0 -16 15q0 4 1.5 11.5t1.5 11.5q0 37 -34 76l-63 68q-33 44 -33 92q0 60 32.5 101.5t90.5 41.5q59 0 80 -56z" />
    <glyph glyph-name="asciicircum" unicode="^" horiz-adv-x="437" 
d="M277 648q8 0 12 -7l125 -193q3 -4 3 -8q0 -15 -16 -15q-7 0 -12 7l-116 179l-228 -183q-5 -3 -10 -3q-15 0 -15 15q0 7 6 12l241 192q4 4 10 4z" />
    <glyph glyph-name="underscore" unicode="_" horiz-adv-x="365" 
d="M35 30h295q15 0 15 -15t-15 -15h-295q-15 0 -15 15t15 15z" />
    <glyph glyph-name="grave" unicode="`" 
d="M112 559q-19 0 -31.5 -12.5t-12.5 -31.5q0 -48 54 -48q72 0 72 71q0 34 -26.5 60.5t-61.5 26.5q-39 0 -62.5 -28t-23.5 -69q0 -50 38 -87.5t88 -41.5h2q15 -1 15 15q0 11 -11.5 14t-30.5 9q-71 28 -71 91q0 28 14.5 47.5t41.5 19.5q22 0 40 -17.5t18 -39.5q0 -41 -42 -41
q-24 0 -24 18q0 12 15.5 14.5t15.5 14.5q0 15 -17 15z" />
    <glyph glyph-name="a" unicode="a" horiz-adv-x="375" 
d="M242 28q0 -9 3 -14q2 -1 3 -1q17 0 60 41l56 56q5 4 10 4q16 0 16 -15q0 -5 -5 -11q-93 -105 -137 -105q-41 0 -35 58q-62 -56 -125 -56q-44 0 -73.5 35t-29.5 81q0 97 76.5 182t172.5 85q81 0 81 -82q0 -32 -16 -75q-9 -28 -28 -82l-15 -33q-14 -35 -14 -68zM285 286
q0 30 -10.5 41t-40.5 11q-83 0 -151 -76.5t-68 -160.5q0 -33 20.5 -59.5t52.5 -26.5q36 0 76 26q37 24 58 56q3 4 7 11q4 14 14 41q10 24 28 72q14 38 14 65z" />
    <glyph glyph-name="b" unicode="b" horiz-adv-x="331" 
d="M248 66q18 28 18 66q0 72 -47 72q-15 0 -30 -33q-13 -28 -13 -46q0 -61 53 -61q9 0 19 2zM55 179q96 109 157 226q66 126 66 220q0 18 -3 23q-4 9 -19 9q-73 0 -161 -263q-35 -107 -40 -215zM24 145v10q-1 195 108 412q61 120 124 120q52 0 52 -62q0 -102 -69 -234
q-74 -140 -185 -258q5 -118 72 -118q52 0 88 21q-32 5 -50 30t-18 59q0 33 20 68q23 41 53 41q40 0 60 -33q17 -28 17 -69q0 -25 -6 -47q0 1 20 17q15 12 20 12q16 0 16 -15q0 -13 -34 -35q-28 -18 -46 -24q-47 -55 -140 -55q-85 0 -99 119q-21 -20 -27 -20q-15 0 -15 15
q0 4 39 46z" />
    <glyph glyph-name="c" unicode="c" horiz-adv-x="343" 
d="M227 339q-78 0 -145 -79.5t-67 -158.5q0 -39 26 -62.5t65 -23.5q122 0 226 95q5 4 10 4q16 0 16 -15q0 -6 -5 -11q-97 -103 -247 -103q-51 0 -86 32t-35 84q0 92 74 178q77 90 168 90q83 0 83 -83q0 -15 -15 -15q-14 0 -16 18q-2 25 -6 32q-11 18 -46 18z" />
    <glyph glyph-name="d" unicode="d" horiz-adv-x="406" 
d="M266 174q47 95 82 216q40 137 40 226q0 32 -5 47q-37 -4 -78 -219q-29 -151 -39 -270zM232 112q3 88 21 208q-9 19 -37 19q-83 0 -144 -79q-57 -74 -57 -159q0 -33 20.5 -59.5t52.5 -26.5q41 0 83 31q37 27 61 66zM273 -13q-42 0 -42 73q-67 -75 -143 -75q-44 0 -73.5 35
t-29.5 81q0 98 65 180q70 88 166 88q25 0 43 -11q54 335 124 335q35 0 35 -77q0 -104 -50 -264q-48 -152 -107 -249v-47q0 -39 12 -39q21 0 64 38l58 55q5 4 10 4q16 0 16 -15q0 -5 -5 -11q-92 -101 -143 -101z" />
    <glyph glyph-name="e" unicode="e" horiz-adv-x="292" 
d="M49 161l120 85q61 44 61 76q0 14 -15 14q-27 0 -70 -35q-34 -29 -56 -60q-29 -41 -40 -80zM13 132q5 61 52 127q27 37 66 69q49 38 84 38q45 0 45 -44q0 -42 -65 -94l-100 -71q-30 -21 -53 -40v-2q0 -100 88 -100q35 0 82 35q15 11 69 60q6 4 11 4q15 0 15 -15
q0 -5 -4 -11q-34 -37 -79 -67q-55 -36 -94 -36q-104 0 -116 106q-7 -7 -14 -7q-15 0 -15 15q0 8 28 33z" />
    <glyph glyph-name="f" unicode="f" horiz-adv-x="255" 
d="M56 176q133 132 176 247q33 90 33 167q0 18 -4 40q-5 32 -15 32q-62 0 -190 -486zM89 15q26 -54 26 -129q0 -65 -21 -127q-29 -83 -80 -83q-66 0 -66 111q0 97 53 297q-16 -1 -16 15q0 6 30 36q46 177 94 325q74 232 137 232q49 0 49 -102q0 -187 -142 -355
q-32 -38 -111 -116q-36 -133 -43 -164q-21 -96 -21 -168q0 -81 36 -81q34 0 55 75q16 57 16 105q0 82 -35 137q-5 9 -5 13q0 9 17 10q-17 -1 25 -1q85 0 157 65q6 4 11 4q15 0 15 -15q0 -6 -4 -11q-31 -32 -81 -52.5t-96 -20.5z" />
    <glyph glyph-name="g" unicode="g" horiz-adv-x="341" 
d="M202 -19q-98 -56 -132 -84q-73 -61 -73 -129q0 -61 45 -61q76 0 160 274zM291 282q0 57 -66 57q-82 0 -146 -74.5t-64 -158.5q0 -34 20 -61q22 -30 56 -30q35 0 75 26q37 24 56 56q30 47 57 124q12 35 12 61zM222 49q-62 -64 -131 -64q-46 0 -76 37t-30 84q0 97 71 178
q74 85 169 85q96 0 96 -87q0 -32 -14 -71q-19 -54 -53 -163q34 23 77 62q5 4 10 4q16 0 16 -15q0 -24 -117 -95q-38 -131 -68 -195q-61 -132 -130 -132q-36 0 -57 28q-18 25 -18 63q0 83 88 155q25 20 160 100z" />
    <glyph glyph-name="h" unicode="h" horiz-adv-x="385" 
d="M212 361q16 7 32 7q45 0 45 -71q0 -45 -19 -133.5t-19 -133.5q0 -11 3 -17q16 1 61 41l60 56q5 4 10 4q16 0 16 -15q0 -5 -5 -11q-27 -30 -67 -62q-53 -42 -76 -42q-32 0 -32 48q0 45 19 132.5t19 132.5q0 41 -15 41q-39 0 -75 -49q-7 -11 -22 -32q-7 -11 -22 -32
q-36 -59 -57 -169q-3 -20 -10 -58q-4 -14 -15 -14q-16 0 -15 15v3q2 23 23 130q-42 -48 -51 -48q-15 0 -15 15q0 5 5 11l74 84q48 233 50 245q41 169 82 222q24 31 54 31q43 0 43 -77q0 -103 -81 -254zM106 252q4 7 39 56q10 14 33 55q85 151 85 252q0 47 -13 47
q-50 0 -95 -189q-22 -94 -49 -221z" />
    <glyph glyph-name="i" unicode="i" horiz-adv-x="257" 
d="M156 525q29 43 44 43t15 -16q0 -6 -5 -11q-42 -40 -55 -87q-4 -13 -15 -13q-15 0 -15 15q0 5 1.5 16t1.5 17q0 14 -5.5 39.5t-5.5 35.5q0 14 16 14t23 -53zM58 151q-40 -67 -58 -67q-15 0 -15 15q0 4 5 11q71 93 99 190q4 20 9 41q8 29 20 29q16 0 15 -15v-3
q-4 -46 -32 -149q-27 -94 -27 -148q0 -42 20 -42q34 0 97 50.5t65 50.5q16 0 16 -15q0 -5 -5 -11q-24 -29 -80 -65q-61 -40 -93 -40q-50 0 -50 72q0 37 14 96z" />
    <glyph glyph-name="j" unicode="j" horiz-adv-x="195" 
d="M156 525q29 43 44 43t15 -16q0 -6 -5 -11q-42 -40 -55 -87q-4 -13 -15 -13q-15 0 -15 15q0 5 1.5 16t1.5 17q0 14 -5.5 39.5t-5.5 35.5q0 14 16 14t23 -53zM24 -21q-143 -67 -190 -171q-15 -33 -15 -61q0 -41 32 -41q96 0 173 273zM71 186q-44 -102 -71 -102
q-16 0 -16 15q0 5 5 11q49 59 89 184q6 22 22 64q5 12 14 12q16 0 15 -16v-3q-10 -117 -59 -318q58 29 114 77q6 4 11 4q15 0 15 -15q0 -5 -5 -11q-39 -43 -145 -93q-85 -319 -209 -319q-62 0 -62 71q0 74 62 145q53 61 130 99q8 5 53 25q21 82 37 170z" />
    <glyph glyph-name="k" unicode="k" horiz-adv-x="428" 
d="M115 263q82 126 141 302q19 60 19 85q0 8 -1 10t-3 2q-63 0 -112 -204q-23 -91 -44 -195zM183 172q42 -157 98 -157q27 0 73 37l63 58q6 4 11 4q15 0 15 -15q0 -5 -4 -11q-32 -35 -73 -65q-52 -38 -85 -38q-49 0 -93 81q-40 71 -40 123q0 13 34 13q53 0 103 20
q64 27 64 71q0 21 -16.5 34t-37.5 13q-54 0 -109 -48q-45 -40 -74 -96q-25 -49 -43 -167l-5 -31q-5 -14 -15 -14q-16 0 -15 15v3q2 26 23 136q-48 -54 -57 -54q-15 0 -15 15q0 6 4 11q28 29 80 90q22 106 60 266q55 226 142 226q34 0 34 -42q0 -44 -44 -158
q-36 -93 -69 -158q56 36 103 36q33 0 58.5 -22t25.5 -55q0 -58 -72 -93q-58 -28 -124 -28z" />
    <glyph glyph-name="l" unicode="l" horiz-adv-x="273" 
d="M67 196q66 84 118 199q58 130 58 221q0 30 -8 45q-45 -1 -94 -119q-33 -80 -51 -161q-22 -99 -23 -185zM38 161q-1 17 -1 29q0 183 78 369q56 133 119 133q39 0 39 -76q0 -78 -37 -173q-67 -175 -168 -293q6 -91 32 -125q7 -10 11 -10q46 0 151 95q6 4 11 4q15 0 15 -15
q0 -5 -4 -11q-32 -35 -80 -66q-57 -37 -93 -37q-53 0 -69 136q-35 -37 -42 -37q-15 0 -15 15q0 5 4 11z" />
    <glyph glyph-name="m" unicode="m" horiz-adv-x="514" 
d="M278 340q-27 -3 -94 -86q-12 -54 -58 -193q-6 -23 -21 -66q-5 -11 -14 -11q-16 0 -16 14q0 20 44.5 142.5t44.5 185.5q0 6 -1 11q-18 -8 -67 -109q-52 -109 -85 -140q-5 -4 -11 -4q-15 0 -15 15q0 5 4 11q35 38 70 114q38 83 64 116q21 28 42 28q32 0 28 -56q52 58 87 58
q32 0 31 -56q47 53 83 53q37 0 37 -59q0 -50 -28.5 -144t-28.5 -144q0 -4 1 -10q2 1 4 1q32 0 81.5 51.5t53.5 51.5q15 0 15 -15q0 -5 -3 -10q-84 -108 -147 -108q-35 0 -35 43q0 49 28.5 142t28.5 142q0 21 -7 29q-22 -1 -49 -31l-38 -47q-7 -48 -27 -134q-22 -91 -38 -129
q-4 -11 -14 -11q-15 0 -15 14q0 25 34 140t34 177q0 17 -3 24z" />
    <glyph glyph-name="n" unicode="n" horiz-adv-x="451" 
d="M190 303q38 34 62 46q33 18 75 18q36 0 36 -59q0 -50 -28.5 -144t-28.5 -144q0 -4 2 -10q39 7 91 57q50 47 52 47q16 0 16 -15q0 -5 -4 -10q-31 -38 -69 -68q-50 -40 -83 -40q-35 0 -35 43q0 49 28.5 142t28.5 142q0 21 -6 29q-46 0 -81 -27l-63 -53q-12 -57 -57 -195
q-6 -23 -21 -67q-5 -11 -14 -11q-16 0 -16 14q0 20 43 142t43 184q0 9 -1 14q-19 -8 -48 -72l-38 -87q-31 -61 -63 -91q-5 -4 -11 -4q-15 0 -15 15q0 5 4 11q38 41 70 116q35 82 60 115q21 27 43 27q34 0 28 -65z" />
    <glyph glyph-name="o" unicode="o" horiz-adv-x="354" 
d="M232 369v0h2h-2zM177 45q-60 27 -60 125t44 156q-65 -24 -105.5 -87t-40.5 -138q0 -34 21 -60t52 -26q47 0 89 30zM242 65q61 4 102 45q4 4 10 4q16 0 16 -15q0 -6 -5 -11q-54 -53 -135 -53h-17q-57 -50 -125 -50q-45 0 -74 36t-29 80q0 107 68 185q72 83 179 83
q84 -1 84 -108t-74 -196zM234 339q-43 -7 -67 -64q-20 -47 -20 -105q0 -89 57 -103q38 38 60 92t22 102q0 77 -52 78z" />
    <glyph glyph-name="p" unicode="p" horiz-adv-x="374" 
d="M211 32q-70 13 -124 55q11 -72 62 -72q33 0 62 17zM72 138q5 -1 11 -7q62 -66 160 -73q61 63 61 157q0 27 -11 69q-15 55 -35 55q-101 0 -186 -201zM22 101q-13 -16 -24 -16q-13 0 -13 14q0 6 4 11q42 41 68 117l38 131q4 12 15 12q18 0 15 -19q-8 -39 -22 -90
q70 108 155 108q38 0 60 -62q16 -47 16 -92q0 -86 -50 -155q39 9 79 50q5 4 11 4q15 0 15 -15q0 -6 -4 -11q-62 -61 -125 -61h-5q-47 -42 -106 -42q-44 0 -69 39q-21 31 -24 73q-27 -72 -61 -196l-54 -213q-4 -12 -15 -12q-19 0 -15 19l1 1q43 183 92 344z" />
    <glyph glyph-name="q" unicode="q" horiz-adv-x="380" 
d="M214 -6q-96 -216 -96 -263q0 -25 22 -25q45 0 63 125q5 37 11 163zM296 286q0 53 -64 53q-83 0 -150 -76.5t-67 -161.5q0 -33 20.5 -59.5t52.5 -26.5q35 0 76 26q37 24 58 56q34 52 60 125q14 38 14 64zM198 29q-56 -44 -110 -44q-44 0 -73.5 35t-29.5 81
q0 97 75.5 182.5t171.5 85.5q94 0 94 -83q0 -35 -16 -75q-6 -15 -87 -198l1 1q80 35 146 96q5 4 10 4q16 0 16 -15q0 -6 -5 -11q-57 -60 -147 -98q-8 -150 -14 -184q-23 -130 -90 -130q-52 0 -52 55q0 46 43 149z" />
    <glyph glyph-name="r" unicode="r" horiz-adv-x="310" 
d="M108 378q0 4 -1.5 10t-1.5 9q0 15 15 15q7 0 15 -12q3 -5 31.5 -13t43.5 -18q23 -17 23 -46q0 -24 -22 -91l-30 -94q-20 -71 -20 -109q0 -14 5 -14q27 0 71 37l62 58q6 4 11 4q15 0 15 -15q0 -5 -4 -11q-32 -35 -71 -64q-52 -39 -84 -39q-35 0 -35 47t25 130l41 129
q6 23 6 32q0 19 -25 29l-40 12q-5 -160 -127 -276q-5 -4 -11 -4q-15 0 -15 15q0 6 4 11q14 14 41 45q78 100 78 223z" />
    <glyph glyph-name="s" unicode="s" horiz-adv-x="276" 
d="M167 30h-6q-65 -1 -115 35q7 -50 56 -50t65 15zM18 96q-11 -12 -18 -12q-15 0 -15 15q0 5 4 11q104 117 165 248q5 12 14 12q15 0 15 -16q0 -5 -3 -21t-3 -24q0 -36 24 -102t24 -101q0 -15 -4 -30q16 9 44 34q6 4 11 4q15 0 15 -15q0 -13 -35 -36q-28 -18 -48 -25
q-15 -33 -43 -44q-21 -9 -63 -9q-39 0 -62.5 26t-23.5 66q0 8 2 19zM149 284q-55 -95 -114 -167q4 -2 10 -9q39 -48 116 -48q13 0 25 3q9 24 9 43q0 34 -20 89q-23 62 -26 89z" />
    <glyph glyph-name="t" unicode="t" horiz-adv-x="254" 
d="M114 369q5 19 21 87q3 14 10 40q4 13 14 13q15 0 15 -15q0 -7 -25 -125h98q15 0 15 -15t-15 -15h-104q-47 -224 -47 -300q0 -16 2 -24q33 3 78 37q11 8 67 58q5 4 10 4q16 0 16 -15q0 -5 -5 -11q-32 -36 -78 -66q-55 -37 -93 -37q-27 0 -27 54q0 52 17 151
q-13 -26 -37 -60q-32 -46 -46 -46q-15 0 -15 15q0 5 5 11q77 85 117 229h-92q-15 0 -15 15t15 15h99z" />
    <glyph glyph-name="u" unicode="u" horiz-adv-x="346" 
d="M216 15q23 3 63 40l56 55q6 4 11 4q15 0 15 -15q0 -5 -4 -11q-92 -103 -143 -103q-30 0 -30 46q0 15 2 34q-55 -80 -147 -80q-49 0 -49 68q0 65 49 231q7 26 22 74q4 11 14 11q15 0 15 -14q0 -21 -35 -134t-35 -168q0 -38 19 -38q70 0 115 57q29 37 58 120q20 56 49 166
q3 12 14 12q15 0 15 -15q0 -10 -44 -159q-32 -105 -32 -165q0 -12 2 -16z" />
    <glyph glyph-name="v" unicode="v" horiz-adv-x="380" 
d="M264 169q22 62 22 122q0 48 -17 48q-13 -13 -13 -85q0 -40 8 -85zM139 370q15 0 15 -15q0 -6 -33 -90q-42 -110 -42 -184q0 -66 47 -66q62 0 118 108q-18 57 -18 131q0 115 43 115q47 0 47 -78q0 -87 -39 -170q15 -41 39 -41q17 0 38.5 17t25.5 17q15 0 15 -15
q0 -5 -4 -11q-35 -38 -75 -38q-35 0 -57 38q-61 -103 -133 -103q-77 0 -77 96q0 29 7 63q-41 -60 -56 -60t-15 15q0 5 4 11q77 86 125 222q3 9 10 27q6 11 15 11z" />
    <glyph glyph-name="w" unicode="w" horiz-adv-x="591" 
d="M468 104q24 73 24 157q0 76 -25 76q-19 0 -29 -52q-7 -36 -7 -73q0 -41 5 -59q7 -30 32 -49zM159 325q-14 -8 -47 -73l-43 -86q-32 -53 -58 -78q-5 -4 -11 -4q-15 0 -15 15q0 5 4 11q37 40 65 93l53.5 101.5t51.5 51.5q30 0 30 -32t-42.5 -117.5t-42.5 -122.5
q0 -20 12 -43q14 -26 32 -26q52 0 89 51q30 40 42 99l6 39q6 30 16 90q2 12 3 24q4 16 15 16q16 0 16 -15q0 -2 -4 -30q-8 -57 -14 -88l-9 -41q-3 -18 -3 -49q0 -98 76 -98q47 0 76 63q-35 23 -47 59q-9 27 -9 77q0 155 66 155q55 0 55 -106q0 -94 -27 -171q15 -5 29 -5
q23 0 44 14.5t23 14.5q16 0 16 -16q0 -5 -5 -10q-31 -33 -78 -33q-20 0 -40 7q-38 -79 -103 -79q-90 0 -103 92q-46 -90 -130 -90q-31 0 -54 35q-20 31 -20 64q0 42 42.5 129t42.5 111v1z" />
    <glyph glyph-name="x" unicode="x" horiz-adv-x="414" 
d="M216 142q-2 -29 -2 -52q0 -75 36 -75q38 0 83 34q12 8 70 61q5 4 10 4q16 0 16 -15q0 -5 -5 -11q-35 -39 -79 -68q-54 -35 -95 -35q-68 0 -66 112q-86 -112 -135 -112q-15 0 -15 15q0 12 15 15q5 1 16 4q40 21 123 134q16 137 16 152q0 34 -9 34q-30 0 -73 -70l-53 -98
q-33 -59 -58 -83q-5 -4 -11 -4q-15 0 -15 15q0 5 5 11q22 25 42 59l67 119q52 81 96 81q39 0 39 -64q0 -36 -9 -101q117 164 177 164q15 0 15 -15t-15 -15q-45 0 -186 -196z" />
    <glyph glyph-name="y" unicode="y" horiz-adv-x="370" 
d="M251 6q-119 -59 -153 -84q-83 -62 -83 -142q0 -40 16 -56.5t56 -16.5q118 0 164 299zM161 -6q-23 -9 -49 -9q-62 0 -93 44q-28 38 -28 102q0 52 20.5 119.5t49.5 110.5q5 8 12 8q16 0 16 -15q0 -3 -2 -8q-66 -121 -66 -215q0 -116 91 -116q122 0 161 258q4 24 7 51l2 28
q3 18 15 18q15 0 15 -17q0 -1 -5 -94q-8 -125 -17 -200q35 20 69 51q5 4 11 4q15 0 15 -15q0 -23 -100 -75q-51 -347 -198 -347q-102 0 -102 103q0 77 54 133q39 40 122 81zM264 116q-33 -82 -85 -113l77 38q4 33 8 75z" />
    <glyph glyph-name="z" unicode="z" horiz-adv-x="361" 
d="M142 -70q-127 -95 -127 -167q0 -19 11 -36q13 -20 31 -20q45 0 75 62q24 52 24 102q0 29 -14 59zM230 369q76 0 76 -95q0 -80 -53 -161q-50 -77 -123 -116q11 -11 21 -24l102 65q62 40 97 72q6 4 11 4q15 0 15 -15q0 -16 -94 -78l-115 -74q19 -38 19 -76q0 -65 -32 -124
q-38 -70 -97 -70q-31 0 -51.5 27t-20.5 59q0 88 141 192q-10 15 -32 33q-8 6 -8 13t11 13q18 9 53 31q53 41 88 101q38 66 38 128q0 65 -46 65q-50 0 -92 -50q-23 -29 -64 -106q-38 -72 -61 -95q-5 -4 -11 -4q-15 0 -15 15q0 5 4 11q23 26 40 54l47 89q31 54 60 81
q40 35 92 35z" />
    <glyph glyph-name="braceleft" unicode="{" horiz-adv-x="1000" 
 />
    <glyph glyph-name="bar" unicode="|" horiz-adv-x="1000" 
 />
    <glyph glyph-name="braceright" unicode="}" horiz-adv-x="1000" 
 />
    <glyph glyph-name="asciitilde" unicode="~" horiz-adv-x="450" 
d="M131 549q43 0 76 -29l51 -55q30 -29 62 -29q40 0 83 51q5 6 11 6q16 0 16 -15q0 -4 -3 -9q-43 -63 -107 -63q-41 0 -74 29l-50 55q-30 29 -65 29q-42 0 -84 -50q-5 -6 -11 -6q-16 0 -16 15q0 4 3 9q42 62 108 62z" />
    <glyph glyph-name="yen" unicode="&#xa5;" horiz-adv-x="604" 
d="M406 -43q60 13 112 13q43 0 43 -16q0 -15 -16 -15q-4 0 -13 1h-14q-58 0 -127 -17q-120 -256 -258 -256q-50 0 -81.5 32.5t-31.5 82.5q0 114 147 196q109 60 249 83q33 88 69 214q-117 -225 -291 -225q-72 0 -72 95q0 72 48 170.5t48 145.5q0 62 -63 62q-55 0 -80 -47
q-1 -1 -7 -17q-4 -12 -14 -12q-15 0 -15 15q0 35 41 64q38 27 75 27q93 0 93 -92q0 -53 -48 -151.5t-48 -164.5q0 -65 42 -65q204 0 325 352q13 37 25 78q3 12 10 36q4 12 15 12q15 0 15 -15q0 -42 -57 -235q-49 -163 -78 -243q36 4 67 4h32q21 -3 21 -16q0 -15 -16 -15
q-6 0 -19 1h-18q-35 0 -79 -6q-15 -40 -31 -76zM371 -51q17 37 33 79q-125 -23 -221 -75q-133 -73 -133 -171q0 -37 23 -61t60 -24q114 0 221 216q-76 -23 -186 -75q-3 -2 -7 -2q-14 0 -14 16q0 8 8 13q5 3 36 17q95 45 180 67z" />
    <glyph glyph-name="quotedblleft" unicode="&#x201c;" horiz-adv-x="243" 
d="M195 602q5 3 9 3q15 0 15 -16q0 -6 -6 -11q-16 -15 -24 -29h4q20 0 35 -15t15 -36t-15 -35.5t-35 -14.5q-21 0 -36 14.5t-15 35.5q0 23 17.5 57t35.5 47zM53 602q5 3 9 3q15 0 15 -16q0 -6 -6 -11q-16 -15 -24 -29h4q20 0 35 -15t15 -36t-15 -35.5t-35 -14.5
q-21 0 -36 14.5t-15 35.5q0 23 17.5 57t35.5 47z" />
    <glyph glyph-name="quotedblright" unicode="&#x201d;" horiz-adv-x="243" 
d="M48 451q-5 -3 -9 -3q-15 0 -15 15q0 6 6 12q16 15 24 29h-3q-21 -1 -36 14.5t-15 36.5q0 20 15 35t36 15q20 0 35 -15t15 -35q0 -23 -17.5 -57t-35.5 -47zM190 451q-5 -3 -9 -3q-15 0 -15 15q0 6 6 12q16 15 24 29h-3q-21 -1 -36 14.5t-15 36.5q0 20 15 35t36 15
q20 0 35 -15t15 -35q0 -23 -17.5 -57t-35.5 -47z" />
    <glyph glyph-name="quoteleft" unicode="&#x2018;" 
d="M112 464q-19 0 -31.5 13t-12.5 32q0 47 54 47q72 0 72 -71q0 -34 -26.5 -60t-61.5 -26q-39 0 -62.5 28t-23.5 68q0 51 38 88.5t88 40.5l2 1q15 1 15 -16q0 -11 -11.5 -13.5t-30.5 -8.5q-71 -29 -71 -92q0 -28 14.5 -47t41.5 -19q22 0 40 17t18 39q0 41 -42 41
q-24 0 -24 -17q0 -13 15.5 -15t15.5 -15q0 -15 -17 -15z" />
    <glyph glyph-name="quoteright" unicode="&#x2019;" 
d="M102 559q19 0 31.5 -12.5t12.5 -31.5q0 -48 -55 -48q-71 0 -71 71q0 34 26.5 60.5t60.5 26.5q40 0 63.5 -28t23.5 -69q0 -50 -38 -87.5t-88 -41.5h-3q-14 -1 -14 15q0 11 13 15q9 2 29 8q71 28 71 91q0 28 -15 47.5t-42 19.5q-22 0 -39.5 -17.5t-17.5 -39.5q0 -41 41 -41
q25 0 25 18q0 12 -15.5 14.5t-15.5 14.5q0 15 17 15z" />
    <glyph glyph-name="hyphenminus" unicode="-" horiz-adv-x="365" 
d="M35 318h295q15 0 15 -15t-15 -15h-295q-15 0 -15 15t15 15z" />
  </font>
</defs>
</svg>
