<?xml version="1.0" encoding="utf-8"?>
<!-- Generator: Adobe Illustrator 28.0.0, SVG Export Plug-In . SVG Version: 6.00 Build 0)  -->
<svg version="1.1" id="Layer_1" xmlns="http://www.w3.org/2000/svg" xmlns:xlink="http://www.w3.org/1999/xlink" x="0px" y="0px"
	 viewBox="0 0 4401.1 4986.6" style="enable-background:new 0 0 4401.1 4986.6;" xml:space="preserve">
<g id="Shorts_00000054966516855276356950000016348309822528870020_">
	<path id="Color_1_00000038401950846200966800000013594568444445275059_" d="M4198.6,4345.9l-57.6,48.5l-84.3-44.6l-25.8-13.6
		l-0.2-0.1c-37.4-347.7-116.5-1083.9-154.8-1440.8c3.7-0.1,7.4-0.2,11-0.3c-71.9,2-143.1,3.6-214.8,4.7v-0.1
		c-361,3.6-721.5,4.8-1082.4-4.3c-34.5,321.7-113.4,1056.3-146.9,1367.3l0.3,0.2l-7.9,73.4l-25.8,13.6c0,0.1-84.3,44.5-84.4,44.6
		l-57.7-48.4l-17.2,269.6c43.9,8.7,581.7,113.4,951.9,111.8c6.5-174,1.6-350.4,19.5-524.1c2.2-8-0.5-42.4,11.1-40.8
		c3.4,0,6.5,1.7,7.3,4.4c13.9,105.8,14.4,213.2,18.5,319.8c1.6,78.1-0.9,161.7,5,240.7c370.2,1.6,908.3-103.1,952.2-111.8
		C4210.8,4520.9,4205.1,4431,4198.6,4345.9z M2091.2,4394.4c-19.1-10.1-92.7-48.9-110.3-58.3c-37.4-347.8-116.5-1084-154.8-1440.8
		c-360.9,9.1-721.6,7.9-1082.7,4.3v0.1c-68.5-1.1-134.8-2.6-203.5-4.4c-38.7,361.2-116.8,1089.6-154.6,1440.9
		c-0.1,0-25.8,13.7-25.9,13.6l-84.4,44.6l-57.6-48.5c-6.5,85.1-12.2,175-17,269.7c43.9,8.7,582,113.4,952.2,111.8
		c5.3-35.6,2.7-186.6,4.4-240.7c4.1-106.6,4.6-214,18.5-319.8c0.8-2.7,3.9-4.4,7.3-4.4c11.6-1.9,9,33.3,11.1,40.8
		c17.9,173.7,13,350.1,19.5,524.1c370.3,1.6,908.5-103.1,952.4-111.8c-4.8-94.7-10.5-184.6-17-269.7L2091.2,4394.4L2091.2,4394.4z"
		/>
	<path id="Color_2_00000115472455506863489370000001667460896586516882_" style="fill:#F4F4F4;" d="M1149.9,4788.4
		c0,0,1.4-25.6,2.8-61c-370.2,1.6-908.3-103.1-952.2-111.8c-1,19.9-2,40.1-2.9,60.4c0.1,0,52,10.5,135,25
		c169.9,29.7,470.3,76.5,724,85.8C1088.7,4788,1119.8,4788.5,1149.9,4788.4L1149.9,4788.4z M4084.1,3864.3l58-48.8L4084.1,3864.3z
		 M3973.9,3806.1l25.9,13.7l73-61.5l66.2,35c-77.9-537.7-176.7-755-176.7-755c5.4-75.6-3.5-123.4-7.2-139.4
		c-0.8-3.5-3.9-5.9-7.5-5.8c-20.2,0.6-40.3,1.3-60.4,1.9c-3.7,0.1-7.4,0.2-11,0.3L3973.9,3806.1L3973.9,3806.1z M3977.2,3838.4
		l22.3-18.8L3977.2,3838.4z M4218.5,4676c-0.9-20.4-1.9-40.5-2.9-60.4c-43.9,8.7-582,113.4-952.2,111.8c1.5,35.4,2.8,61,2.8,61
		c27,0.1,54.9-0.3,83.4-1.3c300.9-9.9,671.4-74.1,811.6-100.1c34.1-6.3,54.5-10.4,57.1-10.9C4218.4,4676,4218.5,4676,4218.5,4676
		L4218.5,4676z M2511,2898.9c-3.7,16-12.6,63.8-7.2,139.4c0,0-98.8,217.3-176.7,755l66.2-35l73,61.5l25.9-13.7l97.8-910.8
		c-23.7-0.7-47.6-1.4-71.4-2.2h-0.2C2514.8,2893.1,2511.8,2895.5,2511,2898.9L2511,2898.9z M2381.9,3864.3l-58-48.8L2381.9,3864.3z
		 M2250.4,4615.6c-1,19.9-2,40.1-2.9,60.4c0,0,557.2,112.3,943.1,112.4h9.2c0,0,1.4-25.6,2.8-61h-0.3
		C2832.2,4729,2294.3,4624.3,2250.4,4615.6z M1927.4,3838.4l22.4-18.8L1927.4,3838.4z M2034.2,3864.3l58.1-48.8L2034.2,3864.3z
		 M1949.9,3819.8l73-61.5l66.2,35c-77.9-537.7-176.7-755-176.7-755c5.4-75.6-3.5-123.4-7.2-139.4c-0.8-3.5-3.9-5.9-7.5-5.8
		c-23.9,0.8-47.7,1.5-71.4,2.2l97.8,910.8L1949.9,3819.8L1949.9,3819.8z M2165.8,4615.6c-43.9,8.7-582,113.4-952.2,111.8
		c1.5,35.4,2.8,61,2.8,61c386.2,1.7,952.3-112.4,952.3-112.4C2167.7,4655.6,2166.8,4635.5,2165.8,4615.6L2165.8,4615.6z
		 M343.4,3758.3l73,61.5l25.9-13.7l97.8-910.8c-2.2-0.1-4.5-0.1-6.7-0.2c-21.5-0.6-43.1-1.3-64.7-2c-3.6-0.1-6.7,2.3-7.5,5.8
		c-3.7,16-12.6,63.8-7.2,139.4c0,0-98.8,217.3-176.7,755L343.4,3758.3L343.4,3758.3z M332.1,3864.3l-58.1-48.8L332.1,3864.3z"/>
	<g id="Color_Set">
		<path style="fill:#A1D9F6;" d="M4072.7,3758.3l11.4,106l58-48.9c-1.1-7.5-2.1-14.8-3.2-22.2L4072.7,3758.3L4072.7,3758.3z
			 M3973.9,3806.1l3.5,32.5l22.4-18.8L3973.9,3806.1z M2381.9,3864.3l11.4-106l-66.2,35c-1.1,7.3-2.1,14.7-3.2,22.2L2381.9,3864.3z
			 M2488.7,3838.6l3.5-32.5l-25.9,13.7L2488.7,3838.6z M2022.9,3758.3l11.4,106l58-48.9c-1.1-7.5-2.1-14.8-3.2-22.2L2022.9,3758.3
			L2022.9,3758.3z M1924,3806.1l3.5,32.5l22.4-18.8L1924,3806.1z M332.1,3864.3l11.4-106l-66.2,35c-1.1,7.3-2.1,14.7-3.2,22.2
			L332.1,3864.3L332.1,3864.3z M438.8,3838.6l3.5-32.5l-25.9,13.7L438.8,3838.6z"/>
		<path style="fill:#80C1EA;" d="M4072.7,3758.3l-72.9,61.5l84.3,44.5L4072.7,3758.3z M2466.3,3819.8l-73-61.5l-11.4,106
			L2466.3,3819.8z M2022.9,3758.3l-73,61.5l84.3,44.5L2022.9,3758.3z M416.4,3819.8l-73-61.5l-11.3,106L416.4,3819.8z"/>
		<path style="fill:#BBC9DB;" d="M4153.7,3901.1c-3.8-29.4-7.7-57.9-11.6-85.6l-58,48.9L4153.7,3901.1L4153.7,3901.1z
			 M3999.8,3819.8l-22.4,18.8l7.9,73.5l25.9,13.7L3999.8,3819.8z M2323.9,3815.5c-3.9,27.7-7.8,56.2-11.6,85.6l69.6-36.8
			L2323.9,3815.5z M2466.3,3819.8l-11.4,106l25.9-13.7l7.9-73.5L2466.3,3819.8z M2103.8,3901.1c-3.8-29.4-7.7-57.9-11.6-85.6
			l-58,48.9L2103.8,3901.1L2103.8,3901.1z M1961.3,3925.8l-11.4-106l-22.4,18.8l7.9,73.5L1961.3,3925.8z M274,3815.5
			c-3.9,27.7-7.8,56.2-11.6,85.6l69.6-36.8L274,3815.5z M416.4,3819.8l-11.4,106l25.9-13.7l7.9-73.5L416.4,3819.8z"/>
		<path style="fill:#D9E1F2;" d="M3999.8,3819.8l11.4,106l72.9-61.5L3999.8,3819.8z M2381.9,3864.3l73,61.5l11.4-106L2381.9,3864.3z
			 M1949.9,3819.8l11.4,106l72.9-61.5L1949.9,3819.8z M405,3925.8l11.4-106l-84.3,44.5L405,3925.8z"/>
		<g>
			<path style="fill:#DD76AF;" d="M4084.1,3864.3l11.4,106l60.5-51c-0.8-6.1-1.6-12.2-2.3-18.3L4084.1,3864.3z M3985.3,3912.1
				l3.5,32.5l22.4-18.8L3985.3,3912.1z M2370.6,3970.3l11.4-106l-69.6,36.8c-0.8,6.1-1.6,12.1-2.3,18.3L2370.6,3970.3L2370.6,3970.3
				z M2477.3,3944.6l3.5-32.5l-25.9,13.7L2477.3,3944.6z M2034.2,3864.3l11.4,106l60.5-51c-0.8-6.1-1.6-12.2-2.3-18.3L2034.2,3864.3
				L2034.2,3864.3z M1961.3,3925.8l-25.9-13.7l3.5,32.5L1961.3,3925.8z M320.7,3970.3l11.4-106l-69.6,36.8
				c-0.8,6.1-1.6,12.1-2.3,18.3L320.7,3970.3z M405,3925.8l22.4,18.8l3.5-32.5L405,3925.8z"/>
		</g>
		<g>
			<path style="fill:#BA5086;" d="M4095.5,3970.3l-11.4-106l-72.9,61.5L4095.5,3970.3z M2370.6,3970.3l84.3-44.5l-73-61.5
				L2370.6,3970.3z M2045.6,3970.3l-11.4-106l-72.9,61.5L2045.6,3970.3z M332.1,3864.3l-11.4,106l84.3-44.5L332.1,3864.3z"/>
		</g>
		<g>
			<path style="fill:#BD4F92;" d="M4166.7,4007.9c-3.5-30.3-7-59.9-10.7-88.6l-60.5,51L4166.7,4007.9z M4022.5,4031.8l-11.3-106
				l-22.4,18.8l7.9,73.5L4022.5,4031.8z M2310,3919.4c-3.6,28.7-7.2,58.3-10.7,88.6l71.2-37.6L2310,3919.4z M2454.9,3925.8
				l-11.4,106l25.9-13.7l7.9-73.5L2454.9,3925.8z M2116.8,4007.9c-3.5-30.3-7-59.9-10.7-88.6l-60.5,51L2116.8,4007.9z
				 M1961.3,3925.8l-22.4,18.8l7.9,73.5l25.9,13.7L1961.3,3925.8z M260.1,3919.4c-3.6,28.7-7.2,58.3-10.7,88.6l71.2-37.6
				L260.1,3919.4z M405,3925.8l-11.4,106l25.9-13.7l7.9-73.5L405,3925.8z"/>
		</g>
		<g>
			<path style="fill:#AF4078;" d="M4011.2,3925.8l11.3,106l73-61.5L4011.2,3925.8z M2370.6,3970.3l72.9,61.5l11.4-106L2370.6,3970.3
				z M1961.3,3925.8l11.4,106l72.9-61.5L1961.3,3925.8z M405,3925.8l-84.3,44.5l72.9,61.5L405,3925.8z"/>
		</g>
		<g>
			<path style="fill:#A73D7B;" d="M4095.5,3970.3l11.4,106l51-42.9l10.7-9c-0.6-5.5-1.2-11-1.9-16.4L4095.5,3970.3z M3996.7,4018.1
				l3.5,32.5l0.4-0.3l21.9-18.5L3996.7,4018.1z M2359.2,4076.4l11.4-106l-71.2,37.6c-0.6,5.5-1.2,10.9-1.9,16.4l10.7,9
				L2359.2,4076.4z M2465.5,4050.3l0.4,0.3l3.5-32.5l-25.9,13.7L2465.5,4050.3z M2045.6,3970.3l11.4,106l51-42.9l10.7-9
				c-0.6-5.5-1.2-11-1.9-16.4L2045.6,3970.3L2045.6,3970.3z M1946.8,4018.1l3.5,32.5l0.4-0.3l22-18.5L1946.8,4018.1z M309.3,4076.4
				l11.4-106l-71.2,37.6c-0.6,5.5-1.2,10.9-1.9,16.4l10.7,9L309.3,4076.4z M415.6,4050.3l0.4,0.3l3.5-32.5l-25.9,13.7L415.6,4050.3z
				"/>
		</g>
		<g>
			<path style="fill:#5E1E52;" d="M4106.9,4076.4l-11.4-106.1l-73,61.5L4106.9,4076.4z M2359.2,4076.4l84.3-44.6l-72.9-61.5
				L2359.2,4076.4z M2057,4076.4l-11.4-106.1l-72.9,61.5L2057,4076.4z M320.7,3970.3l-11.4,106.1l84.3-44.6L320.7,3970.3z"/>
		</g>
		<g>
			<path style="fill:#652866;" d="M4106.9,4076.4l71.3,37.7c-3.1-30.6-6.3-60.5-9.6-89.6l-10.7,9L4106.9,4076.4L4106.9,4076.4z
				 M4022.6,4031.8l-22,18.5l-0.4,0.3l7.9,73.6l25.8,13.6L4022.6,4031.8z M2308.2,4033.4l-10.7-9c-3.3,29.1-6.5,59-9.6,89.6
				l71.3-37.6L2308.2,4033.4z M2443.5,4031.8l-11.4,106l25.9-13.6l7.9-73.6l-0.4-0.3L2443.5,4031.8z M2057,4076.4l71.3,37.7
				c-3.1-30.6-6.3-60.5-9.6-89.6l-10.7,9L2057,4076.4z M1972.8,4032.8l-0.1-1l-22,18.5l-0.4,0.3l7.9,73.6l25.9,13.6l-9.7-90
				L1972.8,4032.8z M258.3,4033.4l-10.7-9c-3.3,29.1-6.5,59-9.6,89.6l71.3-37.6L258.3,4033.4L258.3,4033.4z M393.6,4031.8l-0.2,1.9
				l-1.5,14.1l-9.7,90l25.9-13.6l7.9-73.6l-0.4-0.3L393.6,4031.8z"/>
		</g>
		<g>
			<path style="fill:#1F1437;" d="M4022.5,4031.8h0.1l11.3,106l73-61.4L4022.5,4031.8z M2359.2,4076.4l72.9,61.4l11.4-106
				L2359.2,4076.4z M2057,4076.4l-84.3-44.6l0.1,1l1.6,15l9.7,90L2057,4076.4z M393.4,4033.7l0.2-1.9l-84.3,44.6l72.9,61.4l9.7-90
				L393.4,4033.7z"/>
		</g>
		<g>
			<path style="fill:#272655;" d="M4106.9,4076.4l11.4,106l61.5-51.8c-0.6-5.5-1.1-11-1.7-16.5L4106.9,4076.4L4106.9,4076.4z
				 M4008.1,4124.2l3.5,32.4l22.3-18.8L4008.1,4124.2z M2347.8,4182.4l11.4-106l-71.3,37.6c-0.6,5.5-1.1,11-1.7,16.5L2347.8,4182.4z
				 M2432.1,4137.8l22.4,18.8l3.5-32.4L2432.1,4137.8z M2057,4076.4l11.4,106l61.5-51.8c-0.6-5.5-1.1-11-1.7-16.5L2057,4076.4z
				 M1961.7,4156.6l22.4-18.8l-25.9-13.6L1961.7,4156.6z M297.9,4182.4l11.4-106l-71.3,37.7c-0.6,5.5-1.1,11-1.7,16.5L297.9,4182.4z
				 M404.6,4156.6l3.5-32.4l-25.9,13.6L404.6,4156.6z"/>
		</g>
		<g>
			<path style="fill:#181E24;" d="M4118.3,4182.4l-11.4-106l-73,61.4L4118.3,4182.4z M2347.8,4182.4l84.3-44.6l-72.9-61.4
				L2347.8,4182.4z M2068.4,4182.4l-11.4-106l-72.9,61.4L2068.4,4182.4z M297.9,4182.4l84.3-44.6l-72.9-61.4L297.9,4182.4z"/>
		</g>
		<g>
			<path style="fill:#437EBB;" d="M4188.2,4219.3c-2.7-30.2-5.5-59.8-8.4-88.8l-61.5,51.9L4188.2,4219.3z M4033.9,4137.8l-22.3,18.8
				l7.9,73.6l25.8,13.6L4033.9,4137.8z M2286.2,4130.5c-2.9,28.9-5.7,58.5-8.4,88.8l69.9-36.9L2286.2,4130.5z M2420.7,4243.8
				l25.9-13.6l7.9-73.6l-22.4-18.8L2420.7,4243.8z M2138.3,4219.3c-2.7-30.2-5.5-59.8-8.4-88.8l-61.5,51.8L2138.3,4219.3z
				 M1984.1,4137.8l-22.4,18.8l7.9,73.6l25.8,13.6L1984.1,4137.8z M236.3,4130.5c-2.9,28.9-5.7,58.5-8.4,88.8l69.9-36.9
				L236.3,4130.5L236.3,4130.5z M370.9,4243.8l25.8-13.6l7.9-73.6l-22.4-18.8L370.9,4243.8z"/>
		</g>
		<g>
			<path style="fill:#6BB5E4;" d="M4118.3,4182.4l-84.4-44.6l11.4,106L4118.3,4182.4z M2347.8,4182.4l72.9,61.4l11.4-106
				L2347.8,4182.4z M2068.4,4182.4l-84.3-44.6l11.3,106L2068.4,4182.4z M297.9,4182.4l73,61.4l11.3-106L297.9,4182.4z"/>
		</g>
		<g>
			<path style="fill:#798393;" d="M4118.3,4182.4l2.3,21.8l9,84.2l60.2-50.7c-0.5-6.2-1.1-12.3-1.6-18.4L4118.3,4182.4z
				 M4023,4262.7l22.3-18.9l-25.8-13.6L4023,4262.7z M2347.8,4182.4l-69.9,36.9c-0.5,6.1-1.1,12.2-1.6,18.4l60.2,50.7l9-84.2
				L2347.8,4182.4z M2443.1,4262.7l3.5-32.5l-25.9,13.6L2443.1,4262.7z M2068.4,4182.4l11.4,106l60.2-50.7
				c-0.5-6.2-1.1-12.3-1.6-18.4L2068.4,4182.4L2068.4,4182.4z M1973.1,4262.7l22.3-18.9l-25.8-13.6L1973.1,4262.7z M286.5,4288.4
				l11.4-106l-69.9,36.9c-0.5,6.1-1.1,12.2-1.6,18.4L286.5,4288.4z M393.2,4262.7l3.5-32.5l-25.8,13.6L393.2,4262.7z"/>
		</g>
		<g>
			<path style="fill:#99A7B9;" d="M4118.3,4182.4l-73,61.4l84.4,44.6l-9.1-84.2L4118.3,4182.4z M2345.4,4204.2l-9,84.2l84.3-44.6
				l-72.9-61.4L2345.4,4204.2z M1995.4,4243.8l84.4,44.6l-11.4-106L1995.4,4243.8z M286.5,4288.4l84.4-44.6l-73-61.4L286.5,4288.4z"
				/>
		</g>
		<g>
			<path style="fill:#697785;" d="M4197,4323.9c-2.3-29.3-4.7-58.1-7.1-86.2l-60.2,50.7L4197,4323.9L4197,4323.9z M4023,4262.7
				l7.9,73.5l25.8,13.6l-11.4-106L4023,4262.7z M2276.2,4237.7c-2.5,28.2-4.8,56.9-7.1,86.2l67.3-35.6L2276.2,4237.7z
				 M2409.4,4349.8l25.8-13.6l7.9-73.5l-22.4-18.9L2409.4,4349.8z M2147.1,4323.9c-2.3-29.3-4.7-58.1-7.1-86.2l-60.2,50.7
				L2147.1,4323.9z M1973.1,4262.7l7.9,73.5l25.8,13.6l-11.4-106L1973.1,4262.7z M226.3,4237.7c-2.5,28.2-4.8,56.9-7.1,86.2
				l67.3-35.6L226.3,4237.7z M393.2,4262.7l-22.3-18.9l-11.4,106l25.8-13.6L393.2,4262.7z"/>
		</g>
		<g>
			<path style="fill:#616A7B;" d="M4129.7,4288.4l-84.4-44.6l11.4,106L4129.7,4288.4z M2336.4,4288.4l73,61.4l11.3-106
				L2336.4,4288.4z M2079.8,4288.4l-84.4-44.6l11.4,106L2079.8,4288.4z M370.9,4243.8l-84.4,44.6l73,61.4L370.9,4243.8z"/>
		</g>
		<g>
			<path style="fill:#1B2129;" d="M4129.7,4288.4l11.4,106l57.6-48.5c-0.6-7.3-1.1-14.7-1.7-21.9L4129.7,4288.4z M2336.4,4288.4
				l-67.3,35.6c-0.6,7.3-1.1,14.6-1.7,21.9l57.6,48.5L2336.4,4288.4z M2079.8,4288.4l11.4,106l57.6-48.5c-0.6-7.3-1.1-14.7-1.7-21.9
				L2079.8,4288.4z M275.1,4394.4l11.4-106l-67.3,35.6c-0.6,7.3-1.1,14.6-1.7,21.9L275.1,4394.4z"/>
		</g>
		<g>
			<path style="fill:#3D404D;" d="M4056.7,4349.8l84.4,44.6l-11.4-106L4056.7,4349.8z M2325,4394.4l84.4-44.6l-73-61.4L2325,4394.4z
				"/>
			<g>
				<path style="fill:#3D404D;" d="M2006.8,4349.8l84.4,44.6l-11.4-106L2006.8,4349.8z M359.5,4349.8l-73-61.4l-11.4,106
					L359.5,4349.8z"/>
			</g>
		</g>
	</g>
</g>
<g id="Jersey_00000178918382477848205980000014039090725350192004_">
	<g id="Color_2_00000119827207184775886030000012494797607183382206_">
		<path style="fill:#F4F4F4;" d="M650.6,1000.7l79.1-53.3l79.1,53.3l79.1-53.3l79.1,53.3l79.2-53.3l79.1,53.3l79.1-53.3l79.1,53.3
			l79.1-53.3l79.1,53.3l79.1-53.3l79.1,53.3l79.1-53.3l79.1,53.3l11.5-7.8c-17-92.7-16.3-187.8-8.3-281.4
			c6.7-79.8,19.4-159.1,36.2-237.3c7.3-35.1,16.2-70.2,25.5-104.8c2.9-11.2,6.8-24.2,9.9-35.4c1.8-5.5,2.9-11.7,5.6-16.9
			c-35.6-15.2-136-57.2-203.7-86.5c-5.7,49.6-30.4,95.3-51.5,139.9c-96.4,188.4-221.3,364.2-408,453.2c-0.1-0.1-5.7,2.9-5.8,2.9
			c-0.1,0-5.6-3-5.8-2.9c-186.7-89.1-311.6-264.8-408-453.2c-21.1-44.6-45.8-90.5-51.5-140c-67.8,29.2-168.1,71.2-203.7,86.5
			c2.6,5.2,3.8,11.4,5.6,16.9c3.1,11.2,7,24.2,9.9,35.4c9.3,34.6,18.2,69.7,25.5,104.8c15.6,72.4,27.4,145.8,34.7,219.6
			c7.9,85.3,10.4,171.5-0.2,256.7L650.6,1000.7L650.6,1000.7z M2648.8,947.3l79.1,53.3l79.1-53.3l79.1,53.3l79.1-53.3l79.1,53.3
			l79.1-53.3l79.1,53.3l79.1-53.3l79.1,53.3l79.1-53.3l79.1,53.3l79.1-53.3l79.1,53.3l79.1-53.3l79.1,53.3l24.3-16.4
			c-20.2-119.6-7.8-247.7,2.9-360.7c8.5-102.7,25.9-212.1,55.2-312.1v-0.1c0.2-0.1,0.3-0.2,0.5-0.3c-48.2-20.6-196.3-83.5-249-105.9
			c-26.7,22.9-60.4,37.6-93.6,49c-29.4,9.6-59.9,15.6-90.8,17.6c-25.6,1.2-51.3,1.8-77.1,2.6c-67.1,1.5-136.5,1.9-203.7,1.6
			c0.2,0.1,0.6,0.1,0.9,0.1h-0.4l-5.7-0.1c-63-0.4-126.4-1.5-189.2-4.1c-0.1,0-1.6-0.1-1.7-0.1c-10.1-0.6-19.8-1.8-29.8-3.2
			c-20.4-3.1-40.6-7.9-60.1-14.3h-0.1c-33.6-11.1-66.7-26.1-94.2-48.7c-52.4,22.2-199.9,84.8-248.8,105.6c0.1,0,0.2,0.1,0.3,0.1
			c13.7,44.7,24.1,93.8,32.9,139.8c0.4,2,0.7,4.1,1.1,6.1c0.7,3.5,1.2,6.9,1.9,10.4c11.4,62.5,16.8,124.2,22.2,185.1
			c8.8,92.7,17.5,200.5,4.5,301.8L2648.8,947.3L2648.8,947.3z"/>
		<path id="Trim_00000123442452942813946210000003210102662532370579_" style="fill:#F4F4F4;" d="M704.9,234.3
			c7.6,48.2,30.4,92.9,51.4,136.4c96.4,188.4,221.3,364.2,408,453.2c0.1-0.1,5.7,2.9,5.8,2.9c0.1,0,5.6-3,5.8-2.9
			c186.7-89.1,311.6-264.8,408-453.2c21-43.5,43.9-88.2,51.4-136.3c1.2-4.6-1.8-8.3-5.9-10c-5.9-3.7-12.1-7.1-18.3-10.4
			c-16-11.2-41.8-16.9-49.8-14.6c-0.3-0.7-244.2,31.3-391.3,28.9c-147.5,1.6-391.1-28.7-391.4-28.9c-8.4-2.3-34.1,3.7-50,14.8
			c-6.1,3.4-12.3,6.6-18.2,10.3C706.3,226.3,703.6,229.6,704.9,234.3L704.9,234.3z M778.5,257.6c133.3,15.7,268.4,29.3,402.4,28.3
			c129.8-0.5,259.1-14.3,387.6-29.3c-4,20.5-14,39.4-23.1,60c-83.2,173-205.9,357.7-375.4,444.8c-1.5-0.6-4.9-2.3-6.4-3
			c-169.2-87.1-324.8-317.8-391.3-498.5c-0.2-1.1-0.4-2-0.6-3.3C775.3,257.2,778.5,257.6,778.5,257.6z M334.6,1301.7
			c0.3,0,0.6-0.1,0.8-0.1c35.6-10.5,69.5-28.9,98.6-52c2.5-1.9,5.6-4.5,8-6.6c194.1-166.3,147.6-543.5,100.2-768.8
			C532,426,519.5,378,505.8,330.6l-1.7-5.8c-0.1-0.5-0.3-1-0.4-1.4l-0.3-1.1c-0.1-0.4-0.2-0.7-0.9-2.3c-0.5-0.8-0.7-2.2-1.3-2.9
			c-1.2-1.5-3.4-0.9-6-0.1L459,330.9c-0.6,0.2-1.1,0.4-1.6,0.6l-5.9,2.2c-3.2,1-4.7,2.3-3.7,5.5c8.3,26.9,43.7,145.7,64.8,289.3
			c22.5,178.3,47.6,451.4-114.5,573.2c-16.2,11.4-33.9,20.6-52.2,28.1c-5.5,2.1-11,4.4-16.6,6.4c-1,0.4-2.1,0.6-2.3,1.7
			c0.7,16.4,2.6,32.7,4.2,48.9c0.7,4.9,0.5,10.5,2.2,15C333.8,1301.7,334.2,1301.7,334.6,1301.7L334.6,1301.7z M2013.1,1237.2
			c-321.7-107.8-177.5-701.7-120.3-897.9c2.2-5.4-6.3-5.9-9.6-7.7c-0.5-0.2-1-0.4-1.6-0.6l-36.2-13.9c-4.4-1.3-6.1-1.3-7.3,3
			c-1.3,3-2.3,7.6-3.3,10.6c-2.4,8.4-5.6,19.3-7.9,27.7c-10.4,38.3-20.4,77.1-28.5,115.9c-43.9,208.9-81.4,516.9,41.9,702.9v0.1
			c16.2,24.4,35.7,46.7,58.1,65.5c31,26.3,67.8,47.1,106.7,58.6c0.2,0.1,0.6,0.1,0.9,0.1c3,0.8,2.4-13.7,3.3-16.4
			c1.4-15.7,3.4-31.4,4-47.4C2013.6,1237.9,2013.3,1237.4,2013.1,1237.2L2013.1,1237.2z M2825.4,206.9
			c27.6,21.5,59.7,36.6,92.8,47.3c19.7,6.3,39.8,11.3,60.2,14.3c10,1.4,19.7,2.6,29.8,3.2c0.1,0,1.6,0.1,1.7,0.1
			c62.8,2.6,126.2,3.7,189.2,4.1l5.7,0.1h0.4c-0.3,0-0.7,0-0.9-0.1c67.2,0.3,136.6-0.1,203.7-1.6c25.8-0.8,51.5-1.4,77.1-2.6
			c30.9-2.1,61.4-8,90.8-17.6c33.3-11.2,66.1-26.3,93.5-48.6c1.5-5.2-21.2-10.5-25.1-12.6c-10.1-3.4-24.7-7.8-35.2-10.5
			c-11.1-3.7-43.2,11.4-79.3,18.4c-79.1,18.1-160.9,17.6-241.6,17.6c-88.8-0.5-185,3.6-272.7-8.3c-25.8-1.8-110.6-23.3-119.6-27.9
			c-11.2-2.6-26.8,5.1-37.7,7.7C2854.1,191.8,2815.6,201.4,2825.4,206.9L2825.4,206.9z M2411.6,1302.6c0.2-0.1,0.4-0.1,0.6-0.2
			c4.4-2.1,9-4.3,13.4-6.6c53.1-31.7,101.9-72.8,138.6-122.7c125.8-191.1,74.9-485.3,47.2-705.3c-0.7-3.5-1.2-6.9-1.9-10.4
			c-0.4-2-0.7-4.1-1.1-6.1c-8.7-46-19.2-95.1-32.9-139.8c-0.1,0-0.2-0.1-0.3-0.1c-3.7,0.1-17.8,5.4-23.6,7.2
			c-8.2,2.7-15.8,5.4-24,7.8c-1.4,0.4-4.9,1.2-5.7,2.7c39.2,149.4,58,306.5,62.9,461.5c7.8,147.3-7,323.7-137.1,416.5
			c-13,9.9-26.3,18.6-40.1,27.3c-2.1,1.4-3.4,3.8-3.1,6.3c0.9,13.4,3.2,42.7,5,57.8c0.3,2,0.3,4,2,3.9L2411.6,1302.6L2411.6,1302.6z
			 M4085.9,1234.2c-161.6-87-187.8-276.9-177.2-443.8c4.9-155,23.7-312,62.9-461.5c-0.8-1.5-4.2-2.3-5.7-2.7c-8.2-2.4-16-5.1-24-7.8
			c-5.9-1.3-20.3-8.2-24-7c-0.1,0-0.1,0.1-0.2,0.1c-28.9,100.3-46.7,209.3-55,312c-18.1,158.8-30.4,395.3,53.6,529
			c0,0,0,0.2,0.1,0.2c9.3,14.9,19.3,29.5,30.8,42.7c38.2,42.3,82.9,81.7,134.6,106.7c3.8,1.3,3-15.3,4.1-20.6
			C4085.8,1270.2,4093.1,1237.2,4085.9,1234.2L4085.9,1234.2z"/>
	</g>
	<g id="Color_1">
		<path style="fill:#000008;" d="M1837.3,1587.2l-79.1-53.3l-79.1,53.3l-79.1-53.3l-79.1,53.3l-79.1-53.3l-79.1,53.3l-79.1-53.3
			l-79.1,53.3l-79.1-53.3l-79.1,53.3l-79.1-53.3l-79.1,53.3l-79.1-53.3l-79.1,53.3l-79.1-53.3l-79.1,53.3l-79.1-53.3l-79.1,53.3
			l-62.5-42.1c24.3,375.6,35.8,766.2-15.1,1137.9c-1.9,13.9,13.3,16.9,23.8,19.1c23.1,5.8,50,11.3,74,14.9v-0.3v0.2
			c12.2,1.9,24.1,3.4,35.6,4.7c10.5,1.2,20.6,2.1,30.5,2.8c0,0,638,44.5,1340.3,0v-2v2c9.8-0.7,20.1-1.7,30.5-2.8
			c11.5-1.3,23.4-2.8,35.6-4.7c24.2-3.6,50.7-9.1,74-14.9c11.6-1.8,25.5-7.1,23.5-21.4c-48.8-363.6-40.3-726.9-16.9-1099.6
			l-70.1-47.2L1837.3,1587.2L1837.3,1587.2z M3914.6,1587l-79.1-53.3l-79.1,53.3l-79.1-53.3l-79.1,53.3l-79.1-53.3L3440,1587
			l-79.1-53.3l-79.1,53.3l-79.1-53.3l-79.1,53.3l-79.1-53.3l-79.1,53.3l-79.1-53.3l-79.1,53.3l-79.1-53.3L2649,1587l-79.1-53.3
			l-79.1,53.3l-62.6-42.2c23.7,379.8,34.7,762.2-15.7,1134.3c-2,14.1,11.9,19.6,23.5,21.4c23.1,6,50,11.3,74.1,15v-0.3
			c12.2,1.9,24,3.5,35.5,4.8v0.1c9.2,1.1,18,1.9,26.7,2.6v0.2c687.1,44.5,1344.3,0,1344.3,0c1.9-0.1,3.8-0.3,5.6-0.4h-0.3
			c30.8-2.4,61.7-6.9,92.6-12.7c15.3-3,30-6.2,44-9.7c11.7-1.7,26-7.2,23.9-21.5c-49.2-364.8-41.1-720.1-18.2-1097.6l-70.2-47.3
			L3914.6,1587L3914.6,1587z"/>
	</g>
	<path id="Inside_00000174601529896831091220000007157902962274673542_" style="fill:#F0F0F0;" d="M772.8,260.1
		c66.8,181.4,222,411,391.7,498.9c1.5,0.7,4.9,2.4,6.4,3c169.6-87.1,292.2-271.8,375.4-444.8c9.1-20.7,19-39.5,23.1-60
		c-128.6,15-257.8,28.8-387.6,29.3c-136.4,1-273.5-13-409.2-29.1c0.1,0.9,0.2,1.7,0.4,2.4L772.8,260.1L772.8,260.1z"/>
	<g id="Color_Set_00000173880812900646548360000009440056607834757529_">
		<path style="fill:#A1D9F6;" d="M571.5,1054.1v-71.7c-3.5,21-8,41.8-13.5,62.4L571.5,1054.1z M729.8,1054.1V947.4l-79.2,53.3
			L729.8,1054.1z M888,1054.1V947.4l-79.1,53.3L888,1054.1z M1046.2,1054.1V947.4l-79.1,53.3L1046.2,1054.1z M1204.4,1054.1V947.4
			l-79.1,53.3L1204.4,1054.1z M1362.7,1054.1V947.4l-79.1,53.3L1362.7,1054.1z M1520.9,1054.1V947.4l-79.1,53.3L1520.9,1054.1z
			 M1679.1,1054.1V947.4l-79.1,53.3L1679.1,1054.1z M1773.3,1010.9c-0.1-0.6-0.2-1.1-0.4-1.7c-0.4-1.8-0.7-3.6-1.1-5.4v-0.2
			c-0.4-1.9-0.8-3.8-1.1-5.7l-0.9-4.8l-11.5,7.8L1773.3,1010.9L1773.3,1010.9z M2648.8,1053.9V947.3l-10.7,7.2
			c-3.6,29.3-8.5,56.7-14.8,82.2L2648.8,1053.9L2648.8,1053.9z M2807,1053.9V947.3l-79.1,53.3L2807,1053.9z M2965.2,1053.9V947.3
			l-79.1,53.3L2965.2,1053.9z M3123.4,1053.9V947.3l-79.1,53.3L3123.4,1053.9z M3281.7,1053.9V947.3l-79.1,53.3L3281.7,1053.9z
			 M3439.9,1053.9V947.3l-79.1,53.3L3439.9,1053.9z M3598.1,1053.9V947.3l-79.1,53.3L3598.1,1053.9z M3756.3,1053.9V947.3
			l-79.1,53.3L3756.3,1053.9z M3866.9,1021.8c-2.7-12.1-5.1-24.6-7.1-37.5l-24.3,16.4L3866.9,1021.8L3866.9,1021.8z"/>
		<path style="fill:#80C1EA;" d="M571.5,1054.1l79.1-53.3l-74.4-50.2c-1.2,10.1-2.9,20.1-4.4,30.2
			C571,982.2,571.8,1052.5,571.5,1054.1L571.5,1054.1z M729.8,1054.1l79.1-53.4l-79.1-53.3V1054.1z M888,1054.1l79.1-53.4L888,947.4
			V1054.1z M1046.2,1054.1l79.1-53.4l-79.1-53.3V1054.1z M1204.4,1054.1l79.2-53.4l-79.2-53.3V1054.1z M1362.7,1054.1l79.1-53.4
			l-79.1-53.3V1054.1z M1520.9,1054.1l79.1-53.4l-79.1-53.3V1054.1z M1679.1,1054.1l79.1-53.4l-79.1-53.3V1054.1z M2727.9,1000.6
			l-79.1-53.3v106.6L2727.9,1000.6z M2807,1053.9l79.1-53.3l-79.1-53.3V1053.9z M2965.2,1053.9l79.1-53.3l-79.1-53.3V1053.9z
			 M3123.4,1053.9l79.2-53.3l-79.2-53.3V1053.9z M3281.7,1053.9l79.1-53.3l-79.1-53.3V1053.9z M3439.9,1053.9l79.1-53.3l-79.1-53.3
			V1053.9z M3598.1,1053.9l79.1-53.3l-79.1-53.3V1053.9z M3756.3,1053.9l79.2-53.3l-79.2-53.3V1053.9z"/>
		<g>
			<path style="fill:#BBC9DB;" d="M557.9,1044.9c-2,7.6-4.2,15.3-6.6,22.8l20.3-13.7L557.9,1044.9L557.9,1044.9z M650.6,1000.8
				v106.6l79.2-53.3L650.6,1000.8z M808.9,1000.8v106.6l79.1-53.3L808.9,1000.8z M967.1,1000.8v106.6l79.1-53.3L967.1,1000.8z
				 M1125.3,1000.8v106.6l79.1-53.3L1125.3,1000.8z M1283.6,1000.8v106.6l79.1-53.3L1283.6,1000.8z M1441.8,1000.8v106.6l79.1-53.3
				L1441.8,1000.8z M1600,1000.8v106.6l79.1-53.3L1600,1000.8z M1758.2,1107.4l35.3-23.8c-8.4-23.7-14.8-48.1-20-72.7l-15.1-10.2
				v106.7H1758.2L1758.2,1107.4z M2623.2,1036.7c-3.7,15-7.9,29.3-12.5,42.9l38.1-25.7L2623.2,1036.7L2623.2,1036.7z M2727.9,1000.6
				v106.6l79.1-53.3L2727.9,1000.6z M2886.1,1000.6v106.6l79.1-53.3L2886.1,1000.6z M3044.3,1000.6v106.6l79.1-53.3L3044.3,1000.6z
				 M3202.6,1000.6v106.6l79.1-53.3L3202.6,1000.6z M3360.8,1000.6v106.6l79.1-53.3L3360.8,1000.6z M3519,1000.6v106.6l79.1-53.3
				L3519,1000.6z M3677.2,1000.6v106.6l79.1-53.3L3677.2,1000.6z M3835.5,1107.2l46.3-31.2c-5.7-17-10.6-35.1-14.8-54.3l-31.4-21.2
				v106.7H3835.5z"/>
		</g>
		<g>
			<path style="fill:#D9E1F2;" d="M650.6,1107.4v-106.7l-79.1,53.4L650.6,1107.4z M729.8,1054.1l79.1,53.3v-106.7L729.8,1054.1z
				 M888,1054.1l79.1,53.3v-106.7L888,1054.1z M1046.2,1054.1l79.1,53.3v-106.7L1046.2,1054.1z M1204.4,1054.1l79.2,53.3v-106.7
				L1204.4,1054.1z M1362.7,1054.1l79.1,53.3v-106.7L1362.7,1054.1z M1520.9,1054.1l79.1,53.3v-106.7L1520.9,1054.1z M1679.1,1054.1
				l79.1,53.3v-106.7L1679.1,1054.1z M2727.9,1107.2v-106.6l-79.1,53.3L2727.9,1107.2z M2807,1053.9l79.1,53.3v-106.6L2807,1053.9z
				 M2965.2,1053.9l79.1,53.3v-106.6L2965.2,1053.9z M3123.4,1053.9l79.2,53.3v-106.6L3123.4,1053.9z M3281.7,1053.9l79.1,53.3
				v-106.6L3281.7,1053.9z M3439.9,1053.9l79.1,53.3v-106.6L3439.9,1053.9z M3598.1,1053.9l79.1,53.3v-106.6L3598.1,1053.9z
				 M3756.3,1053.9l79.2,53.3v-106.6L3756.3,1053.9z"/>
		</g>
		<g>
			<path style="fill:#DD76AF;" d="M571.5,1160.7v-106.6l-20.3,13.6c-6.8,21.4-14.9,42.4-24.8,62.5L571.5,1160.7z M729.8,1160.7
				v-106.6l-79.2,53.3L729.8,1160.7z M888,1160.7v-106.6l-79.1,53.3L888,1160.7z M1046.2,1160.7v-106.6l-79.1,53.3L1046.2,1160.7z
				 M1204.4,1160.7v-106.6l-79.1,53.3L1204.4,1160.7z M1362.7,1160.7v-106.6l-79.1,53.3L1362.7,1160.7z M1520.9,1160.7v-106.6
				l-79.1,53.3L1520.9,1160.7z M1679.1,1160.7v-106.6l-79.1,53.3L1679.1,1160.7z M1824.1,1151.8c-12.2-21.7-22.2-44.7-30.6-68.1
				l-35.3,23.7L1824.1,1151.8z M2648.8,1160.5v-106.6l-38.1,25.7c-5.3,15.4-11.1,29.9-17.6,43.5L2648.8,1160.5L2648.8,1160.5z
				 M2807,1160.5v-106.6l-79.1,53.3L2807,1160.5z M2965.2,1160.5v-106.6l-79.1,53.3L2965.2,1160.5z M3123.4,1160.5v-106.6
				l-79.1,53.3L3123.4,1160.5z M3281.7,1160.5v-106.6l-79.1,53.3L3281.7,1160.5z M3439.9,1160.5v-106.6l-79.1,53.3L3439.9,1160.5z
				 M3598.1,1160.5v-106.6l-79.1,53.3L3598.1,1160.5z M3756.3,1160.5v-106.6l-79.1,53.3L3756.3,1160.5z M3914.6,1160.5v-10.8
				l-0.9-1.5c-1.3-2.3-2.6-4.6-3.8-6.8c-10.8-19.7-20.2-41.5-28.1-65.4l-46.3,31.2L3914.6,1160.5L3914.6,1160.5z"/>
		</g>
		<g>
			<path style="fill:#BA5086;" d="M571.5,1054.1v106.6l79.1-53.3L571.5,1054.1z M729.8,1160.7l79.1-53.3l-79.1-53.3V1160.7z
				 M888,1160.7l79.1-53.3l-79.1-53.3V1160.7z M1046.2,1160.7l79.1-53.3l-79.1-53.3V1160.7z M1204.4,1160.7l79.2-53.3l-79.2-53.3
				V1160.7z M1362.7,1160.7l79.1-53.3l-79.1-53.3V1160.7z M1520.9,1160.7l79.1-53.3l-79.1-53.3V1160.7z M1679.1,1054.1v106.6
				l79.1-53.3L1679.1,1054.1z M2648.8,1053.9v106.6l79.1-53.3L2648.8,1053.9z M2807,1160.5l79.1-53.3l-79.1-53.3V1160.5z
				 M2965.2,1160.5l79.1-53.3l-79.1-53.3V1160.5z M3123.4,1160.5l79.2-53.3l-79.2-53.3V1160.5z M3281.7,1160.5l79.1-53.3l-79.1-53.3
				V1160.5z M3439.9,1160.5l79.1-53.3l-79.1-53.3V1160.5z M3598.1,1160.5l79.1-53.3l-79.1-53.3V1160.5z M3756.3,1053.9v106.6
				l79.2-53.3L3756.3,1053.9z M3914.6,1160.5l4.7-3.2c-0.6-1-1.3-2-1.9-3c-0.3-0.6-0.7-1.1-1-1.6c0,0,0-0.1-0.1-0.1v-0.1
				c-0.6-0.9-1.1-1.9-1.7-2.8V1160.5L3914.6,1160.5z"/>
		</g>
		<g>
			<path style="fill:#BD4F92;" d="M492.4,1214l79.1-53.3l-45-30.4c-9.6,19.9-20.8,38.9-33.7,56.8
				C491.6,1187.3,492.8,1213.4,492.4,1214L492.4,1214z M650.6,1107.4V1214l79.2-53.3L650.6,1107.4z M808.9,1107.4V1214l79.1-53.3
				L808.9,1107.4z M967.1,1107.4V1214l79.1-53.3L967.1,1107.4z M1125.3,1107.4V1214l79.1-53.3L1125.3,1107.4z M1283.6,1107.4V1214
				l79.1-53.3L1283.6,1107.4z M1441.8,1107.4V1214l79.1-53.3L1441.8,1107.4z M1600,1107.4V1214l79.1-53.3L1600,1107.4z M1758.2,1214
				l73.4-49.5c-0.9-1.5-1.8-2.9-2.7-4.4c-0.9-1.5-1.8-3.1-2.7-4.7c-0.7-1.2-1.4-2.5-2.1-3.7l-65.9-44.3L1758.2,1214L1758.2,1214z
				 M2569.7,1213.8l79.1-53.3l-55.6-37.5c-7,14.6-14.6,28.5-23.5,41.9V1213.8z M2727.9,1107.2v106.6l79.1-53.3L2727.9,1107.2z
				 M2886.1,1107.2v106.6l79.1-53.3L2886.1,1107.2z M3044.3,1107.2v106.6l79.1-53.3L3044.3,1107.2z M3202.6,1107.2v106.6l79.1-53.3
				L3202.6,1107.2z M3360.8,1107.2v106.6l79.1-53.3L3360.8,1107.2z M3519,1107.2v106.6l79.1-53.3L3519,1107.2z M3677.2,1107.2v106.6
				l79.1-53.3L3677.2,1107.2z M3835.5,1107.2v106.6l79.1-53.3L3835.5,1107.2z"/>
		</g>
		<g>
			<path style="fill:#AF4078;" d="M492.4,1214v-26.4c-4.3,5.9-8.7,11.8-13.5,17.4L492.4,1214z M650.6,1214v-106.6l-79.1,53.3
				L650.6,1214z M729.8,1160.7l79.1,53.3v-106.6L729.8,1160.7z M888,1160.7l79.1,53.3v-106.6L888,1160.7z M1046.2,1160.7l79.1,53.3
				v-106.6L1046.2,1160.7z M1204.4,1160.7l79.2,53.3v-106.6L1204.4,1160.7z M1362.7,1160.7l79.1,53.3v-106.6L1362.7,1160.7z
				 M1520.9,1160.7l79.1,53.3v-106.6L1520.9,1160.7z M1679.1,1160.7l79.1,53.3v-106.6L1679.1,1160.7z M2569.7,1213.8v-48.9
				c-7.6,11.3-15.7,22-24.7,32.2L2569.7,1213.8L2569.7,1213.8z M2727.9,1213.8v-106.6l-79.1,53.3L2727.9,1213.8z M2807,1160.5
				l79.1,53.3v-106.6L2807,1160.5z M2965.2,1160.5l79.1,53.3v-106.6L2965.2,1160.5z M3123.4,1160.5l79.2,53.3v-106.6L3123.4,1160.5z
				 M3281.7,1160.5l79.1,53.3v-106.6L3281.7,1160.5z M3439.9,1160.5l79.1,53.3v-106.6L3439.9,1160.5z M3598.1,1160.5l79.1,53.3
				v-106.6L3598.1,1160.5z M3756.3,1160.5l79.2,53.3v-106.6L3756.3,1160.5z M3914.6,1160.5l12.1,8.2c-2.6-3.7-5-7.5-7.4-11.4
				L3914.6,1160.5L3914.6,1160.5z"/>
		</g>
		<g>
			<path style="fill:#A73D7B;" d="M413.3,1267.3v-3.2c-0.5,0.3-1,0.7-1.5,1l-0.9,0.6L413.3,1267.3z M571.5,1267.3v-106.6l-79.1,53.3
				l23.9,16.1L571.5,1267.3z M729.8,1267.3v-106.6l-79.2,53.3l23.9,16.1L729.8,1267.3z M888,1160.7l-79.1,53.3l23.8,16.1l55.3,37.2
				V1160.7z M1046.2,1160.7l-79.1,53.3l23.8,16.1l55.3,37.2V1160.7z M1204.4,1160.7l-79.1,53.3l23.9,16.1l55.2,37.2V1160.7z
				 M1362.7,1160.7l-79.1,53.3l23.8,16.1l55.3,37.2L1362.7,1160.7z M1520.9,1160.7l-79.1,53.3l23.8,16.1l55.3,37.2L1520.9,1160.7z
				 M1600,1214l23.8,16.1l55.3,37.2v-106.6L1600,1214z M1782.1,1230.1l55.3,37.2v-93.7c-1.9-3-3.7-5.7-5.7-8.9
				c0-0.1-0.1-0.1-0.1-0.2l-73.4,49.5L1782.1,1230.1L1782.1,1230.1z M2490.5,1267.2v-17.5c-2.5,2.1-5,4.2-7.5,6.2
				c-1.4,1.1-2.8,2.3-4.3,3.4L2490.5,1267.2z M2648.8,1267.2v-106.7l-79.1,53.3l23.8,16.1L2648.8,1267.2z M2807,1267.2v-106.7
				l-79.1,53.3l23.8,16.1L2807,1267.2z M2965.2,1160.5l-79.1,53.3l23.8,16.1l55.3,37.3V1160.5z M3123.4,1160.5l-79.1,53.3l23.9,16.1
				l55.2,37.3L3123.4,1160.5z M3281.7,1160.5l-79.1,53.3l23.8,16.1l55.3,37.3V1160.5z M3439.9,1160.5l-79.1,53.3l23.8,16.1
				l55.3,37.3V1160.5z M3598.1,1160.5l-79.1,53.3l23.8,16.1l55.3,37.3V1160.5z M3677.2,1213.8l23.9,16.1l55.2,37.3v-106.7
				L3677.2,1213.8z M3835.5,1213.8l23.8,16.1l55.3,37.3v-106.7L3835.5,1213.8z"/>
		</g>
		<g>
			<path style="fill:#5E1E52;" d="M413.3,1267.3l79.1-53.3l-13.5-9.1c-11.4,13.6-23.9,26.5-37.6,37.9c-2.5,2.1-5.4,4.6-8,6.6
				c-6.4,5.1-13.1,10.2-20,14.6V1267.3z M571.5,1267.3l79.1-53.3l-79.1-53.3V1267.3z M729.8,1160.7v106.6l79.1-53.3L729.8,1160.7z
				 M888,1160.7v106.6l79.1-53.3L888,1160.7z M1046.2,1160.7v106.6l79.1-53.3L1046.2,1160.7z M1204.4,1160.7v106.6l79.2-53.3
				L1204.4,1160.7z M1362.7,1160.7v106.6l79.1-53.3L1362.7,1160.7z M1520.9,1160.7v106.6l79.1-53.3L1520.9,1160.7z M1679.1,1160.7
				v106.6l79.1-53.3L1679.1,1160.7z M1837.3,1267.3l50.2-33.8c-18.1-16.7-33.9-35.7-47.6-56.2v-0.1c-0.9-1.3-1.7-2.5-2.5-3.8
				L1837.3,1267.3z M2490.5,1267.2l79.1-53.3l-24.7-16.6c-16.6,18.9-35,36.1-54.4,52.4L2490.5,1267.2L2490.5,1267.2z M2648.8,1267.2
				l79.1-53.4l-79.1-53.3V1267.2z M2807,1160.5v106.7l79.1-53.4L2807,1160.5z M2965.2,1160.5v106.7l79.1-53.4L2965.2,1160.5z
				 M3123.4,1160.5v106.7l79.2-53.4L3123.4,1160.5z M3281.7,1160.5v106.7l79.1-53.4L3281.7,1160.5z M3439.9,1160.5v106.7l79.1-53.4
				L3439.9,1160.5z M3598.1,1160.5v106.7l79.1-53.4L3598.1,1160.5z M3756.3,1267.2l79.2-53.4l-79.2-53.3V1267.2z M3914.6,1267.2
				l61.5-41.4c-10.7-10.2-19.5-19.3-29-30.3c-7.3-8.4-14-17.6-20.4-26.7l-12.1-8.2V1267.2z"/>
		</g>
		<g>
			<path style="fill:#652866;" d="M410.9,1265.7c-23.5,15.1-49.3,28-76.1,35.7c-0.2,0-0.4,0.1-0.6,0.1c-0.1,6.1,0.6,11.2,1.2,18.2
				l77.9-52.5L410.9,1265.7L410.9,1265.7z M516.3,1230.1l-23.9-16.1v106.6l79.1-53.3L516.3,1230.1z M674.5,1230.1l-23.9-16.1v106.6
				l79.2-53.3L674.5,1230.1z M832.7,1230.1l-23.8-16.1v106.6l79.1-53.3L832.7,1230.1z M990.9,1230.1l-23.8-16.1v106.6l79.1-53.3
				L990.9,1230.1z M1149.2,1230.1l-23.9-16.1v106.6l79.1-53.3L1149.2,1230.1z M1307.4,1230.1l-23.8-16.1v106.6l79.1-53.3
				L1307.4,1230.1z M1465.6,1230.1l-23.8-16.1v106.6l79.1-53.3L1465.6,1230.1z M1623.8,1230.1L1600,1214v106.6l79.1-53.3
				L1623.8,1230.1z M1782.1,1230.1l-23.9-16.1v106.6l79.1-53.3L1782.1,1230.1z M1916.5,1320.6l50.1-33.8
				c-17.6-8.2-34.4-18.1-50.2-29.5L1916.5,1320.6z M2478.8,1259.2c-16.9,13.3-34.6,25.5-53.2,36.3c-4.6,2.4-9.3,4.7-14,6.8h-0.1
				c0.3,5.3,0.9,11,1.4,17.4l77.7-52.4L2478.8,1259.2L2478.8,1259.2z M2593.5,1229.9l-23.8-16.1v106.7l79.1-53.3L2593.5,1229.9z
				 M2751.7,1229.9l-23.8-16.1v106.7l79.1-53.3L2751.7,1229.9z M2909.9,1229.9l-23.8-16.1v106.7l79.1-53.3L2909.9,1229.9z
				 M3068.2,1229.9l-23.9-16.1v106.7l79.1-53.3L3068.2,1229.9z M3226.4,1229.9l-23.8-16.1v106.7l79.1-53.3L3226.4,1229.9z
				 M3384.6,1229.9l-23.8-16.1v106.7l79.1-53.3L3384.6,1229.9z M3542.8,1229.9l-23.8-16.1v106.7l79.1-53.3L3542.8,1229.9z
				 M3701.1,1229.9l-23.9-16.1v106.7l79.1-53.3L3701.1,1229.9z M3859.3,1229.9l-23.8-16.1v106.7l79.1-53.3L3859.3,1229.9z
				 M3993.7,1320.5l54.7-36.9c-19.3-12.5-37.5-26.6-54.8-41.8L3993.7,1320.5L3993.7,1320.5z"/>
		</g>
		<g>
			<path style="fill:#1F1437;" d="M492.4,1320.6V1214l-79.1,53.3L492.4,1320.6z M650.6,1214l-79.1,53.3l79.1,53.3V1214z M808.9,1214
				l-79.1,53.3l79.1,53.3V1214z M967.1,1214l-79.1,53.3l79.1,53.3V1214z M1125.3,1214l-79.1,53.3l79.1,53.3V1214z M1283.6,1214
				l-79.2,53.3l79.2,53.3V1214z M1441.8,1214l-79.1,53.3l79.1,53.3V1214z M1600,1214l-79.1,53.3l79.1,53.3V1214z M1679.1,1267.3
				l79.1,53.3V1214L1679.1,1267.3z M1837.3,1267.3l79.1,53.3v-63.2c-6.3-4.7-12.5-9.5-18.5-14.6c-3.5-3.1-7.1-6-10.5-9.3
				L1837.3,1267.3L1837.3,1267.3z M2569.7,1320.5v-106.7l-79.2,53.4L2569.7,1320.5z M2727.9,1213.8l-79.1,53.4l79.1,53.3V1213.8z
				 M2886.1,1213.8l-79.1,53.4l79.1,53.3V1213.8z M3044.3,1213.8l-79.1,53.4l79.1,53.3V1213.8z M3202.6,1213.8l-79.2,53.4l79.2,53.3
				V1213.8z M3360.8,1213.8l-79.1,53.4l79.1,53.3V1213.8z M3519,1213.8l-79.1,53.4l79.1,53.3V1213.8z M3677.2,1213.8l-79.1,53.4
				l79.1,53.3V1213.8z M3835.5,1213.8l-79.2,53.4l79.2,53.3V1213.8z M3914.6,1267.2l79.1,53.3v-78.8c-6.3-5.5-11.9-10.5-17.6-16
				L3914.6,1267.2z"/>
		</g>
		<g>
			<path style="fill:#272655;" d="M413.3,1373.9v-106.6l-77.9,52.5c0,0.5,0.1,1.1,0.1,1.7l5.1,3.4L413.3,1373.9L413.3,1373.9z
				 M571.5,1373.9v-106.6l-79.1,53.3l6.4,4.3L571.5,1373.9z M729.8,1267.3l-79.2,53.3l6.4,4.3l72.8,49V1267.3z M888,1267.3
				l-79.1,53.3l6.4,4.3l72.7,49L888,1267.3z M1046.2,1267.3l-79.1,53.3l6.4,4.3l72.7,49V1267.3z M1204.4,1267.3l-79.1,53.3l6.4,4.3
				l72.7,49V1267.3z M1362.7,1267.3l-79.1,53.3l6.3,4.3l72.8,49L1362.7,1267.3z M1520.9,1267.3l-79.1,53.3l6.4,4.3l72.7,49V1267.3z
				 M1679.1,1267.3l-79.1,53.3l6.4,4.3l72.7,49V1267.3z M1758.2,1320.6l6.4,4.3l72.7,49v-106.6L1758.2,1320.6z M1922.8,1324.9
				l72.7,49v-75.2c-9.5-3.3-19.8-7.6-29-11.9l-50.1,33.8L1922.8,1324.9L1922.8,1324.9z M2490.5,1373.8v-106.6l-77.7,52.4
				c0.1,0.7,0.1,1.3,0.2,2l4.8,3.2L2490.5,1373.8z M2648.8,1373.8v-106.6l-79.1,53.3l6.3,4.3L2648.8,1373.8z M2807,1267.2
				l-79.1,53.3l6.4,4.3l72.7,49L2807,1267.2z M2965.2,1267.2l-79.1,53.3l6.4,4.3l72.7,49L2965.2,1267.2z M3123.4,1267.2l-79.1,53.3
				l6.4,4.3l72.7,49L3123.4,1267.2z M3281.7,1267.2l-79.1,53.3l6.3,4.3l72.8,49V1267.2z M3439.9,1267.2l-79.1,53.3l6.4,4.3l72.7,49
				L3439.9,1267.2z M3598.1,1267.2l-79.1,53.3l6.4,4.3l72.7,49L3598.1,1267.2z M3756.3,1267.2l-79.1,53.3l6.4,4.3l72.7,49
				L3756.3,1267.2z M3835.5,1320.5l6.4,4.3l72.7,49v-106.6L3835.5,1320.5z M4000.1,1324.8l72.7,49v-75.7
				c-8.4-4.2-16.4-9.4-24.3-14.5l-54.7,36.9L4000.1,1324.8L4000.1,1324.8z"/>
		</g>
		<g>
			<path style="fill:#181E24;" d="M413.3,1373.9l79.1-53.3l-79.1-53.3V1373.9z M571.5,1267.3v106.6l79.1-53.3L571.5,1267.3z
				 M729.8,1267.3v106.6l79.1-53.3L729.8,1267.3z M888,1267.3v106.6l79.1-53.3L888,1267.3z M1046.2,1267.3v106.6l79.1-53.3
				L1046.2,1267.3z M1204.4,1267.3v106.6l79.2-53.3L1204.4,1267.3z M1362.7,1267.3v106.6l79.1-53.3L1362.7,1267.3z M1520.9,1267.3
				v106.6l79.1-53.3L1520.9,1267.3z M1679.1,1267.3v106.6l79.1-53.3L1679.1,1267.3z M1837.3,1373.9l79.2-53.3l-79.2-53.3V1373.9z
				 M1995.6,1373.9l4.6-3.1c2.3-31.3,4.2-55,5.4-69.1h-0.1c-0.3,0-0.6-0.1-0.8-0.1c-1-0.2-1.3-0.3-2.2-0.6c-0.6-0.2-1.1-0.3-2-0.6
				c-0.7-0.2-1.3-0.4-2-0.6c-0.4-0.1-0.8-0.2-1.2-0.4c-0.6-0.2-1.1-0.4-1.7-0.6L1995.6,1373.9L1995.6,1373.9z M2490.5,1373.8
				l79.2-53.3l-79.2-53.3V1373.8z M2648.8,1267.2v106.6l79.1-53.3L2648.8,1267.2z M2807,1267.2v106.6l79.1-53.3L2807,1267.2z
				 M2965.2,1267.2v106.6l79.1-53.3L2965.2,1267.2z M3123.4,1267.2v106.6l79.2-53.3L3123.4,1267.2z M3281.7,1267.2v106.6l79.1-53.3
				L3281.7,1267.2z M3439.9,1267.2v106.6l79.1-53.3L3439.9,1267.2z M3598.1,1267.2v106.6l79.1-53.3L3598.1,1267.2z M3756.3,1267.2
				v106.6l79.2-53.3L3756.3,1267.2z M3914.6,1373.8l79.1-53.3l-79.1-53.3V1373.8z M4072.8,1373.8l4.4-3c2-28.3,3.8-51.6,5.2-68.6
				c-0.3,0-0.6,0.1-0.8-0.1c-3-1.3-5.9-2.7-8.9-4.1v75.8L4072.8,1373.8L4072.8,1373.8z"/>
		</g>
		<g>
			<path style="fill:#437EBB;" d="M340.6,1324.9l-5.1-3.4c1.9,23.3,4.4,57.6,7.3,99.9l70.5-47.5L340.6,1324.9z M498.8,1324.9
				l-6.4-4.3v106.7l79.1-53.4L498.8,1324.9z M657,1324.9l-6.4-4.3v106.7l79.2-53.4L657,1324.9z M815.3,1324.9l-6.4-4.3v106.7
				l79.1-53.4L815.3,1324.9z M973.5,1324.9l-6.4-4.3v106.7l79.1-53.4L973.5,1324.9z M1131.7,1324.9l-6.4-4.3v106.7l79.1-53.4
				L1131.7,1324.9z M1289.9,1324.9l-6.3-4.3v106.7l79.1-53.4L1289.9,1324.9z M1448.2,1324.9l-6.4-4.3v106.7l79.1-53.4L1448.2,1324.9
				z M1606.4,1324.9l-6.4-4.3v106.7l79.1-53.4L1606.4,1324.9z M1764.6,1324.9l-6.4-4.3v106.7l79.1-53.4L1764.6,1324.9z
				 M1916.5,1320.6v106.7l79.1-53.4l-72.8-49L1916.5,1320.6z M2417.8,1324.8l-4.8-3.2c2,25,4.4,59,7.2,99.7l70.4-47.4L2417.8,1324.8
				L2417.8,1324.8z M2576,1324.8l-6.3-4.3v106.6l79.1-53.3L2576,1324.8z M2734.3,1324.8l-6.4-4.3v106.6l79.1-53.3L2734.3,1324.8z
				 M2892.5,1324.8l-6.4-4.3v106.6l79.1-53.3L2892.5,1324.8z M3050.7,1324.8l-6.4-4.3v106.6l79.1-53.3L3050.7,1324.8z
				 M3208.9,1324.8l-6.3-4.3v106.6l79.1-53.3L3208.9,1324.8z M3367.2,1324.8l-6.4-4.3v106.6l79.1-53.3L3367.2,1324.8z
				 M3525.4,1324.8l-6.4-4.3v106.6l79.1-53.3L3525.4,1324.8z M3683.6,1324.8l-6.4-4.3v106.6l79.1-53.3L3683.6,1324.8z
				 M3841.9,1324.8l-6.4-4.3v106.6l79.1-53.3L3841.9,1324.8z M3993.7,1320.5v106.6l79.1-53.3l-72.7-49L3993.7,1320.5z"/>
		</g>
		<g>
			<path style="fill:#6BB5E4;" d="M492.4,1320.6l-79.1,53.3l79.1,53.4V1320.6z M650.6,1320.6l-79.1,53.3l79.1,53.4V1320.6z
				 M808.9,1320.6l-79.1,53.3l79.1,53.4V1320.6z M967.1,1320.6l-79.1,53.3l79.1,53.4V1320.6z M1125.3,1320.6l-79.1,53.3l79.1,53.4
				V1320.6z M1283.6,1320.6l-79.2,53.3l79.2,53.4V1320.6z M1441.8,1320.6l-79.1,53.3l79.1,53.4V1320.6z M1600,1320.6l-79.1,53.3
				l79.1,53.4V1320.6z M1758.2,1320.6l-79.1,53.3l79.1,53.4V1320.6z M1916.5,1320.6l-79.2,53.3l79.2,53.4V1320.6z M2000.2,1370.9
				l-4.6,3.1l4.2,2.8C1999.9,1374.8,2000,1372.8,2000.2,1370.9z M2569.7,1320.5l-79.2,53.3l79.2,53.3V1320.5z M2727.9,1320.5
				l-79.1,53.3l79.1,53.3V1320.5z M2886.1,1320.5l-79.1,53.3l79.1,53.3V1320.5z M3044.3,1320.5l-79.1,53.3l79.1,53.3V1320.5z
				 M3202.6,1320.5l-79.2,53.3l79.2,53.3V1320.5z M3360.8,1320.5l-79.1,53.3l79.1,53.3V1320.5z M3519,1320.5l-79.1,53.3l79.1,53.3
				V1320.5z M3677.2,1320.5l-79.1,53.3l79.1,53.3V1320.5z M3835.5,1320.5l-79.2,53.3l79.2,53.3V1320.5z M3993.7,1320.5l-79.1,53.3
				l79.1,53.3V1320.5z M4077.2,1370.8l-4.4,3l4,2.7C4076.9,1374.6,4077.1,1372.7,4077.2,1370.8z"/>
		</g>
		<g>
			<path style="fill:#798393;" d="M413.3,1480.6V1374l-70.5,47.5c0.3,4,0.6,8.1,0.8,12.2L413.3,1480.6L413.3,1480.6z M571.5,1373.9
				l-79.1,53.4l79.1,53.3V1373.9z M729.8,1373.9l-79.2,53.4l79.2,53.3V1373.9z M888,1373.9l-79.1,53.4l79.1,53.3V1373.9z
				 M1046.2,1373.9l-79.1,53.4l79.1,53.3V1373.9z M1204.4,1373.9l-79.1,53.4l79.1,53.3V1373.9z M1362.7,1373.9l-79.1,53.4l79.1,53.3
				V1373.9z M1520.9,1373.9l-79.1,53.4l79.1,53.3V1373.9z M1679.1,1373.9l-79.1,53.4l79.1,53.3V1373.9z M1837.3,1373.9l-79.1,53.4
				l79.1,53.3V1373.9z M1995.6,1373.9l-79.1,53.3l76.3,51.4c1-14.8,1.9-28.9,2.8-42.4L1995.6,1373.9L1995.6,1373.9z M2490.5,1480.4
				v-106.6l-70.3,47.4c0.3,4,0.5,8.1,0.8,12.3L2490.5,1480.4L2490.5,1480.4z M2648.8,1373.8l-79.1,53.3l79.1,53.3V1373.8z
				 M2807,1373.8l-79.1,53.3l79.1,53.3V1373.8z M2965.2,1373.8l-79.1,53.3l79.1,53.3V1373.8z M3123.4,1373.8l-79.1,53.3l79.1,53.3
				V1373.8z M3281.7,1373.8l-79.1,53.3l79.1,53.3V1373.8z M3439.9,1373.8l-79.1,53.3l79.1,53.3V1373.8z M3598.1,1373.8l-79.1,53.3
				l79.1,53.3V1373.8z M3756.3,1373.8l-79.1,53.3l79.1,53.3V1373.8z M3914.6,1373.8l-79.1,53.3l79.1,53.3V1373.8z M4072.8,1373.8
				l-79.1,53.3l76.3,51.4c1-15.2,1.9-29.8,2.8-43.7V1373.8L4072.8,1373.8z"/>
		</g>
		<g>
			<path style="fill:#99A7B9;" d="M413.3,1480.6l79.1-53.3l-79.1-53.4V1480.6z M571.5,1480.6l79.1-53.3l-79.1-53.4V1480.6z
				 M729.8,1480.6l79.1-53.3l-79.1-53.4V1480.6z M888,1480.6l79.1-53.3l-79.1-53.4V1480.6z M1046.2,1480.6l79.1-53.3l-79.1-53.4
				V1480.6z M1204.4,1480.6l79.2-53.3l-79.2-53.4V1480.6z M1362.7,1480.6l79.1-53.3l-79.1-53.4V1480.6z M1520.9,1480.6l79.1-53.3
				l-79.1-53.4V1480.6z M1679.1,1480.6l79.1-53.3l-79.1-53.4V1480.6z M1837.3,1480.6l79.2-53.3l-79.2-53.4V1480.6z M1995.6,1436.3
				c1.5-21.9,2.9-41.8,4.2-59.6l-4.2-2.8V1436.3z M2490.5,1480.4l79.2-53.3l-79.2-53.3V1480.4z M2648.8,1480.4l79.1-53.3l-79.1-53.3
				V1480.4z M2807,1480.4l79.1-53.3l-79.1-53.3V1480.4z M2965.2,1480.4l79.1-53.3l-79.1-53.3V1480.4z M3123.4,1480.4l79.2-53.3
				l-79.2-53.3V1480.4z M3281.7,1480.4l79.1-53.3l-79.1-53.3V1480.4z M3439.9,1480.4l79.1-53.3l-79.1-53.3V1480.4z M3598.1,1480.4
				l79.1-53.3l-79.1-53.3V1480.4z M3756.3,1480.4l79.2-53.3l-79.2-53.3V1480.4z M3914.6,1480.4l79.1-53.3l-79.1-53.3V1480.4z
				 M4072.8,1434.8c1.4-21.1,2.7-40.7,4-58.4l-4-2.7V1434.8z"/>
		</g>
		<g>
			<path style="fill:#616A7B;" d="M492.4,1427.3l-79.1,53.3l79.1,53.3V1427.3z M650.6,1427.3l-79.1,53.3l79.1,53.3V1427.3z
				 M808.9,1427.3l-79.1,53.3l79.1,53.3V1427.3z M967.1,1427.3l-79.1,53.3l79.1,53.3V1427.3z M1125.3,1427.3l-79.1,53.3l79.1,53.3
				V1427.3z M1283.6,1427.3l-79.2,53.3l79.2,53.3V1427.3z M1441.8,1427.3l-79.1,53.3l79.1,53.3V1427.3z M1600,1427.3l-79.1,53.3
				l79.1,53.3V1427.3z M1758.2,1427.3l-79.1,53.3l79.1,53.3V1427.3z M1916.5,1427.3l-79.2,53.3l79.2,53.3V1427.3z M2569.7,1427.1
				l-79.2,53.3l79.2,53.3V1427.1z M2727.9,1427.1l-79.1,53.3l79.1,53.3V1427.1z M2886.1,1427.1l-79.1,53.3l79.1,53.3V1427.1z
				 M3044.3,1427.1l-79.1,53.3l79.1,53.3V1427.1z M3202.6,1427.1l-79.2,53.3l79.2,53.3V1427.1z M3360.8,1427.1l-79.1,53.3l79.1,53.3
				V1427.1z M3519,1427.1l-79.1,53.3l79.1,53.3V1427.1z M3677.2,1427.1l-79.1,53.3l79.1,53.3V1427.1z M3835.5,1427.1l-79.2,53.3
				l79.2,53.3V1427.1z M3993.7,1427.1l-79.1,53.3l79.1,53.3V1427.1z"/>
		</g>
		<g>
			<path style="fill:#697785;" d="M343.7,1433.6c1.8,27.2,3.8,57.4,5.8,90l63.8-43L343.7,1433.6L343.7,1433.6z M571.5,1480.6
				l-79.1-53.3v106.6L571.5,1480.6z M729.8,1480.6l-79.2-53.3v106.6L729.8,1480.6z M888,1480.6l-79.1-53.3v106.6L888,1480.6z
				 M1046.2,1480.6l-79.1-53.3v106.6L1046.2,1480.6z M1204.4,1480.6l-79.1-53.3v106.6L1204.4,1480.6z M1362.7,1480.6l-79.1-53.3
				v106.6L1362.7,1480.6z M1520.9,1480.6l-79.1-53.3v106.6L1520.9,1480.6z M1679.1,1480.6l-79.1-53.3v106.6L1679.1,1480.6z
				 M1837.3,1480.6l-79.1-53.3v106.6L1837.3,1480.6z M1916.5,1533.9l76.1-51.3l0.3-3.9l-76.3-51.4L1916.5,1533.9L1916.5,1533.9z
				 M2421,1433.5c1.8,27.4,3.7,57.6,5.7,89.9l63.9-43.1L2421,1433.5L2421,1433.5z M2648.8,1480.4l-79.1-53.3v106.6L2648.8,1480.4z
				 M2807,1480.4l-79.1-53.3v106.6L2807,1480.4z M2965.2,1480.4l-79.1-53.3v106.6L2965.2,1480.4z M3123.4,1480.4l-79.1-53.3v106.6
				L3123.4,1480.4z M3281.7,1480.4l-79.1-53.3v106.6L3281.7,1480.4z M3439.9,1480.4l-79.1-53.3v106.6L3439.9,1480.4z M3598.1,1480.4
				l-79.1-53.3v106.6L3598.1,1480.4z M3756.3,1480.4l-79.1-53.3v106.6L3756.3,1480.4z M3914.6,1480.4l-79.1-53.3v106.6
				L3914.6,1480.4z M3993.7,1533.7l76-51.2c0.1-1.3,0.2-2.7,0.3-4l-76.3-51.4V1533.7z"/>
		</g>
		<g>
			<path style="fill:#3D404D;" d="M492.4,1533.9l-79.1-53.3v106.6L492.4,1533.9z M650.6,1533.9l-79.1-53.3v106.6L650.6,1533.9z
				 M808.9,1533.9l-79.1-53.3v106.6L808.9,1533.9z M967.1,1533.9l-79.1-53.3v106.6L967.1,1533.9z M1125.3,1533.9l-79.1-53.3v106.6
				L1125.3,1533.9z M1283.6,1533.9l-79.2-53.3v106.6L1283.6,1533.9z M1441.8,1533.9l-79.1-53.3v106.6L1441.8,1533.9z M1600,1533.9
				l-79.1-53.3v106.6L1600,1533.9z M1758.2,1533.9l-79.1-53.3v106.6L1758.2,1533.9z M1916.5,1533.9l-79.2-53.3v106.6L1916.5,1533.9z
				 M2569.7,1533.7l-79.2-53.3V1587L2569.7,1533.7z M2727.9,1533.7l-79.1-53.3V1587L2727.9,1533.7z M2886.1,1533.7l-79.1-53.3V1587
				L2886.1,1533.7z M3044.3,1533.7l-79.1-53.3V1587L3044.3,1533.7z M3202.6,1533.7l-79.2-53.3V1587L3202.6,1533.7z M3360.8,1533.7
				l-79.1-53.3V1587L3360.8,1533.7z M3519,1533.7l-79.1-53.3V1587L3519,1533.7z M3677.2,1533.7l-79.1-53.3V1587L3677.2,1533.7z
				 M3835.5,1533.7l-79.2-53.3V1587L3835.5,1533.7z M3993.7,1533.7l-79.1-53.3V1587L3993.7,1533.7z"/>
		</g>
		<g>
			<path style="fill:#1B2129;" d="M413.3,1587.2v-106.6l-63.8,43c0.4,7,0.9,14.2,1.3,21.5L413.3,1587.2z M571.5,1587.2v-106.6
				l-79.1,53.3L571.5,1587.2z M729.8,1587.2v-106.6l-79.2,53.3L729.8,1587.2z M888,1587.2v-106.6l-79.1,53.3L888,1587.2z
				 M1046.2,1587.2v-106.6l-79.1,53.3L1046.2,1587.2z M1204.4,1587.2v-106.6l-79.1,53.3L1204.4,1587.2z M1362.7,1587.2v-106.6
				l-79.1,53.3L1362.7,1587.2z M1520.9,1587.2v-106.6l-79.1,53.3L1520.9,1587.2z M1679.1,1587.2v-106.6l-79.1,53.3L1679.1,1587.2z
				 M1837.3,1587.2v-106.6l-79.1,53.3L1837.3,1587.2z M1986.5,1581.1c2-35,4.1-68,6-98.5l-76.1,51.3L1986.5,1581.1z M2490.5,1587
				v-106.6l-63.9,43.1c0.4,7,0.8,14.1,1.3,21.3L2490.5,1587L2490.5,1587z M2648.8,1587v-106.6l-79.1,53.3L2648.8,1587z M2807,1587
				v-106.6l-79.1,53.3L2807,1587z M2965.2,1587v-106.6l-79.1,53.3L2965.2,1587z M3123.4,1587v-106.6l-79.1,53.3L3123.4,1587z
				 M3281.7,1587v-106.6l-79.1,53.3L3281.7,1587z M3439.9,1587v-106.6l-79.1,53.3L3439.9,1587z M3598.1,1587v-106.6l-79.1,53.3
				L3598.1,1587z M3756.3,1587v-106.6l-79.1,53.3L3756.3,1587z M3914.6,1587v-106.6l-79.1,53.3L3914.6,1587z M4063.8,1581
				c2-34.8,4-67.9,5.9-98.5l-76,51.2L4063.8,1581z"/>
		</g>
	</g>
</g>
</svg>
