<?xml version="1.0" encoding="utf-8"?>
<!-- Generator: Adobe Illustrator 28.0.0, SVG Export Plug-In . SVG Version: 6.00 Build 0)  -->
<svg version="1.1" id="Layer_1" xmlns="http://www.w3.org/2000/svg" xmlns:xlink="http://www.w3.org/1999/xlink" x="0px" y="0px"
	 viewBox="0 0 4142.9 2927.1" style="enable-background:new 0 0 4142.9 2927.1;" xml:space="preserve">
<g id="Jersey_00000178918382477848205980000014039090725350192004_">
	<g id="Color_2_00000119827207184775886030000012494797607183382206_">
		<path style="fill:#F4F4F4;" d="M521.6,1000.7l79.1-53.3l79.1,53.3l79.1-53.3l79.1,53.3l79.2-53.3l79.1,53.3l79.1-53.3l79.1,53.3
			l79.1-53.3l79.1,53.3l79.1-53.3l79.1,53.3l79.1-53.3l79.1,53.3l11.5-7.8c-17-92.7-16.3-187.8-8.3-281.4
			c6.7-79.8,19.4-159.1,36.2-237.3c7.3-35.1,16.2-70.2,25.5-104.8c2.9-11.2,6.8-24.2,9.9-35.4c1.8-5.5,2.9-11.7,5.6-16.9
			c-35.6-15.2-136-57.2-203.7-86.5c-5.7,49.6-30.4,95.3-51.5,139.9c-96.4,188.4-221.3,364.2-408,453.2c-0.1-0.1-5.7,2.9-5.8,2.9
			c-0.1,0-5.6-3-5.8-2.9c-186.7-89.1-311.6-264.8-408-453.2c-21.1-44.6-45.8-90.5-51.5-140c-67.8,29.2-168.1,71.2-203.7,86.5
			c2.6,5.2,3.8,11.4,5.6,16.9c3.1,11.2,7,24.2,9.9,35.4c9.3,34.6,18.2,69.7,25.5,104.8c15.6,72.4,27.4,145.8,34.7,219.6
			c7.9,85.3,10.4,171.5-0.2,256.7L521.6,1000.7L521.6,1000.7z M2519.7,947.3l79.1,53.3l79.1-53.3l79.1,53.3l79.1-53.3l79.1,53.3
			l79.1-53.3l79.1,53.3l79.1-53.3l79.1,53.3l79.1-53.3l79.1,53.3l79.1-53.3l79.1,53.3l79.1-53.3l79.1,53.3l24.3-16.4
			c-20.2-119.6-7.8-247.7,2.9-360.7c8.5-102.7,25.9-212.1,55.2-312.1v-0.1c0.2-0.1,0.3-0.2,0.5-0.3c-48.2-20.6-196.3-83.5-249-105.9
			c-26.7,22.9-60.4,37.6-93.6,49c-29.4,9.6-59.9,15.6-90.8,17.6c-25.6,1.2-51.3,1.8-77.1,2.6c-67.1,1.5-136.5,1.9-203.7,1.6
			c0.2,0.1,0.6,0.1,0.9,0.1h-0.4l-5.7-0.1c-63-0.4-126.4-1.5-189.2-4.1c-0.1,0-1.6-0.1-1.7-0.1c-10.1-0.6-19.8-1.8-29.8-3.2
			c-20.4-3.1-40.6-7.9-60.1-14.3h-0.1c-33.6-11.1-66.7-26.1-94.2-48.7c-52.4,22.2-199.9,84.8-248.8,105.6c0.1,0,0.2,0.1,0.3,0.1
			c13.7,44.7,24.1,93.8,32.9,139.8c0.4,2,0.7,4.1,1.1,6.1c0.7,3.5,1.2,6.9,1.9,10.4c11.4,62.5,16.8,124.2,22.2,185.1
			c8.8,92.7,17.5,200.5,4.5,301.8L2519.7,947.3L2519.7,947.3z"/>
		<path id="Trim_00000123442452942813946210000003210102662532370579_" style="fill:#F4F4F4;" d="M575.9,234.3
			c7.6,48.2,30.4,92.9,51.4,136.4c96.4,188.4,221.3,364.2,408,453.2c0.1-0.1,5.7,2.9,5.8,2.9c0.1,0,5.6-3,5.8-2.9
			c186.7-89.1,311.6-264.8,408-453.2c21-43.5,43.9-88.2,51.4-136.3c1.2-4.6-1.8-8.3-5.9-10c-5.9-3.7-12.1-7.1-18.3-10.4
			c-16-11.2-41.8-16.9-49.8-14.6c-0.3-0.7-244.2,31.3-391.3,28.9c-147.5,1.6-391.1-28.7-391.4-28.9c-8.4-2.3-34.1,3.7-50,14.8
			c-6.1,3.4-12.3,6.6-18.2,10.3C577.3,226.3,574.6,229.6,575.9,234.3L575.9,234.3z M649.5,257.6c133.3,15.7,268.4,29.3,402.4,28.3
			c129.8-0.5,259.1-14.3,387.6-29.3c-4,20.5-14,39.4-23.1,60c-83.2,173-205.9,357.7-375.4,444.8c-1.5-0.6-4.9-2.3-6.4-3
			c-169.2-87.1-324.8-317.8-391.3-498.5c-0.2-1.1-0.4-2-0.6-3.3C646.3,257.2,649.5,257.6,649.5,257.6z M205.6,1301.7
			c0.3,0,0.6-0.1,0.8-0.1c35.6-10.5,69.5-28.9,98.6-52c2.5-1.9,5.6-4.5,8-6.6c194.1-166.3,147.6-543.5,100.2-768.8
			C403,426,390.5,378,376.8,330.6l-1.7-5.8c-0.1-0.5-0.3-1-0.4-1.4l-0.3-1.1c-0.1-0.4-0.2-0.7-0.9-2.3c-0.5-0.8-0.7-2.2-1.3-2.9
			c-1.2-1.5-3.4-0.9-6-0.1L330,330.9c-0.6,0.2-1.1,0.4-1.6,0.6l-5.9,2.2c-3.2,1-4.7,2.3-3.7,5.5c8.3,26.9,43.7,145.7,64.8,289.3
			c22.5,178.3,47.6,451.4-114.5,573.2c-16.2,11.4-33.9,20.6-52.2,28.1c-5.5,2.1-11,4.4-16.6,6.4c-1,0.4-2.1,0.6-2.3,1.7
			c0.7,16.4,2.6,32.7,4.2,48.9c0.7,4.9,0.5,10.5,2.2,15C204.8,1301.7,205.2,1301.7,205.6,1301.7L205.6,1301.7z M1884.1,1237.2
			c-321.7-107.8-177.5-701.7-120.3-897.9c2.2-5.4-6.3-5.9-9.6-7.7c-0.5-0.2-1-0.4-1.6-0.6l-36.2-13.9c-4.4-1.3-6.1-1.3-7.3,3
			c-1.3,3-2.3,7.6-3.3,10.6c-2.4,8.4-5.6,19.3-7.9,27.7c-10.4,38.3-20.4,77.1-28.5,115.9c-43.9,208.9-81.4,516.9,41.9,702.9v0.1
			c16.2,24.4,35.7,46.7,58.1,65.5c31,26.3,67.8,47.1,106.7,58.6c0.2,0.1,0.6,0.1,0.9,0.1c3,0.8,2.4-13.7,3.3-16.4
			c1.4-15.7,3.4-31.4,4-47.4C1884.6,1237.9,1884.3,1237.4,1884.1,1237.2L1884.1,1237.2z M2696.3,206.9
			c27.6,21.5,59.7,36.6,92.8,47.3c19.7,6.3,39.8,11.3,60.2,14.3c10,1.4,19.7,2.6,29.8,3.2c0.1,0,1.6,0.1,1.7,0.1
			c62.8,2.6,126.2,3.7,189.2,4.1l5.7,0.1h0.4c-0.3,0-0.7,0-0.9-0.1c67.2,0.3,136.6-0.1,203.7-1.6c25.8-0.8,51.5-1.4,77.1-2.6
			c30.9-2.1,61.4-8,90.8-17.6c33.3-11.2,66.1-26.3,93.5-48.6c1.5-5.2-21.2-10.5-25.1-12.6c-10.1-3.4-24.7-7.8-35.2-10.5
			c-11.1-3.7-43.2,11.4-79.3,18.4c-79.1,18.1-160.9,17.6-241.6,17.6c-88.8-0.5-185,3.6-272.7-8.3c-25.8-1.8-110.6-23.3-119.6-27.9
			c-11.2-2.6-26.8,5.1-37.7,7.7C2725,191.8,2686.5,201.4,2696.3,206.9L2696.3,206.9z M2282.5,1302.6c0.2-0.1,0.4-0.1,0.6-0.2
			c4.4-2.1,9-4.3,13.4-6.6c53.1-31.7,101.9-72.8,138.6-122.7c125.8-191.1,74.9-485.3,47.2-705.3c-0.7-3.5-1.2-6.9-1.9-10.4
			c-0.4-2-0.7-4.1-1.1-6.1c-8.7-46-19.2-95.1-32.9-139.8c-0.1,0-0.2-0.1-0.3-0.1c-3.7,0.1-17.8,5.4-23.6,7.2
			c-8.2,2.7-15.8,5.4-24,7.8c-1.4,0.4-4.9,1.2-5.7,2.7c39.2,149.4,58,306.5,62.9,461.5c7.8,147.3-7,323.7-137.1,416.5
			c-13,9.9-26.3,18.6-40.1,27.3c-2.1,1.4-3.4,3.8-3.1,6.3c0.9,13.4,3.2,42.7,5,57.8c0.3,2,0.3,4,2,3.9L2282.5,1302.6L2282.5,1302.6z
			 M3956.8,1234.2c-161.6-87-187.8-276.9-177.2-443.8c4.9-155,23.7-312,62.9-461.5c-0.8-1.5-4.2-2.3-5.7-2.7c-8.2-2.4-16-5.1-24-7.8
			c-5.9-1.3-20.3-8.2-24-7c-0.1,0-0.1,0.1-0.2,0.1c-28.9,100.3-46.7,209.3-55,312c-18.1,158.8-30.4,395.3,53.6,529
			c0,0,0,0.2,0.1,0.2c9.3,14.9,19.3,29.5,30.8,42.7c38.2,42.3,82.9,81.7,134.6,106.7c3.8,1.3,3-15.3,4.1-20.6
			C3956.7,1270.2,3964,1237.2,3956.8,1234.2L3956.8,1234.2z"/>
	</g>
	<g id="Color_1">
		<path style="fill:#000008;" d="M1708.3,1587.2l-79.1-53.3l-79.1,53.3l-79.1-53.3l-79.1,53.3l-79.1-53.3l-79.1,53.3l-79.1-53.3
			l-79.1,53.3l-79.1-53.3l-79.1,53.3l-79.1-53.3l-79.1,53.3l-79.1-53.3l-79.1,53.3l-79.1-53.3l-79.1,53.3l-79.1-53.3l-79.1,53.3
			l-62.5-42.1c24.3,375.6,35.8,766.2-15.1,1137.9c-1.9,13.9,13.3,16.9,23.8,19.1c23.1,5.8,50,11.3,74,14.9v-0.3v0.2
			c12.2,1.9,24.1,3.4,35.6,4.7c10.5,1.2,20.6,2.1,30.5,2.8c0,0,638,44.5,1340.3,0v-2v2c9.8-0.7,20.1-1.7,30.5-2.8
			c11.5-1.3,23.4-2.8,35.6-4.7c24.2-3.6,50.7-9.1,74-14.9c11.6-1.8,25.5-7.1,23.5-21.4c-48.8-363.6-40.3-726.9-16.9-1099.6
			l-70.1-47.2L1708.3,1587.2L1708.3,1587.2z M3785.5,1587l-79.1-53.3l-79.1,53.3l-79.1-53.3l-79.1,53.3l-79.1-53.3l-79.1,53.3
			l-79.1-53.3l-79.1,53.3l-79.1-53.3l-79.1,53.3l-79.1-53.3l-79.1,53.3l-79.1-53.3l-79.1,53.3l-79.1-53.3l-79.1,53.3l-79.1-53.3
			l-79.1,53.3l-62.6-42.2c23.7,379.8,34.7,762.2-15.7,1134.3c-2,14.1,11.9,19.6,23.5,21.4c23.1,6,50,11.3,74.1,15v-0.3
			c12.2,1.9,24,3.5,35.5,4.8v0.1c9.2,1.1,18,1.9,26.7,2.6v0.2c687.1,44.5,1344.3,0,1344.3,0c1.9-0.1,3.8-0.3,5.6-0.4h-0.3
			c30.8-2.4,61.7-6.9,92.6-12.7c15.3-3,30-6.2,44-9.7c11.7-1.7,26-7.2,23.9-21.5c-49.2-364.8-41.1-720.1-18.2-1097.6l-70.2-47.3
			L3785.5,1587L3785.5,1587z"/>
	</g>
	<path id="Inside_00000174601529896831091220000007157902962274673542_" style="fill:#F0F0F0;" d="M643.8,260.1
		c66.8,181.4,222,411,391.7,498.9c1.5,0.7,4.9,2.4,6.4,3c169.6-87.1,292.2-271.8,375.4-444.8c9.1-20.7,19-39.5,23.1-60
		c-128.6,15-257.8,28.8-387.6,29.3c-136.4,1-273.5-13-409.2-29.1c0.1,0.9,0.2,1.7,0.4,2.4L643.8,260.1L643.8,260.1z"/>
	<g id="Color_Set_00000173880812900646548360000009440056607834757529_">
		<path style="fill:#A1D9F6;" d="M442.5,1054.1v-71.7c-3.5,21-8,41.8-13.5,62.4L442.5,1054.1z M600.8,1054.1V947.4l-79.2,53.3
			L600.8,1054.1z M759,1054.1V947.4l-79.1,53.3L759,1054.1z M917.2,1054.1V947.4l-79.1,53.3L917.2,1054.1z M1075.4,1054.1V947.4
			l-79.1,53.3L1075.4,1054.1z M1233.7,1054.1V947.4l-79.1,53.3L1233.7,1054.1z M1391.9,1054.1V947.4l-79.1,53.3L1391.9,1054.1z
			 M1550.1,1054.1V947.4l-79.1,53.3L1550.1,1054.1z M1644.3,1010.9c-0.1-0.6-0.2-1.1-0.4-1.7c-0.4-1.8-0.7-3.6-1.1-5.4v-0.2
			c-0.4-1.9-0.8-3.8-1.1-5.7l-0.9-4.8l-11.5,7.8L1644.3,1010.9L1644.3,1010.9z M2519.7,1053.9V947.3l-10.7,7.2
			c-3.6,29.3-8.5,56.7-14.8,82.2L2519.7,1053.9L2519.7,1053.9z M2677.9,1053.9V947.3l-79.1,53.3L2677.9,1053.9z M2836.1,1053.9
			V947.3l-79.1,53.3L2836.1,1053.9z M2994.3,1053.9V947.3l-79.1,53.3L2994.3,1053.9z M3152.6,1053.9V947.3l-79.1,53.3L3152.6,1053.9
			z M3310.8,1053.9V947.3l-79.1,53.3L3310.8,1053.9z M3469,1053.9V947.3l-79.1,53.3L3469,1053.9z M3627.2,1053.9V947.3l-79.1,53.3
			L3627.2,1053.9z M3737.8,1021.8c-2.7-12.1-5.1-24.6-7.1-37.5l-24.3,16.4L3737.8,1021.8L3737.8,1021.8z"/>
		<path style="fill:#80C1EA;" d="M442.5,1054.1l79.1-53.3l-74.4-50.2c-1.2,10.1-2.9,20.1-4.4,30.2
			C442,982.2,442.8,1052.5,442.5,1054.1L442.5,1054.1z M600.8,1054.1l79.1-53.4l-79.1-53.3V1054.1z M759,1054.1l79.1-53.4L759,947.4
			V1054.1z M917.2,1054.1l79.1-53.4l-79.1-53.3V1054.1z M1075.4,1054.1l79.2-53.4l-79.2-53.3V1054.1z M1233.7,1054.1l79.1-53.4
			l-79.1-53.3V1054.1z M1391.9,1054.1l79.1-53.4l-79.1-53.3V1054.1z M1550.1,1054.1l79.1-53.4l-79.1-53.3V1054.1z M2598.8,1000.6
			l-79.1-53.3v106.6L2598.8,1000.6z M2677.9,1053.9l79.1-53.3l-79.1-53.3V1053.9z M2836.1,1053.9l79.1-53.3l-79.1-53.3V1053.9z
			 M2994.3,1053.9l79.2-53.3l-79.2-53.3V1053.9z M3152.6,1053.9l79.1-53.3l-79.1-53.3V1053.9z M3310.8,1053.9l79.1-53.3l-79.1-53.3
			V1053.9z M3469,1053.9l79.1-53.3l-79.1-53.3V1053.9z M3627.2,1053.9l79.2-53.3l-79.2-53.3V1053.9z"/>
		<g>
			<path style="fill:#BBC9DB;" d="M428.9,1044.9c-2,7.6-4.2,15.3-6.6,22.8l20.3-13.7L428.9,1044.9L428.9,1044.9z M521.6,1000.8
				v106.6l79.2-53.3L521.6,1000.8z M679.9,1000.8v106.6l79.1-53.3L679.9,1000.8z M838.1,1000.8v106.6l79.1-53.3L838.1,1000.8z
				 M996.3,1000.8v106.6l79.1-53.3L996.3,1000.8z M1154.6,1000.8v106.6l79.1-53.3L1154.6,1000.8z M1312.8,1000.8v106.6l79.1-53.3
				L1312.8,1000.8z M1471,1000.8v106.6l79.1-53.3L1471,1000.8z M1629.2,1107.4l35.3-23.8c-8.4-23.7-14.8-48.1-20-72.7l-15.1-10.2
				v106.7H1629.2L1629.2,1107.4z M2494.1,1036.7c-3.7,15-7.9,29.3-12.5,42.9l38.1-25.7L2494.1,1036.7L2494.1,1036.7z M2598.8,1000.6
				v106.6l79.1-53.3L2598.8,1000.6z M2757,1000.6v106.6l79.1-53.3L2757,1000.6z M2915.2,1000.6v106.6l79.1-53.3L2915.2,1000.6z
				 M3073.5,1000.6v106.6l79.1-53.3L3073.5,1000.6z M3231.7,1000.6v106.6l79.1-53.3L3231.7,1000.6z M3389.9,1000.6v106.6l79.1-53.3
				L3389.9,1000.6z M3548.1,1000.6v106.6l79.1-53.3L3548.1,1000.6z M3706.4,1107.2l46.3-31.2c-5.7-17-10.6-35.1-14.8-54.3
				l-31.4-21.2v106.7H3706.4z"/>
		</g>
		<g>
			<path style="fill:#D9E1F2;" d="M521.6,1107.4v-106.7l-79.1,53.4L521.6,1107.4z M600.8,1054.1l79.1,53.3v-106.7L600.8,1054.1z
				 M759,1054.1l79.1,53.3v-106.7L759,1054.1z M917.2,1054.1l79.1,53.3v-106.7L917.2,1054.1z M1075.4,1054.1l79.2,53.3v-106.7
				L1075.4,1054.1z M1233.7,1054.1l79.1,53.3v-106.7L1233.7,1054.1z M1391.9,1054.1l79.1,53.3v-106.7L1391.9,1054.1z M1550.1,1054.1
				l79.1,53.3v-106.7L1550.1,1054.1z M2598.8,1107.2v-106.6l-79.1,53.3L2598.8,1107.2z M2677.9,1053.9l79.1,53.3v-106.6
				L2677.9,1053.9z M2836.1,1053.9l79.1,53.3v-106.6L2836.1,1053.9z M2994.3,1053.9l79.2,53.3v-106.6L2994.3,1053.9z M3152.6,1053.9
				l79.1,53.3v-106.6L3152.6,1053.9z M3310.8,1053.9l79.1,53.3v-106.6L3310.8,1053.9z M3469,1053.9l79.1,53.3v-106.6L3469,1053.9z
				 M3627.2,1053.9l79.2,53.3v-106.6L3627.2,1053.9z"/>
		</g>
		<g>
			<path style="fill:#DD76AF;" d="M442.5,1160.7v-106.6l-20.3,13.6c-6.8,21.4-14.9,42.4-24.8,62.5L442.5,1160.7z M600.8,1160.7
				v-106.6l-79.2,53.3L600.8,1160.7z M759,1160.7v-106.6l-79.1,53.3L759,1160.7z M917.2,1160.7v-106.6l-79.1,53.3L917.2,1160.7z
				 M1075.4,1160.7v-106.6l-79.1,53.3L1075.4,1160.7z M1233.7,1160.7v-106.6l-79.1,53.3L1233.7,1160.7z M1391.9,1160.7v-106.6
				l-79.1,53.3L1391.9,1160.7z M1550.1,1160.7v-106.6l-79.1,53.3L1550.1,1160.7z M1695.1,1151.8c-12.2-21.7-22.2-44.7-30.6-68.1
				l-35.3,23.7L1695.1,1151.8z M2519.7,1160.5v-106.6l-38.1,25.7c-5.3,15.4-11.1,29.9-17.6,43.5L2519.7,1160.5L2519.7,1160.5z
				 M2677.9,1160.5v-106.6l-79.1,53.3L2677.9,1160.5z M2836.1,1160.5v-106.6l-79.1,53.3L2836.1,1160.5z M2994.3,1160.5v-106.6
				l-79.1,53.3L2994.3,1160.5z M3152.6,1160.5v-106.6l-79.1,53.3L3152.6,1160.5z M3310.8,1160.5v-106.6l-79.1,53.3L3310.8,1160.5z
				 M3469,1160.5v-106.6l-79.1,53.3L3469,1160.5z M3627.2,1160.5v-106.6l-79.1,53.3L3627.2,1160.5z M3785.5,1160.5v-10.8l-0.9-1.5
				c-1.3-2.3-2.6-4.6-3.8-6.8c-10.8-19.7-20.2-41.5-28.1-65.4l-46.3,31.2L3785.5,1160.5L3785.5,1160.5z"/>
		</g>
		<g>
			<path style="fill:#BA5086;" d="M442.5,1054.1v106.6l79.1-53.3L442.5,1054.1z M600.8,1160.7l79.1-53.3l-79.1-53.3V1160.7z
				 M759,1160.7l79.1-53.3l-79.1-53.3V1160.7z M917.2,1160.7l79.1-53.3l-79.1-53.3V1160.7z M1075.4,1160.7l79.2-53.3l-79.2-53.3
				V1160.7z M1233.7,1160.7l79.1-53.3l-79.1-53.3V1160.7z M1391.9,1160.7l79.1-53.3l-79.1-53.3V1160.7z M1550.1,1054.1v106.6
				l79.1-53.3L1550.1,1054.1z M2519.7,1053.9v106.6l79.1-53.3L2519.7,1053.9z M2677.9,1160.5l79.1-53.3l-79.1-53.3V1160.5z
				 M2836.1,1160.5l79.1-53.3l-79.1-53.3V1160.5z M2994.3,1160.5l79.2-53.3l-79.2-53.3V1160.5z M3152.6,1160.5l79.1-53.3l-79.1-53.3
				V1160.5z M3310.8,1160.5l79.1-53.3l-79.1-53.3V1160.5z M3469,1160.5l79.1-53.3l-79.1-53.3V1160.5z M3627.2,1053.9v106.6
				l79.2-53.3L3627.2,1053.9z M3785.5,1160.5l4.7-3.2c-0.6-1-1.3-2-1.9-3c-0.3-0.6-0.7-1.1-1-1.6c0,0,0-0.1-0.1-0.1v-0.1
				c-0.6-0.9-1.1-1.9-1.7-2.8V1160.5L3785.5,1160.5z"/>
		</g>
		<g>
			<path style="fill:#BD4F92;" d="M363.4,1214l79.1-53.3l-45-30.4c-9.6,19.9-20.8,38.9-33.7,56.8
				C362.6,1187.3,363.8,1213.4,363.4,1214L363.4,1214z M521.6,1107.4V1214l79.2-53.3L521.6,1107.4z M679.9,1107.4V1214l79.1-53.3
				L679.9,1107.4z M838.1,1107.4V1214l79.1-53.3L838.1,1107.4z M996.3,1107.4V1214l79.1-53.3L996.3,1107.4z M1154.6,1107.4V1214
				l79.1-53.3L1154.6,1107.4z M1312.8,1107.4V1214l79.1-53.3L1312.8,1107.4z M1471,1107.4V1214l79.1-53.3L1471,1107.4z M1629.2,1214
				l73.4-49.5c-0.9-1.5-1.8-2.9-2.7-4.4c-0.9-1.5-1.8-3.1-2.7-4.7c-0.7-1.2-1.4-2.5-2.1-3.7l-65.9-44.3L1629.2,1214L1629.2,1214z
				 M2440.6,1213.8l79.1-53.3l-55.6-37.5c-7,14.6-14.6,28.5-23.5,41.9V1213.8z M2598.8,1107.2v106.6l79.1-53.3L2598.8,1107.2z
				 M2757,1107.2v106.6l79.1-53.3L2757,1107.2z M2915.2,1107.2v106.6l79.1-53.3L2915.2,1107.2z M3073.5,1107.2v106.6l79.1-53.3
				L3073.5,1107.2z M3231.7,1107.2v106.6l79.1-53.3L3231.7,1107.2z M3389.9,1107.2v106.6l79.1-53.3L3389.9,1107.2z M3548.1,1107.2
				v106.6l79.1-53.3L3548.1,1107.2z M3706.4,1107.2v106.6l79.1-53.3L3706.4,1107.2z"/>
		</g>
		<g>
			<path style="fill:#AF4078;" d="M363.4,1214v-26.4c-4.3,5.9-8.7,11.8-13.5,17.4L363.4,1214z M521.6,1214v-106.6l-79.1,53.3
				L521.6,1214z M600.8,1160.7l79.1,53.3v-106.6L600.8,1160.7z M759,1160.7l79.1,53.3v-106.6L759,1160.7z M917.2,1160.7l79.1,53.3
				v-106.6L917.2,1160.7z M1075.4,1160.7l79.2,53.3v-106.6L1075.4,1160.7z M1233.7,1160.7l79.1,53.3v-106.6L1233.7,1160.7z
				 M1391.9,1160.7l79.1,53.3v-106.6L1391.9,1160.7z M1550.1,1160.7l79.1,53.3v-106.6L1550.1,1160.7z M2440.6,1213.8v-48.9
				c-7.6,11.3-15.7,22-24.7,32.2L2440.6,1213.8L2440.6,1213.8z M2598.8,1213.8v-106.6l-79.1,53.3L2598.8,1213.8z M2677.9,1160.5
				l79.1,53.3v-106.6L2677.9,1160.5z M2836.1,1160.5l79.1,53.3v-106.6L2836.1,1160.5z M2994.3,1160.5l79.2,53.3v-106.6
				L2994.3,1160.5z M3152.6,1160.5l79.1,53.3v-106.6L3152.6,1160.5z M3310.8,1160.5l79.1,53.3v-106.6L3310.8,1160.5z M3469,1160.5
				l79.1,53.3v-106.6L3469,1160.5z M3627.2,1160.5l79.2,53.3v-106.6L3627.2,1160.5z M3785.5,1160.5l12.1,8.2
				c-2.6-3.7-5-7.5-7.4-11.4L3785.5,1160.5L3785.5,1160.5z"/>
		</g>
		<g>
			<path style="fill:#A73D7B;" d="M284.3,1267.3v-3.2c-0.5,0.3-1,0.7-1.5,1l-0.9,0.6L284.3,1267.3z M442.5,1267.3v-106.6l-79.1,53.3
				l23.9,16.1L442.5,1267.3z M600.8,1267.3v-106.6l-79.2,53.3l23.9,16.1L600.8,1267.3z M759,1160.7l-79.1,53.3l23.8,16.1l55.3,37.2
				V1160.7z M917.2,1160.7l-79.1,53.3l23.8,16.1l55.3,37.2V1160.7z M1075.4,1160.7l-79.1,53.3l23.9,16.1l55.2,37.2V1160.7z
				 M1233.7,1160.7l-79.1,53.3l23.8,16.1l55.3,37.2L1233.7,1160.7z M1391.9,1160.7l-79.1,53.3l23.8,16.1l55.3,37.2L1391.9,1160.7z
				 M1471,1214l23.8,16.1l55.3,37.2v-106.6L1471,1214z M1653.1,1230.1l55.3,37.2v-93.7c-1.9-3-3.7-5.7-5.7-8.9
				c0-0.1-0.1-0.1-0.1-0.2l-73.4,49.5L1653.1,1230.1L1653.1,1230.1z M2361.4,1267.2v-17.5c-2.5,2.1-5,4.2-7.5,6.2
				c-1.4,1.1-2.8,2.3-4.3,3.4L2361.4,1267.2z M2519.7,1267.2v-106.7l-79.1,53.3l23.8,16.1L2519.7,1267.2z M2677.9,1267.2v-106.7
				l-79.1,53.3l23.8,16.1L2677.9,1267.2z M2836.1,1160.5l-79.1,53.3l23.8,16.1l55.3,37.3V1160.5z M2994.3,1160.5l-79.1,53.3
				l23.9,16.1l55.2,37.3L2994.3,1160.5z M3152.6,1160.5l-79.1,53.3l23.8,16.1l55.3,37.3V1160.5z M3310.8,1160.5l-79.1,53.3
				l23.8,16.1l55.3,37.3V1160.5z M3469,1160.5l-79.1,53.3l23.8,16.1l55.3,37.3V1160.5z M3548.1,1213.8l23.9,16.1l55.2,37.3v-106.7
				L3548.1,1213.8z M3706.4,1213.8l23.8,16.1l55.3,37.3v-106.7L3706.4,1213.8z"/>
		</g>
		<g>
			<path style="fill:#5E1E52;" d="M284.3,1267.3l79.1-53.3l-13.5-9.1c-11.4,13.6-23.9,26.5-37.6,37.9c-2.5,2.1-5.4,4.6-8,6.6
				c-6.4,5.1-13.1,10.2-20,14.6V1267.3z M442.5,1267.3l79.1-53.3l-79.1-53.3V1267.3z M600.8,1160.7v106.6l79.1-53.3L600.8,1160.7z
				 M759,1160.7v106.6l79.1-53.3L759,1160.7z M917.2,1160.7v106.6l79.1-53.3L917.2,1160.7z M1075.4,1160.7v106.6l79.2-53.3
				L1075.4,1160.7z M1233.7,1160.7v106.6l79.1-53.3L1233.7,1160.7z M1391.9,1160.7v106.6l79.1-53.3L1391.9,1160.7z M1550.1,1160.7
				v106.6l79.1-53.3L1550.1,1160.7z M1708.3,1267.3l50.2-33.8c-18.1-16.7-33.9-35.7-47.6-56.2v-0.1c-0.9-1.3-1.7-2.5-2.5-3.8
				L1708.3,1267.3z M2361.4,1267.2l79.1-53.3l-24.7-16.6c-16.6,18.9-35,36.1-54.4,52.4L2361.4,1267.2L2361.4,1267.2z M2519.7,1267.2
				l79.1-53.4l-79.1-53.3V1267.2z M2677.9,1160.5v106.7l79.1-53.4L2677.9,1160.5z M2836.1,1160.5v106.7l79.1-53.4L2836.1,1160.5z
				 M2994.3,1160.5v106.7l79.2-53.4L2994.3,1160.5z M3152.6,1160.5v106.7l79.1-53.4L3152.6,1160.5z M3310.8,1160.5v106.7l79.1-53.4
				L3310.8,1160.5z M3469,1160.5v106.7l79.1-53.4L3469,1160.5z M3627.2,1267.2l79.2-53.4l-79.2-53.3V1267.2z M3785.5,1267.2
				l61.5-41.4c-10.7-10.2-19.5-19.3-29-30.3c-7.3-8.4-14-17.6-20.4-26.7l-12.1-8.2V1267.2z"/>
		</g>
		<g>
			<path style="fill:#652866;" d="M281.9,1265.7c-23.5,15.1-49.3,28-76.1,35.7c-0.2,0-0.4,0.1-0.6,0.1c-0.1,6.1,0.6,11.2,1.2,18.2
				l77.9-52.5L281.9,1265.7L281.9,1265.7z M387.3,1230.1l-23.9-16.1v106.6l79.1-53.3L387.3,1230.1z M545.5,1230.1l-23.9-16.1v106.6
				l79.2-53.3L545.5,1230.1z M703.7,1230.1l-23.8-16.1v106.6l79.1-53.3L703.7,1230.1z M861.9,1230.1l-23.8-16.1v106.6l79.1-53.3
				L861.9,1230.1z M1020.2,1230.1l-23.9-16.1v106.6l79.1-53.3L1020.2,1230.1z M1178.4,1230.1l-23.8-16.1v106.6l79.1-53.3
				L1178.4,1230.1z M1336.6,1230.1l-23.8-16.1v106.6l79.1-53.3L1336.6,1230.1z M1494.8,1230.1L1471,1214v106.6l79.1-53.3
				L1494.8,1230.1z M1653.1,1230.1l-23.9-16.1v106.6l79.1-53.3L1653.1,1230.1z M1787.5,1320.6l50.1-33.8
				c-17.6-8.2-34.4-18.1-50.2-29.5L1787.5,1320.6z M2349.7,1259.2c-16.9,13.3-34.6,25.5-53.2,36.3c-4.6,2.4-9.3,4.7-14,6.8h-0.1
				c0.3,5.3,0.9,11,1.4,17.4l77.7-52.4L2349.7,1259.2L2349.7,1259.2z M2464.4,1229.9l-23.8-16.1v106.7l79.1-53.3L2464.4,1229.9z
				 M2622.6,1229.9l-23.8-16.1v106.7l79.1-53.3L2622.6,1229.9z M2780.8,1229.9l-23.8-16.1v106.7l79.1-53.3L2780.8,1229.9z
				 M2939.1,1229.9l-23.9-16.1v106.7l79.1-53.3L2939.1,1229.9z M3097.3,1229.9l-23.8-16.1v106.7l79.1-53.3L3097.3,1229.9z
				 M3255.5,1229.9l-23.8-16.1v106.7l79.1-53.3L3255.5,1229.9z M3413.7,1229.9l-23.8-16.1v106.7l79.1-53.3L3413.7,1229.9z
				 M3572,1229.9l-23.9-16.1v106.7l79.1-53.3L3572,1229.9z M3730.2,1229.9l-23.8-16.1v106.7l79.1-53.3L3730.2,1229.9z
				 M3864.6,1320.5l54.7-36.9c-19.3-12.5-37.5-26.6-54.8-41.8L3864.6,1320.5L3864.6,1320.5z"/>
		</g>
		<g>
			<path style="fill:#1F1437;" d="M363.4,1320.6V1214l-79.1,53.3L363.4,1320.6z M521.6,1214l-79.1,53.3l79.1,53.3V1214z M679.9,1214
				l-79.1,53.3l79.1,53.3V1214z M838.1,1214l-79.1,53.3l79.1,53.3V1214z M996.3,1214l-79.1,53.3l79.1,53.3V1214z M1154.6,1214
				l-79.2,53.3l79.2,53.3V1214z M1312.8,1214l-79.1,53.3l79.1,53.3V1214z M1471,1214l-79.1,53.3l79.1,53.3V1214z M1550.1,1267.3
				l79.1,53.3V1214L1550.1,1267.3z M1708.3,1267.3l79.1,53.3v-63.2c-6.3-4.7-12.5-9.5-18.5-14.6c-3.5-3.1-7.1-6-10.5-9.3
				L1708.3,1267.3L1708.3,1267.3z M2440.6,1320.5v-106.7l-79.2,53.4L2440.6,1320.5z M2598.8,1213.8l-79.1,53.4l79.1,53.3V1213.8z
				 M2757,1213.8l-79.1,53.4l79.1,53.3V1213.8z M2915.2,1213.8l-79.1,53.4l79.1,53.3V1213.8z M3073.5,1213.8l-79.2,53.4l79.2,53.3
				V1213.8z M3231.7,1213.8l-79.1,53.4l79.1,53.3V1213.8z M3389.9,1213.8l-79.1,53.4l79.1,53.3V1213.8z M3548.1,1213.8l-79.1,53.4
				l79.1,53.3V1213.8z M3706.4,1213.8l-79.2,53.4l79.2,53.3V1213.8z M3785.5,1267.2l79.1,53.3v-78.8c-6.3-5.5-11.9-10.5-17.6-16
				L3785.5,1267.2z"/>
		</g>
		<g>
			<path style="fill:#272655;" d="M284.3,1373.9v-106.6l-77.9,52.5c0,0.5,0.1,1.1,0.1,1.7l5.1,3.4L284.3,1373.9L284.3,1373.9z
				 M442.5,1373.9v-106.6l-79.1,53.3l6.4,4.3L442.5,1373.9z M600.8,1267.3l-79.2,53.3l6.4,4.3l72.8,49V1267.3z M759,1267.3
				l-79.1,53.3l6.4,4.3l72.7,49L759,1267.3z M917.2,1267.3l-79.1,53.3l6.4,4.3l72.7,49V1267.3z M1075.4,1267.3l-79.1,53.3l6.4,4.3
				l72.7,49V1267.3z M1233.7,1267.3l-79.1,53.3l6.3,4.3l72.8,49L1233.7,1267.3z M1391.9,1267.3l-79.1,53.3l6.4,4.3l72.7,49V1267.3z
				 M1550.1,1267.3l-79.1,53.3l6.4,4.3l72.7,49V1267.3z M1629.2,1320.6l6.4,4.3l72.7,49v-106.6L1629.2,1320.6z M1793.8,1324.9
				l72.7,49v-75.2c-9.5-3.3-19.8-7.6-29-11.9l-50.1,33.8L1793.8,1324.9L1793.8,1324.9z M2361.4,1373.8v-106.6l-77.7,52.4
				c0.1,0.7,0.1,1.3,0.2,2l4.8,3.2L2361.4,1373.8z M2519.7,1373.8v-106.6l-79.1,53.3l6.3,4.3L2519.7,1373.8z M2677.9,1267.2
				l-79.1,53.3l6.4,4.3l72.7,49L2677.9,1267.2z M2836.1,1267.2l-79.1,53.3l6.4,4.3l72.7,49L2836.1,1267.2z M2994.3,1267.2
				l-79.1,53.3l6.4,4.3l72.7,49L2994.3,1267.2z M3152.6,1267.2l-79.1,53.3l6.3,4.3l72.8,49V1267.2z M3310.8,1267.2l-79.1,53.3
				l6.4,4.3l72.7,49L3310.8,1267.2z M3469,1267.2l-79.1,53.3l6.4,4.3l72.7,49L3469,1267.2z M3627.2,1267.2l-79.1,53.3l6.4,4.3
				l72.7,49L3627.2,1267.2z M3706.4,1320.5l6.4,4.3l72.7,49v-106.6L3706.4,1320.5z M3871,1324.8l72.7,49v-75.7
				c-8.4-4.2-16.4-9.4-24.3-14.5l-54.7,36.9L3871,1324.8L3871,1324.8z"/>
		</g>
		<g>
			<path style="fill:#181E24;" d="M284.3,1373.9l79.1-53.3l-79.1-53.3V1373.9z M442.5,1267.3v106.6l79.1-53.3L442.5,1267.3z
				 M600.8,1267.3v106.6l79.1-53.3L600.8,1267.3z M759,1267.3v106.6l79.1-53.3L759,1267.3z M917.2,1267.3v106.6l79.1-53.3
				L917.2,1267.3z M1075.4,1267.3v106.6l79.2-53.3L1075.4,1267.3z M1233.7,1267.3v106.6l79.1-53.3L1233.7,1267.3z M1391.9,1267.3
				v106.6l79.1-53.3L1391.9,1267.3z M1550.1,1267.3v106.6l79.1-53.3L1550.1,1267.3z M1708.3,1373.9l79.2-53.3l-79.2-53.3V1373.9z
				 M1866.6,1373.9l4.6-3.1c2.3-31.3,4.2-55,5.4-69.1h-0.1c-0.3,0-0.6-0.1-0.8-0.1c-1-0.2-1.3-0.3-2.2-0.6c-0.6-0.2-1.1-0.3-2-0.6
				c-0.7-0.2-1.3-0.4-2-0.6c-0.4-0.1-0.8-0.2-1.2-0.4c-0.6-0.2-1.1-0.4-1.7-0.6L1866.6,1373.9L1866.6,1373.9z M2361.4,1373.8
				l79.2-53.3l-79.2-53.3V1373.8z M2519.7,1267.2v106.6l79.1-53.3L2519.7,1267.2z M2677.9,1267.2v106.6l79.1-53.3L2677.9,1267.2z
				 M2836.1,1267.2v106.6l79.1-53.3L2836.1,1267.2z M2994.3,1267.2v106.6l79.2-53.3L2994.3,1267.2z M3152.6,1267.2v106.6l79.1-53.3
				L3152.6,1267.2z M3310.8,1267.2v106.6l79.1-53.3L3310.8,1267.2z M3469,1267.2v106.6l79.1-53.3L3469,1267.2z M3627.2,1267.2v106.6
				l79.2-53.3L3627.2,1267.2z M3785.5,1373.8l79.1-53.3l-79.1-53.3V1373.8z M3943.7,1373.8l4.4-3c2-28.3,3.8-51.6,5.2-68.6
				c-0.3,0-0.6,0.1-0.8-0.1c-3-1.3-5.9-2.7-8.9-4.1v75.8L3943.7,1373.8L3943.7,1373.8z"/>
		</g>
		<g>
			<path style="fill:#437EBB;" d="M211.6,1324.9l-5.1-3.4c1.9,23.3,4.4,57.6,7.3,99.9l70.5-47.5L211.6,1324.9z M369.8,1324.9
				l-6.4-4.3v106.7l79.1-53.4L369.8,1324.9z M528,1324.9l-6.4-4.3v106.7l79.2-53.4L528,1324.9z M686.3,1324.9l-6.4-4.3v106.7
				l79.1-53.4L686.3,1324.9z M844.5,1324.9l-6.4-4.3v106.7l79.1-53.4L844.5,1324.9z M1002.7,1324.9l-6.4-4.3v106.7l79.1-53.4
				L1002.7,1324.9z M1160.9,1324.9l-6.3-4.3v106.7l79.1-53.4L1160.9,1324.9z M1319.2,1324.9l-6.4-4.3v106.7l79.1-53.4L1319.2,1324.9
				z M1477.4,1324.9l-6.4-4.3v106.7l79.1-53.4L1477.4,1324.9z M1635.6,1324.9l-6.4-4.3v106.7l79.1-53.4L1635.6,1324.9z
				 M1787.5,1320.6v106.7l79.1-53.4l-72.8-49L1787.5,1320.6z M2288.7,1324.8l-4.8-3.2c2,25,4.4,59,7.2,99.7l70.4-47.4L2288.7,1324.8
				L2288.7,1324.8z M2446.9,1324.8l-6.3-4.3v106.6l79.1-53.3L2446.9,1324.8z M2605.2,1324.8l-6.4-4.3v106.6l79.1-53.3L2605.2,1324.8
				z M2763.4,1324.8l-6.4-4.3v106.6l79.1-53.3L2763.4,1324.8z M2921.6,1324.8l-6.4-4.3v106.6l79.1-53.3L2921.6,1324.8z
				 M3079.8,1324.8l-6.3-4.3v106.6l79.1-53.3L3079.8,1324.8z M3238.1,1324.8l-6.4-4.3v106.6l79.1-53.3L3238.1,1324.8z
				 M3396.3,1324.8l-6.4-4.3v106.6l79.1-53.3L3396.3,1324.8z M3554.5,1324.8l-6.4-4.3v106.6l79.1-53.3L3554.5,1324.8z
				 M3712.8,1324.8l-6.4-4.3v106.6l79.1-53.3L3712.8,1324.8z M3864.6,1320.5v106.6l79.1-53.3l-72.7-49L3864.6,1320.5z"/>
		</g>
		<g>
			<path style="fill:#6BB5E4;" d="M363.4,1320.6l-79.1,53.3l79.1,53.4V1320.6z M521.6,1320.6l-79.1,53.3l79.1,53.4V1320.6z
				 M679.9,1320.6l-79.1,53.3l79.1,53.4V1320.6z M838.1,1320.6l-79.1,53.3l79.1,53.4V1320.6z M996.3,1320.6l-79.1,53.3l79.1,53.4
				V1320.6z M1154.6,1320.6l-79.2,53.3l79.2,53.4V1320.6z M1312.8,1320.6l-79.1,53.3l79.1,53.4V1320.6z M1471,1320.6l-79.1,53.3
				l79.1,53.4V1320.6z M1629.2,1320.6l-79.1,53.3l79.1,53.4V1320.6z M1787.5,1320.6l-79.2,53.3l79.2,53.4V1320.6z M1871.2,1370.9
				l-4.6,3.1l4.2,2.8C1870.9,1374.8,1871,1372.8,1871.2,1370.9z M2440.6,1320.5l-79.2,53.3l79.2,53.3V1320.5z M2598.8,1320.5
				l-79.1,53.3l79.1,53.3V1320.5z M2757,1320.5l-79.1,53.3l79.1,53.3V1320.5z M2915.2,1320.5l-79.1,53.3l79.1,53.3V1320.5z
				 M3073.5,1320.5l-79.2,53.3l79.2,53.3V1320.5z M3231.7,1320.5l-79.1,53.3l79.1,53.3V1320.5z M3389.9,1320.5l-79.1,53.3l79.1,53.3
				V1320.5z M3548.1,1320.5l-79.1,53.3l79.1,53.3V1320.5z M3706.4,1320.5l-79.2,53.3l79.2,53.3V1320.5z M3864.6,1320.5l-79.1,53.3
				l79.1,53.3V1320.5z M3948.1,1370.8l-4.4,3l4,2.7C3947.8,1374.6,3948,1372.7,3948.1,1370.8z"/>
		</g>
		<g>
			<path style="fill:#798393;" d="M284.3,1480.6V1374l-70.5,47.5c0.3,4,0.6,8.1,0.8,12.2L284.3,1480.6L284.3,1480.6z M442.5,1373.9
				l-79.1,53.4l79.1,53.3V1373.9z M600.8,1373.9l-79.2,53.4l79.2,53.3V1373.9z M759,1373.9l-79.1,53.4l79.1,53.3V1373.9z
				 M917.2,1373.9l-79.1,53.4l79.1,53.3V1373.9z M1075.4,1373.9l-79.1,53.4l79.1,53.3V1373.9z M1233.7,1373.9l-79.1,53.4l79.1,53.3
				V1373.9z M1391.9,1373.9l-79.1,53.4l79.1,53.3V1373.9z M1550.1,1373.9l-79.1,53.4l79.1,53.3V1373.9z M1708.3,1373.9l-79.1,53.4
				l79.1,53.3V1373.9z M1866.6,1373.9l-79.1,53.3l76.3,51.4c1-14.8,1.9-28.9,2.8-42.4L1866.6,1373.9L1866.6,1373.9z M2361.4,1480.4
				v-106.6l-70.3,47.4c0.3,4,0.5,8.1,0.8,12.3L2361.4,1480.4L2361.4,1480.4z M2519.7,1373.8l-79.1,53.3l79.1,53.3V1373.8z
				 M2677.9,1373.8l-79.1,53.3l79.1,53.3V1373.8z M2836.1,1373.8l-79.1,53.3l79.1,53.3V1373.8z M2994.3,1373.8l-79.1,53.3l79.1,53.3
				V1373.8z M3152.6,1373.8l-79.1,53.3l79.1,53.3V1373.8z M3310.8,1373.8l-79.1,53.3l79.1,53.3V1373.8z M3469,1373.8l-79.1,53.3
				l79.1,53.3V1373.8z M3627.2,1373.8l-79.1,53.3l79.1,53.3V1373.8z M3785.5,1373.8l-79.1,53.3l79.1,53.3V1373.8z M3943.7,1373.8
				l-79.1,53.3l76.3,51.4c1-15.2,1.9-29.8,2.8-43.7V1373.8L3943.7,1373.8z"/>
		</g>
		<g>
			<path style="fill:#99A7B9;" d="M284.3,1480.6l79.1-53.3l-79.1-53.4V1480.6z M442.5,1480.6l79.1-53.3l-79.1-53.4V1480.6z
				 M600.8,1480.6l79.1-53.3l-79.1-53.4V1480.6z M759,1480.6l79.1-53.3l-79.1-53.4V1480.6z M917.2,1480.6l79.1-53.3l-79.1-53.4
				V1480.6z M1075.4,1480.6l79.2-53.3l-79.2-53.4V1480.6z M1233.7,1480.6l79.1-53.3l-79.1-53.4V1480.6z M1391.9,1480.6l79.1-53.3
				l-79.1-53.4V1480.6z M1550.1,1480.6l79.1-53.3l-79.1-53.4V1480.6z M1708.3,1480.6l79.2-53.3l-79.2-53.4V1480.6z M1866.6,1436.3
				c1.5-21.9,2.9-41.8,4.2-59.6l-4.2-2.8V1436.3z M2361.4,1480.4l79.2-53.3l-79.2-53.3V1480.4z M2519.7,1480.4l79.1-53.3l-79.1-53.3
				V1480.4z M2677.9,1480.4l79.1-53.3l-79.1-53.3V1480.4z M2836.1,1480.4l79.1-53.3l-79.1-53.3V1480.4z M2994.3,1480.4l79.2-53.3
				l-79.2-53.3V1480.4z M3152.6,1480.4l79.1-53.3l-79.1-53.3V1480.4z M3310.8,1480.4l79.1-53.3l-79.1-53.3V1480.4z M3469,1480.4
				l79.1-53.3l-79.1-53.3V1480.4z M3627.2,1480.4l79.2-53.3l-79.2-53.3V1480.4z M3785.5,1480.4l79.1-53.3l-79.1-53.3V1480.4z
				 M3943.7,1434.8c1.4-21.1,2.7-40.7,4-58.4l-4-2.7V1434.8z"/>
		</g>
		<g>
			<path style="fill:#616A7B;" d="M363.4,1427.3l-79.1,53.3l79.1,53.3V1427.3z M521.6,1427.3l-79.1,53.3l79.1,53.3V1427.3z
				 M679.9,1427.3l-79.1,53.3l79.1,53.3V1427.3z M838.1,1427.3l-79.1,53.3l79.1,53.3V1427.3z M996.3,1427.3l-79.1,53.3l79.1,53.3
				V1427.3z M1154.6,1427.3l-79.2,53.3l79.2,53.3V1427.3z M1312.8,1427.3l-79.1,53.3l79.1,53.3V1427.3z M1471,1427.3l-79.1,53.3
				l79.1,53.3V1427.3z M1629.2,1427.3l-79.1,53.3l79.1,53.3V1427.3z M1787.5,1427.3l-79.2,53.3l79.2,53.3V1427.3z M2440.6,1427.1
				l-79.2,53.3l79.2,53.3V1427.1z M2598.8,1427.1l-79.1,53.3l79.1,53.3V1427.1z M2757,1427.1l-79.1,53.3l79.1,53.3V1427.1z
				 M2915.2,1427.1l-79.1,53.3l79.1,53.3V1427.1z M3073.5,1427.1l-79.2,53.3l79.2,53.3V1427.1z M3231.7,1427.1l-79.1,53.3l79.1,53.3
				V1427.1z M3389.9,1427.1l-79.1,53.3l79.1,53.3V1427.1z M3548.1,1427.1l-79.1,53.3l79.1,53.3V1427.1z M3706.4,1427.1l-79.2,53.3
				l79.2,53.3V1427.1z M3864.6,1427.1l-79.1,53.3l79.1,53.3V1427.1z"/>
		</g>
		<g>
			<path style="fill:#697785;" d="M214.7,1433.6c1.8,27.2,3.8,57.4,5.8,90l63.8-43L214.7,1433.6L214.7,1433.6z M442.5,1480.6
				l-79.1-53.3v106.6L442.5,1480.6z M600.8,1480.6l-79.2-53.3v106.6L600.8,1480.6z M759,1480.6l-79.1-53.3v106.6L759,1480.6z
				 M917.2,1480.6l-79.1-53.3v106.6L917.2,1480.6z M1075.4,1480.6l-79.1-53.3v106.6L1075.4,1480.6z M1233.7,1480.6l-79.1-53.3v106.6
				L1233.7,1480.6z M1391.9,1480.6l-79.1-53.3v106.6L1391.9,1480.6z M1550.1,1480.6l-79.1-53.3v106.6L1550.1,1480.6z M1708.3,1480.6
				l-79.1-53.3v106.6L1708.3,1480.6z M1787.5,1533.9l76.1-51.3l0.3-3.9l-76.3-51.4L1787.5,1533.9L1787.5,1533.9z M2291.9,1433.5
				c1.8,27.4,3.7,57.6,5.7,89.9l63.9-43.1L2291.9,1433.5L2291.9,1433.5z M2519.7,1480.4l-79.1-53.3v106.6L2519.7,1480.4z
				 M2677.9,1480.4l-79.1-53.3v106.6L2677.9,1480.4z M2836.1,1480.4l-79.1-53.3v106.6L2836.1,1480.4z M2994.3,1480.4l-79.1-53.3
				v106.6L2994.3,1480.4z M3152.6,1480.4l-79.1-53.3v106.6L3152.6,1480.4z M3310.8,1480.4l-79.1-53.3v106.6L3310.8,1480.4z
				 M3469,1480.4l-79.1-53.3v106.6L3469,1480.4z M3627.2,1480.4l-79.1-53.3v106.6L3627.2,1480.4z M3785.5,1480.4l-79.1-53.3v106.6
				L3785.5,1480.4z M3864.6,1533.7l76-51.2c0.1-1.3,0.2-2.7,0.3-4l-76.3-51.4V1533.7z"/>
		</g>
		<g>
			<path style="fill:#3D404D;" d="M363.4,1533.9l-79.1-53.3v106.6L363.4,1533.9z M521.6,1533.9l-79.1-53.3v106.6L521.6,1533.9z
				 M679.9,1533.9l-79.1-53.3v106.6L679.9,1533.9z M838.1,1533.9l-79.1-53.3v106.6L838.1,1533.9z M996.3,1533.9l-79.1-53.3v106.6
				L996.3,1533.9z M1154.6,1533.9l-79.2-53.3v106.6L1154.6,1533.9z M1312.8,1533.9l-79.1-53.3v106.6L1312.8,1533.9z M1471,1533.9
				l-79.1-53.3v106.6L1471,1533.9z M1629.2,1533.9l-79.1-53.3v106.6L1629.2,1533.9z M1787.5,1533.9l-79.2-53.3v106.6L1787.5,1533.9z
				 M2440.6,1533.7l-79.2-53.3V1587L2440.6,1533.7z M2598.8,1533.7l-79.1-53.3V1587L2598.8,1533.7z M2757,1533.7l-79.1-53.3V1587
				L2757,1533.7z M2915.2,1533.7l-79.1-53.3V1587L2915.2,1533.7z M3073.5,1533.7l-79.2-53.3V1587L3073.5,1533.7z M3231.7,1533.7
				l-79.1-53.3V1587L3231.7,1533.7z M3389.9,1533.7l-79.1-53.3V1587L3389.9,1533.7z M3548.1,1533.7l-79.1-53.3V1587L3548.1,1533.7z
				 M3706.4,1533.7l-79.2-53.3V1587L3706.4,1533.7z M3864.6,1533.7l-79.1-53.3V1587L3864.6,1533.7z"/>
		</g>
		<g>
			<path style="fill:#1B2129;" d="M284.3,1587.2v-106.6l-63.8,43c0.4,7,0.9,14.2,1.3,21.5L284.3,1587.2z M442.5,1587.2v-106.6
				l-79.1,53.3L442.5,1587.2z M600.8,1587.2v-106.6l-79.2,53.3L600.8,1587.2z M759,1587.2v-106.6l-79.1,53.3L759,1587.2z
				 M917.2,1587.2v-106.6l-79.1,53.3L917.2,1587.2z M1075.4,1587.2v-106.6l-79.1,53.3L1075.4,1587.2z M1233.7,1587.2v-106.6
				l-79.1,53.3L1233.7,1587.2z M1391.9,1587.2v-106.6l-79.1,53.3L1391.9,1587.2z M1550.1,1587.2v-106.6l-79.1,53.3L1550.1,1587.2z
				 M1708.3,1587.2v-106.6l-79.1,53.3L1708.3,1587.2z M1857.5,1581.1c2-35,4.1-68,6-98.5l-76.1,51.3L1857.5,1581.1z M2361.4,1587
				v-106.6l-63.9,43.1c0.4,7,0.8,14.1,1.3,21.3L2361.4,1587L2361.4,1587z M2519.7,1587v-106.6l-79.1,53.3L2519.7,1587z M2677.9,1587
				v-106.6l-79.1,53.3L2677.9,1587z M2836.1,1587v-106.6l-79.1,53.3L2836.1,1587z M2994.3,1587v-106.6l-79.1,53.3L2994.3,1587z
				 M3152.6,1587v-106.6l-79.1,53.3L3152.6,1587z M3310.8,1587v-106.6l-79.1,53.3L3310.8,1587z M3469,1587v-106.6l-79.1,53.3
				L3469,1587z M3627.2,1587v-106.6l-79.1,53.3L3627.2,1587z M3785.5,1587v-106.6l-79.1,53.3L3785.5,1587z M3934.7,1581
				c2-34.8,4-67.9,5.9-98.5l-76,51.2L3934.7,1581z"/>
		</g>
	</g>
</g>
</svg>
