<?xml version="1.0" encoding="utf-8"?>
<!-- Generator: Adobe Illustrator 28.0.0, SVG Export Plug-In . SVG Version: 6.00 Build 0)  -->
<svg version="1.1" id="Layer_1" xmlns="http://www.w3.org/2000/svg" xmlns:xlink="http://www.w3.org/1999/xlink" x="0px" y="0px"
	 viewBox="0 0 4401.1 2291" style="enable-background:new 0 0 4401.1 2291;" xml:space="preserve">
<g id="Shorts_00000054966516855276356950000016348309822528870020_">
	<path id="Color_1_00000038401950846200966800000013594568444445275059_" d="M4198.6,1650.4l-57.6,48.5l-84.3-44.6l-25.8-13.6
		l-0.2-0.1c-37.4-347.7-116.5-1083.9-154.8-1440.8c3.7-0.1,7.4-0.2,11-0.3c-71.9,2-143.1,3.6-214.8,4.7v-0.1
		c-361,3.6-721.5,4.8-1082.4-4.3c-34.5,321.7-113.4,1056.3-146.9,1367.3l0.3,0.2l-7.9,73.4l-25.8,13.6c0,0.1-84.3,44.5-84.4,44.6
		l-57.7-48.4l-17.2,269.6c43.9,8.7,581.7,113.4,951.9,111.8c6.5-174,1.6-350.4,19.5-524.1c2.2-8-0.5-42.4,11.1-40.8
		c3.4,0,6.5,1.7,7.3,4.4c13.9,105.8,14.4,213.2,18.5,319.8c1.6,78.1-0.9,161.7,5,240.7c370.2,1.6,908.3-103.1,952.2-111.8
		C4210.8,1825.4,4205.1,1735.5,4198.6,1650.4z M2091.2,1698.9c-19.1-10.1-92.7-48.9-110.3-58.3c-37.4-347.8-116.5-1084-154.8-1440.8
		c-360.9,9.1-721.6,7.9-1082.7,4.3v0.1c-68.5-1.1-134.8-2.6-203.5-4.4C501.2,561,423.1,1289.4,385.3,1640.7
		c-0.1,0-25.8,13.7-25.9,13.6l-84.4,44.6l-57.6-48.5c-6.5,85.1-12.2,175-17,269.7c43.9,8.7,582,113.4,952.2,111.8
		c5.3-35.6,2.7-186.6,4.4-240.7c4.1-106.6,4.6-214,18.5-319.8c0.8-2.7,3.9-4.4,7.3-4.4c11.6-1.9,9,33.3,11.1,40.8
		c17.9,173.7,13,350.1,19.5,524.1c370.3,1.6,908.5-103.1,952.4-111.8c-4.8-94.7-10.5-184.6-17-269.7L2091.2,1698.9L2091.2,1698.9z"
		/>
	<path id="Color_2_00000115472455506863489370000001667460896586516882_" style="fill:#F4F4F4;" d="M1149.9,2092.9
		c0,0,1.4-25.6,2.8-61c-370.2,1.6-908.3-103.1-952.2-111.8c-1,19.9-2,40.1-2.9,60.4c0.1,0,52,10.5,135,25
		c169.9,29.7,470.3,76.5,724,85.8C1088.7,2092.5,1119.8,2093,1149.9,2092.9L1149.9,2092.9z M4084.1,1168.8l58-48.8L4084.1,1168.8z
		 M3973.9,1110.6l25.9,13.7l73-61.5l66.2,35c-77.9-537.7-176.7-755-176.7-755c5.4-75.6-3.5-123.4-7.2-139.4
		c-0.8-3.5-3.9-5.9-7.5-5.8c-20.2,0.6-40.3,1.3-60.4,1.9c-3.7,0.1-7.4,0.2-11,0.3L3973.9,1110.6L3973.9,1110.6z M3977.2,1142.9
		l22.3-18.8L3977.2,1142.9z M4218.5,1980.5c-0.9-20.4-1.9-40.5-2.9-60.4c-43.9,8.7-582,113.4-952.2,111.8c1.5,35.4,2.8,61,2.8,61
		c27,0.1,54.9-0.3,83.4-1.3c300.9-9.9,671.4-74.1,811.6-100.1c34.1-6.3,54.5-10.4,57.1-10.9
		C4218.4,1980.5,4218.5,1980.5,4218.5,1980.5L4218.5,1980.5z M2511,203.4c-3.7,16-12.6,63.8-7.2,139.4c0,0-98.8,217.3-176.7,755
		l66.2-35l73,61.5l25.9-13.7l97.8-910.8c-23.7-0.7-47.6-1.4-71.4-2.2h-0.2C2514.8,197.6,2511.8,200,2511,203.4L2511,203.4z
		 M2381.9,1168.8l-58-48.8L2381.9,1168.8z M2250.4,1920.1c-1,19.9-2,40.1-2.9,60.4c0,0,557.2,112.3,943.1,112.4h9.2
		c0,0,1.4-25.6,2.8-61h-0.3C2832.2,2033.5,2294.3,1928.8,2250.4,1920.1z M1927.4,1142.9l22.4-18.8L1927.4,1142.9z M2034.2,1168.8
		l58.1-48.8L2034.2,1168.8z M1949.9,1124.3l73-61.5l66.2,35c-77.9-537.7-176.7-755-176.7-755c5.4-75.6-3.5-123.4-7.2-139.4
		c-0.8-3.5-3.9-5.9-7.5-5.8c-23.9,0.8-47.7,1.5-71.4,2.2l97.8,910.8L1949.9,1124.3L1949.9,1124.3z M2165.8,1920.1
		c-43.9,8.7-582,113.4-952.2,111.8c1.5,35.4,2.8,61,2.8,61c386.2,1.7,952.3-112.4,952.3-112.4
		C2167.7,1960.1,2166.8,1940,2165.8,1920.1L2165.8,1920.1z M343.4,1062.8l73,61.5l25.9-13.7l97.8-910.8c-2.2-0.1-4.5-0.1-6.7-0.2
		c-21.5-0.6-43.1-1.3-64.7-2c-3.6-0.1-6.7,2.3-7.5,5.8c-3.7,16-12.6,63.8-7.2,139.4c0,0-98.8,217.3-176.7,755L343.4,1062.8
		L343.4,1062.8z M332.1,1168.8L274,1120L332.1,1168.8z"/>
	<g id="Color_Set">
		<path style="fill:#A1D9F6;" d="M4072.7,1062.8l11.4,106l58-48.9c-1.1-7.5-2.1-14.8-3.2-22.2L4072.7,1062.8L4072.7,1062.8z
			 M3973.9,1110.6l3.5,32.5l22.4-18.8L3973.9,1110.6z M2381.9,1168.8l11.4-106l-66.2,35c-1.1,7.3-2.1,14.7-3.2,22.2L2381.9,1168.8z
			 M2488.7,1143.1l3.5-32.5l-25.9,13.7L2488.7,1143.1z M2022.9,1062.8l11.4,106l58-48.9c-1.1-7.5-2.1-14.8-3.2-22.2L2022.9,1062.8
			L2022.9,1062.8z M1924,1110.6l3.5,32.5l22.4-18.8L1924,1110.6z M332.1,1168.8l11.4-106l-66.2,35c-1.1,7.3-2.1,14.7-3.2,22.2
			L332.1,1168.8L332.1,1168.8z M438.8,1143.1l3.5-32.5l-25.9,13.7L438.8,1143.1z"/>
		<path style="fill:#80C1EA;" d="M4072.7,1062.8l-72.9,61.5l84.3,44.5L4072.7,1062.8z M2466.3,1124.3l-73-61.5l-11.4,106
			L2466.3,1124.3z M2022.9,1062.8l-73,61.5l84.3,44.5L2022.9,1062.8z M416.4,1124.3l-73-61.5l-11.3,106L416.4,1124.3z"/>
		<path style="fill:#BBC9DB;" d="M4153.7,1205.6c-3.8-29.4-7.7-57.9-11.6-85.6l-58,48.9L4153.7,1205.6L4153.7,1205.6z
			 M3999.8,1124.3l-22.4,18.8l7.9,73.5l25.9,13.7L3999.8,1124.3z M2323.9,1120c-3.9,27.7-7.8,56.2-11.6,85.6l69.6-36.8L2323.9,1120z
			 M2466.3,1124.3l-11.4,106l25.9-13.7l7.9-73.5L2466.3,1124.3z M2103.8,1205.6c-3.8-29.4-7.7-57.9-11.6-85.6l-58,48.9
			L2103.8,1205.6L2103.8,1205.6z M1961.3,1230.3l-11.4-106l-22.4,18.8l7.9,73.5L1961.3,1230.3z M274,1120
			c-3.9,27.7-7.8,56.2-11.6,85.6l69.6-36.8L274,1120z M416.4,1124.3l-11.4,106l25.9-13.7l7.9-73.5L416.4,1124.3z"/>
		<path style="fill:#D9E1F2;" d="M3999.8,1124.3l11.4,106l72.9-61.5L3999.8,1124.3z M2381.9,1168.8l73,61.5l11.4-106L2381.9,1168.8z
			 M1949.9,1124.3l11.4,106l72.9-61.5L1949.9,1124.3z M405,1230.3l11.4-106l-84.3,44.5L405,1230.3z"/>
		<g>
			<path style="fill:#DD76AF;" d="M4084.1,1168.8l11.4,106l60.5-51c-0.8-6.1-1.6-12.2-2.3-18.3L4084.1,1168.8z M3985.3,1216.6
				l3.5,32.5l22.4-18.8L3985.3,1216.6z M2370.6,1274.8l11.4-106l-69.6,36.8c-0.8,6.1-1.6,12.1-2.3,18.3L2370.6,1274.8L2370.6,1274.8
				z M2477.3,1249.1l3.5-32.5l-25.9,13.7L2477.3,1249.1z M2034.2,1168.8l11.4,106l60.5-51c-0.8-6.1-1.6-12.2-2.3-18.3L2034.2,1168.8
				L2034.2,1168.8z M1961.3,1230.3l-25.9-13.7l3.5,32.5L1961.3,1230.3z M320.7,1274.8l11.4-106l-69.6,36.8
				c-0.8,6.1-1.6,12.1-2.3,18.3L320.7,1274.8z M405,1230.3l22.4,18.8l3.5-32.5L405,1230.3z"/>
		</g>
		<g>
			<path style="fill:#BA5086;" d="M4095.5,1274.8l-11.4-106l-72.9,61.5L4095.5,1274.8z M2370.6,1274.8l84.3-44.5l-73-61.5
				L2370.6,1274.8z M2045.6,1274.8l-11.4-106l-72.9,61.5L2045.6,1274.8z M332.1,1168.8l-11.4,106l84.3-44.5L332.1,1168.8z"/>
		</g>
		<g>
			<path style="fill:#BD4F92;" d="M4166.7,1312.4c-3.5-30.3-7-59.9-10.7-88.6l-60.5,51L4166.7,1312.4z M4022.5,1336.3l-11.3-106
				l-22.4,18.8l7.9,73.5L4022.5,1336.3z M2310,1223.9c-3.6,28.7-7.2,58.3-10.7,88.6l71.2-37.6L2310,1223.9z M2454.9,1230.3
				l-11.4,106l25.9-13.7l7.9-73.5L2454.9,1230.3z M2116.8,1312.4c-3.5-30.3-7-59.9-10.7-88.6l-60.5,51L2116.8,1312.4z
				 M1961.3,1230.3l-22.4,18.8l7.9,73.5l25.9,13.7L1961.3,1230.3z M260.1,1223.9c-3.6,28.7-7.2,58.3-10.7,88.6l71.2-37.6
				L260.1,1223.9z M405,1230.3l-11.4,106l25.9-13.7l7.9-73.5L405,1230.3z"/>
		</g>
		<g>
			<path style="fill:#AF4078;" d="M4011.2,1230.3l11.3,106l73-61.5L4011.2,1230.3z M2370.6,1274.8l72.9,61.5l11.4-106L2370.6,1274.8
				z M1961.3,1230.3l11.4,106l72.9-61.5L1961.3,1230.3z M405,1230.3l-84.3,44.5l72.9,61.5L405,1230.3z"/>
		</g>
		<g>
			<path style="fill:#A73D7B;" d="M4095.5,1274.8l11.4,106l51-42.9l10.7-9c-0.6-5.5-1.2-11-1.9-16.4L4095.5,1274.8z M3996.7,1322.6
				l3.5,32.5l0.4-0.3l21.9-18.5L3996.7,1322.6z M2359.2,1380.9l11.4-106l-71.2,37.6c-0.6,5.5-1.2,10.9-1.9,16.4l10.7,9
				L2359.2,1380.9z M2465.5,1354.8l0.4,0.3l3.5-32.5l-25.9,13.7L2465.5,1354.8z M2045.6,1274.8l11.4,106l51-42.9l10.7-9
				c-0.6-5.5-1.2-11-1.9-16.4L2045.6,1274.8L2045.6,1274.8z M1946.8,1322.6l3.5,32.5l0.4-0.3l22-18.5L1946.8,1322.6z M309.3,1380.9
				l11.4-106l-71.2,37.6c-0.6,5.5-1.2,10.9-1.9,16.4l10.7,9L309.3,1380.9z M415.6,1354.8l0.4,0.3l3.5-32.5l-25.9,13.7L415.6,1354.8z
				"/>
		</g>
		<g>
			<path style="fill:#5E1E52;" d="M4106.9,1380.9l-11.4-106.1l-73,61.5L4106.9,1380.9z M2359.2,1380.9l84.3-44.6l-72.9-61.5
				L2359.2,1380.9z M2057,1380.9l-11.4-106.1l-72.9,61.5L2057,1380.9z M320.7,1274.8l-11.4,106.1l84.3-44.6L320.7,1274.8z"/>
		</g>
		<g>
			<path style="fill:#652866;" d="M4106.9,1380.9l71.3,37.7c-3.1-30.6-6.3-60.5-9.6-89.6l-10.7,9L4106.9,1380.9L4106.9,1380.9z
				 M4022.6,1336.3l-22,18.5l-0.4,0.3l7.9,73.6l25.8,13.6L4022.6,1336.3z M2308.2,1337.9l-10.7-9c-3.3,29.1-6.5,59-9.6,89.6
				l71.3-37.6L2308.2,1337.9z M2443.5,1336.3l-11.4,106l25.9-13.6l7.9-73.6l-0.4-0.3L2443.5,1336.3z M2057,1380.9l71.3,37.7
				c-3.1-30.6-6.3-60.5-9.6-89.6l-10.7,9L2057,1380.9z M1972.8,1337.3l-0.1-1l-22,18.5l-0.4,0.3l7.9,73.6l25.9,13.6l-9.7-90
				L1972.8,1337.3z M258.3,1337.9l-10.7-9c-3.3,29.1-6.5,59-9.6,89.6l71.3-37.6L258.3,1337.9L258.3,1337.9z M393.6,1336.3l-0.2,1.9
				l-1.5,14.1l-9.7,90l25.9-13.6l7.9-73.6l-0.4-0.3L393.6,1336.3z"/>
		</g>
		<g>
			<path style="fill:#1F1437;" d="M4022.5,1336.3h0.1l11.3,106l73-61.4L4022.5,1336.3z M2359.2,1380.9l72.9,61.4l11.4-106
				L2359.2,1380.9z M2057,1380.9l-84.3-44.6l0.1,1l1.6,15l9.7,90L2057,1380.9z M393.4,1338.2l0.2-1.9l-84.3,44.6l72.9,61.4l9.7-90
				L393.4,1338.2z"/>
		</g>
		<g>
			<path style="fill:#272655;" d="M4106.9,1380.9l11.4,106l61.5-51.8c-0.6-5.5-1.1-11-1.7-16.5L4106.9,1380.9L4106.9,1380.9z
				 M4008.1,1428.7l3.5,32.4l22.3-18.8L4008.1,1428.7z M2347.8,1486.9l11.4-106l-71.3,37.6c-0.6,5.5-1.1,11-1.7,16.5L2347.8,1486.9z
				 M2432.1,1442.3l22.4,18.8l3.5-32.4L2432.1,1442.3z M2057,1380.9l11.4,106l61.5-51.8c-0.6-5.5-1.1-11-1.7-16.5L2057,1380.9z
				 M1961.7,1461.1l22.4-18.8l-25.9-13.6L1961.7,1461.1z M297.9,1486.9l11.4-106l-71.3,37.7c-0.6,5.5-1.1,11-1.7,16.5L297.9,1486.9z
				 M404.6,1461.1l3.5-32.4l-25.9,13.6L404.6,1461.1z"/>
		</g>
		<g>
			<path style="fill:#181E24;" d="M4118.3,1486.9l-11.4-106l-73,61.4L4118.3,1486.9z M2347.8,1486.9l84.3-44.6l-72.9-61.4
				L2347.8,1486.9z M2068.4,1486.9l-11.4-106l-72.9,61.4L2068.4,1486.9z M297.9,1486.9l84.3-44.6l-72.9-61.4L297.9,1486.9z"/>
		</g>
		<g>
			<path style="fill:#437EBB;" d="M4188.2,1523.8c-2.7-30.2-5.5-59.8-8.4-88.8l-61.5,51.9L4188.2,1523.8z M4033.9,1442.3l-22.3,18.8
				l7.9,73.6l25.8,13.6L4033.9,1442.3z M2286.2,1435c-2.9,28.9-5.7,58.5-8.4,88.8l69.9-36.9L2286.2,1435z M2420.7,1548.3l25.9-13.6
				l7.9-73.6l-22.4-18.8L2420.7,1548.3z M2138.3,1523.8c-2.7-30.2-5.5-59.8-8.4-88.8l-61.5,51.8L2138.3,1523.8z M1984.1,1442.3
				l-22.4,18.8l7.9,73.6l25.8,13.6L1984.1,1442.3z M236.3,1435c-2.9,28.9-5.7,58.5-8.4,88.8l69.9-36.9L236.3,1435L236.3,1435z
				 M370.9,1548.3l25.8-13.6l7.9-73.6l-22.4-18.8L370.9,1548.3z"/>
		</g>
		<g>
			<path style="fill:#6BB5E4;" d="M4118.3,1486.9l-84.4-44.6l11.4,106L4118.3,1486.9z M2347.8,1486.9l72.9,61.4l11.4-106
				L2347.8,1486.9z M2068.4,1486.9l-84.3-44.6l11.3,106L2068.4,1486.9z M297.9,1486.9l73,61.4l11.3-106L297.9,1486.9z"/>
		</g>
		<g>
			<path style="fill:#798393;" d="M4118.3,1486.9l2.3,21.8l9,84.2l60.2-50.7c-0.5-6.2-1.1-12.3-1.6-18.4L4118.3,1486.9z
				 M4023,1567.2l22.3-18.9l-25.8-13.6L4023,1567.2z M2347.8,1486.9l-69.9,36.9c-0.5,6.1-1.1,12.2-1.6,18.4l60.2,50.7l9-84.2
				L2347.8,1486.9z M2443.1,1567.2l3.5-32.5l-25.9,13.6L2443.1,1567.2z M2068.4,1486.9l11.4,106l60.2-50.7
				c-0.5-6.2-1.1-12.3-1.6-18.4L2068.4,1486.9L2068.4,1486.9z M1973.1,1567.2l22.3-18.9l-25.8-13.6L1973.1,1567.2z M286.5,1592.9
				l11.4-106l-69.9,36.9c-0.5,6.1-1.1,12.2-1.6,18.4L286.5,1592.9z M393.2,1567.2l3.5-32.5l-25.8,13.6L393.2,1567.2z"/>
		</g>
		<g>
			<path style="fill:#99A7B9;" d="M4118.3,1486.9l-73,61.4l84.4,44.6l-9.1-84.2L4118.3,1486.9z M2345.4,1508.7l-9,84.2l84.3-44.6
				l-72.9-61.4L2345.4,1508.7z M1995.4,1548.3l84.4,44.6l-11.4-106L1995.4,1548.3z M286.5,1592.9l84.4-44.6l-73-61.4L286.5,1592.9z"
				/>
		</g>
		<g>
			<path style="fill:#697785;" d="M4197,1628.4c-2.3-29.3-4.7-58.1-7.1-86.2l-60.2,50.7L4197,1628.4L4197,1628.4z M4023,1567.2
				l7.9,73.5l25.8,13.6l-11.4-106L4023,1567.2z M2276.2,1542.2c-2.5,28.2-4.8,56.9-7.1,86.2l67.3-35.6L2276.2,1542.2z
				 M2409.4,1654.3l25.8-13.6l7.9-73.5l-22.4-18.9L2409.4,1654.3z M2147.1,1628.4c-2.3-29.3-4.7-58.1-7.1-86.2l-60.2,50.7
				L2147.1,1628.4z M1973.1,1567.2l7.9,73.5l25.8,13.6l-11.4-106L1973.1,1567.2z M226.3,1542.2c-2.5,28.2-4.8,56.9-7.1,86.2
				l67.3-35.6L226.3,1542.2z M393.2,1567.2l-22.3-18.9l-11.4,106l25.8-13.6L393.2,1567.2z"/>
		</g>
		<g>
			<path style="fill:#616A7B;" d="M4129.7,1592.9l-84.4-44.6l11.4,106L4129.7,1592.9z M2336.4,1592.9l73,61.4l11.3-106
				L2336.4,1592.9z M2079.8,1592.9l-84.4-44.6l11.4,106L2079.8,1592.9z M370.9,1548.3l-84.4,44.6l73,61.4L370.9,1548.3z"/>
		</g>
		<g>
			<path style="fill:#1B2129;" d="M4129.7,1592.9l11.4,106l57.6-48.5c-0.6-7.3-1.1-14.7-1.7-21.9L4129.7,1592.9z M2336.4,1592.9
				l-67.3,35.6c-0.6,7.3-1.1,14.6-1.7,21.9l57.6,48.5L2336.4,1592.9z M2079.8,1592.9l11.4,106l57.6-48.5c-0.6-7.3-1.1-14.7-1.7-21.9
				L2079.8,1592.9z M275.1,1698.9l11.4-106l-67.3,35.6c-0.6,7.3-1.1,14.6-1.7,21.9L275.1,1698.9z"/>
		</g>
		<g>
			<path style="fill:#3D404D;" d="M4056.7,1654.3l84.4,44.6l-11.4-106L4056.7,1654.3z M2325,1698.9l84.4-44.6l-73-61.4L2325,1698.9z
				"/>
			<g>
				<path style="fill:#3D404D;" d="M2006.8,1654.3l84.4,44.6l-11.4-106L2006.8,1654.3z M359.5,1654.3l-73-61.4l-11.4,106
					L359.5,1654.3z"/>
			</g>
		</g>
	</g>
</g>
</svg>
