<?xml version="1.0" encoding="utf-8"?>
<!-- Generator: Adobe Illustrator 28.0.0, SVG Export Plug-In . SVG Version: 6.00 Build 0)  -->
<svg version="1.1" id="Layer_1" xmlns="http://www.w3.org/2000/svg" xmlns:xlink="http://www.w3.org/1999/xlink" x="0px" y="0px"
	 viewBox="0 0 4416.7 4985.5" style="enable-background:new 0 0 4416.7 4985.5;" xml:space="preserve">
<g id="Shorts">
	<g id="Color_3">
		<path style="fill:#C09C62;" d="M3260.1,4585.4l450.5-62.8l88.2-78.1l-539.3,75.2c0.2,11.1,0.4,22.3,0.4,33.3
			c0,6.4,0.4,12.5,0.3,18.9C3260.1,4576.1,3260.1,4580.7,3260.1,4585.4z"/>
		<path style="fill:#C09C62;" d="M3715.6,4558.5l-455.5,63.5c0.2,10.9,0.4,22,0.7,33.1l0,0c0.3,10.9,0.6,21.9,1,32.5l560-78.1
			L3715.6,4558.5z"/>
		<path style="fill:#C09C62;" d="M2755.4,4522.6l450.5,62.8c0-1.4,0-2.7,0-4.1c0-3.3,0-6.4-0.1-9.5c0-3.2,0-6.3,0.1-9.5
			c0.1-3.1,0.2-6.3,0.2-9.5c0-11,0.1-22.1,0.4-33.3l-539.3-75.2L2755.4,4522.6z"/>
		<path style="fill:#C09C62;" d="M2644.1,4609.5l560,78.1c0.1-2.6,0.2-5.2,0.3-7.8c0.3-8.1,0.5-16.4,0.7-24.7l0,0l0,0
			c0.1-2.8,0.1-5.5,0.2-8.2c0.2-8.4,0.4-16.7,0.5-24.9l-455.5-63.5L2644.1,4609.5z"/>
		<path style="fill:#C09C62;" d="M1210.7,4585.4l450.5-62.8l88.2-78.1l-539.3,75.2c0.2,11.1,0.4,22.3,0.4,33.3
			c0,6.4,0.4,12.5,0.3,18.9C1210.7,4576.1,1210.7,4580.7,1210.7,4585.4z"/>
		<path style="fill:#C09C62;" d="M1210.8,4622.1c0.2,10.9,0.4,22,0.7,33.1l0,0c0.3,10.9,0.6,21.9,1,32.5l560-78.1l-106.2-51
			L1210.8,4622.1z"/>
		<path style="fill:#C09C62;" d="M706,4522.6l450.5,62.8c0-4.7,0-9.3-0.1-13.6c-0.1-6.4,0.3-12.5,0.3-18.9c0-11,0.1-22.1,0.4-33.3
			l-539.3-75.2L706,4522.6z"/>
		<path style="fill:#C09C62;" d="M594.7,4609.5l560,78.1c0.4-10.6,0.7-21.5,1-32.5l0,0c0.3-11.1,0.6-22.3,0.7-33.1l-455.5-63.5
			L594.7,4609.5z"/>
	</g>
	<g id="Color_2_00000028300434553234088900000007114135570222050445_">
		<path style="fill:#F4F4F4;" d="M4206.4,4453.5c-1.4-22-2.9-43.8-4.5-65.2l0,0l-362.4,50.5l-88.2,78.1L4206.4,4453.5L4206.4,4453.5
			z"/>
		<path style="fill:#F4F4F4;" d="M4208.7,4489.8L4208.7,4489.8l-452.4,63.1l106.2,51l350-48.8l0,0
			C4211.3,4533,4210,4511.3,4208.7,4489.8z"/>
		<path style="fill:#F4F4F4;" d="M2264.1,4388.3c-1.5,21.4-3,43.2-4.5,65.2l455.1,63.4l-88.2-78.1L2264.1,4388.3z"/>
		<path style="fill:#F4F4F4;" d="M2253.5,4555.1L2253.5,4555.1l350,48.8l106.2-51l-452.4-63.1
			C2256.1,4511.3,2254.8,4533,2253.5,4555.1z"/>
		<path style="fill:#F4F4F4;" d="M2156.9,4453.5c-1.4-22-2.9-43.8-4.5-65.2l0,0l-362.4,50.5l-88.2,78.1L2156.9,4453.5L2156.9,4453.5
			z"/>
		<path style="fill:#F4F4F4;" d="M2159.2,4489.8l-452.4,63.1l106.2,51l350-48.8l0,0C2161.8,4533,2160.6,4511.3,2159.2,4489.8
			L2159.2,4489.8z"/>
		<path style="fill:#F4F4F4;" d="M214.7,4388.3c-1.5,21.4-3,43.2-4.5,65.2l455.1,63.4l-88.2-78.1L214.7,4388.3z"/>
		<path style="fill:#F4F4F4;" d="M204.1,4555.1l350,48.8l106.2-51l-452.4-63.1C206.6,4511.3,205.4,4533,204.1,4555.1z"/>
	</g>
	<g id="Color_1_00000147189378584801569350000017243198615154448552_">
		<path d="M3204.4,4679.9c0.3-8.1,0.5-16.4,0.7-24.7l0,0C3204.9,4663.5,3204.6,4671.7,3204.4,4679.9z"/>
		<path d="M2793.3,2898.2c-12.5-0.3-25.6-0.3-38.2-0.6c-20.1-0.3-40.3-0.7-60.6-1.1c-58.9,1.7-123.7-9-182.1-1.7
			c-5.3,13.1-8.4,48.5-9.6,69.3c-1.1,22.1-0.7,49.8,1.1,72.7c-0.1,0.1-8,17.9-20.6,53.4c-40.4,115-74.3,252.5-99.7,375.6
			c-60.9,307.9-89.4,530-119.6,922.4l362.4,50.5l88.2,78.1l-455.1-63.4c-0.8,12-1.6,24.1-2.3,36.3l452.4,63.1l-106.2,51l-350-48.8
			c-2.2,39-4.2,78.8-6,119.5c28.3,12.5,735.9,126,952.3,112.5c2.2-35.6,3.3-71.4,4.6-107.3c-0.1,2.6-0.2,5.2-0.3,7.8l-560-78.1
			l106.2-51l455.5,63.5c0.2-10.2,0.2-20.6,0.3-30.6l-1.1-0.4l0.9,0.3c0-2,0-4,0-5.9l-450.5-62.8l-88.2-78.1l539.3,75.2
			c1.4-76.7,4.3-153.6,8.7-230.2c2.2-39.4,5.6-77.2,10-116.8c1.1-5,0.7-11.2,8.1-11.5c3.3,0,6.3,1.5,7.3,4.4
			c10.8,70.7,10.8,143,15.1,214.3c5.5,107.3,3.4,319.9,7.8,407.3c212.5,11.3,853.9-86.7,955.1-112.6c-1.8-40.8-3.9-80.6-6-119.6
			l-350,48.8l-106.2-51l452.4-63.1c-0.8-12.2-1.5-24.3-2.3-36.3l-455.1,63.4l88.2-78.1l362.4-50.5
			c-48.8-601.8-94.9-854.3-185.6-1193.1c-9.9-34.1-20.5-68.1-31.8-100.6c-6.5-18.7-14.8-41.1-22.1-57.6c3.4-44.6,1.9-98.9-6.9-137.8
			c-0.9-4.4-5-7.7-9.6-7.4c-29.2,0.9-58.4,1.8-87.4,2.6c-61.9,1.6-123.8,3.1-185.6,4v-0.1
			C3379.4,2901.8,3086.4,2901.4,2793.3,2898.2z M3259.6,4519.6l539.3-75.2l-88.2,78.1l-450.5,62.8
			C3260.4,4563.1,3259.9,4541.9,3259.6,4519.6z M3260.9,4655.2L3260.9,4655.2c-0.3-11.1-0.6-22.3-0.7-33.1l455.5-63.5l106.2,51
			l-560,78.1C3261.6,4677,3261.2,4666.1,3260.9,4655.2z"/>
		<path d="M743.9,2898.2c-12.3-0.2-25.8-0.4-38.2-0.6l0,0c-20.1-0.3-40.3-0.7-60.6-1.1l0,0c-57.7-1.2-116.6-2.9-175.9-4.8
			c-3.6-0.1-6.7,2.3-7.5,5.8c-3.7,16-12.6,63.8-7.2,139.4c0,0-169.7,373.1-239.7,1351.4l362.4,50.5l88.2,78.1l-455.1-63.4
			c-0.8,12-1.6,24.1-2.3,36.3l452.4,63.1l-106.2,51l-350-48.8c-2.2,39-4.2,78.8-6,119.5c0,0,566.1,114.1,952.3,112.4
			c0,0,2.4-45.7,4.3-99.3l-560-78.1l106.2-51l455.5,63.5c0.2-10.6,0.3-20.9,0.3-30.7l-1.1-0.4l0.9,0.3c0-2,0-4,0-5.9l-450.5-62.8
			l-88.2-78.1l539.3,75.2c0.1-6.2,0.2-12.4,0.4-18.6c0.7-34.3,1.8-68.6,3.1-103c1.4-36.2,3-72.4,5.2-108.6c1.8-29.2,3.7-58.4,7-87.5
			c1-8.5,1.9-24.3,3.6-32.8c0.7-3.7,1.7-8,7.5-8c3.4,0,6.5,1.7,7.3,4.4c2.2,7.4,2.5,17.3,3.5,25c3.6,27,4.4,55.5,6.1,82.6
			c2.3,35.5,4,71.1,5.5,106.7c1.4,35.1,2.6,70.3,3.4,105.5c0.5,22.4,0.7,45.1,0.8,67.5c0,3.5,0,7,0,10.6c0,2.9,0,5.7-0.1,8.5
			c-0.1,6.2,0.1,12.4,0,19.2c-0.1,19.8,0.2,42.1,0.6,64.2c1,66.2,3.2,131.8,3.2,131.8c386.3,1.7,955-112.4,955-112.4
			c-2-40.9-4.1-80.7-6.2-119.7l-350,48.8l-106.2-51l452.4-63.1c-0.8-12.2-1.5-24.3-2.3-36.3l-455.1,63.4l88.2-78.1l362.4-50.5
			c-70.1-978.3-239.7-1351.4-239.7-1351.4c5.2-73.1-2.9-120.2-6.8-137.7c-1-4.5-5.1-7.6-9.6-7.4c-58.5,1.9-116.5,3.4-174.1,4.6
			c-20.7,0.4-41.4,1-62,1.3c-12.4,0.2-24.7,0.4-37,0.6v-0.1c-149.2,2.2-296.7,2.4-446.1,2.4c-145.6,0-288-0.4-433.1-2.5
			L743.9,2898.2z M1210.5,4552.9c0-11-0.1-22.1-0.4-33.3l539.3-75.2l-88.2,78.1l-450.5,62.8c0-4.7,0-9.3,0.1-13.6
			C1210.9,4565.4,1210.5,4559.3,1210.5,4552.9z M1212.5,4687.7c-0.4-10.6-0.7-21.5-1-32.5l0,0c-0.3-11.1-0.6-22.3-0.7-33.1
			l455.5-63.5l106.2,51L1212.5,4687.7z"/>
	</g>
</g>
<g id="Jersey">
	<path id="Inside" style="fill:#F0F0F0;stroke:#000000;stroke-miterlimit:10;" d="M776.4,259.5L776.4,259.5c0.2,0.7,0.3,1.4,0.5,2.1
		c0.2,0.8,0.4,1.6,0.7,2.5c2.3,8.3,5.6,16.5,9.1,24.8l0.2,0.6c0.1,0.1,1.3,3.2,3.7,8.6c2.5,5.8,5.3,12,8.4,18.7l1.2,2.6l2.4,5
		c0.7,1.4,1.4,2.9,2.1,4.4c0.5,1.1,1,2.1,1.6,3.3l2.5,5.1c1.7,3.5,3.5,7.1,5.4,10.9c2.6,5.2,5.3,10.6,8.1,15.8l0.1,0.3
		c19.7,38.4,41.1,75.4,65.4,113c38.1,59.1,78.8,111.7,120.8,156.1c47.3,50,96.7,89.9,146.7,118.7l12.8,6.4l0,0l3.9,1.9l2.5,1.1
		l2.5-1.1l16.6-8.3c50-28.8,99.4-68.7,146.7-118.7c42.1-44.4,82.7-97,120.8-156.1c24.3-37.6,45.6-74.6,65.4-113l0.2-0.3
		c2.7-5.3,5.4-10.6,8.1-15.8c0.6-1.2,1.2-2.3,1.7-3.5l1.7-3.4l1.6-3.3l1.5-3.2l2.2-4.6l2.7-5.6l1.2-2.6l2.1-4.5l0.3-0.6l0.1-0.2
		c3-6.5,5.8-12.7,8.3-18.3c2.3-5.3,3.5-8.3,3.7-8.6l0.2-0.5c4.4-10.6,8.3-20.2,10.5-30.1l0.1-0.3l0.1-0.6c0.1-0.5,0.2-1.1,0.2-1.6
		c-3.5,0.4-6.7,0.8-6.7,0.8l-5.4,0.7l-7.8,0.9l-9.4,1.1l-11.5,1.3l-8.5,1c-4.3,0.5-8.8,1-13.5,1.5c0,0-6.4,0.7-9.6,1l-10.4,1.1
		l-10.9,1.1l-11.3,1.2l-11.8,1.2l-6.2,0.6c-4,0.4-8.1,0.8-12.2,1.2l-6.1,0.6l-6.2,0.6l-6.5,0.6l-6.5,0.6l-6.6,0.6l-6.6,0.6l-6.7,0.6
		l-6.9,0.6l-6.9,0.6l-6.9,0.6l-7.2,0.6c-4.5,0.4-9.1,0.7-13.6,1c0,0-4.6,0.3-6.8,0.5c0,0-4.9,0.4-7,0.5c0,0-4.9,0.3-7,0.5
		c0,0-5,0.3-7,0.5c0,0-5,0.3-7.1,0.5c0,0-5.1,0.3-7.1,0.4c0,0-5.1,0.3-7.1,0.4c0,0-5.1,0.3-7.2,0.4c0,0-5,0.3-7.1,0.4l-7.6,0.4
		c-2.2,0.1-4.4,0.2-6.8,0.3c-2.3,0.1-4.5,0.2-6.8,0.3h-0.2c-2.2,0.1-4.4,0.2-6.5,0.3l-7.6,0.3c-2.1,0.1-4.1,0.2-6.2,0.2h-0.8
		c-2,0.1-4,0.1-6.1,0.2h-0.9c-2,0.1-6.9,0.2-6.9,0.2c-2,0.1-6.8,0.2-6.8,0.2c-2,0.1-6.8,0.2-6.8,0.2c-2,0-3.9,0.1-5.9,0.1h-0.8
		c-2,0-3.9,0.1-5.9,0.1h-0.7c-2,0-4,0.1-5.9,0.1h-0.6c-2,0-4,0-6,0h-0.3c-2.1,0-4.1,0-6.2,0c-3.6,0-7.2,0-10.8,0
		c-3.6,0-7.2,0-10.8,0c-2,0-4.1,0-6.2,0h-0.3c-2,0-4,0-6,0h-0.6c-2,0-3.9,0-5.9-0.1h-0.7c-2,0-3.9-0.1-5.9-0.1h-0.8
		c-1.9,0-3.9-0.1-5.9-0.1h-0.9c-1.9,0-3.9-0.1-5.9-0.1h-0.9c-2-0.1-3.9-0.1-5.9-0.2l-7.8-0.2c-2-0.1-4-0.1-6.1-0.2h-0.8
		c-2.1-0.1-4.1-0.2-6.2-0.2c0,0-4.9-0.2-7.1-0.3l-7.2-0.3c-2.2-0.1-4.5-0.2-6.8-0.3c0,0-4.5-0.2-6.7-0.3c0,0-4.8-0.3-7-0.4
		c0,0-4.9-0.3-7-0.4c0,0-4.9-0.3-7-0.4c0,0-5-0.3-7.1-0.4c0,0-5.1-0.3-7.1-0.4c0,0-5.1-0.3-7.1-0.5c0,0-5.1-0.3-7.1-0.5
		c0,0-5-0.3-7.2-0.5c0,0-4.9-0.3-7-0.5l-7.4-0.5c-4.6-0.3-9.1-0.7-13.6-1l-6.8-0.5L971,277l-6.8-0.6l-6.6-0.6l-6.8-0.6l-6.9-1.4
		l-6.7-0.6l-6.6-0.6l-6.5-0.6l-6.5-0.6l-6.5-0.6c-4.1-0.4-8.2-0.8-12.2-1.2l-11.7-1.2l-5.8-0.6l-11.3-1.2l-11-1.1l-10.4-1.1l-10-1.1
		c-4.7-0.5-9.2-1-13.4-1.5l-4.3-0.5l-11.6-1.3l-10.5-1.2c-4.1-0.5-7.7-0.9-10.8-1.3l-5.4-0.7c0,0-3.3-0.4-6.8-0.8
		c0.1,0.9,0.2,1.7,0.4,2.4L776.4,259.5z"/>
	<g id="Color_3_00000026161976057432823130000009743913958064727718_">
		<g id="Color_2">
			<polygon style="fill:#C09C62;" points="353.3,1755.2 354.7,1988.1 353.3,2221.1 418.8,2123.1 419.4,1929.8 418.8,1853.2 			"/>
			<path style="fill:#C09C62;" d="M1929.9,1853.2l-0.6,76.7l0.6,193.3l41.7,62.4c-0.8-126.9,4.3-272.3,10.3-408.9L1929.9,1853.2z"/>
			<path style="fill:#C09C62;" d="M2437.6,1770.5c6.1,141.6,10.3,292.3,9.2,421.7l46.1-69l0.6-193.3l-0.6-76.7L2437.6,1770.5z"/>
			<path style="fill:#C09C62;" d="M4004,1853.2l-0.6,76.7l0.6,193.3l39.3,58.7c-0.9-123.6,3.1-265.8,8.8-400.6L4004,1853.2z"/>
			<path style="fill:#C09C62;" d="M540.5,448.2c-0.3-1.4-0.6-2.8-1-4.2l-1-4.2l-1-4.1c-0.3-1.3-0.6-2.7-1-4.1l-2.1-8.8
				c-0.2-1-0.5-2-0.7-3.1l-0.1-0.2v-0.1l-0.4-1.5l-1.4-5.7c-0.3-1-0.5-2.1-0.8-3.1l-0.2-0.6c0-0.1-0.1-0.3-0.1-0.4
				c-0.3-1.1-0.5-2.2-0.8-3.3l-2.7-10.6l-1.7-6.7l-1.7-6.5c-0.2-0.9-0.5-1.8-0.7-2.6l-0.3-1.1c-0.2-0.9-0.5-1.7-0.7-2.6l-1.6-5.9
				l-1.5-5.7l-1.5-5.4l-1.4-5.1c-0.2-0.8-0.4-1.6-0.7-2.4c-0.2-0.8-0.5-1.6-0.7-2.4l-3.6-12.6c-0.2-0.6-0.3-1.1-0.5-1.8l-1-3.4
				l-1.7-5.8c-0.1-0.5-0.3-1-0.4-1.4l-0.3-1.1c-0.1-0.4-0.2-0.7-0.9-2.3c-0.1-0.3-0.3-0.6-0.4-0.9c-0.1-0.3-0.2-0.4-0.2-0.5
				c-0.2-0.5-0.3-0.9-0.5-1.2c-0.1-0.1-0.1-0.2-0.2-0.3c-1.2-1.5-3.4-0.9-6-0.1l-36.2,13.9c-0.6,0.2-1.1,0.4-1.6,0.6l-5.9,2.2
				c-3.2,1-4.7,2.3-3.7,5.5c5.9,19,25.3,83.9,43.6,171.1c1.3,6.1,3.6,12.7,4.8,19l43.1-71.7l-2-5
				C541.1,450.7,540.8,449.4,540.5,448.2z"/>
			<path style="fill:#C09C62;" d="M479,1111.9c0,0.2-0.3,0.5-0.4,0.7s-0.2,0.5-0.4,0.7c-0.3,0.5-0.5,1-0.8,1.5
				c-0.5,0.9-1,1.9-1.5,2.8c-1.5,2.7-3,5.4-4.6,8.1c-1.5,2.6-3.1,5.2-4.8,7.8c-1.6,2.5-3.2,5-4.9,7.5c-1.7,2.4-3.4,4.8-5.1,7.2
				c-1.7,2.3-3.5,4.6-5.3,6.9c-1.8,2.2-3.6,4.5-5.5,6.6c-1.8,2.2-3.7,4.3-5.7,6.4c-1.9,2.1-3.9,4.1-5.9,6.1s-4,3.9-6,5.9
				c-2,1.9-4.1,3.8-6.2,5.6c-2.1,1.8-4.2,3.6-6.4,5.4c-2.2,1.8-4.3,3.5-6.6,5.1c-2.2,1.7-4.5,3.3-6.8,4.9s-4.6,3.2-6.9,4.7
				s-4.7,3-7.1,4.4c-2.4,1.5-4.8,2.9-7.3,4.2c-2.5,1.4-5,2.7-7.5,4s-5.1,2.6-7.6,3.8c-2.6,1.2-5.2,2.5-7.8,3.6
				c-2.6,1.2-5.3,2.3-8,3.4c-1.8,0.7-3.5,1.4-5.3,2.1c-0.4,0.2-0.9,0.3-1.3,0.5c-0.9,0.3-1.8,0.6-2.6,0.9c-0.6,0.2-1.2,0.4-1.7,0.8
				c-1,0.4-2.1,0.8-3.1,1.2c-0.9,0.3-1.8,0.6-2.6,0.9c-0.7,0.2-1.4,0.5-1.9,0.9c-0.2,0.2-0.4,0.7-0.4,0.8c0,3.5,0.5,10.1,0.8,13.6
				c0.4,4.6,0.8,8.4,1.2,12.2c0.1,1.1,0.2,2.1,0.3,3.1c0.2,2.2,0.4,4.4,0.6,6.9c0.3,3.9,0.6,7.7,1.1,11.6c0.1,0.5,0.1,1,0.2,1.5
				c0.2,2.2,0.4,4.4,0.7,6.7c0.3,2.4,0.5,5.3,1.1,7.6c0,0.2,0.1,0.6,0.4,0.7c0.2,0,0.7-0.1,0.9-0.1c0,0,0,0,0.1,0h0.1
				c0.3,0,0.6-0.1,0.8-0.1l0,0c1-0.2,1.3-0.3,2.2-0.6c0.6-0.2,1.1-0.3,2-0.6c0.7-0.2,1.3-0.4,2-0.6c0.4-0.1,0.8-0.2,1.2-0.4
				c2.6-0.8,5.4-1.8,8.8-3.1c1.8-0.7,3.7-1.4,5.5-2.2c1.8-0.7,3.6-1.5,5.4-2.2c1.8-0.8,3.6-1.5,5.4-2.3s3.5-1.6,5.2-2.4
				s3.5-1.6,5.2-2.5c1.7-0.8,3.4-1.7,5.1-2.5c1.7-0.9,3.3-1.7,5-2.6s3.3-1.8,4.9-2.7c1.6-0.9,3.2-1.8,4.9-2.8
				c1.6-0.9,3.2-1.9,4.8-2.9c1.6-1,3.1-1.9,4.7-2.9s3.1-2,4.7-3c1.5-1,3.1-2,4.6-3.1c1.5-1,3-2.1,4.5-3.1c1.5-1.1,2.9-2.1,4.4-3.2
				s2.9-2.2,4.3-3.3c1.3-1,2.6-2,3.8-3l0,0c0.1-0.1,0.3-0.2,0.4-0.3c0.8-0.6,1.6-1.3,2.5-2l2.5-2.1l2.6-2.2l0,0
				c0.3-0.2,0.5-0.5,0.8-0.7c1.4-1.2,2.7-2.3,4.1-3.5c1.3-1.2,2.7-2.4,4-3.6l0.6-0.5c1.1-1,2.2-2.1,3.3-3.1c1.3-1.2,2.6-2.5,3.8-3.7
				c1.3-1.3,2.6-2.5,3.8-3.8c1.3-1.3,2.5-2.6,3.7-3.9c1.2-1.2,2.3-2.5,3.5-3.7c0.1-0.1,0.1-0.1,0.2-0.2c1.2-1.3,2.4-2.6,3.6-4
				c0.5-0.6,1-1.1,1.5-1.7l1.2-1.3c0.3-0.3,0.6-0.7,0.8-1c1.2-1.4,2.3-2.7,3.4-4.1c1.1-1.4,2.2-2.7,3.4-4.2c1.1-1.4,2.2-2.8,3.3-4.2
				c1.1-1.4,2.2-2.8,3.2-4.3c1.1-1.4,2.1-2.9,3.2-4.3s2.1-2.9,3.1-4.4s2-2.9,3-4.4c0.2-0.3,0.4-0.6,0.6-0.8c0.8-1.2,1.6-2.4,2.4-3.6
				c1-1.5,2-3,2.9-4.5c0.5-0.7,0.9-1.5,1.4-2.2c0,0,1.2-1.9,1.5-2.4c0.9-1.5,1.9-3.1,2.8-4.6c0.9-1.5,1.8-3.1,2.7-4.7
				s1.8-3.1,2.7-4.7s1.7-3.2,2.6-4.8c0.9-1.6,1.7-3.2,2.5-4.8c0.8-1.6,1.7-3.2,2.5-4.8c0.8-1.6,1.6-3.2,2.4-4.9
				c0.8-1.6,1.6-3.3,2.3-4.9c0.2-0.3,0.3-0.7,0.5-1l0.5-1.1c0.5-1,0.9-2,1.4-2.9c0.8-1.6,1.5-3.3,2.2-4.9v-0.1
				c0.3-0.7,0.6-1.4,0.9-2.1l-24.8-93C505.4,1053.4,493.5,1084,479,1111.9z"/>
			<path style="fill:#C09C62;" d="M1853.1,509.7c18.3-87.1,37.7-152,43.6-171.1c1-3.2-0.5-4.4-3.7-5.5l-5.9-2.2
				c-0.5-0.2-1-0.4-1.6-0.6l-36.2-13.9c-2.6-0.8-4.7-1.4-5.9,0.1l0,0c-0.1,0.1-0.1,0.2-0.2,0.3c-0.2,0.3-0.4,0.7-0.5,1.2
				c0,0.1-0.1,0.2-0.2,0.5c-0.1,0.2-0.2,0.6-0.4,0.9c-0.6,1.6-0.7,1.9-0.9,2.3l-0.3,1.1c-0.1,0.4-0.3,0.9-0.4,1.4l-1.7,5.8l-1,3.4
				c-0.2,0.6-0.3,1.2-0.5,1.8l-3.6,12.6c-0.2,0.8-0.5,1.6-0.7,2.4s-0.4,1.6-0.7,2.4l-1.4,5.1l-1.5,5.4l-1.5,5.7l-1.6,5.9
				c-0.2,0.8-0.5,1.7-0.7,2.6l-0.3,1.1c-0.2,0.9-0.5,1.8-0.7,2.6l-1.7,6.5l-1.7,6.7l-2.7,10.6c-0.3,1.1-0.5,2.2-0.8,3.3
				c0,0.1-0.1,0.3-0.1,0.4l-0.2,0.6c-0.3,1-0.5,2.1-0.8,3.1l-1.4,5.7l-0.4,1.5v0.1l-0.1,0.2c-0.3,1-0.5,2-0.7,3.1l-2.1,8.8
				c-0.3,1.4-0.6,2.7-1,4.1l-1,4.1l-1,4.2c-0.3,1.4-0.7,2.8-1,4.2c-0.3,1.2-0.6,2.5-0.8,3.7l-1,4.6l43.1,71.7
				C1850.6,522,1851.8,515.8,1853.1,509.7z"/>
			<path style="fill:#C09C62;" d="M2015.2,1235.7c-0.9-0.3-1.8-0.6-2.6-0.9c-1.1-0.4-2.1-0.8-3.1-1.2c-0.5-0.4-1.1-0.6-1.7-0.8
				c-0.9-0.3-1.8-0.6-2.6-0.9c-0.4-0.2-0.9-0.3-1.3-0.5c-1.8-0.7-3.6-1.4-5.3-2.1c-2.7-1.1-5.3-2.3-8-3.4c-2.6-1.2-5.2-2.4-7.8-3.6
				c-2.6-1.2-5.1-2.5-7.6-3.8s-5-2.7-7.5-4c-2.5-1.4-4.9-2.8-7.3-4.2c-2.4-1.4-4.8-2.9-7.1-4.4c-2.3-1.5-4.6-3.1-6.9-4.7
				s-4.5-3.2-6.8-4.9c-2.2-1.7-4.4-3.4-6.6-5.1c-2.2-1.8-4.3-3.5-6.4-5.4c-2.1-1.8-4.2-3.7-6.2-5.6s-4.1-3.9-6-5.9
				c-2-2-3.9-4-5.8-6.1s-3.8-4.2-5.7-6.4c-1.9-2.2-3.7-4.4-5.5-6.6c-1.8-2.3-3.6-4.6-5.3-6.9c-1.8-2.4-3.5-4.8-5.1-7.2
				c-1.7-2.5-3.3-5-4.9-7.5c-1.6-2.6-3.2-5.2-4.8-7.8c-1.6-2.7-3.1-5.4-4.6-8.1c-0.5-0.9-1-1.9-1.5-2.8c-0.3-0.5-0.5-1-0.8-1.5
				c-0.1-0.2-0.2-0.5-0.4-0.7c-0.1-0.2-0.4-0.5-0.4-0.7c-14.4-27.9-25.4-58.6-33.6-91.2l-25.8,93.2c0.3,0.7,0.6,1.4,0.9,2.1v0.1
				c0.7,1.6,1.5,3.3,2.2,4.9c0.4,1,0.9,1.9,1.4,2.9l0.5,1.1c0.2,0.3,0.3,0.7,0.5,1c0.7,1.6,1.5,3.2,2.3,4.9c0.8,1.7,1.6,3.3,2.4,4.9
				s1.6,3.2,2.5,4.8c0.8,1.6,1.7,3.2,2.5,4.8c0.9,1.6,1.7,3.2,2.6,4.8c0.9,1.6,1.8,3.1,2.7,4.7c0.9,1.6,1.8,3.1,2.7,4.7
				c0.9,1.5,1.8,3.1,2.8,4.6c0.2,0.4,1.5,2.4,1.5,2.4c0.5,0.7,0.9,1.5,1.4,2.2c1,1.5,1.9,3,2.9,4.5c0.8,1.2,1.6,2.4,2.4,3.6
				c0.2,0.3,0.4,0.6,0.6,0.8c1,1.5,2,3,3,4.4c1,1.5,2.1,2.9,3.1,4.4s2.1,2.9,3.2,4.3s2.1,2.8,3.2,4.3c1.1,1.4,2.2,2.8,3.3,4.2
				c1.1,1.4,2.3,2.8,3.4,4.2c1.1,1.4,2.3,2.7,3.4,4.1c0.3,0.3,0.5,0.6,0.8,1l1.2,1.3c0.5,0.6,1,1.1,1.5,1.7c1.2,1.3,2.4,2.7,3.6,4
				c0.1,0.1,0.1,0.1,0.2,0.2c1.1,1.2,2.3,2.5,3.5,3.7c1.2,1.3,2.5,2.6,3.7,3.9c1.2,1.2,2.5,2.5,3.8,3.8c1.3,1.2,2.5,2.5,3.8,3.7
				c1.1,1,2.2,2.1,3.3,3.1l0.6,0.5c1.3,1.2,2.7,2.4,4,3.6s2.7,2.4,4.1,3.5c0.3,0.2,0.5,0.5,0.8,0.7l0,0l2.6,2.2l2.5,2.1
				c0.8,0.7,1.6,1.3,2.5,2c0.1,0.1,0.3,0.2,0.4,0.3l0,0c1.3,1,2.5,2,3.8,3c1.4,1.1,2.9,2.2,4.3,3.3c1.5,1.1,2.9,2.2,4.4,3.2
				c1.5,1.1,3,2.1,4.5,3.1s3,2.1,4.6,3.1c1.5,1,3.1,2,4.7,3s3.1,2,4.7,2.9c1.6,1,3.2,1.9,4.8,2.9c1.6,0.9,3.2,1.9,4.9,2.8
				c1.6,0.9,3.3,1.8,4.9,2.7c1.7,0.9,3.4,1.8,5,2.6c1.7,0.9,3.4,1.7,5.1,2.5s3.5,1.7,5.2,2.5c1.8,0.8,3.5,1.6,5.2,2.4
				c1.8,0.8,3.6,1.6,5.4,2.3c1.8,0.8,3.6,1.5,5.4,2.2c1.9,0.7,3.7,1.5,5.5,2.2c3.4,1.3,6.2,2.3,8.8,3.1c0.4,0.1,0.8,0.3,1.2,0.4
				c0.7,0.2,1.3,0.4,2,0.6c0.9,0.3,1.4,0.5,2,0.6c0.8,0.3,1.2,0.4,2.2,0.6l0,0c0.2,0.1,0.5,0.1,0.8,0.1h0.1c0,0,0,0,0.1,0
				c0,0,0,0,0.1,0c0.3,0.1,0.7,0.2,0.9,0.1c0.3-0.1,0.4-0.5,0.4-0.7c0.7-2.4,0.8-5.2,1.1-7.6c0.3-2.2,0.5-4.4,0.7-6.7
				c0.1-0.5,0.1-1,0.2-1.5c0.5-3.8,0.8-7.7,1.1-11.6c0.2-2.5,0.4-4.8,0.6-6.9c0.1-1,0.2-2,0.3-3.1c0.4-3.8,0.8-7.5,1.2-12.2
				c0.3-3.5,0.8-10.1,0.8-13.6c0-0.2-0.2-0.6-0.4-0.8C2016.6,1236.1,2015.8,1235.9,2015.2,1235.7z"/>
			<path style="fill:#C09C62;" d="M2606.5,449.6L2606.5,449.6c0-0.1,0-0.2,0-0.3c-2.1-11.3-4.3-22.6-6.7-33.9
				c-0.3-1.6-0.6-3.3-1-4.9c-0.1-0.2-0.1-0.5-0.2-0.7c0-0.1,0-0.1,0-0.2c-0.6-2.8-1.2-5.6-1.8-8.4l0,0c-1.4-6.5-2.9-13-4.4-19.5
				c-2.6-11.2-5.3-22.4-8.1-33.6l-9.9-37.3c0-0.3-0.2-0.5-0.4-0.7c-0.1-0.1-0.3-0.2-0.4-0.3c-0.1,0-0.2-0.1-0.3-0.1
				c-0.1-0.1-0.2-0.1-0.3-0.2c-1.2-0.4-9.9,3.1-14.7,4.6c-2.9,0.9-6.3,2-8.6,2.8c-6.6,2.1-12.5,4.4-19.1,6.3c-2,0.6-2.9,0.9-4.9,1.5
				c-1.4,0.4-4.9,1.2-5.7,2.7c-1.3,2.5,2,12.5,4.2,20.4c14.6,53.1,25.6,107.1,33.9,161.6c0.9,6.1,1.8,12.2,2.7,18.3l46-76.5
				c0-0.2-0.1-0.5-0.1-0.7C2606.6,450.2,2606.6,449.9,2606.5,449.6z"/>
			<path style="fill:#C09C62;" d="M2568.2,1009.8c-6.2,24.4-14.3,48.2-24.3,71.2c-15,34.3-33,65.8-59.8,91.9
				c-12,11.7-24.9,22.3-38.2,32.5c-13,9.9-26.3,18.6-40.1,27.3c-2.1,1.4-3.4,3.8-3.1,6.3c0.6,8.6,2,28.7,3.3,41
				c0.6,6.7,1.2,12.8,1.7,16.8c0.2,1.8,0.4,3.6,1.5,3.9c0.1,0,0.3,0,0.5,0l0,0c0.1,0,0.1,0,0.1,0c0.1-0.1,0.2-0.1,0.3-0.1
				s0.2-0.1,0.3-0.1c0.1-0.1,0.3-0.1,0.4-0.2c1.4-0.6,2.8-1.3,4.2-2c0.3-0.1,0.5-0.2,0.8-0.4c0.2-0.1,0.4-0.2,0.6-0.3
				c0.1,0,0.1-0.1,0.2-0.1c2.1-1,4.2-2,6.3-3.1c0.3-0.2,0.6-0.3,0.9-0.5l0,0c0.2-0.1,0.3-0.2,0.5-0.3c0.9-0.5,1.7-1,2.6-1.5
				c0.3-0.2,0.5-0.3,0.8-0.5c9.5-5.7,18.9-11.7,28-18.1c2.2-1.6,4.4-3.1,6.5-4.7c6.5-4.7,12.9-9.6,19.1-14.6
				c5.2-4.2,10.3-8.6,15.4-13c0.8-0.6,1.5-1.3,2.3-2c0.8-0.8,1.7-1.5,2.6-2.3c2.5-2.1,4.6-3.9,6.4-5.6c0.1-0.1,0.1-0.1,0.2-0.2
				c0.9-0.8,1.8-1.6,2.6-2.4c0.3-0.2,0.5-0.5,0.8-0.7c0.1-0.2,0.5-0.5,0.5-0.5c0.6-0.5,1.1-1,1.6-1.5l0.7-0.7
				c6.9-6.5,13.4-13,19.4-19.4c3.2-3.4,6.4-7,9.7-10.7c0.1-0.1,0.2-0.2,0.3-0.3c1.2-1.5,2.5-3,3.8-4.5c1.1-1.3,2.1-2.6,3.2-3.9
				l0.1-0.1c0.1-0.2,0.3-0.3,0.4-0.5c0.2-0.3,0.4-0.5,0.6-0.8c2.4-3,4.8-6.1,7.1-9.2c1.1-1.5,2.3-3.1,3.4-4.7
				c3.9-5.4,7.9-11.3,11.6-17.5c0.1-0.1,0.1-0.2,0.2-0.3c0.1-0.2,0.3-0.5,0.4-0.7c1.3-2.1,2.5-4.1,3.6-6.1c1.3-2.3,2.6-4.6,3.8-6.8
				c1-1.7,1.9-3.5,2.8-5.3c0.3-0.5,0.6-1.1,0.8-1.6c0.7-1.3,1.3-2.6,2-3.9c0.3-0.6,0.6-1.1,0.8-1.7c0.8-1.7,1.7-3.4,2.5-5.1
				c0.1-0.1,0.1-0.2,0.2-0.4c0.9-1.8,1.7-3.7,2.6-5.5c0.3-0.6,0.5-1.2,0.8-1.8c0.6-1.3,1.2-2.7,1.8-4c0.3-0.6,0.6-1.3,0.8-1.9
				c0.7-1.7,1.4-3.4,2.1-5.1c0.1-0.2,0.2-0.5,0.3-0.7l0,0L2568.2,1009.8L2568.2,1009.8z"/>
			<path style="fill:#C09C62;" d="M3931.7,509.4c8.4-54.5,19.3-108.5,33.9-161.6c2.2-7.9,5.5-17.9,4.2-20.4
				c-0.8-1.5-4.3-2.3-5.7-2.7c-2-0.6-2.9-0.9-4.9-1.5c-6.6-1.9-12.5-4.2-19.1-6.3c-2.3-0.8-5.7-1.9-8.6-2.8
				c-4.8-1.5-13.5-5-14.7-4.6c-0.1,0.1-0.2,0.1-0.3,0.2c-0.1,0-0.2,0.1-0.3,0.1c0,0-0.1,0.1-0.2,0.1c-0.1,0.1-0.2,0.1-0.2,0.2
				c-0.2,0.2-0.4,0.4-0.4,0.7l-9.9,37.3c-2.8,11.2-5.5,22.4-8.1,33.6c-1.5,6.5-2.9,13-4.4,19.5c-0.6,2.8-1.2,5.6-1.8,8.4
				c0,0.1,0,0.1,0,0.2c-0.1,0.2-0.1,0.5-0.2,0.7c-0.4,1.6-0.7,3.3-1,4.9c-2.4,11.3-4.6,22.6-6.7,33.9c0,0.1,0,0.2,0,0.3l0,0
				c-0.1,0.3-0.1,0.6-0.2,0.9c0,0.2-0.1,0.5-0.1,0.7l46,76.5C3929.9,521.6,3930.8,515.5,3931.7,509.4z"/>
			<path style="fill:#C09C62;" d="M4084.1,1232.7c-13.8-8.7-27.1-17.4-40.1-27.3c-13.3-10.2-26.2-20.8-38.2-32.5
				c-26.8-26.1-44.8-57.6-59.8-91.9c-10-23-18.2-46.9-24.3-71.2l0,0l-31.3,93.2c5.4,13.1,11.2,25.4,17.6,37c1.2,2.2,2.5,4.5,3.8,6.8
				c1.1,2,2.3,4,3.6,6.1c0.1,0.2,0.3,0.5,0.4,0.7c0.1,0.1,0.1,0.2,0.2,0.3c3.7,6.2,7.7,12.1,11.6,17.5c1.1,1.6,2.3,3.2,3.4,4.7
				c2.3,3.1,4.7,6.2,7.1,9.2c0.2,0.3,0.4,0.5,0.6,0.8c0.1,0.2,0.3,0.3,0.4,0.5l0.1,0.1c1.1,1.3,2.1,2.5,3.1,3.8c0,0,0,0.1,0.1,0.1
				c0.9,1,1.8,2,2.6,3.1c0.4,0.5,0.8,1,1.2,1.4c0.1,0.1,0.2,0.2,0.3,0.3c3.3,3.7,6.5,7.3,9.7,10.7c6,6.4,12.5,12.9,19.4,19.4
				l0.7,0.7c0.5,0.5,1,1,1.6,1.5c0,0,0,0,0.1,0.1s0.2,0.2,0.3,0.3c0,0,0,0.1,0.1,0.1c0.3,0.2,0.5,0.5,0.8,0.7
				c0.2,0.2,0.4,0.3,0.5,0.5c0.7,0.6,1.4,1.3,2.1,1.9c0.1,0.1,0.1,0.1,0.2,0.2c0.2,0.2,0.4,0.3,0.5,0.5c1.1,1,2.3,2,3.6,3.2
				c0.7,0.6,1.5,1.3,2.3,2c0.9,0.8,1.8,1.5,2.6,2.3c0.8,0.7,1.5,1.4,2.3,2c5.1,4.4,10.2,8.8,15.4,13c6.2,5,12.6,9.9,19.1,14.6
				c2.1,1.6,4.3,3.1,6.5,4.7c9.1,6.4,18.5,12.4,28,18.1c0.3,0.2,0.6,0.3,0.8,0.5c0.8,0.5,1.7,1,2.6,1.5c0.2,0.1,0.3,0.2,0.5,0.3l0,0
				c0.3,0.2,0.6,0.3,0.9,0.5c2.1,1.1,4.2,2.1,6.3,3.1c0.1,0,0.1,0.1,0.2,0.1c0.2,0.1,0.4,0.2,0.6,0.3c0.3,0.1,0.5,0.2,0.8,0.4
				c1.4,0.6,2.8,1.3,4.2,2c0.1,0.1,0.3,0.1,0.4,0.2c0.1,0,0.2,0.1,0.3,0.1s0.2,0,0.3,0.1c0,0,0,0,0.1,0l0,0c0.2,0,0.4,0,0.5,0
				c1.1-0.3,1.3-2.1,1.5-3.9c0.5-4,1.1-10.1,1.7-16.8c1.3-12.3,2.7-32.4,3.3-41C4087.5,1236.5,4086.2,1234.1,4084.1,1232.7z"/>
		</g>
		<g id="Trim">
			<path style="fill:#C09C62;" d="M709,233.7c6.5,43,26.1,83.1,44.3,122.1c24.9,52,60.4,114.7,85.5,152.7
				c87.8,133.1,186.9,247.9,329.6,314.6l0,0l5.7,2.9l0,0l0,0l0,0l5.7-2.9l0,0c186.7-88.6,313.5-267.3,408.1-453
				c13.5-26.9,26.2-54.3,36.7-82.6c5-13.2,9.4-26.8,12.4-40.6c0.7-6.4,4.1-13.6,1.2-19.7c-10.7-8.3-23.5-13.5-35.1-20.4
				c-17.2-9.5-34.4-8.5-37.9-8.1c-0.1-1.3-244.4,31.7-391.3,28.9l0,0c-147.5,1.6-391.1-28.7-391.4-28.9c-8.4-2.3-34.1,3.7-50,14.8
				c-6.1,3.4-12.3,6.6-18.2,10.3C710.1,225.6,707.4,229.1,709,233.7z M1580.4,259.9L1580.4,259.9L1580.4,259.9L1580.4,259.9z
				 M783.3,301.1L783.3,301.1L783.3,301.1L783.3,301.1z M782.6,257c133.3,15.7,268.4,29.3,402.4,28.3
				c129.8-0.5,259.1-14.3,387.6-29.3c-4,20.5-14,39.4-23.1,60c-83.2,173-205.9,357.7-375.4,444.8c-1.5-0.6-4.9-2.3-6.4-3
				c-169.8-88-324.8-317.3-391.7-498.9l0,0c-0.2-1.1-0.4-2-0.6-3.3C779.3,256.6,782.6,257,782.6,257z M768.4,260.4L768.4,260.4
				L768.4,260.4L768.4,260.4L768.4,260.4z M768.4,260.1L768.4,260.1L768.4,260.1L768.4,260.1z"/>
			<path style="fill:#C09C62;" d="M2823.6,205.4c27.6,21.5,59.7,36.6,92.8,47.3c19.7,6.3,39.8,11.3,60.2,14.3
				c10,1.4,19.7,2.6,29.8,3.2c0.1,0,1.6,0.1,1.7,0.1c62.8,2.6,126.2,3.7,189.2,4.1l5.7,0.1c0.1,0,0.3,0,0.4,0c-0.3,0-0.7,0-0.9-0.1
				c67.2,0.3,136.6-0.1,203.7-1.6c25.8-0.8,51.5-1.4,77.1-2.6c30.9-2.1,61.4-8,90.8-17.6c33.3-11.2,66.1-26.3,93.5-48.6
				c1.5-5.2-21.2-10.5-25.1-12.6c-10.1-3.4-24.7-7.8-35.2-10.5c-11.1-3.7-43.2,11.4-79.3,18.4c-79.1,18.1-160.9,17.6-241.6,17.6
				c-88.8-0.5-185,3.6-272.7-8.3c-25.8-1.8-110.6-23.3-119.6-27.9c-11.2-2.6-26.8,5.1-37.7,7.7
				C2852.3,190.4,2813.9,199.9,2823.6,205.4z"/>
		</g>
	</g>
	<g id="Color_2_00000023964115633458049420000014365729066205034115_">
		<polygon style="fill:#F4F4F4;" points="347.3,1440 344,1443.8 353.2,1714.2 418.7,1812.2 418,1375.9 		"/>
		<polygon style="fill:#F4F4F4;" points="352.4,2519.7 352.4,2519.7 352.4,2519.7 417.9,2617.7 418.7,2164.1 353.2,2262.1 		"/>
		<path style="fill:#F4F4F4;" d="M1930.8,1812.4l53.1-79.5c5.3-111.6,10.8-215.1,16.1-294.2l-68.5-62.6L1930.8,1812.4z"/>
		<path style="fill:#F4F4F4;" d="M1974.4,2309.2c-1.1-25.9-1.9-53.4-2.3-82.1l-42.1-63l0.8,453.6l61.4-91.9
			c-1.9-20.8-3.7-41.6-5.4-61.6C1980.6,2392,1975.9,2329.6,1974.4,2309.2z"/>
		<path style="fill:#F4F4F4;" d="M2421.4,1440l-1.6,1.8c5.1,78.5,11,178,15.9,284.9l57.1,85.5l-0.7-436.3L2421.4,1440z"/>
		<path style="fill:#F4F4F4;" d="M2444.1,2305.3c-1.6,20.5-6.3,83.1-12.4,155.6c-1.6,19.2-3.4,39-5.2,58.9l65.5,97.9l0.8-453.6
			l-46.5,69.6C2445.8,2258.7,2445.1,2282.6,2444.1,2305.3z"/>
		<path style="fill:#F4F4F4;" d="M4070.8,1435.8l-66-59.9l-0.7,436.3l49.8-74.6C4059.1,1624.2,4065.4,1518.2,4070.8,1435.8z"/>
		<path style="fill:#F4F4F4;" d="M4046,2303.8c-1.1-25.3-1.8-52.2-2.3-80.3l-39.6-59.3l0.8,453.6l59.8-89.4
			c-2.1-23.1-4.2-46.3-6.1-68.5C4052.3,2387.2,4047.5,2324.4,4046,2303.8z"/>
		<path style="fill:#F4F4F4;" d="M587.9,819l-0.1-6.1v-2c0-1.3,0-2.7-0.1-4l-0.1-6c0-2-0.1-4.1-0.2-6.1c0-1.9-0.1-3.8-0.2-5.7v-0.4
			c-0.1-1.9-0.1-3.9-0.2-5.8v-0.2c-0.1-1.7-0.1-3.3-0.2-5v-1c-0.1-2-0.2-4-0.3-6v-0.1c-0.1-2-0.2-3.9-0.3-5.9v-0.3
			c-0.1-1.9-0.2-3.8-0.3-5.7c-0.1-2-0.2-4-0.3-6l-0.4-6c-0.1-1.9-0.2-3.8-0.4-5.6v-0.4c-0.1-2-0.3-4-0.4-6c-0.1-2-0.3-4-0.4-5.9
			c-0.1-2-0.3-4-0.5-6l-0.1-0.7c-0.1-1.8-0.3-3.6-0.4-5.3c-0.2-1.9-0.3-3.7-0.5-5.6v-0.4c-0.2-2-0.3-3.9-0.5-5.9l-0.5-5.9
			c-0.2-1.8-0.3-3.6-0.5-5.4v-0.5c-0.2-2-0.4-3.9-0.6-5.9l-0.6-5.8c-0.2-1.8-0.4-3.6-0.6-5.4l-0.1-0.8c-0.2-1.8-0.4-3.7-0.6-5.5
			l-0.2-2c-0.1-1.3-0.3-2.5-0.4-3.8c-0.2-1.9-0.4-3.9-0.7-5.8l-0.7-5.7c-0.2-1.9-0.5-3.8-0.7-5.8l-0.7-5.7c-0.2-1.9-0.5-3.8-0.7-5.7
			l-0.8-5.6c-0.2-1.8-0.5-3.6-0.7-5.4l-0.8-5.9l-0.8-5.6l-0.8-5.5c-0.3-1.9-0.5-3.7-0.8-5.6l-0.8-5.5l-0.8-5.5
			c-0.3-1.8-0.6-3.7-0.9-5.4c-0.3-1.8-0.6-3.6-0.9-5.4c-0.3-1.8-0.6-3.6-0.9-5.4c-0.3-1.6-0.5-3.3-0.8-4.9l-1-5.8l-0.9-5.3
			c-0.3-1.8-0.6-3.5-0.9-5.2c-0.3-1.7-0.6-3.4-0.9-5.1l-0.3-1.9c-0.2-1.2-0.4-2.3-0.6-3.5l-1-5.6c-0.3-1.5-0.6-3.1-0.8-4.6
			c-0.3-1.7-0.6-3.4-1-5.1L556,521c-0.2-1.2-0.5-2.4-0.7-3.6l-1-4.9l-1.1-5.7c-0.3-1.4-0.5-2.7-0.8-4c-0.3-1.6-0.6-3.2-1-4.8
			l-1.3-8.6l-44.3,72.1c3.9,21.3,7.6,43.4,11,66.2c14.9,101.3,24.7,229.7,6,344l30.1,107.1c0.4-1.3,0.3-3.1,0.7-4.4
			c0.6-1.8,1.2-3.6,1.7-5.3c0.6-1.8,1.1-3.6,1.7-5.4c0.6-1.8,1.1-3.6,1.6-5.4c0.5-1.8,1.1-3.6,1.6-5.4c0.5-1.8,1-3.6,1.5-5.5
			c0.5-1.8,1-3.6,1.5-5.5c0.5-1.8,1-3.7,1.4-5.5c0.5-1.9,0.9-3.7,1.4-5.6s0.9-3.7,1.3-5.6c0.4-1.7,0.8-3.3,1.2-5l0.1-0.6
			c0.4-1.9,0.8-3.7,1.3-5.6v-0.2c0.4-1.8,0.8-3.6,1.2-5.4c0.4-1.8,0.7-3.6,1.1-5.4v-0.2c0.4-1.9,0.8-3.8,1.1-5.7
			c0.4-1.9,0.7-3.8,1.1-5.7c0.3-1.9,0.7-3.8,1-5.7s0.6-3.7,1-5.6V980c0.3-1.9,0.6-3.9,0.9-5.8c0.3-1.9,0.6-3.9,0.9-5.8
			c0.3-1.9,0.6-3.9,0.9-5.9c0.3-1.9,0.5-3.9,0.8-5.8c0.2-1.8,0.5-3.5,0.7-5.3l0.1-0.6c0.2-1.3,0.3-2.6,0.5-4l0.2-1.9
			c0.2-2,0.5-3.9,0.7-5.9c0.2-1.9,0.4-3.9,0.6-5.8v-0.1c0.1-1.3,0.3-2.7,0.4-4l0.2-2c0.2-1.9,0.4-3.9,0.6-5.8c0.2-2,0.4-4,0.5-5.9
			c0.2-2,0.3-4,0.5-6s0.3-4,0.4-6c0.1-2,0.3-4,0.4-6c0.1-2,0.3-4,0.4-6c0.1-2,0.2-4,0.3-6s0.2-4,0.3-6s0.2-4,0.3-6s0.2-4,0.2-6V867
			c0.1-1.9,0.1-3.7,0.2-5.6c0.1-2,0.1-4,0.2-6s0.1-4,0.1-6v-0.1c0-2,0.1-4,0.1-6s0.1-4.1,0.1-6c0-2,0-4.1,0-6c0-2,0-4.1,0-6.1v-2
			C588,821.7,587.9,820.4,587.9,819z"/>
		<path style="fill:#F4F4F4;" d="M1797.3,498.1c-0.3,1.6-0.7,3.2-1,4.8c-0.3,1.3-0.5,2.7-0.8,4l-1.1,5.7l-1,4.9
			c-0.2,1.2-0.5,2.4-0.7,3.6l-1.2,6.4c-0.3,1.7-0.6,3.4-1,5.1c-0.3,1.5-0.6,3-0.8,4.6l-1,5.6c-0.2,1.1-0.4,2.3-0.6,3.5l-0.3,1.9
			c-0.3,1.7-0.6,3.4-0.9,5.1s-0.6,3.5-0.9,5.2l-0.9,5.3l-1,5.8c-0.3,1.6-0.6,3.3-0.8,4.9c-0.3,1.8-0.6,3.6-0.9,5.4s-0.6,3.6-0.9,5.4
			c-0.3,1.8-0.6,3.6-0.9,5.4l-0.8,5.5l-0.8,5.5c-0.3,1.9-0.6,3.7-0.8,5.6l-0.8,5.5l-0.8,5.6l-0.8,5.9c-0.2,1.8-0.5,3.6-0.7,5.4
			l-0.8,5.6c-0.3,1.9-0.5,3.8-0.7,5.7l-0.7,5.7c-0.2,1.9-0.5,3.8-0.7,5.8l-0.7,5.7c-0.2,1.9-0.5,3.9-0.7,5.8
			c-0.1,1.2-0.3,2.5-0.4,3.8l-0.2,2c-0.2,1.8-0.4,3.7-0.6,5.5l-0.1,0.8c-0.2,1.8-0.4,3.6-0.6,5.4l-0.6,5.8c-0.2,2-0.4,3.9-0.6,5.9
			v0.5c-0.2,1.8-0.4,3.6-0.5,5.4l-0.5,5.9c-0.2,2-0.4,4-0.5,5.9v0.4c-0.2,1.9-0.3,3.7-0.5,5.6c-0.2,1.7-0.3,3.5-0.4,5.3l-0.1,0.7
			c-0.2,2-0.3,4-0.5,6c-0.1,2-0.3,4-0.4,5.9c-0.1,2-0.3,4-0.4,6v0.4c-0.1,1.9-0.2,3.8-0.4,5.6l-0.4,6c-0.1,2-0.2,4-0.3,6
			c-0.1,1.9-0.2,3.8-0.3,5.7v0.3c-0.1,2-0.2,3.9-0.3,5.9v0.1c-0.1,2-0.2,4-0.3,6v1c-0.1,1.7-0.1,3.3-0.2,5v0.2
			c-0.1,1.9-0.1,3.9-0.2,5.8v0.4c-0.1,1.9-0.1,3.8-0.2,5.7c-0.1,2-0.1,4-0.2,6.1l-0.1,6c0,1.3,0,2.7-0.1,4v2l-0.1,6.1
			c0,1.4,0,2.7,0,4.1v2c0,2,0,4.1,0,6.1s0,4,0,6s0,4,0.1,6c0,2,0,4,0.1,6v0.1c0,2,0.1,4,0.1,6s0.1,4,0.2,6c0.1,1.9,0.1,3.8,0.2,5.6
			v0.4c0.1,2,0.2,4,0.2,6c0.1,2,0.2,4,0.3,6c0.1,2,0.2,4,0.3,6c0.1,2,0.2,4,0.3,6c0.1,2,0.2,4,0.4,6c0.1,2,0.3,4,0.4,6s0.3,4,0.4,6
			c0.2,2,0.3,4,0.5,6s0.3,4,0.5,5.9c0.2,2,0.4,3.9,0.6,5.8l0.2,2c0.1,1.3,0.3,2.7,0.4,4v0.1c0.2,1.9,0.4,3.9,0.6,5.8
			c0.2,1.9,0.4,3.9,0.7,5.9l0.2,1.9c0.2,1.3,0.3,2.6,0.5,4l0.1,0.6c0.2,1.8,0.5,3.5,0.7,5.3c0.3,1.9,0.5,3.9,0.8,5.8
			c0.3,2,0.6,3.9,0.9,5.9c0.3,1.9,0.6,3.9,0.9,5.8c0.3,1.9,0.6,3.9,0.9,5.8v0.1c0.3,1.9,0.6,3.7,1,5.6c0.3,1.9,0.7,3.8,1,5.7
			c0.4,1.9,0.7,3.8,1.1,5.7s0.7,3.8,1.1,5.7v0.2c0.4,1.8,0.7,3.6,1.1,5.4c0.4,1.8,0.8,3.6,1.2,5.4v0.2c0.4,1.9,0.8,3.8,1.3,5.6
			l0.1,0.6c0.4,1.7,0.8,3.3,1.2,5c0.4,1.8,0.9,3.7,1.3,5.6c0.5,1.9,0.9,3.7,1.4,5.6c0.5,1.8,1,3.7,1.4,5.5c0.5,1.9,1,3.7,1.5,5.5
			c0.5,1.8,1,3.7,1.5,5.5c0.5,1.8,1,3.6,1.6,5.4c0.5,1.8,1.1,3.6,1.6,5.4c0.6,1.8,1.1,3.6,1.7,5.4c0.6,1.8,1.1,3.5,1.7,5.3
			c0.4,1.3,0.9,2.6,1.3,3.9l29.5-106.6c-18.7-114.3-8.9-242.7,6-344c3.3-22.8,7.1-44.9,11-66.2l-43.7-72.7L1797.3,498.1z"/>
		<path style="fill:#F4F4F4;" d="M2631.7,651.2c-0.9-9.7-1.7-19.4-2.6-29.1c-4-43.7-8.7-90.5-16.3-136.9l-47.2,78.6
			c7.3,59.5,12,119.4,15.2,179.1c0.8,15.4,1.5,30.7,2.1,46c2.1,53.3,2.7,106.8-3.6,159.6l5.7,19.7l0.4-1.2l27.3,98.9
			c0.1-0.4,0.2-0.8,0.3-1.1c0.7-2.3,1.4-4.6,2.1-6.9c0.2-0.7,0.4-1.4,0.6-2.1c0.8-2.8,1.6-5.6,2.4-8.4c0.1-0.3,0.2-0.6,0.2-0.9
			c0.7-2.6,1.4-5.2,2-7.8c0.2-0.7,0.4-1.4,0.5-2.2c0.7-2.9,1.4-5.8,2.1-8.8c0-0.2,0.1-0.3,0.1-0.5c1.1-4.8,2.2-9.6,3.2-14.5
			c1.1-5.1,2.1-10.3,3-15.6c0.1-0.4,0.2-0.9,0.2-1.3c0.5-3,1.1-6.1,1.6-9.2c0.1-0.4,0.1-0.8,0.2-1.2c1.1-6.8,2.2-13.8,3.2-20.9
			c0.1-0.6,0.2-1.3,0.3-1.9c0.4-2.8,0.7-5.7,1.1-8.5c0.1-0.9,0.2-1.7,0.3-2.6c0.4-3,0.7-6,1-9c0.1-0.6,0.1-1.1,0.2-1.7
			c0.4-3.6,0.7-7.2,1.1-10.8c0.1-0.7,0.1-1.4,0.2-2.1c0.3-2.9,0.5-5.8,0.8-8.7c0.1-1.1,0.2-2.3,0.3-3.4c0.2-2.6,0.4-5.3,0.6-7.9
			c0.1-1.1,0.2-2.2,0.2-3.3c0.2-3.7,0.5-7.3,0.7-11.1c4.1-74.6-1.1-148-6.8-210C2633.6,673,2632.7,662.1,2631.7,651.2z"/>
		<path style="fill:#F4F4F4;" d="M3909,742.9c3.2-59.7,7.9-119.6,15.2-179.1l-47.2-78.6c-7.6,46.3-12.3,93.1-16.3,136.9
			c-0.9,9.7-1.7,19.4-2.6,29.1c-1,10.9-1.9,21.8-2.9,32.7c-5.7,62-10.9,135.4-6.8,210c3.7,65.4,13.3,122.9,28.6,172.1l27.7-97.7l0,0
			l5.7-19.7c-6.3-52.9-5.7-106.4-3.6-159.6C3907.5,773.6,3908.2,758.3,3909,742.9z"/>
	</g>
	<g id="Color_1">
		<path d="M2000,1438.7c3.2-49.1,8.4-118.2,10.2-137.5c0,0,0,0-0.1,0c-0.3,0-0.8-0.1-1-0.1c-35.6-10.5-69.5-28.9-98.6-52l0,0
			c-2.5-1.9-5.6-4.5-8-6.6l0,0c-40.8-34.3-71.3-79.7-92.3-128.4l25.8-93.2c-4-15.9-7.3-32.2-10-48.8l-29.5,106.6
			c-59.8-180.7-34.5-405.3,2.8-589.4L1843,562c2.1-11.4,4.2-22.5,6.4-33.4l-43.1-71.7c6.9-31.2,15-62.5,23.3-93.4
			c2.8-10.3,6.4-22.8,9.4-33.1c1.3-4.2,2.4-9.5,4.6-13.5c-35.7-15.3-135.9-57.2-203.7-86.4c-1.5,24-10.8,47.1-19.3,69.3
			c-11.5,29.6-25.6,58.1-40,86.3c-94.2,180.1-218.5,351.4-400.2,437.4l0,0l-5.7,2.9l0,0l0,0l0,0l-5.7-2.9l0,0
			c-182.4-86.7-301.6-252.6-398-432.9c-24.4-51.1-54.6-103.1-61.5-160.1c-67.8,29.2-168.1,71.2-203.7,86.5c2.1,4,3.3,9.2,4.6,13.5
			c3,10.3,6.6,22.8,9.4,33.1c8.3,30.9,16.4,62.2,23.3,93.4L500,528.7c2.2,10.8,3.7,21.4,5.8,32.8l44.3-72.1
			c37.2,184,62.6,408.7,2.8,589.4l-30.1-107.1c-2.7,16.6-5.4,33.4-9.4,49.3l24.8,93c0.5,3.6-2.1,6.9-3.5,10.2
			c-5.6,12.2-11.9,24.1-18.7,35.7c-18.5,30.9-41.4,59.5-69.1,82.7l0,0c-2.5,2.1-5.4,4.6-8,6.6l0,0c-29.1,23.1-63,41.5-98.6,52
			c-0.2,0.1-0.6,0.1-0.9,0.1c0,0,0,0-0.1,0c1,19,8.9,90.3,8.8,138.9l70.7-64.1l0.7,436.3l-65.5-98l0.1,41l65.5,98
			c0.9,50.5,0.2,216.8,0,270l-65.5,98l-0.1,41l65.5-98l-0.8,453.6l-66.3-98.3c0.8,9.7,1,31.4,0.9,41.3l0,0
			c-4.2,44.3-7.5,83.7-12.3,121.6c-1.9,14,13.3,16.9,23.8,19.1c23.1,5.8,50,11.3,74,14.9v-0.3v0.2c12.2,1.9,24.1,3.4,35.6,4.7
			c10.5,1.2,20.6,2.1,30.5,2.8c0,0,638,44.5,1340.4,0v-2v2c9.8-0.7,20.1-1.7,30.5-2.8c11.5-1.3,23.4-2.8,35.6-4.7
			c24.2-3.6,50.7-9.1,74-14.9c11.6-1.8,25.5-7.1,23.5-21.4c-5.9-46.4-10.7-103.1-16.7-154.4l-61.4,91.9v-453.4l42.1,63
			c-0.2-13.6-0.4-27.4-0.5-41.5l-41.7-62.4c-0.2-54.1-0.9-218.6,0-270l51.2-76.7c0.7-14.7,1.3-29.3,2-43.8l-53.1,79.5l0.7-436.3
			L2000,1438.7z"/>
		<path d="M2606.5,451.1l-46,76.5c1.7,12,3.3,24,4.8,36.1l47.2-78.6c0-0.1,0-0.2,0-0.2c11.1,68.3,15.7,132.2,21.8,198.9
			c11.7,116,15.4,263.5-21.7,382.4c-3.9-13.8-29-106.8-33.3-117.7l-11.1,61.3l31.1,93.5l0,0c-32.3,82.8-100.8,146-175.7,191.1l0,0
			c-4.4,2.4-9,4.3-13.4,6.6c-0.2,0.1-0.4,0.1-0.6,0.2c0,0,0,0-0.1,0l0,0c2.4,29,6.1,78.1,10.2,141.1l1.6-1.8l70.7-64.1l0.7,436.3
			l-57.1-85.5c0.7,14.5,1.3,29,2,43.7l55.3,82.7c0.9,50.5,0.2,216.8,0,270l-46.1,69c-0.1,14.2-0.3,28.1-0.6,41.7l46.5-69.6
			l-0.8,453.6l-65.5-97.9c0,0.1,0,0.2,0,0.3v-0.3c-4.9,54.8-10.5,110.6-16.2,157.8c-2,14.2,11.9,19.6,23.5,21.4
			c23.1,6,50,11.3,74.1,15v-0.3c12.2,1.9,24,3.5,35.5,4.8v0.1c9.2,1.1,18,1.9,26.7,2.6v0.2c687.1,44.5,1344.3,0,1344.3,0
			c1.9-0.1,3.8-0.3,5.6-0.4h-0.3c45-3.6,92.7-11.5,136.6-22.4c20-3,27.2-11.2,22.8-31.4c-5-40.7-10.2-93.9-14.4-139.5l-59.8,89.4
			l-0.8-453.6l39.6,59.3c-0.2-13.6-0.4-27.4-0.5-41.5l-39.3-58.7c-0.2-54.1-0.9-218.6,0-270l48-71.9c0.6-14.7,1.3-29.2,1.9-43.7
			l-49.8,74.6l0.7-436.3l66,59.9c3.1-46.6,7.5-108.3,9.8-135c-0.3,0-0.6,0.1-0.8-0.1c-37.8-17.5-70.9-44.7-101.5-72.6
			c0,0,0-0.1-0.1-0.1c-0.2-0.2-0.3-0.3-0.3-0.3c-0.1,0-0.1-0.1-0.1-0.1c-38.3-34.9-68.2-76.1-87.5-124.6l31.6-93.2l-11.3-61.2l0,0
			l-33.6,117.3c-54.5-183.6-22.7-394.7,0-580.8l47.2,78.6c1.5-12,3.1-24.1,4.8-36.1l-46-76.5c0.1-0.5,0.2-1.1,0.3-1.6l0,0
			c8.6-46,19.4-94.8,32.7-139.7l0,0c0.2-0.1,0.3-0.2,0.5-0.3c-48.2-20.6-196.3-83.5-249-105.9c-26.7,22.9-60.4,37.6-93.6,49
			c-29.4,9.6-59.9,15.6-90.8,17.6c-25.6,1.2-51.3,1.8-77.1,2.6c-67.1,1.5-136.5,1.9-203.7,1.6c0.2,0.1,0.6,0.1,0.9,0.1
			c-0.1,0-0.3,0-0.4,0l-5.7-0.1c-63-0.4-126.4-1.5-189.2-4.1c-0.1,0-1.6-0.1-1.7-0.1c-10.1-0.6-19.8-1.8-29.8-3.2
			c-20.4-3.1-40.6-7.9-60.1-14.3c0,0,0,0-0.1,0c-33.6-11.1-66.7-26.1-94.2-48.7c-52.4,22.2-199.9,84.8-248.8,105.6
			c0.1,0,0.2,0.1,0.3,0.1c9.1,27.7,16.6,63,23.2,91.4l0,0c3.4,16.1,6.9,32.2,9.7,48.4l0,0C2606.3,450,2606.4,450.6,2606.5,451.1z"/>
	</g>
</g>
</svg>
