<?xml version="1.0" encoding="utf-8"?>
<!-- Generator: Adobe Illustrator 28.0.0, SVG Export Plug-In . SVG Version: 6.00 Build 0)  -->
<svg version="1.1" id="Layer_1" xmlns="http://www.w3.org/2000/svg" xmlns:xlink="http://www.w3.org/1999/xlink" x="0px" y="0px"
	 viewBox="0 0 4416.7 2291.9" style="enable-background:new 0 0 4416.7 2291.9;" xml:space="preserve">
<g id="Shorts">
	<g id="Color_3">
		<path style="fill:#C09C62;" d="M3260.1,1891.9l450.5-62.8l88.2-78.1l-539.3,75.2c0.2,11.1,0.4,22.3,0.4,33.3
			c0,6.4,0.4,12.5,0.3,18.9C3260.1,1882.6,3260.1,1887.2,3260.1,1891.9z"/>
		<path style="fill:#C09C62;" d="M3715.6,1865l-455.5,63.5c0.2,10.9,0.4,22,0.7,33.1l0,0c0.3,10.9,0.6,21.9,1,32.5l560-78.1
			L3715.6,1865z"/>
		<path style="fill:#C09C62;" d="M2755.4,1829.1l450.5,62.8c0-1.4,0-2.7,0-4.1c0-3.3,0-6.4-0.1-9.5c0-3.2,0-6.3,0.1-9.5
			c0.1-3.1,0.2-6.3,0.2-9.5c0-11,0.1-22.1,0.4-33.3l-539.3-75.2L2755.4,1829.1z"/>
		<path style="fill:#C09C62;" d="M2644.1,1916l560,78.1c0.1-2.6,0.2-5.2,0.3-7.8c0.3-8.1,0.5-16.4,0.7-24.7l0,0l0,0
			c0.1-2.8,0.1-5.5,0.2-8.2c0.2-8.4,0.4-16.7,0.5-24.9l-455.5-63.5L2644.1,1916z"/>
		<path style="fill:#C09C62;" d="M1210.7,1891.9l450.5-62.8l88.2-78.1l-539.3,75.2c0.2,11.1,0.4,22.3,0.4,33.3
			c0,6.4,0.4,12.5,0.3,18.9C1210.7,1882.6,1210.7,1887.2,1210.7,1891.9z"/>
		<path style="fill:#C09C62;" d="M1210.8,1928.6c0.2,10.9,0.4,22,0.7,33.1l0,0c0.3,10.9,0.6,21.9,1,32.5l560-78.1l-106.2-51
			L1210.8,1928.6z"/>
		<path style="fill:#C09C62;" d="M706,1829.1l450.5,62.8c0-4.7,0-9.3-0.1-13.6c-0.1-6.4,0.3-12.5,0.3-18.9c0-11,0.1-22.1,0.4-33.3
			l-539.3-75.2L706,1829.1z"/>
		<path style="fill:#C09C62;" d="M594.7,1916l560,78.1c0.4-10.6,0.7-21.5,1-32.5l0,0c0.3-11.1,0.6-22.3,0.7-33.1L700.9,1865
			L594.7,1916z"/>
	</g>
	<g id="Color_2_00000028300434553234088900000007114135570222050445_">
		<path style="fill:#F4F4F4;" d="M4206.4,1760c-1.4-22-2.9-43.8-4.5-65.2l0,0l-362.4,50.5l-88.2,78.1L4206.4,1760L4206.4,1760z"/>
		<path style="fill:#F4F4F4;" d="M4208.7,1796.3L4208.7,1796.3l-452.4,63.1l106.2,51l350-48.8l0,0
			C4211.3,1839.5,4210,1817.8,4208.7,1796.3z"/>
		<path style="fill:#F4F4F4;" d="M2264.1,1694.8c-1.5,21.4-3,43.2-4.5,65.2l455.1,63.4l-88.2-78.1L2264.1,1694.8z"/>
		<path style="fill:#F4F4F4;" d="M2253.5,1861.6L2253.5,1861.6l350,48.8l106.2-51l-452.4-63.1
			C2256.1,1817.8,2254.8,1839.5,2253.5,1861.6z"/>
		<path style="fill:#F4F4F4;" d="M2156.9,1760c-1.4-22-2.9-43.8-4.5-65.2l0,0l-362.4,50.5l-88.2,78.1L2156.9,1760L2156.9,1760z"/>
		<path style="fill:#F4F4F4;" d="M2159.2,1796.3l-452.4,63.1l106.2,51l350-48.8l0,0C2161.8,1839.5,2160.6,1817.8,2159.2,1796.3
			L2159.2,1796.3z"/>
		<path style="fill:#F4F4F4;" d="M214.7,1694.8c-1.5,21.4-3,43.2-4.5,65.2l455.1,63.4l-88.2-78.1L214.7,1694.8z"/>
		<path style="fill:#F4F4F4;" d="M204.1,1861.6l350,48.8l106.2-51l-452.4-63.1C206.6,1817.8,205.4,1839.5,204.1,1861.6z"/>
	</g>
	<g id="Color_1_00000147189378584801569350000017243198615154448552_">
		<path d="M3204.4,1986.4c0.3-8.1,0.5-16.4,0.7-24.7l0,0C3204.9,1970,3204.6,1978.2,3204.4,1986.4z"/>
		<path d="M2793.3,204.7c-12.5-0.3-25.6-0.3-38.2-0.6c-20.1-0.3-40.3-0.7-60.6-1.1c-58.9,1.7-123.7-9-182.1-1.7
			c-5.3,13.1-8.4,48.5-9.6,69.3c-1.1,22.1-0.7,49.8,1.1,72.7c-0.1,0.1-8,17.9-20.6,53.4c-40.4,115-74.3,252.5-99.7,375.6
			c-60.9,307.9-89.4,530-119.6,922.4l362.4,50.5l88.2,78.1l-455.1-63.4c-0.8,12-1.6,24.1-2.3,36.3l452.4,63.1l-106.2,51l-350-48.8
			c-2.2,39-4.2,78.8-6,119.5c28.3,12.5,735.9,126,952.3,112.5c2.2-35.6,3.3-71.4,4.6-107.3c-0.1,2.6-0.2,5.2-0.3,7.8l-560-78.1
			l106.2-51l455.5,63.5c0.2-10.2,0.2-20.6,0.3-30.6l-1.1-0.4l0.9,0.3c0-2,0-4,0-5.9l-450.5-62.8l-88.2-78.1l539.3,75.2
			c1.4-76.7,4.3-153.6,8.7-230.2c2.2-39.4,5.6-77.2,10-116.8c1.1-5,0.7-11.2,8.1-11.5c3.3,0,6.3,1.5,7.3,4.4
			c10.8,70.7,10.8,143,15.1,214.3c5.5,107.3,3.4,319.9,7.8,407.3c212.5,11.3,853.9-86.7,955.1-112.6c-1.8-40.8-3.9-80.6-6-119.6
			l-350,48.8l-106.2-51l452.4-63.1c-0.8-12.2-1.5-24.3-2.3-36.3l-455.1,63.4l88.2-78.1l362.4-50.5
			c-48.8-601.8-94.9-854.3-185.6-1193.1c-9.9-34.1-20.5-68.1-31.8-100.6c-6.5-18.7-14.8-41.1-22.1-57.6c3.4-44.6,1.9-98.9-6.9-137.8
			c-0.9-4.4-5-7.7-9.6-7.4c-29.2,0.9-58.4,1.8-87.4,2.6c-61.9,1.6-123.8,3.1-185.6,4v-0.1C3379.4,208.3,3086.4,207.9,2793.3,204.7z
			 M3259.6,1826.1l539.3-75.2l-88.2,78.1l-450.5,62.8C3260.4,1869.6,3259.9,1848.4,3259.6,1826.1z M3260.9,1961.7L3260.9,1961.7
			c-0.3-11.1-0.6-22.3-0.7-33.1l455.5-63.5l106.2,51l-560,78.1C3261.6,1983.5,3261.2,1972.6,3260.9,1961.7z"/>
		<path d="M743.9,204.7c-12.3-0.2-25.8-0.4-38.2-0.6l0,0c-20.1-0.3-40.3-0.7-60.6-1.1l0,0c-57.7-1.2-116.6-2.9-175.9-4.8
			c-3.6-0.1-6.7,2.3-7.5,5.8c-3.7,16-12.6,63.8-7.2,139.4c0,0-169.7,373.1-239.7,1351.4l362.4,50.5l88.2,78.1L210.3,1760
			c-0.8,12-1.6,24.1-2.3,36.3l452.4,63.1l-106.2,51l-350-48.8c-2.2,39-4.2,78.8-6,119.5c0,0,566.1,114.1,952.3,112.4
			c0,0,2.4-45.7,4.3-99.3l-560-78.1l106.2-51l455.5,63.5c0.2-10.6,0.3-20.9,0.3-30.7l-1.1-0.4l0.9,0.3c0-2,0-4,0-5.9l-450.5-62.8
			l-88.2-78.1l539.3,75.2c0.1-6.2,0.2-12.4,0.4-18.6c0.7-34.3,1.8-68.6,3.1-103c1.4-36.2,3-72.4,5.2-108.6c1.8-29.2,3.7-58.4,7-87.5
			c1-8.5,1.9-24.3,3.6-32.8c0.7-3.7,1.7-8,7.5-8c3.4,0,6.5,1.7,7.3,4.4c2.2,7.4,2.5,17.3,3.5,25c3.6,27,4.4,55.5,6.1,82.6
			c2.3,35.5,4,71.1,5.5,106.7c1.4,35.1,2.6,70.3,3.4,105.5c0.5,22.4,0.7,45.1,0.8,67.5c0,3.5,0,7,0,10.6c0,2.9,0,5.7-0.1,8.5
			c-0.1,6.2,0.1,12.4,0,19.2c-0.1,19.8,0.2,42.1,0.6,64.2c1,66.2,3.2,131.8,3.2,131.8c386.3,1.7,955-112.4,955-112.4
			c-2-40.9-4.1-80.7-6.2-119.7l-350,48.8l-106.2-51l452.4-63.1c-0.8-12.2-1.5-24.3-2.3-36.3l-455.1,63.4l88.2-78.1l362.4-50.5
			c-70.1-978.3-239.7-1351.4-239.7-1351.4c5.2-73.1-2.9-120.2-6.8-137.7c-1-4.5-5.1-7.6-9.6-7.4c-58.5,1.9-116.5,3.4-174.1,4.6
			c-20.7,0.4-41.4,1-62,1.3c-12.4,0.2-24.7,0.4-37,0.6v-0.1c-149.2,2.2-296.7,2.4-446.1,2.4c-145.6,0-288-0.4-433.1-2.5L743.9,204.7
			z M1210.5,1859.4c0-11-0.1-22.1-0.4-33.3l539.3-75.2l-88.2,78.1l-450.5,62.8c0-4.7,0-9.3,0.1-13.6
			C1210.9,1871.9,1210.5,1865.8,1210.5,1859.4z M1212.5,1994.2c-0.4-10.6-0.7-21.5-1-32.5l0,0c-0.3-11.1-0.6-22.3-0.7-33.1
			l455.5-63.5l106.2,51L1212.5,1994.2z"/>
	</g>
</g>
</svg>
